<svg width="1920" height="1080" viewBox="0 0 1920 1080" fill="none" xmlns="http://www.w3.org/2000/svg">
<g clip-path="url(#clip0_1_2)">
<rect width="1920" height="1080" fill="#1D2844"/>
<path d="M1830.01 -125H-89.986V955H1830.01V-125Z" fill="#1D2844"/>
<path fill-rule="evenodd" clip-rule="evenodd" d="M860.349 925.05L859.065 927.93L857.72 930.79L856.317 933.62L854.857 936.43L853.341 939.2L851.773 941.94L850.154 944.65L848.485 947.33L846.769 949.98L845.008 952.6L843.204 955.18L841.357 957.74L839.471 960.26L837.547 962.74L835.586 965.19L833.591 967.61L831.562 970L829.503 972.35L827.413 974.67L825.295 976.96L823.149 979.21L820.978 981.43L818.783 983.61L816.565 985.76L814.326 987.88L812.066 989.97L809.787 992.03L807.491 994.05L805.178 996.04L802.849 998L800.507 999.93L798.152 1001.82L795.786 1003.69L793.41 1005.53L791.026 1007.34L788.635 1009.12L786.238 1010.88L783.837 1012.61L781.433 1014.31L779.03 1015.99L776.627 1017.65L774.227 1019.28L771.83 1020.9L769.44 1022.49L767.055 1024.07L764.679 1025.64L762.31 1027.18L759.95 1028.72L757.6 1030.24L755.26 1031.75L752.93 1033.25L750.611 1034.74L748.302 1036.23L746.003 1037.71L743.715 1039.18L741.436 1040.65L739.166 1042.11L736.904 1043.58L734.65 1045.04L732.404 1046.5L730.163 1047.96L727.927 1049.42L725.695 1050.88L723.465 1052.35L721.237 1053.81L719.009 1055.28L716.779 1056.74L714.547 1058.21L712.31 1059.68L710.067 1061.15L707.817 1062.63L705.558 1064.1L703.289 1065.57L701.007 1067.04L698.712 1068.51L696.401 1069.98L694.074 1071.45L691.728 1072.91L689.363 1074.36L686.977 1075.81L684.567 1077.24L682.133 1078.67L679.673 1080.08L677.186 1081.48L674.671 1082.86L672.125 1084.22L669.549 1085.55L666.941 1086.86L664.301 1088.14L661.628 1089.39L658.921 1090.61L656.181 1091.78L653.408 1092.92L650.601 1094.01L647.762 1095.05L644.89 1096.05L641.987 1096.99L639.054 1097.88L636.092 1098.7L633.102 1099.47L630.086 1100.18L627.047 1100.82L623.985 1101.39L620.904 1101.9L617.805 1102.33L614.691 1102.69L611.564 1102.98L608.428 1103.19L605.284 1103.33L602.136 1103.39L598.987 1103.37L595.839 1103.28L592.696 1103.12L589.56 1102.88L586.433 1102.56L583.32 1102.17L580.222 1101.71L577.142 1101.18L574.083 1100.58L571.047 1099.92L568.035 1099.19L565.051 1098.4L562.096 1097.55L559.172 1096.65L556.279 1095.69L553.42 1094.69L550.596 1093.64L547.806 1092.54L545.052 1091.41L542.334 1090.24L539.651 1089.04L537.004 1087.81L534.393 1086.56L531.816 1085.28L529.272 1083.99L526.761 1082.69L524.281 1081.37L521.83 1080.05L519.407 1078.73L517.009 1077.4L514.634 1076.08L512.28 1074.76L509.945 1073.45L507.626 1072.16L505.32 1070.87L503.024 1069.6L500.735 1068.35L498.452 1067.12L496.169 1065.9L493.886 1064.71L491.598 1063.54L489.304 1062.39L487 1061.27L484.683 1060.17L482.351 1059.09L480.002 1058.03L477.634 1056.99L475.246 1055.97L472.835 1054.97L470.401 1053.99L467.944 1053.02L465.462 1052.06L462.955 1051.11L460.425 1050.16L457.872 1049.22L455.296 1048.28L452.7 1047.34L450.084 1046.38L447.452 1045.42L444.804 1044.45L442.145 1043.46L439.476 1042.45L436.801 1041.41L434.123 1040.35L431.447 1039.27L428.775 1038.15L426.111 1037L423.46 1035.81L420.826 1034.59L418.213 1033.33L415.624 1032.02L413.064 1030.67L410.538 1029.28L408.048 1027.85L405.6 1026.36L403.196 1024.84L400.839 1023.26L398.534 1021.64L396.283 1019.97L394.089 1018.26L391.953 1016.51L389.878 1014.71L387.866 1012.87L385.917 1010.99L384.033 1009.07L382.213 1007.11L380.459 1005.12L378.77 1003.09L377.147 1001.03L375.588 998.94L374.094 996.82L372.663 994.68L371.294 992.51L369.986 990.32L368.738 988.1L367.548 985.87L366.414 983.61L365.334 981.34L364.306 979.06L363.327 976.76L362.396 974.45L361.51 972.13L360.666 969.79L359.862 967.45L359.095 965.1L358.363 962.74L357.663 960.38L356.993 958.01L356.35 955.63L355.732 953.24L355.136 950.85L354.561 948.46L354.004 946.05L353.463 943.64L352.936 941.23L352.423 938.81L351.921 936.38L351.429 933.94L350.946 931.5L350.471 929.04L350.004 926.58L349.544 924.11L349.091 921.62L348.644 919.13L348.204 916.62L347.771 914.1L347.346 911.56L346.929 909.01L346.521 906.44L346.123 903.86L345.736 901.27L345.362 898.65L345.003 896.02L344.659 893.37L344.333 890.7L344.028 888.02L343.744 885.31L343.484 882.59L343.25 879.85L343.045 877.09L342.871 874.307L342.73 871.51L342.626 868.696L342.559 865.865L342.533 863.017L342.55 860.153L342.613 857.274L342.723 854.38L342.883 851.474L343.094 848.554L343.36 845.623L343.682 842.681L344.061 839.73L344.5 836.771L344.999 833.804L345.562 830.832L346.187 827.855L346.878 824.874L347.635 821.891L348.458 818.906L349.349 815.922L350.308 812.939L351.336 809.959L352.434 806.982L353.601 804.01L354.837 801.044L356.144 798.084L357.52 795.133L358.967 792.192L360.484 789.26L362.07 786.34L363.725 783.432L365.45 780.537L367.244 777.656L369.106 774.79L371.036 771.94L373.033 769.107L375.098 766.292L377.229 763.494L379.426 760.716L381.688 757.959L384.016 755.221L386.407 752.506L388.863 749.813L391.383 747.144L393.965 744.498L396.609 741.878L399.316 739.283L402.084 736.716L404.913 734.176L407.803 731.665L410.753 729.183L413.762 726.733L416.831 724.315L419.959 721.93L423.146 719.58L426.39 717.266L429.693 714.988L433.052 712.749L436.467 710.55L439.939 708.392L443.465 706.276L447.045 704.203L450.679 702.174L454.365 700.191L458.103 698.255L461.891 696.367L465.728 694.528L469.614 692.739L473.547 691.001L477.526 689.316L481.55 687.685L485.617 686.108L489.727 684.587L493.878 683.124L498.068 681.718L502.297 680.371L506.562 679.085L510.863 677.859L515.197 676.697L519.562 675.597L523.959 674.561L528.383 673.591L532.835 672.687L537.311 671.849L541.811 671.079L546.331 670.377L550.871 669.744L555.429 669.18L560.001 668.686L564.587 668.263L569.184 667.91L573.79 667.628L578.404 667.418L583.022 667.279L587.644 667.211L592.266 667.214L596.887 667.289L601.505 667.435L606.117 667.651L610.723 667.938L615.319 668.294L619.903 668.72L624.475 669.214L629.031 669.776L633.571 670.404L638.092 671.098L642.593 671.858L647.073 672.68L651.529 673.566L655.961 674.512L660.366 675.519L664.744 676.584L669.094 677.706L673.414 678.885L677.704 680.117L681.962 681.403L686.188 682.741L690.381 684.129L694.54 685.565L698.665 687.049L702.755 688.58L706.809 690.154L710.827 691.773L714.809 693.433L718.754 695.135L722.662 696.877L726.533 698.657L730.366 700.476L734.161 702.331L737.917 704.223L741.634 706.151L745.313 708.114L748.951 710.11L752.55 712.141L756.108 714.205L759.626 716.302L763.103 718.43L766.538 720.589L769.933 722.78L773.285 725L776.596 727.249L779.865 729.527L783.091 731.833L786.276 734.167L789.417 736.528L792.515 738.916L795.57 741.331L798.581 743.772L801.548 746.238L804.469 748.731L807.345 751.249L810.174 753.793L812.956 756.362L815.689 758.956L818.373 761.576L821.006 764.221L823.588 766.891L826.117 769.587L828.591 772.308L831.01 775.054L833.371 777.825L835.673 780.621L837.915 783.442L840.095 786.288L842.212 789.157L844.263 792.051L846.248 794.968L848.165 797.907L850.013 800.869L851.79 803.853L853.496 806.857L855.129 809.881L856.688 812.924L858.173 815.985L859.583 819.063L860.917 822.156L862.175 825.264L863.355 828.386L864.457 831.52L865.48 834.665L866.424 837.821L867.287 840.986L868.07 844.159L868.772 847.338L869.393 850.522L869.932 853.711L870.389 856.902L870.763 860.094L871.055 863.287L871.265 866.478L871.393 869.667L871.438 872.851L871.402 876.03L871.285 879.2L871.087 882.37L870.809 885.52L870.451 888.66L870.015 891.79L869.501 894.91L868.91 898.01L868.243 901.1L867.502 904.17L866.688 907.21L865.803 910.24L864.847 913.25L863.822 916.24L862.729 919.2L861.571 922.14L860.349 925.05Z" fill="url(#paint0_linear_1_2)"/>
<path fill-rule="evenodd" clip-rule="evenodd" d="M184.439 264.697L185.226 263.847L186.031 263.01L186.855 262.185L187.698 261.374L188.558 260.576L189.436 259.792L190.331 259.022L191.242 258.267L192.168 257.526L193.111 256.8L194.067 256.088L195.039 255.391L196.024 254.708L197.022 254.04L198.033 253.387L199.056 252.749L200.091 252.124L201.138 251.514L202.196 250.918L203.264 250.336L204.342 249.768L205.431 249.213L206.529 248.671L207.636 248.143L208.752 247.628L209.877 247.125L211.011 246.635L212.153 246.158L213.303 245.693L214.461 245.24L215.627 244.799L216.801 244.37L217.983 243.953L219.172 243.549L220.368 243.156L221.572 242.776L222.782 242.408L224.001 242.053L225.226 241.71L226.458 241.38L227.696 241.064L228.942 240.761L230.193 240.473L231.451 240.199L232.716 239.94L233.985 239.697L235.261 239.469L236.542 239.258L237.827 239.064L239.118 238.888L240.412 238.73L241.71 238.59L243.012 238.469L244.316 238.369L245.623 238.288L246.932 238.228L248.242 238.19L249.553 238.174L250.864 238.18L252.174 238.209L253.484 238.262L254.791 238.339L256.096 238.44L257.397 238.566L258.694 238.718L259.987 238.895L261.273 239.098L262.553 239.328L263.826 239.585L265.09 239.868L266.346 240.179L267.591 240.518L268.825 240.885L270.048 241.279L271.257 241.702L272.453 242.153L273.635 242.632L274.8 243.14L275.949 243.676L277.081 244.241L278.194 244.834L279.288 245.455L280.361 246.104L281.413 246.781L282.444 247.485L283.452 248.216L284.435 248.974L285.395 249.759L286.33 250.569L287.238 251.405L288.12 252.265L288.975 253.15L289.802 254.058L290.6 254.989L291.37 255.943L292.111 256.918L292.821 257.914L293.501 258.93L294.151 259.965L294.77 261.018L295.358 262.089L295.915 263.176L296.44 264.279L296.933 265.397L297.395 266.529L297.825 267.674L298.224 268.83L298.591 269.998L298.926 271.177L299.23 272.364L299.503 273.56L299.745 274.763L299.956 275.973L300.137 277.189L300.288 278.409L300.409 279.633L300.501 280.86L300.564 282.089L300.598 283.32L300.605 284.551L300.585 285.782L300.538 287.011L300.465 288.239L300.366 289.464L300.243 290.686L300.096 291.904L299.926 293.117L299.733 294.325L299.519 295.527L299.283 296.723L299.027 297.912L298.752 299.094L298.458 300.268L298.146 301.433L297.817 302.59L297.472 303.738L297.111 304.877L296.736 306.006L296.346 307.125L295.943 308.235L295.527 309.334L295.099 310.423L294.659 311.501L294.208 312.57L293.746 313.627L293.274 314.674L292.792 315.71L292.301 316.736L291.801 317.751L291.292 318.755L290.774 319.749L290.248 320.732L289.713 321.705L289.171 322.667L288.621 323.618L288.063 324.559L287.498 325.489L286.925 326.408L286.344 327.318L285.756 328.216L285.161 329.104L284.559 329.981L283.949 330.848L283.331 331.704L282.707 332.549L282.075 333.383L281.435 334.207L280.789 335.02L280.135 335.821L279.474 336.612L278.805 337.391L278.13 338.159L277.447 338.915L276.757 339.66L276.06 340.393L275.356 341.114L274.646 341.824L273.928 342.521L273.205 343.207L272.474 343.88L271.738 344.54L270.996 345.189L270.249 345.825L269.496 346.448L268.738 347.059L267.975 347.657L267.207 348.243L266.435 348.816L265.659 349.377L264.879 349.925L264.096 350.46L263.309 350.982L262.52 351.492L261.727 351.989L260.932 352.474L260.135 352.946L259.335 353.405L258.534 353.852L257.732 354.287L256.928 354.709L256.123 355.118L255.317 355.516L254.51 355.901L253.704 356.274L252.897 356.635L252.09 356.984L251.284 357.321L250.478 357.646L249.673 357.96L248.869 358.263L248.066 358.554L247.264 358.834L246.464 359.103L245.666 359.361L244.87 359.608L244.075 359.845L243.283 360.072L242.494 360.288L241.706 360.494L240.922 360.69L240.14 360.877L239.361 361.054L238.585 361.222L237.812 361.381L237.043 361.531L236.276 361.673L235.513 361.806L234.754 361.931L233.997 362.047L233.245 362.156L232.496 362.258L231.75 362.352L231.008 362.439L230.269 362.52L229.534 362.593L228.803 362.66L228.075 362.721L227.35 362.775L226.629 362.824L225.912 362.867L225.197 362.904L224.486 362.935L223.778 362.961L223.073 362.982L222.371 362.997L221.672 363.007L220.976 363.012H220.282L219.592 363.006L218.904 362.995L218.218 362.978L217.535 362.956L216.855 362.927L216.177 362.893L215.502 362.853L214.829 362.807L214.158 362.754L213.491 362.694L212.826 362.628L212.163 362.555L211.503 362.474L210.846 362.386L210.192 362.29L209.541 362.186L208.894 362.075L208.249 361.955L207.608 361.828L206.97 361.692L206.337 361.548L205.706 361.395L205.08 361.234L204.458 361.064L203.841 360.885L203.227 360.698L202.618 360.502L202.014 360.297L201.415 360.084L200.821 359.863L200.231 359.632L199.647 359.394L199.068 359.147L198.494 358.891L197.926 358.628L197.364 358.356L196.807 358.076L196.255 357.789L195.71 357.493L195.17 357.19L194.637 356.879L194.109 356.561L193.588 356.235L193.072 355.902L192.563 355.562L192.059 355.215L191.562 354.862L191.071 354.502L190.586 354.135L190.106 353.762L189.633 353.383L189.165 352.998L188.704 352.608L188.248 352.211L187.797 351.81L187.352 351.403L186.912 350.991L186.478 350.575L186.048 350.153L185.624 349.727L185.204 349.296L184.789 348.861L184.378 348.421L183.971 347.978L183.569 347.53L183.171 347.078L182.776 346.622L182.385 346.162L181.999 345.698L181.615 345.229L181.235 344.757L180.859 344.281L180.486 343.8L180.117 343.315L179.751 342.825L179.389 342.332L179.031 341.833L178.676 341.33L178.325 340.822L177.978 340.309L177.635 339.79L177.297 339.267L176.963 338.738L176.633 338.204L176.308 337.664L175.988 337.119L175.673 336.568L175.363 336.011L175.059 335.449L174.76 334.88L174.467 334.305L174.18 333.724L173.899 333.138L173.625 332.544L173.357 331.945L173.095 331.339L172.84 330.728L172.593 330.109L172.352 329.485L172.119 328.854L171.894 328.217L171.676 327.573L171.466 326.924L171.263 326.268L171.069 325.605L170.883 324.937L170.704 324.262L170.534 323.581L170.372 322.894L170.219 322.2L170.073 321.501L169.936 320.795L169.807 320.084L169.686 319.366L169.573 318.642L169.469 317.912L169.372 317.176L169.284 316.434L169.204 315.685L169.132 314.931L169.068 314.17L169.012 313.403L168.964 312.629L168.925 311.849L168.893 311.062L168.869 310.269L168.854 309.47L168.847 308.663L168.848 307.85L168.857 307.03L168.876 306.203L168.903 305.369L168.939 304.528L168.984 303.68L169.039 302.824L169.103 301.962L169.178 301.092L169.263 300.215L169.358 299.332L169.465 298.441L169.583 297.543L169.713 296.638L169.856 295.727L170.012 294.809L170.181 293.885L170.364 292.955L170.561 292.019L170.774 291.077L171.002 290.131L171.246 289.18L171.507 288.225L171.785 287.266L172.081 286.304L172.394 285.339L172.727 284.372L173.078 283.403L173.448 282.433L173.839 281.463L174.249 280.493L174.68 279.524L175.131 278.556L175.603 277.591L176.096 276.628L176.61 275.669L177.146 274.715L177.703 273.765L178.282 272.821L178.882 271.884L179.503 270.953L180.145 270.031L180.809 269.117L181.494 268.212L182.2 267.317L182.926 266.432L183.673 265.559L184.439 264.697Z" fill="url(#paint1_linear_1_2)"/>
<path fill-rule="evenodd" clip-rule="evenodd" d="M-406.91 667.267L-403.718 663.491L-400.333 659.867L-396.771 656.391L-393.051 653.057L-389.193 649.859L-385.213 646.787L-381.131 643.834L-376.965 640.989L-372.732 638.241L-368.447 635.58L-364.127 632.994L-359.786 630.473L-355.436 628.004L-351.089 625.578L-346.756 623.185L-342.443 620.813L-338.158 618.456L-333.906 616.106L-329.69 613.755L-325.512 611.399L-321.373 609.034L-317.271 606.658L-313.206 604.268L-309.177 601.859L-305.187 599.427L-301.237 596.964L-297.332 594.46L-293.473 591.905L-289.665 589.292L-285.908 586.609L-282.206 583.846L-278.558 580.995L-274.965 578.047L-271.426 574.993L-267.939 571.827L-264.502 568.542L-261.111 565.134L-257.761 561.599L-254.448 557.935L-251.164 554.14L-247.904 550.215L-244.661 546.162L-241.425 541.984L-238.19 537.686L-234.946 533.273L-231.685 528.753L-228.398 524.135L-225.077 519.427L-221.712 514.64L-218.296 509.786L-214.82 504.879L-211.277 499.929L-207.658 494.953L-203.958 489.965L-200.17 484.979L-196.288 480.011L-192.307 475.077L-188.223 470.192L-184.034 465.374L-179.734 460.637L-175.323 455.997L-170.8 451.47L-166.164 447.072L-161.415 442.816L-156.554 438.717L-151.584 434.79L-146.505 431.046L-141.323 427.499L-136.04 424.161L-130.661 421.042L-125.191 418.152L-119.635 415.501L-114 413.097L-108.292 410.948L-102.517 409.06L-96.6838 407.44L-90.7989 406.091L-84.8703 405.019L-78.9061 404.226L-72.9142 403.715L-66.903 403.486L-60.8808 403.541L-54.856 403.88L-48.8369 404.502L-42.832 405.404L-36.8494 406.587L-30.8973 408.046L-24.9839 409.778L-19.1169 411.78L-13.3043 414.047L-7.55341 416.576L-1.87189 419.36L3.73322 422.396L9.255 425.676L14.687 429.196L20.021 432.95L25.253 436.93L30.376 441.131L35.385 445.547L40.272 450.169L45.035 454.991L49.667 460.006L54.163 465.206L58.521 470.583L62.735 476.127L66.802 481.831L70.72 487.684L74.486 493.676L78.098 499.794L81.556 506.028L84.86 512.362L88.011 518.782L91.012 525.27L93.866 531.808L96.579 538.376L99.158 544.952L101.609 551.519L103.939 558.059L106.157 564.554L108.272 570.989L110.291 577.349L112.223 583.622L114.078 589.795L115.864 595.857L117.591 601.8L119.267 607.615L120.901 613.295L122.502 618.834L124.078 624.228L125.638 629.474L127.188 634.57L128.736 639.514L130.289 644.306L131.853 648.947L133.435 653.44L135.038 657.786L136.668 661.989L138.329 666.054L140.024 669.985L141.757 673.787L143.528 677.467L145.341 681.031L147.196 684.486L149.094 687.838L151.035 691.094L153.017 694.263L155.041 697.351L157.105 700.366L159.207 703.315L161.346 706.205L163.518 709.043L165.722 711.836L167.955 714.59L170.214 717.311L172.497 720.004L174.802 722.676L177.126 725.329L179.467 727.969L181.823 730.598L184.194 733.221L186.577 735.839L188.974 738.455L191.384 741.07L193.808 743.685L196.248 746.301L198.705 748.917L201.184 751.534L203.687 754.151L206.221 756.767L208.789 759.381L211.398 761.992L214.055 764.598L216.767 767.198L219.544 769.791L222.393 772.375L225.324 774.95L228.347 777.514L231.471 780.068L234.707 782.611L238.065 785.144L241.556 787.668L245.188 790.184L248.972 792.695L252.917 795.204L257.03 797.714L261.319 800.23L265.789 802.756L270.446 805.298L275.293 807.863L280.331 810.457L285.56 813.087L290.978 815.763L296.581 818.491L302.362 821.282L308.312 824.143L314.421 827.084L320.675 830.114L327.058 833.242L333.552 836.476L340.137 839.824L346.79 843.295L353.487 846.895L360.204 850.63L366.914 854.504L373.596 858.521L380.226 862.684L386.784 866.993L393.251 871.448L399.608 876.05L405.838 880.79L411.924 885.68L417.851 890.71L423.605 895.87L429.174 901.15L434.545 906.57L439.706 912.1L444.649 917.75L449.363 923.5L453.842 929.36L458.076 935.31L462.062 941.34L465.793 947.46L469.264 953.65L472.474 959.9L475.418 966.21L478.097 972.56L480.508 978.96L482.652 985.4L484.531 991.86L486.145 998.34L487.498 1004.83L488.592 1011.33L489.432 1017.84L490.022 1024.33L490.366 1030.81L490.47 1037.28L490.341 1043.72L489.984 1050.13L489.406 1056.52L488.613 1062.86L487.612 1069.16L486.41 1075.42L485.015 1081.64L483.432 1087.8L481.668 1093.91L479.729 1099.96L477.622 1105.95L475.352 1111.88L472.924 1117.74L470.343 1123.54L467.612 1129.27L464.736 1134.92L461.717 1140.5L458.558 1146.01L455.26 1151.43L451.824 1156.76L448.25 1162.01L444.538 1167.16L440.688 1172.21L436.698 1177.16L432.565 1182L428.288 1186.72L423.864 1191.32L419.289 1195.79L414.561 1200.13L409.677 1204.31L404.632 1208.34L399.425 1212.21L394.051 1215.9L388.509 1219.42L382.796 1222.73L376.911 1225.85L370.854 1228.76L364.624 1231.45L358.223 1233.9L351.652 1236.13L344.916 1238.1L338.018 1239.83L330.965 1241.3L323.764 1242.5L316.424 1243.45L308.954 1244.13L301.366 1244.54L293.673 1244.68L285.889 1244.57L278.031 1244.2L270.114 1243.59L262.156 1242.74L254.177 1241.66L246.195 1240.38L238.231 1238.9L230.305 1237.25L222.436 1235.44L214.643 1233.49L206.939 1231.42L199.337 1229.25L191.848 1226.99L184.479 1224.65L177.238 1222.24L170.129 1219.78L163.157 1217.28L156.326 1214.74L149.637 1212.17L143.094 1209.58L136.696 1206.98L130.446 1204.38L124.344 1201.78L118.39 1199.2L112.584 1196.64L106.926 1194.1L101.416 1191.61L96.052 1189.16L90.834 1186.76L85.762 1184.42L80.832 1182.16L76.044 1179.98L71.397 1177.88L66.887 1175.89L62.513 1174L58.272 1172.22L54.16 1170.57L50.174 1169.06L46.311 1167.69L42.566 1166.47L38.934 1165.41L35.41 1164.52L31.99 1163.8L28.667 1163.27L25.434 1162.92L22.286 1162.77L19.216 1162.82L16.215 1163.08L13.276 1163.54L10.392 1164.21L7.55389 1165.09L4.75378 1166.19L1.98291 1167.49L-0.767273 1169.01L-3.50568 1170.74L-6.241 1172.68L-8.98178 1174.81L-11.7369 1177.14L-14.5147 1179.67L-17.3235 1182.37L-20.1712 1185.25L-23.0657 1188.29L-26.0144 1191.49L-29.024 1194.83L-32.1013 1198.31L-35.2523 1201.9L-38.4824 1205.6L-41.7967 1209.4L-45.1996 1213.28L-48.6949 1217.23L-52.2858 1221.23L-55.9751 1225.26L-59.7647 1229.33L-63.6561 1233.41L-67.6504 1237.49L-71.7477 1241.55L-75.9482 1245.59L-80.251 1249.59L-84.6553 1253.54L-89.1597 1257.44L-93.7626 1261.26L-98.4619 1265.02L-103.256 1268.68L-108.141 1272.26L-113.117 1275.75L-118.179 1279.13L-123.326 1282.41L-128.556 1285.59L-133.866 1288.65L-139.253 1291.61L-144.715 1294.45L-150.25 1297.18L-155.855 1299.79L-161.528 1302.29L-167.266 1304.67L-173.065 1306.92L-178.922 1309.05L-184.83 1311.03L-190.784 1312.87L-196.777 1314.56L-202.8 1316.07L-208.844 1317.4L-214.9 1318.54L-220.959 1319.48L-227.014 1320.21L-233.057 1320.73L-239.08 1321.04L-245.076 1321.14L-251.041 1321.03L-256.969 1320.71L-262.855 1320.18L-268.697 1319.46L-274.493 1318.54L-280.24 1317.44L-285.938 1316.17L-291.588 1314.74L-297.19 1313.15L-302.747 1311.42L-308.26 1309.55L-313.734 1307.56L-319.171 1305.46L-324.575 1303.25L-329.951 1300.96L-335.303 1298.58L-340.636 1296.12L-345.953 1293.59L-351.259 1291L-356.559 1288.36L-361.855 1285.66L-367.15 1282.91L-372.448 1280.12L-377.749 1277.28L-383.055 1274.39L-388.366 1271.46L-393.68 1268.49L-398.997 1265.46L-404.313 1262.38L-409.625 1259.24L-414.928 1256.04L-420.216 1252.78L-425.482 1249.44L-430.718 1246.03L-435.915 1242.53L-441.065 1238.94L-446.155 1235.25L-451.176 1231.47L-456.114 1227.57L-460.958 1223.56L-465.694 1219.43L-470.309 1215.18L-474.788 1210.8L-479.119 1206.29L-483.288 1201.64L-487.279 1196.86L-491.081 1191.94L-494.678 1186.89L-498.059 1181.69L-501.211 1176.37L-504.122 1170.9L-506.782 1165.31L-509.178 1159.6L-511.304 1153.76L-513.149 1147.8L-514.707 1141.74L-515.971 1135.58L-516.935 1129.32L-517.597 1122.97L-517.953 1116.55L-518 1110.06L-517.739 1103.52L-517.17 1096.92L-516.294 1090.29L-515.115 1083.63L-513.636 1076.96L-511.862 1070.28L-509.799 1063.61L-507.453 1056.95L-504.833 1050.31L-501.947 1043.71L-498.805 1037.16L-495.418 1030.66L-491.796 1024.23L-487.951 1017.87L-483.898 1011.59L-479.65 1005.4L-475.224 999.31L-470.634 993.32L-465.899 987.44L-461.039 981.68L-456.075 976.04L-451.028 970.53L-445.924 965.15L-440.789 959.9L-435.649 954.79L-430.532 949.81L-425.466 944.97L-420.48 940.27L-415.602 935.69L-410.859 931.24L-406.278 926.91L-401.885 922.7L-397.706 918.6L-393.763 914.59L-390.077 910.67L-386.669 906.83L-383.556 903.06L-380.753 899.34L-378.274 895.67L-376.128 892.03L-374.323 888.4L-372.865 884.78L-371.755 881.14L-370.994 877.49L-370.579 873.793L-370.503 870.053L-370.758 866.254L-371.334 862.384L-372.217 858.433L-373.391 854.393L-374.838 850.256L-376.538 846.014L-378.469 841.663L-380.606 837.199L-382.926 832.617L-385.401 827.918L-388.004 823.101L-390.707 818.168L-393.48 813.122L-396.294 807.967L-399.119 802.71L-401.927 797.357L-404.688 791.917L-407.374 786.399L-409.958 780.815L-412.413 775.175L-414.715 769.493L-416.838 763.782L-418.762 758.055L-420.466 752.326L-421.933 746.611L-423.145 740.923L-424.09 735.277L-424.755 729.687L-425.131 724.167L-425.212 718.731L-424.992 713.39L-424.47 708.157L-423.646 703.042L-422.522 698.056L-421.104 693.205L-419.397 688.498L-417.411 683.941L-415.156 679.537L-412.645 675.289L-409.891 671.2L-406.91 667.267Z" fill="url(#paint2_linear_1_2)"/>
<path fill-rule="evenodd" clip-rule="evenodd" d="M1401.31 774.892L1404.5 771.385L1407.6 767.912L1410.62 764.471L1413.55 761.056L1416.39 757.662L1419.15 754.285L1421.81 750.921L1424.38 747.565L1426.87 744.212L1429.26 740.858L1431.57 737.499L1433.8 734.131L1435.94 730.749L1437.99 727.35L1439.97 723.929L1441.86 720.482L1443.68 717.006L1445.42 713.497L1447.08 709.95L1448.68 706.364L1450.2 702.734L1451.66 699.058L1453.06 695.331L1454.39 691.553L1455.67 687.719L1456.9 683.828L1458.07 679.877L1459.2 675.864L1460.29 671.787L1461.33 667.644L1462.34 663.435L1463.32 659.156L1464.27 654.808L1465.19 650.388L1466.09 645.896L1466.97 641.331L1467.84 636.69L1468.7 631.975L1469.55 627.183L1470.39 622.314L1471.23 617.367L1472.07 612.34L1472.92 607.233L1473.77 602.045L1474.62 596.776L1475.5 591.424L1476.38 585.991L1477.29 580.475L1478.21 574.878L1479.16 569.2L1480.14 563.441L1481.15 557.604L1482.2 551.688L1483.29 545.696L1484.41 539.63L1485.59 533.491L1486.81 527.282L1488.09 521.005L1489.42 514.664L1490.81 508.26L1492.26 501.798L1493.78 495.281L1495.37 488.712L1497.03 482.096L1498.77 475.436L1500.58 468.737L1502.48 462.003L1504.45 455.239L1506.52 448.451L1508.67 441.642L1510.91 434.818L1513.25 427.984L1515.68 421.146L1518.21 414.31L1520.83 407.481L1523.55 400.664L1526.38 393.866L1529.3 387.093L1532.33 380.35L1535.46 373.644L1538.69 366.98L1542.03 360.366L1545.47 353.805L1549.02 347.306L1552.67 340.873L1556.42 334.513L1560.27 328.232L1564.23 322.035L1568.29 315.928L1572.44 309.918L1576.69 304.008L1581.04 298.206L1585.49 292.516L1590.03 286.943L1594.65 281.492L1599.37 276.168L1604.17 270.977L1609.06 265.921L1614.03 261.006L1619.07 256.235L1624.2 251.612L1629.39 247.141L1634.65 242.825L1639.98 238.668L1645.37 234.671L1650.83 230.839L1656.34 227.173L1661.9 223.678L1667.51 220.355L1673.17 217.21L1678.87 214.244L1684.61 211.463L1690.39 208.868L1696.2 206.465L1702.03 204.255L1707.89 202.243L1713.77 200.432L1719.66 198.825L1725.57 197.425L1731.48 196.235L1737.4 195.257L1743.31 194.495L1749.22 193.949L1755.11 193.622L1760.99 193.516L1766.85 193.632L1772.69 193.971L1778.49 194.535L1784.26 195.323L1790 196.336L1795.69 197.574L1801.33 199.036L1806.91 200.723L1812.44 202.634L1817.91 204.766L1823.32 207.12L1828.65 209.693L1833.91 212.485L1839.08 215.493L1844.18 218.714L1849.19 222.147L1854.1 225.788L1858.92 229.633L1863.65 233.677L1868.27 237.916L1872.79 242.344L1877.19 246.957L1881.49 251.746L1885.68 256.706L1889.76 261.829L1893.72 267.108L1897.56 272.535L1901.29 278.102L1904.9 283.799L1908.4 289.619L1911.77 295.551L1915.04 301.586L1918.18 307.715L1921.22 313.928L1924.14 320.215L1926.95 326.565L1929.66 332.97L1932.26 339.418L1934.76 345.899L1937.17 352.404L1939.48 358.922L1941.71 365.443L1943.85 371.958L1945.91 378.458L1947.9 384.932L1949.82 391.372L1951.68 397.769L1953.48 404.115L1955.24 410.402L1956.95 416.622L1958.62 422.767L1960.26 428.831L1961.87 434.808L1963.47 440.691L1965.05 446.476L1966.63 452.157L1968.21 457.731L1969.8 463.193L1971.41 468.54L1973.03 473.771L1974.69 478.882L1976.37 483.872L1978.09 488.741L1979.86 493.487L1981.68 498.113L1983.55 502.618L1985.48 507.004L1987.47 511.273L1989.53 515.427L1991.65 519.469L1993.86 523.404L1996.13 527.235L1998.49 530.967L2000.92 534.604L2003.44 538.152L2006.03 541.617L2008.71 545.005L2011.47 548.321L2014.31 551.573L2017.24 554.766L2020.24 557.905L2023.33 560.998L2026.49 564.051L2029.73 567.068L2033.05 570.058L2036.44 573.025L2039.91 575.975L2043.45 578.916L2047.05 581.852L2050.73 584.79L2054.46 587.736L2058.26 590.696L2062.11 593.674L2066.02 596.678L2069.97 599.713L2073.97 602.784L2078.01 605.897L2082.08 609.056L2086.19 612.268L2090.33 615.536L2094.48 618.865L2098.66 622.259L2102.84 625.723L2107.03 629.261L2111.23 632.875L2115.42 636.57L2119.6 640.348L2123.77 644.212L2127.92 648.164L2132.05 652.206L2136.15 656.341L2140.22 660.569L2144.25 664.891L2148.25 669.311L2152.2 673.827L2156.09 678.442L2159.94 683.156L2163.72 687.969L2167.44 692.881L2171.09 697.893L2174.66 703.005L2178.16 708.217L2181.56 713.526L2184.88 718.934L2188.11 724.438L2191.23 730.038L2194.25 735.731L2197.17 741.517L2199.96 747.393L2202.65 753.357L2205.2 759.406L2207.64 765.539L2209.94 771.752L2212.1 778.042L2214.13 784.406L2216.02 790.84L2217.76 797.341L2219.36 803.905L2220.8 810.529L2222.09 817.208L2223.23 823.937L2224.21 830.713L2225.02 837.531L2225.68 844.387L2226.17 851.275L2226.5 858.191L2226.66 865.131V872.089L2226.49 879.06L2226.16 886.04L2225.65 893.02L2224.99 900.01L2224.15 906.98L2223.16 913.95L2221.99 920.89L2220.67 927.82L2219.19 934.72L2217.54 941.59L2215.75 948.43L2213.79 955.22L2211.69 961.97L2209.43 968.68L2207.03 975.33L2204.48 981.92L2201.8 988.46L2198.97 994.93L2196.01 1001.33L2192.93 1007.66L2189.71 1013.91L2186.38 1020.09L2182.92 1026.19L2179.36 1032.2L2175.68 1038.13L2171.89 1043.97L2168.01 1049.72L2164.02 1055.38L2159.95 1060.95L2155.79 1066.42L2151.55 1071.8L2147.24 1077.08L2142.86 1082.27L2138.41 1087.36L2133.91 1092.36L2129.36 1097.27L2124.76 1102.08L2120.12 1106.81L2115.45 1111.45L2110.75 1116L2106.03 1120.47L2101.29 1124.85L2096.55 1129.16L2091.79 1133.4L2087.03 1137.56L2082.28 1141.66L2077.54 1145.69L2072.8 1149.66L2068.08 1153.58L2063.39 1157.45L2058.71 1161.27L2054.06 1165.05L2049.44 1168.79L2044.85 1172.49L2040.3 1176.17L2035.78 1179.82L2031.3 1183.45L2026.86 1187.07L2022.47 1190.68L2018.11 1194.28L2013.8 1197.88L2009.53 1201.48L2005.3 1205.09L2001.12 1208.7L1996.97 1212.34L1992.87 1215.99L1988.81 1219.66L1984.79 1223.35L1980.81 1227.07L1976.86 1230.82L1972.94 1234.6L1969.05 1238.4L1965.2 1242.25L1961.36 1246.12L1957.55 1250.03L1953.76 1253.98L1949.99 1257.96L1946.23 1261.97L1942.48 1266.02L1938.74 1270.1L1935 1274.22L1931.27 1278.36L1927.53 1282.54L1923.79 1286.74L1920.03 1290.97L1916.27 1295.22L1912.49 1299.48L1908.7 1303.77L1904.88 1308.07L1901.04 1312.37L1897.18 1316.69L1893.28 1321L1889.36 1325.32L1885.4 1329.63L1881.41 1333.93L1877.38 1338.22L1873.31 1342.49L1869.21 1346.73L1865.06 1350.95L1860.87 1355.14L1856.63 1359.3L1852.35 1363.41L1848.03 1367.48L1843.66 1371.51L1839.24 1375.48L1834.77 1379.39L1830.26 1383.24L1825.7 1387.03L1821.1 1390.74L1816.45 1394.39L1811.75 1397.95L1807.01 1401.44L1802.23 1404.84L1797.4 1408.15L1792.53 1411.37L1787.62 1414.5L1782.67 1417.52L1777.68 1420.45L1772.66 1423.28L1767.6 1425.99L1762.51 1428.6L1757.38 1431.1L1752.23 1433.48L1747.05 1435.75L1741.84 1437.9L1736.61 1439.94L1731.35 1441.84L1726.08 1443.63L1720.79 1445.28L1715.48 1446.81L1710.16 1448.2L1704.83 1449.46L1699.5 1450.59L1694.15 1451.57L1688.8 1452.42L1683.45 1453.12L1678.11 1453.68L1672.76 1454.09L1667.43 1454.35L1662.1 1454.47L1656.79 1454.43L1651.5 1454.24L1646.22 1453.89L1640.97 1453.39L1635.74 1452.73L1630.53 1451.91L1625.36 1450.94L1620.23 1449.8L1615.13 1448.51L1610.07 1447.06L1605.05 1445.44L1600.08 1443.67L1595.16 1441.74L1590.3 1439.66L1585.48 1437.42L1580.73 1435.02L1576.04 1432.47L1571.4 1429.77L1566.84 1426.92L1562.34 1423.93L1557.91 1420.79L1553.56 1417.52L1549.28 1414.11L1545.07 1410.57L1540.94 1406.91L1536.89 1403.12L1532.92 1399.22L1529.03 1395.2L1525.21 1391.08L1521.48 1386.86L1517.83 1382.55L1514.26 1378.14L1510.77 1373.66L1507.36 1369.1L1504.03 1364.48L1500.78 1359.79L1497.6 1355.06L1494.49 1350.27L1491.45 1345.45L1488.48 1340.59L1485.58 1335.71L1482.74 1330.81L1479.97 1325.9L1477.24 1320.99L1474.57 1316.08L1471.95 1311.18L1469.38 1306.3L1466.84 1301.44L1464.34 1296.61L1461.87 1291.81L1459.43 1287.06L1457.01 1282.36L1454.6 1277.7L1452.21 1273.1L1449.82 1268.57L1447.44 1264.09L1445.05 1259.69L1442.65 1255.36L1440.24 1251.1L1437.81 1246.92L1435.36 1242.82L1432.88 1238.79L1430.36 1234.85L1427.81 1230.99L1425.22 1227.21L1422.58 1223.51L1419.89 1219.89L1417.15 1216.35L1414.35 1212.88L1411.5 1209.49L1408.58 1206.17L1405.6 1202.91L1402.56 1199.72L1399.45 1196.59L1396.27 1193.52L1393.03 1190.5L1389.72 1187.52L1386.34 1184.58L1382.9 1181.67L1379.39 1178.8L1375.82 1175.94L1372.19 1173.1L1368.51 1170.27L1364.77 1167.43L1360.99 1164.58L1357.17 1161.72L1353.32 1158.84L1349.44 1155.92L1345.54 1152.95L1341.63 1149.94L1337.72 1146.87L1333.82 1143.74L1329.93 1140.54L1326.06 1137.26L1322.24 1133.89L1318.45 1130.43L1314.73 1126.88L1311.07 1123.22L1307.48 1119.46L1303.98 1115.6L1300.58 1111.61L1297.29 1107.52L1294.11 1103.3L1291.06 1098.97L1288.14 1094.52L1285.37 1089.95L1282.75 1085.26L1280.29 1080.46L1277.99 1075.54L1275.87 1070.51L1273.93 1065.38L1272.18 1060.13L1270.61 1054.79L1269.24 1049.36L1268.07 1043.83L1267.09 1038.23L1266.31 1032.54L1265.74 1026.78L1265.37 1020.96L1265.21 1015.07L1265.25 1009.14L1265.49 1003.16L1265.94 997.14L1266.59 991.1L1267.44 985.02L1268.49 978.94L1269.73 972.84L1271.16 966.74L1272.77 960.64L1274.57 954.56L1276.54 948.5L1278.68 942.46L1280.99 936.45L1283.45 930.48L1286.07 924.55L1288.83 918.68L1291.73 912.86L1294.75 907.09L1297.9 901.39L1301.16 895.77L1304.52 890.21L1307.98 884.73L1311.53 879.33L1315.15 874.011L1318.85 868.777L1322.6 863.631L1326.41 858.572L1330.26 853.603L1334.15 848.725L1338.06 843.936L1341.99 839.239L1345.93 834.631L1349.88 830.111L1353.81 825.68L1357.73 821.335L1361.63 817.074L1365.5 812.895L1369.33 808.795L1373.13 804.771L1376.87 800.82L1380.56 796.939L1384.19 793.123L1387.76 789.37L1391.26 785.675L1394.69 782.033L1398.04 778.44L1401.31 774.892Z" fill="url(#paint3_linear_1_2)"/>
<path fill-rule="evenodd" clip-rule="evenodd" d="M1511.14 1278.03L1514.22 1274.63L1517.22 1271.26L1520.13 1267.92L1522.96 1264.6L1525.71 1261.3L1528.37 1258.03L1530.94 1254.76L1533.42 1251.5L1535.82 1248.25L1538.14 1244.99L1540.37 1241.73L1542.52 1238.46L1544.59 1235.18L1546.58 1231.88L1548.48 1228.56L1550.31 1225.22L1552.07 1221.84L1553.75 1218.44L1555.36 1215L1556.91 1211.52L1558.38 1207.99L1559.8 1204.43L1561.15 1200.81L1562.44 1197.15L1563.68 1193.43L1564.87 1189.65L1566.01 1185.82L1567.1 1181.93L1568.15 1177.97L1569.17 1173.96L1570.15 1169.87L1571.1 1165.72L1572.02 1161.51L1572.91 1157.22L1573.79 1152.86L1574.65 1148.43L1575.49 1143.93L1576.33 1139.36L1577.15 1134.71L1577.97 1129.99L1578.79 1125.19L1579.61 1120.32L1580.43 1115.37L1581.26 1110.34L1582.09 1105.22L1582.94 1100.03L1583.81 1094.77L1584.69 1089.42L1585.59 1083.99L1586.51 1078.48L1587.47 1072.9L1588.45 1067.24L1589.47 1061.5L1590.53 1055.69L1591.62 1049.8L1592.76 1043.85L1593.95 1037.83L1595.19 1031.74L1596.49 1025.59L1597.84 1019.38L1599.25 1013.11L1600.72 1006.79L1602.27 1000.42L1603.88 994L1605.56 987.54L1607.32 981.04L1609.16 974.51L1611.08 967.95L1613.08 961.37L1615.16 954.76L1617.34 948.14L1619.6 941.51L1621.95 934.88L1624.4 928.25L1626.94 921.62L1629.57 915.01L1632.31 908.41L1635.14 901.84L1638.07 895.3L1641.09 888.79L1644.22 882.33L1647.45 875.91L1650.78 869.541L1654.21 863.234L1657.73 856.991L1661.36 850.819L1665.08 844.723L1668.91 838.708L1672.83 832.781L1676.84 826.946L1680.95 821.21L1685.15 815.577L1689.45 810.053L1693.83 804.643L1698.3 799.351L1702.85 794.182L1707.49 789.14L1712.21 784.23L1717 779.457L1721.88 774.823L1726.82 770.333L1731.83 765.989L1736.91 761.796L1742.06 757.757L1747.26 753.873L1752.52 750.148L1757.84 746.585L1763.2 743.187L1768.62 739.957L1774.08 736.898L1779.58 734.013L1785.12 731.307L1790.69 728.782L1796.29 726.442L1801.92 724.291L1807.57 722.33L1813.23 720.565L1818.92 718.997L1824.61 717.63L1830.31 716.466L1836.02 715.509L1841.72 714.759L1847.41 714.221L1853.09 713.894L1858.76 713.781L1864.41 713.884L1870.03 714.204L1875.62 714.74L1881.19 715.495L1886.71 716.468L1892.19 717.659L1897.62 719.067L1903.01 720.694L1908.33 722.536L1913.6 724.595L1918.81 726.868L1923.94 729.354L1929 732.052L1933.99 734.96L1938.89 738.075L1943.71 741.395L1948.45 744.917L1953.09 748.636L1957.63 752.55L1962.08 756.652L1966.42 760.938L1970.67 765.402L1974.8 770.039L1978.83 774.841L1982.75 779.801L1986.56 784.913L1990.26 790.168L1993.84 795.559L1997.31 801.077L2000.67 806.713L2003.91 812.459L2007.05 818.305L2010.07 824.242L2012.98 830.261L2015.79 836.351L2018.49 842.504L2021.09 848.708L2023.59 854.955L2025.99 861.235L2028.3 867.538L2030.51 873.853L2032.65 880.17L2034.7 886.49L2036.68 892.78L2038.59 899.06L2040.43 905.3L2042.21 911.5L2043.94 917.65L2045.62 923.74L2047.25 929.77L2048.85 935.72L2050.42 941.6L2051.97 947.39L2053.5 953.09L2055.02 958.7L2056.53 964.2L2058.04 969.6L2059.57 974.9L2061.11 980.08L2062.66 985.15L2064.25 990.1L2065.86 994.94L2067.52 999.65L2069.21 1004.25L2070.95 1008.73L2072.75 1013.1L2074.6 1017.35L2076.51 1021.48L2078.49 1025.51L2080.53 1029.42L2082.65 1033.23L2084.84 1036.94L2087.1 1040.56L2089.44 1044.08L2091.86 1047.52L2094.36 1050.87L2096.93 1054.15L2099.59 1057.36L2102.32 1060.51L2105.13 1063.6L2108.02 1066.64L2110.99 1069.63L2114.03 1072.59L2117.15 1075.51L2120.35 1078.4L2123.61 1081.27L2126.95 1084.13L2130.35 1086.97L2133.83 1089.81L2137.36 1092.66L2140.96 1095.51L2144.61 1098.37L2148.32 1101.25L2152.08 1104.16L2155.88 1107.09L2159.73 1110.06L2163.62 1113.07L2167.54 1116.13L2171.5 1119.24L2175.48 1122.4L2179.48 1125.62L2183.49 1128.9L2187.52 1132.26L2191.55 1135.68L2195.59 1139.18L2199.62 1142.75L2203.65 1146.41L2207.66 1150.15L2211.65 1153.97L2215.62 1157.88L2219.57 1161.89L2223.49 1165.98L2227.37 1170.16L2231.21 1174.44L2235.01 1178.81L2238.76 1183.28L2242.45 1187.84L2246.09 1192.5L2249.67 1197.26L2253.18 1202.11L2256.61 1207.06L2259.97 1212.11L2263.25 1217.25L2266.44 1222.49L2269.54 1227.82L2272.54 1233.25L2275.44 1238.76L2278.24 1244.37L2280.93 1250.06L2283.5 1255.84L2285.96 1261.7L2288.29 1267.64L2290.5 1273.66L2292.58 1279.75L2294.52 1285.92L2296.33 1292.15L2298 1298.46L2299.53 1304.82L2300.91 1311.24L2302.14 1317.71L2303.22 1324.23L2304.15 1330.8L2304.93 1337.41L2305.55 1344.05L2306.01 1350.73L2306.32 1357.44L2306.47 1364.16L2306.45 1370.91L2306.28 1377.67L2305.94 1384.44L2305.45 1391.21L2304.79 1397.98L2303.98 1404.74L2303 1411.5L2301.87 1418.24L2300.59 1424.95L2299.15 1431.65L2297.55 1438.31L2295.81 1444.94L2293.91 1451.53L2291.87 1458.08L2289.69 1464.58L2287.36 1471.04L2284.9 1477.43L2282.3 1483.77L2279.56 1490.05L2276.7 1496.26L2273.72 1502.4L2270.61 1508.47L2267.38 1514.47L2264.05 1520.39L2260.6 1526.22L2257.04 1531.98L2253.38 1537.65L2249.63 1543.23L2245.78 1548.72L2241.85 1554.13L2237.83 1559.44L2233.73 1564.66L2229.57 1569.79L2225.34 1574.83L2221.04 1579.77L2216.7 1584.63L2212.3 1589.39L2207.86 1594.07L2203.38 1598.65L2198.87 1603.16L2194.34 1607.58L2189.78 1611.92L2185.21 1616.18L2180.62 1620.36L2176.04 1624.48L2171.44 1628.52L2166.86 1632.5L2162.28 1636.42L2157.71 1640.28L2153.15 1644.09L2148.62 1647.84L2144.11 1651.56L2139.62 1655.22L2135.16 1658.86L2130.73 1662.46L2126.34 1666.03L2121.98 1669.58L2117.66 1673.11L2113.37 1676.62L2109.13 1680.13L2104.92 1683.62L2100.76 1687.12L2096.64 1690.62L2092.56 1694.12L2088.52 1697.64L2084.52 1701.17L2080.56 1704.71L2076.64 1708.28L2072.76 1711.87L2068.91 1715.48L2065.1 1719.12L2061.32 1722.79L2057.57 1726.49L2053.84 1730.22L2050.14 1733.98L2046.46 1737.78L2042.81 1741.61L2039.16 1745.48L2035.53 1749.38L2031.91 1753.31L2028.3 1757.27L2024.69 1761.27L2021.08 1765.29L2017.47 1769.35L2013.86 1773.43L2010.24 1777.53L2006.6 1781.65L2002.95 1785.8L1999.29 1789.96L1995.6 1794.13L1991.9 1798.31L1988.16 1802.5L1984.4 1806.69L1980.61 1810.88L1976.79 1815.07L1972.94 1819.25L1969.05 1823.41L1965.12 1827.56L1961.16 1831.68L1957.15 1835.78L1953.11 1839.85L1949.02 1843.88L1944.89 1847.88L1940.71 1851.83L1936.49 1855.74L1932.23 1859.6L1927.92 1863.4L1923.56 1867.14L1919.16 1870.82L1914.72 1874.43L1910.23 1877.97L1905.7 1881.43L1901.12 1884.82L1896.51 1888.12L1891.85 1891.34L1887.15 1894.47L1882.41 1897.51L1877.64 1900.46L1872.83 1903.3L1867.98 1906.05L1863.1 1908.69L1858.19 1911.23L1853.24 1913.66L1848.27 1915.98L1843.27 1918.19L1838.25 1920.28L1833.21 1922.26L1828.14 1924.12L1823.05 1925.86L1817.95 1927.47L1812.84 1928.96L1807.71 1930.32L1802.57 1931.55L1797.42 1932.65L1792.27 1933.61L1787.11 1934.44L1781.95 1935.13L1776.8 1935.68L1771.65 1936.09L1766.51 1936.35L1761.38 1936.47L1756.26 1936.44L1751.15 1936.27L1746.07 1935.94L1741 1935.46L1735.97 1934.83L1730.95 1934.05L1725.97 1933.11L1721.02 1932.02L1716.11 1930.77L1711.24 1929.37L1706.41 1927.82L1701.62 1926.11L1696.88 1924.25L1692.19 1922.23L1687.56 1920.07L1682.98 1917.75L1678.46 1915.29L1674 1912.68L1669.6 1909.92L1665.27 1907.03L1661.01 1904L1656.82 1900.83L1652.7 1897.53L1648.65 1894.11L1644.68 1890.56L1640.78 1886.89L1636.96 1883.12L1633.21 1879.23L1629.55 1875.24L1625.96 1871.16L1622.45 1866.98L1619.01 1862.72L1615.66 1858.38L1612.38 1853.96L1609.17 1849.49L1606.04 1844.95L1602.99 1840.36L1600 1835.73L1597.08 1831.05L1594.23 1826.35L1591.44 1821.62L1588.71 1816.88L1586.04 1812.12L1583.43 1807.36L1580.86 1802.61L1578.34 1797.86L1575.87 1793.13L1573.43 1788.43L1571.03 1783.75L1568.66 1779.11L1566.31 1774.5L1563.99 1769.94L1561.68 1765.43L1559.38 1760.98L1557.09 1756.59L1554.8 1752.25L1552.5 1747.99L1550.2 1743.79L1547.88 1739.67L1545.54 1735.62L1543.19 1731.64L1540.8 1727.75L1538.38 1723.93L1535.93 1720.19L1533.44 1716.53L1530.9 1712.95L1528.32 1709.44L1525.68 1706.01L1522.99 1702.65L1520.24 1699.37L1517.44 1696.16L1514.57 1693.01L1511.65 1689.92L1508.66 1686.89L1505.6 1683.91L1502.48 1680.99L1499.29 1678.1L1496.04 1675.26L1492.73 1672.45L1489.35 1669.67L1485.92 1666.9L1482.42 1664.16L1478.88 1661.41L1475.28 1658.67L1471.64 1655.92L1467.97 1653.15L1464.26 1650.36L1460.52 1647.53L1456.77 1644.67L1453.01 1641.75L1449.24 1638.79L1445.48 1635.76L1441.74 1632.66L1438.02 1629.48L1434.34 1626.22L1430.7 1622.88L1427.11 1619.44L1423.59 1615.9L1420.14 1612.26L1416.78 1608.52L1413.5 1604.66L1410.34 1600.69L1407.28 1596.61L1404.34 1592.42L1401.54 1588.11L1398.88 1583.68L1396.36 1579.14L1394 1574.49L1391.79 1569.73L1389.76 1564.85L1387.9 1559.88L1386.22 1554.8L1384.72 1549.62L1383.4 1544.35L1382.28 1539L1381.35 1533.56L1380.61 1528.05L1380.06 1522.47L1379.72 1516.82L1379.57 1511.12L1379.62 1505.37L1379.86 1499.57L1380.31 1493.74L1380.94 1487.87L1381.77 1481.98L1382.79 1476.08L1383.99 1470.17L1385.38 1464.25L1386.95 1458.34L1388.69 1452.44L1390.6 1446.55L1392.68 1440.7L1394.91 1434.87L1397.3 1429.08L1399.83 1423.33L1402.5 1417.62L1405.3 1411.97L1408.22 1406.38L1411.26 1400.85L1414.41 1395.39L1417.67 1390L1421.01 1384.68L1424.44 1379.44L1427.94 1374.27L1431.51 1369.19L1435.14 1364.2L1438.82 1359.29L1442.54 1354.46L1446.29 1349.73L1450.07 1345.08L1453.87 1340.52L1457.67 1336.04L1461.48 1331.66L1465.28 1327.35L1469.06 1323.13L1472.83 1319L1476.56 1314.94L1480.27 1310.96L1483.93 1307.05L1487.54 1303.21L1491.11 1299.44L1494.61 1295.74L1498.06 1292.09L1501.44 1288.5L1504.75 1284.97L1507.98 1281.48L1511.14 1278.03Z" fill="url(#paint4_linear_1_2)"/>
</g>
<defs>
<linearGradient id="paint0_linear_1_2" x1="-297.498" y1="249.613" x2="-497.448" y2="750.414" gradientUnits="userSpaceOnUse">
<stop stop-color="#B3DBFD"/>
<stop offset="1" stop-color="#0080F0"/>
</linearGradient>
<linearGradient id="paint1_linear_1_2" x1="161.076" y1="343.704" x2="254.78" y2="239.773" gradientUnits="userSpaceOnUse">
<stop stop-color="#0080F0" stop-opacity="0.72"/>
<stop offset="0.78125" stop-color="#8CC7FA" stop-opacity="0.649688"/>
<stop offset="0.78135" stop-color="#8FC9FA" stop-opacity="0.648281"/>
<stop offset="0.885416" stop-color="#A0D1FC" stop-opacity="0.63958"/>
<stop offset="1" stop-color="#B3DBFD" stop-opacity="0.63"/>
</linearGradient>
<linearGradient id="paint2_linear_1_2" x1="-87.5512" y1="301.358" x2="-353.365" y2="836.309" gradientUnits="userSpaceOnUse">
<stop offset="0.171875" stop-color="#B3DBFD"/>
<stop offset="0.802083" stop-color="#0080F0"/>
</linearGradient>
<linearGradient id="paint3_linear_1_2" x1="1856.51" y1="24" x2="2203.12" y2="352.215" gradientUnits="userSpaceOnUse">
<stop offset="0.16621" stop-color="#B3DBFD"/>
<stop offset="1" stop-color="#0080F0"/>
</linearGradient>
<linearGradient id="paint4_linear_1_2" x1="1826" y1="1571.37" x2="1347.28" y2="1114.8" gradientUnits="userSpaceOnUse">
<stop offset="0.739362" stop-color="#0080F0"/>
<stop offset="1" stop-color="#86D3FF"/>
</linearGradient>
<clipPath id="clip0_1_2">
<rect width="1920" height="1080" fill="white"/>
</clipPath>
</defs>
</svg>
