<svg width="1920" height="1080" viewBox="0 0 1920 1080" fill="none" xmlns="http://www.w3.org/2000/svg">
<g clip-path="url(#clip0_2_66)">
<rect width="1920" height="1080" fill="#F5F5F5"/>
<path fill-rule="evenodd" clip-rule="evenodd" d="M950.335 1050.05L949.051 1052.93L947.706 1055.79L946.303 1058.62L944.843 1061.43L943.327 1064.2L941.759 1066.94L940.14 1069.65L938.471 1072.33L936.755 1074.98L934.994 1077.6L933.19 1080.18L931.343 1082.74L929.457 1085.26L927.533 1087.74L925.572 1090.19L923.577 1092.61L921.548 1095L919.489 1097.35L917.399 1099.67L915.281 1101.96L913.135 1104.21L910.964 1106.43L908.769 1108.61L906.551 1110.76L904.312 1112.88L902.052 1114.97L899.773 1117.03L897.477 1119.05L895.164 1121.04L892.835 1123L890.493 1124.93L888.138 1126.82L885.772 1128.69L883.396 1130.53L881.012 1132.34L878.621 1134.12L876.224 1135.88L873.823 1137.61L871.419 1139.31L869.016 1140.99L866.613 1142.65L864.213 1144.28L861.816 1145.9L859.426 1147.49L857.041 1149.07L854.665 1150.64L852.296 1152.18L849.936 1153.72L847.586 1155.24L845.246 1156.75L842.916 1158.25L840.597 1159.74L838.288 1161.23L835.989 1162.71L833.701 1164.18L831.422 1165.65L829.152 1167.11L826.89 1168.58L824.636 1170.04L822.39 1171.5L820.149 1172.96L817.913 1174.42L815.681 1175.88L813.451 1177.35L811.223 1178.81L808.995 1180.28L806.765 1181.74L804.533 1183.21L802.296 1184.68L800.053 1186.15L797.803 1187.63L795.544 1189.1L793.275 1190.57L790.993 1192.04L788.698 1193.51L786.387 1194.98L784.06 1196.45L781.714 1197.91L779.349 1199.36L776.963 1200.81L774.553 1202.24L772.119 1203.67L769.659 1205.08L767.172 1206.48L764.657 1207.86L762.111 1209.22L759.535 1210.55L756.927 1211.86L754.287 1213.14L751.614 1214.39L748.907 1215.61L746.167 1216.78L743.394 1217.92L740.587 1219.01L737.748 1220.05L734.876 1221.05L731.973 1221.99L729.04 1222.88L726.078 1223.7L723.088 1224.47L720.072 1225.18L717.033 1225.82L713.971 1226.39L710.89 1226.9L707.791 1227.33L704.677 1227.69L701.55 1227.98L698.414 1228.19L695.27 1228.33L692.122 1228.39L688.973 1228.37L685.825 1228.28L682.682 1228.12L679.546 1227.88L676.419 1227.56L673.306 1227.17L670.208 1226.71L667.128 1226.18L664.069 1225.58L661.033 1224.92L658.021 1224.19L655.037 1223.4L652.082 1222.55L649.158 1221.65L646.265 1220.69L643.406 1219.69L640.582 1218.64L637.792 1217.54L635.038 1216.41L632.32 1215.24L629.637 1214.04L626.99 1212.81L624.379 1211.56L621.802 1210.28L619.258 1208.99L616.747 1207.69L614.267 1206.37L611.816 1205.05L609.393 1203.73L606.995 1202.4L604.62 1201.08L602.266 1199.76L599.931 1198.45L597.612 1197.16L595.306 1195.87L593.01 1194.6L590.721 1193.35L588.438 1192.12L586.155 1190.9L583.872 1189.71L581.584 1188.54L579.29 1187.39L576.986 1186.27L574.669 1185.17L572.337 1184.09L569.988 1183.03L567.62 1181.99L565.232 1180.97L562.821 1179.97L560.387 1178.99L557.93 1178.02L555.448 1177.06L552.941 1176.11L550.411 1175.16L547.858 1174.22L545.282 1173.28L542.686 1172.34L540.07 1171.38L537.438 1170.42L534.79 1169.45L532.131 1168.46L529.462 1167.45L526.787 1166.41L524.109 1165.35L521.433 1164.27L518.761 1163.15L516.097 1162L513.446 1160.81L510.812 1159.59L508.199 1158.33L505.61 1157.02L503.05 1155.67L500.524 1154.28L498.034 1152.85L495.586 1151.36L493.182 1149.84L490.825 1148.26L488.52 1146.64L486.269 1144.97L484.075 1143.26L481.939 1141.51L479.864 1139.71L477.852 1137.87L475.903 1135.99L474.019 1134.07L472.199 1132.11L470.445 1130.12L468.756 1128.09L467.133 1126.03L465.574 1123.94L464.08 1121.82L462.649 1119.68L461.28 1117.51L459.972 1115.32L458.724 1113.1L457.534 1110.87L456.4 1108.61L455.32 1106.34L454.292 1104.06L453.313 1101.76L452.382 1099.45L451.496 1097.13L450.652 1094.79L449.848 1092.45L449.081 1090.1L448.349 1087.74L447.649 1085.38L446.979 1083.01L446.336 1080.63L445.718 1078.24L445.122 1075.85L444.547 1073.46L443.99 1071.05L443.449 1068.64L442.922 1066.23L442.409 1063.81L441.907 1061.38L441.415 1058.94L440.932 1056.5L440.457 1054.04L439.99 1051.58L439.53 1049.11L439.077 1046.62L438.63 1044.13L438.19 1041.62L437.757 1039.1L437.332 1036.56L436.915 1034.01L436.507 1031.44L436.109 1028.86L435.722 1026.27L435.348 1023.65L434.989 1021.02L434.645 1018.37L434.319 1015.7L434.014 1013.02L433.73 1010.31L433.47 1007.59L433.236 1004.85L433.031 1002.09L432.857 999.307L432.716 996.51L432.612 993.696L432.545 990.865L432.519 988.017L432.536 985.153L432.599 982.274L432.709 979.38L432.869 976.474L433.08 973.554L433.346 970.623L433.668 967.681L434.047 964.73L434.486 961.771L434.985 958.804L435.548 955.832L436.173 952.855L436.864 949.874L437.621 946.891L438.444 943.906L439.335 940.922L440.294 937.939L441.322 934.959L442.42 931.982L443.587 929.01L444.823 926.044L446.13 923.084L447.506 920.133L448.953 917.192L450.47 914.26L452.056 911.34L453.711 908.432L455.436 905.537L457.23 902.656L459.092 899.79L461.022 896.94L463.019 894.107L465.084 891.292L467.215 888.494L469.412 885.716L471.674 882.959L474.002 880.221L476.393 877.506L478.849 874.813L481.369 872.144L483.951 869.498L486.595 866.878L489.302 864.283L492.07 861.716L494.899 859.176L497.789 856.665L500.739 854.183L503.748 851.733L506.817 849.315L509.945 846.93L513.132 844.58L516.376 842.266L519.679 839.988L523.038 837.749L526.453 835.55L529.925 833.392L533.451 831.276L537.031 829.203L540.665 827.174L544.351 825.191L548.089 823.255L551.877 821.367L555.714 819.528L559.6 817.739L563.533 816.001L567.512 814.316L571.536 812.685L575.603 811.108L579.713 809.587L583.864 808.124L588.054 806.718L592.283 805.371L596.548 804.085L600.849 802.859L605.183 801.697L609.548 800.597L613.945 799.561L618.369 798.591L622.821 797.687L627.297 796.849L631.797 796.079L636.317 795.377L640.857 794.744L645.415 794.18L649.987 793.686L654.573 793.263L659.17 792.91L663.776 792.628L668.39 792.418L673.008 792.279L677.63 792.211L682.252 792.214L686.873 792.289L691.491 792.435L696.103 792.651L700.709 792.938L705.305 793.294L709.889 793.72L714.461 794.214L719.017 794.776L723.557 795.404L728.078 796.098L732.579 796.858L737.059 797.68L741.515 798.566L745.947 799.512L750.352 800.519L754.73 801.584L759.08 802.706L763.4 803.885L767.69 805.117L771.948 806.403L776.174 807.741L780.367 809.129L784.526 810.565L788.651 812.049L792.741 813.58L796.795 815.154L800.813 816.773L804.795 818.433L808.74 820.135L812.648 821.877L816.519 823.657L820.352 825.476L824.147 827.331L827.903 829.223L831.62 831.151L835.299 833.114L838.937 835.11L842.536 837.141L846.094 839.205L849.612 841.302L853.089 843.43L856.524 845.589L859.919 847.78L863.271 850L866.582 852.249L869.851 854.527L873.077 856.833L876.262 859.167L879.403 861.528L882.501 863.916L885.556 866.331L888.567 868.772L891.534 871.238L894.455 873.731L897.331 876.249L900.16 878.793L902.942 881.362L905.675 883.956L908.359 886.576L910.992 889.221L913.574 891.891L916.103 894.587L918.577 897.308L920.996 900.054L923.357 902.825L925.659 905.621L927.901 908.442L930.081 911.288L932.198 914.157L934.249 917.051L936.234 919.968L938.151 922.907L939.999 925.869L941.776 928.853L943.482 931.857L945.115 934.881L946.674 937.924L948.159 940.985L949.569 944.063L950.903 947.156L952.161 950.264L953.341 953.386L954.443 956.52L955.466 959.665L956.41 962.821L957.273 965.986L958.056 969.159L958.758 972.338L959.379 975.522L959.918 978.711L960.375 981.902L960.749 985.094L961.041 988.287L961.251 991.478L961.379 994.667L961.424 997.851L961.388 1001.03L961.271 1004.2L961.073 1007.37L960.795 1010.52L960.437 1013.66L960.001 1016.79L959.487 1019.91L958.896 1023.01L958.229 1026.1L957.488 1029.17L956.674 1032.21L955.789 1035.24L954.833 1038.25L953.808 1041.24L952.715 1044.2L951.557 1047.14L950.335 1050.05Z" fill="url(#paint0_linear_2_66)"/>
<path fill-rule="evenodd" clip-rule="evenodd" d="M274.425 389.697L275.212 388.847L276.017 388.01L276.841 387.185L277.684 386.374L278.544 385.576L279.422 384.792L280.317 384.022L281.228 383.267L282.154 382.526L283.097 381.8L284.053 381.088L285.025 380.391L286.01 379.708L287.008 379.04L288.019 378.387L289.042 377.749L290.077 377.124L291.124 376.514L292.182 375.918L293.25 375.336L294.328 374.768L295.417 374.213L296.515 373.671L297.622 373.143L298.738 372.628L299.863 372.125L300.997 371.635L302.139 371.158L303.289 370.693L304.447 370.24L305.613 369.799L306.787 369.37L307.969 368.953L309.158 368.549L310.354 368.156L311.558 367.776L312.768 367.408L313.987 367.053L315.212 366.71L316.444 366.38L317.682 366.064L318.928 365.761L320.179 365.473L321.437 365.199L322.702 364.94L323.971 364.697L325.247 364.469L326.528 364.258L327.813 364.064L329.104 363.888L330.398 363.73L331.696 363.59L332.998 363.469L334.302 363.369L335.609 363.288L336.918 363.228L338.228 363.19L339.539 363.174L340.85 363.18L342.16 363.209L343.47 363.262L344.777 363.339L346.082 363.44L347.383 363.566L348.68 363.718L349.973 363.895L351.259 364.098L352.539 364.328L353.812 364.585L355.076 364.868L356.332 365.179L357.577 365.518L358.811 365.885L360.034 366.279L361.243 366.702L362.439 367.153L363.621 367.632L364.786 368.14L365.935 368.676L367.067 369.241L368.18 369.834L369.274 370.455L370.347 371.104L371.399 371.781L372.43 372.485L373.438 373.216L374.421 373.974L375.381 374.759L376.316 375.569L377.224 376.405L378.106 377.265L378.961 378.15L379.788 379.058L380.586 379.989L381.356 380.943L382.097 381.918L382.807 382.914L383.487 383.93L384.137 384.965L384.756 386.018L385.344 387.089L385.901 388.176L386.426 389.279L386.919 390.397L387.381 391.529L387.811 392.674L388.21 393.83L388.577 394.998L388.912 396.177L389.216 397.364L389.489 398.56L389.731 399.763L389.942 400.973L390.123 402.189L390.274 403.409L390.395 404.633L390.487 405.86L390.55 407.089L390.584 408.32L390.591 409.551L390.571 410.782L390.524 412.011L390.451 413.239L390.352 414.464L390.229 415.686L390.082 416.904L389.912 418.117L389.719 419.325L389.505 420.527L389.269 421.723L389.013 422.912L388.738 424.094L388.444 425.268L388.132 426.433L387.803 427.59L387.458 428.738L387.097 429.877L386.722 431.006L386.332 432.125L385.929 433.235L385.513 434.334L385.085 435.423L384.645 436.501L384.194 437.57L383.732 438.627L383.26 439.674L382.778 440.71L382.287 441.736L381.787 442.751L381.278 443.755L380.76 444.749L380.234 445.732L379.699 446.705L379.157 447.667L378.607 448.618L378.049 449.559L377.484 450.489L376.911 451.408L376.33 452.318L375.742 453.216L375.147 454.104L374.545 454.981L373.935 455.848L373.317 456.704L372.693 457.549L372.061 458.383L371.421 459.207L370.775 460.02L370.121 460.821L369.46 461.612L368.791 462.391L368.116 463.159L367.433 463.915L366.743 464.66L366.046 465.393L365.342 466.114L364.632 466.824L363.914 467.521L363.191 468.207L362.46 468.88L361.724 469.54L360.982 470.189L360.235 470.825L359.482 471.448L358.724 472.059L357.961 472.657L357.193 473.243L356.421 473.816L355.645 474.377L354.865 474.925L354.082 475.46L353.295 475.982L352.506 476.492L351.713 476.989L350.918 477.474L350.121 477.946L349.321 478.405L348.52 478.852L347.718 479.287L346.914 479.709L346.109 480.118L345.303 480.516L344.496 480.901L343.69 481.274L342.883 481.635L342.076 481.984L341.27 482.321L340.464 482.646L339.659 482.96L338.855 483.263L338.052 483.554L337.25 483.834L336.45 484.103L335.652 484.361L334.856 484.608L334.061 484.845L333.269 485.072L332.48 485.288L331.692 485.494L330.908 485.69L330.126 485.877L329.347 486.054L328.571 486.222L327.798 486.381L327.029 486.531L326.262 486.673L325.499 486.806L324.74 486.931L323.983 487.047L323.231 487.156L322.482 487.258L321.736 487.352L320.994 487.439L320.255 487.52L319.52 487.593L318.789 487.66L318.061 487.721L317.336 487.775L316.615 487.824L315.898 487.867L315.183 487.904L314.472 487.935L313.764 487.961L313.059 487.982L312.357 487.997L311.658 488.007L310.962 488.012L310.268 488.012L309.578 488.006L308.89 487.995L308.204 487.978L307.521 487.956L306.841 487.927L306.163 487.893L305.488 487.853L304.815 487.807L304.144 487.754L303.477 487.694L302.812 487.628L302.149 487.555L301.489 487.474L300.832 487.386L300.178 487.29L299.527 487.186L298.88 487.075L298.235 486.955L297.594 486.828L296.956 486.692L296.323 486.548L295.692 486.395L295.066 486.234L294.444 486.064L293.827 485.885L293.213 485.698L292.604 485.502L292 485.297L291.401 485.084L290.807 484.863L290.217 484.632L289.633 484.394L289.054 484.147L288.48 483.891L287.912 483.628L287.35 483.356L286.793 483.076L286.241 482.789L285.696 482.493L285.156 482.19L284.623 481.879L284.095 481.561L283.574 481.235L283.058 480.902L282.549 480.562L282.045 480.215L281.548 479.862L281.057 479.502L280.572 479.135L280.092 478.762L279.619 478.383L279.151 477.998L278.69 477.608L278.234 477.211L277.783 476.81L277.338 476.403L276.898 475.991L276.464 475.575L276.034 475.153L275.61 474.727L275.19 474.296L274.775 473.861L274.364 473.421L273.957 472.978L273.555 472.53L273.157 472.078L272.762 471.622L272.371 471.162L271.985 470.698L271.601 470.229L271.221 469.757L270.845 469.281L270.472 468.8L270.103 468.315L269.737 467.825L269.375 467.332L269.017 466.833L268.662 466.33L268.311 465.822L267.964 465.309L267.621 464.79L267.283 464.267L266.949 463.738L266.619 463.204L266.294 462.664L265.974 462.119L265.659 461.568L265.349 461.011L265.045 460.449L264.746 459.88L264.453 459.305L264.166 458.724L263.885 458.138L263.611 457.544L263.343 456.945L263.081 456.339L262.826 455.728L262.579 455.109L262.338 454.485L262.105 453.854L261.88 453.217L261.662 452.573L261.452 451.924L261.249 451.268L261.055 450.605L260.869 449.937L260.69 449.262L260.52 448.581L260.358 447.894L260.205 447.2L260.059 446.501L259.922 445.795L259.793 445.084L259.672 444.366L259.559 443.642L259.455 442.912L259.358 442.176L259.27 441.434L259.19 440.685L259.118 439.931L259.054 439.17L258.998 438.403L258.95 437.629L258.911 436.849L258.879 436.062L258.855 435.269L258.84 434.47L258.833 433.663L258.834 432.85L258.843 432.03L258.862 431.203L258.889 430.369L258.925 429.528L258.97 428.68L259.025 427.824L259.089 426.962L259.164 426.092L259.249 425.215L259.344 424.332L259.451 423.441L259.569 422.543L259.699 421.638L259.842 420.727L259.998 419.809L260.167 418.885L260.35 417.955L260.547 417.019L260.76 416.077L260.988 415.131L261.232 414.18L261.493 413.225L261.771 412.266L262.067 411.304L262.38 410.339L262.713 409.372L263.064 408.403L263.434 407.433L263.825 406.463L264.235 405.493L264.666 404.524L265.117 403.556L265.589 402.591L266.082 401.628L266.596 400.669L267.132 399.715L267.689 398.765L268.268 397.821L268.868 396.884L269.489 395.953L270.131 395.031L270.795 394.117L271.48 393.212L272.186 392.317L272.912 391.432L273.659 390.559L274.425 389.697Z" fill="url(#paint1_linear_2_66)"/>
<path fill-rule="evenodd" clip-rule="evenodd" d="M-316.924 792.267L-313.732 788.491L-310.347 784.867L-306.785 781.391L-303.065 778.057L-299.207 774.859L-295.227 771.787L-291.145 768.834L-286.979 765.989L-282.746 763.241L-278.461 760.58L-274.141 757.994L-269.8 755.473L-265.45 753.004L-261.103 750.578L-256.77 748.185L-252.457 745.813L-248.172 743.456L-243.92 741.106L-239.704 738.755L-235.526 736.399L-231.387 734.034L-227.285 731.658L-223.22 729.268L-219.191 726.859L-215.201 724.427L-211.251 721.964L-207.346 719.46L-203.487 716.905L-199.679 714.292L-195.922 711.609L-192.22 708.846L-188.572 705.995L-184.979 703.047L-181.44 699.993L-177.953 696.827L-174.516 693.542L-171.125 690.134L-167.775 686.599L-164.462 682.935L-161.178 679.14L-157.918 675.215L-154.675 671.162L-151.439 666.984L-148.204 662.686L-144.96 658.273L-141.699 653.753L-138.412 649.135L-135.091 644.427L-131.726 639.64L-128.31 634.786L-124.834 629.879L-121.291 624.929L-117.672 619.953L-113.972 614.965L-110.184 609.979L-106.302 605.011L-102.321 600.077L-98.2374 595.192L-94.0475 590.374L-89.7481 585.637L-85.3375 580.997L-80.8144 576.47L-76.1782 572.072L-71.4291 567.816L-66.5684 563.717L-61.5977 559.79L-56.5195 556.046L-51.337 552.499L-46.0541 549.161L-40.6749 546.042L-35.2047 543.152L-29.6491 540.501L-24.0139 538.097L-18.3057 535.948L-12.5313 534.06L-6.69783 532.44L-0.812886 531.091L5.11566 530.019L11.0799 529.226L17.0718 528.715L23.083 528.486L29.1052 528.541L35.13 528.88L41.1491 529.502L47.154 530.404L53.1366 531.587L59.0887 533.046L65.0021 534.778L70.8691 536.78L76.6817 539.047L82.4326 541.576L88.1141 544.36L93.7192 547.396L99.241 550.676L104.673 554.196L110.007 557.95L115.239 561.93L120.362 566.131L125.371 570.547L130.258 575.169L135.021 579.991L139.653 585.006L144.149 590.206L148.507 595.583L152.721 601.127L156.788 606.831L160.706 612.684L164.472 618.676L168.084 624.794L171.542 631.028L174.846 637.362L177.997 643.782L180.998 650.27L183.852 656.808L186.565 663.376L189.144 669.952L191.595 676.519L193.925 683.059L196.143 689.554L198.258 695.989L200.277 702.349L202.209 708.622L204.064 714.795L205.85 720.857L207.577 726.8L209.253 732.615L210.887 738.295L212.488 743.834L214.064 749.228L215.624 754.474L217.174 759.57L218.722 764.514L220.275 769.306L221.839 773.947L223.421 778.44L225.024 782.786L226.654 786.989L228.315 791.054L230.01 794.985L231.743 798.787L233.514 802.467L235.327 806.031L237.182 809.486L239.08 812.838L241.021 816.094L243.003 819.263L245.027 822.351L247.091 825.366L249.193 828.315L251.332 831.205L253.504 834.043L255.708 836.836L257.941 839.59L260.2 842.311L262.483 845.004L264.788 847.676L267.112 850.329L269.453 852.969L271.809 855.598L274.18 858.221L276.563 860.839L278.96 863.455L281.37 866.07L283.794 868.685L286.234 871.301L288.691 873.917L291.17 876.534L293.673 879.151L296.207 881.767L298.775 884.381L301.384 886.992L304.041 889.598L306.753 892.198L309.53 894.791L312.379 897.375L315.31 899.95L318.333 902.514L321.457 905.068L324.693 907.611L328.051 910.144L331.542 912.668L335.174 915.184L338.958 917.695L342.903 920.204L347.016 922.714L351.305 925.23L355.775 927.756L360.432 930.298L365.279 932.863L370.317 935.457L375.546 938.087L380.964 940.763L386.567 943.491L392.348 946.282L398.298 949.143L404.407 952.084L410.661 955.114L417.044 958.242L423.538 961.476L430.123 964.824L436.776 968.295L443.473 971.895L450.19 975.63L456.9 979.504L463.582 983.521L470.212 987.684L476.77 991.993L483.237 996.448L489.594 1001.05L495.824 1005.79L501.91 1010.68L507.837 1015.71L513.591 1020.87L519.16 1026.15L524.531 1031.57L529.692 1037.1L534.635 1042.75L539.349 1048.5L543.828 1054.36L548.062 1060.31L552.048 1066.34L555.779 1072.46L559.25 1078.65L562.46 1084.9L565.404 1091.21L568.083 1097.56L570.494 1103.96L572.638 1110.4L574.517 1116.86L576.131 1123.34L577.484 1129.83L578.578 1136.33L579.418 1142.84L580.008 1149.33L580.352 1155.81L580.456 1162.28L580.327 1168.72L579.97 1175.13L579.392 1181.52L578.599 1187.86L577.598 1194.16L576.396 1200.42L575.001 1206.64L573.418 1212.8L571.654 1218.91L569.715 1224.96L567.608 1230.95L565.338 1236.88L562.91 1242.74L560.329 1248.54L557.598 1254.27L554.722 1259.92L551.703 1265.5L548.544 1271.01L545.246 1276.43L541.81 1281.76L538.236 1287.01L534.524 1292.16L530.674 1297.21L526.684 1302.16L522.551 1307L518.274 1311.72L513.85 1316.32L509.275 1320.79L504.547 1325.13L499.663 1329.31L494.618 1333.34L489.411 1337.21L484.037 1340.9L478.495 1344.42L472.782 1347.73L466.897 1350.85L460.84 1353.76L454.61 1356.45L448.209 1358.9L441.638 1361.13L434.902 1363.1L428.004 1364.83L420.951 1366.3L413.75 1367.5L406.41 1368.45L398.94 1369.13L391.352 1369.54L383.659 1369.68L375.875 1369.57L368.017 1369.2L360.1 1368.59L352.142 1367.74L344.163 1366.66L336.181 1365.38L328.217 1363.9L320.291 1362.25L312.422 1360.44L304.629 1358.49L296.925 1356.42L289.323 1354.25L281.834 1351.99L274.465 1349.65L267.224 1347.24L260.115 1344.78L253.143 1342.28L246.312 1339.74L239.623 1337.17L233.08 1334.58L226.682 1331.98L220.432 1329.38L214.33 1326.78L208.376 1324.2L202.57 1321.64L196.912 1319.1L191.402 1316.61L186.038 1314.16L180.82 1311.76L175.748 1309.42L170.818 1307.16L166.03 1304.98L161.383 1302.88L156.873 1300.89L152.499 1299L148.258 1297.22L144.146 1295.57L140.16 1294.06L136.297 1292.69L132.552 1291.47L128.92 1290.41L125.396 1289.52L121.976 1288.8L118.653 1288.27L115.42 1287.92L112.272 1287.77L109.202 1287.82L106.201 1288.08L103.262 1288.54L100.378 1289.21L97.5399 1290.09L94.7398 1291.19L91.9689 1292.49L89.2187 1294.01L86.4803 1295.74L83.745 1297.68L81.0042 1299.81L78.2491 1302.14L75.4713 1304.67L72.6625 1307.37L69.8148 1310.25L66.9203 1313.29L63.9716 1316.49L60.962 1319.83L57.8847 1323.31L54.7337 1326.9L51.5036 1330.6L48.1893 1334.4L44.7864 1338.28L41.2911 1342.23L37.7002 1346.23L34.0109 1350.26L30.2213 1354.33L26.3299 1358.41L22.3356 1362.49L18.2383 1366.55L14.0378 1370.59L9.735 1374.59L5.33068 1378.54L0.826278 1382.44L-3.7766 1386.26L-8.47593 1390.02L-13.2696 1393.68L-18.1553 1397.26L-23.1307 1400.75L-28.1932 1404.13L-33.3405 1407.41L-38.5701 1410.59L-43.8796 1413.65L-49.2666 1416.61L-54.7288 1419.45L-60.2637 1422.18L-65.8691 1424.79L-71.5421 1427.29L-77.2799 1429.67L-83.0791 1431.92L-88.9355 1434.05L-94.844 1436.03L-100.798 1437.87L-106.791 1439.56L-112.814 1441.07L-118.858 1442.4L-124.914 1443.54L-130.973 1444.48L-137.028 1445.21L-143.071 1445.73L-149.094 1446.04L-155.09 1446.14L-161.055 1446.03L-166.983 1445.71L-172.869 1445.18L-178.711 1444.46L-184.507 1443.54L-190.254 1442.44L-195.952 1441.17L-201.602 1439.74L-207.204 1438.15L-212.761 1436.42L-218.274 1434.55L-223.748 1432.56L-229.185 1430.46L-234.589 1428.25L-239.965 1425.96L-245.317 1423.58L-250.65 1421.12L-255.967 1418.59L-261.273 1416L-266.573 1413.36L-271.869 1410.66L-277.164 1407.91L-282.462 1405.12L-287.763 1402.28L-293.069 1399.39L-298.38 1396.46L-303.694 1393.49L-309.011 1390.46L-314.327 1387.38L-319.639 1384.24L-324.942 1381.04L-330.23 1377.78L-335.496 1374.44L-340.732 1371.03L-345.929 1367.53L-351.079 1363.94L-356.169 1360.25L-361.19 1356.47L-366.128 1352.57L-370.972 1348.56L-375.708 1344.43L-380.323 1340.18L-384.802 1335.8L-389.133 1331.29L-393.302 1326.64L-397.293 1321.86L-401.095 1316.94L-404.692 1311.89L-408.073 1306.69L-411.225 1301.37L-414.136 1295.9L-416.796 1290.31L-419.192 1284.6L-421.318 1278.76L-423.163 1272.8L-424.721 1266.74L-425.985 1260.58L-426.949 1254.32L-427.611 1247.97L-427.967 1241.55L-428.014 1235.06L-427.753 1228.52L-427.184 1221.92L-426.308 1215.29L-425.129 1208.63L-423.65 1201.96L-421.876 1195.28L-419.813 1188.61L-417.467 1181.95L-414.847 1175.31L-411.961 1168.71L-408.819 1162.16L-405.432 1155.66L-401.81 1149.23L-397.965 1142.87L-393.912 1136.59L-389.664 1130.4L-385.238 1124.31L-380.648 1118.32L-375.913 1112.44L-371.053 1106.68L-366.089 1101.04L-361.042 1095.53L-355.938 1090.15L-350.803 1084.9L-345.663 1079.79L-340.546 1074.81L-335.48 1069.97L-330.494 1065.27L-325.616 1060.69L-320.873 1056.24L-316.292 1051.91L-311.899 1047.7L-307.72 1043.6L-303.777 1039.59L-300.091 1035.67L-296.683 1031.83L-293.57 1028.06L-290.767 1024.34L-288.288 1020.67L-286.142 1017.03L-284.337 1013.4L-282.879 1009.78L-281.769 1006.14L-281.008 1002.49L-280.593 998.793L-280.517 995.053L-280.772 991.254L-281.348 987.384L-282.231 983.433L-283.405 979.393L-284.852 975.256L-286.552 971.014L-288.483 966.663L-290.62 962.199L-292.94 957.617L-295.415 952.918L-298.018 948.101L-300.721 943.168L-303.494 938.122L-306.308 932.967L-309.133 927.71L-311.941 922.357L-314.702 916.917L-317.388 911.399L-319.972 905.815L-322.427 900.175L-324.729 894.493L-326.852 888.782L-328.776 883.055L-330.48 877.326L-331.947 871.611L-333.159 865.923L-334.104 860.277L-334.769 854.687L-335.145 849.167L-335.226 843.731L-335.006 838.39L-334.484 833.157L-333.66 828.042L-332.536 823.056L-331.118 818.205L-329.411 813.498L-327.425 808.941L-325.17 804.537L-322.659 800.289L-319.905 796.2L-316.924 792.267Z" fill="url(#paint2_linear_2_66)"/>
<path fill-rule="evenodd" clip-rule="evenodd" d="M1491.3 899.892L1494.49 896.385L1497.59 892.912L1500.61 889.471L1503.54 886.056L1506.38 882.662L1509.14 879.285L1511.8 875.921L1514.37 872.565L1516.86 869.212L1519.25 865.858L1521.56 862.499L1523.79 859.131L1525.93 855.749L1527.98 852.35L1529.96 848.929L1531.85 845.482L1533.67 842.006L1535.41 838.497L1537.07 834.95L1538.67 831.364L1540.19 827.734L1541.65 824.058L1543.05 820.331L1544.38 816.553L1545.66 812.719L1546.89 808.828L1548.06 804.877L1549.19 800.864L1550.28 796.787L1551.32 792.644L1552.33 788.435L1553.31 784.156L1554.26 779.808L1555.18 775.388L1556.08 770.896L1556.96 766.331L1557.83 761.69L1558.69 756.975L1559.54 752.183L1560.38 747.314L1561.22 742.367L1562.06 737.34L1562.91 732.233L1563.76 727.045L1564.61 721.776L1565.49 716.424L1566.37 710.991L1567.28 705.475L1568.2 699.878L1569.15 694.2L1570.13 688.441L1571.14 682.604L1572.19 676.688L1573.28 670.696L1574.4 664.63L1575.58 658.491L1576.8 652.282L1578.08 646.005L1579.41 639.664L1580.8 633.26L1582.25 626.798L1583.77 620.281L1585.36 613.712L1587.02 607.096L1588.76 600.436L1590.57 593.737L1592.47 587.003L1594.44 580.239L1596.51 573.451L1598.66 566.642L1600.9 559.818L1603.24 552.984L1605.67 546.146L1608.2 539.31L1610.82 532.481L1613.54 525.664L1616.37 518.866L1619.29 512.093L1622.32 505.35L1625.45 498.644L1628.68 491.98L1632.02 485.366L1635.46 478.805L1639.01 472.306L1642.66 465.873L1646.41 459.513L1650.26 453.232L1654.22 447.035L1658.28 440.928L1662.43 434.918L1666.68 429.008L1671.03 423.206L1675.48 417.516L1680.02 411.943L1684.64 406.492L1689.36 401.168L1694.16 395.977L1699.05 390.921L1704.02 386.006L1709.06 381.235L1714.19 376.612L1719.38 372.141L1724.64 367.825L1729.97 363.668L1735.36 359.671L1740.82 355.839L1746.33 352.173L1751.89 348.678L1757.5 345.355L1763.16 342.21L1768.86 339.244L1774.6 336.463L1780.38 333.868L1786.19 331.465L1792.02 329.255L1797.88 327.243L1803.76 325.432L1809.65 323.825L1815.56 322.425L1821.47 321.235L1827.39 320.257L1833.3 319.495L1839.21 318.949L1845.1 318.622L1850.98 318.516L1856.84 318.632L1862.68 318.971L1868.48 319.535L1874.25 320.323L1879.99 321.336L1885.68 322.574L1891.32 324.036L1896.9 325.723L1902.43 327.634L1907.9 329.766L1913.31 332.12L1918.64 334.693L1923.9 337.485L1929.07 340.493L1934.17 343.714L1939.18 347.147L1944.09 350.788L1948.91 354.633L1953.64 358.677L1958.26 362.916L1962.78 367.344L1967.18 371.957L1971.48 376.746L1975.67 381.706L1979.75 386.829L1983.71 392.108L1987.55 397.535L1991.28 403.102L1994.89 408.799L1998.39 414.619L2001.76 420.551L2005.03 426.586L2008.17 432.715L2011.21 438.928L2014.13 445.215L2016.94 451.565L2019.65 457.97L2022.25 464.418L2024.75 470.899L2027.16 477.404L2029.47 483.922L2031.7 490.443L2033.84 496.958L2035.9 503.458L2037.89 509.932L2039.81 516.372L2041.67 522.769L2043.47 529.115L2045.23 535.402L2046.94 541.622L2048.61 547.767L2050.25 553.831L2051.86 559.808L2053.46 565.691L2055.04 571.476L2056.62 577.157L2058.2 582.731L2059.79 588.193L2061.4 593.54L2063.02 598.771L2064.68 603.882L2066.36 608.872L2068.08 613.741L2069.85 618.487L2071.67 623.113L2073.54 627.618L2075.47 632.004L2077.46 636.273L2079.52 640.427L2081.64 644.469L2083.85 648.404L2086.12 652.235L2088.48 655.967L2090.91 659.604L2093.43 663.152L2096.02 666.617L2098.7 670.005L2101.46 673.321L2104.3 676.573L2107.23 679.766L2110.23 682.905L2113.32 685.998L2116.48 689.051L2119.72 692.068L2123.04 695.058L2126.43 698.025L2129.9 700.975L2133.44 703.916L2137.04 706.852L2140.72 709.79L2144.45 712.736L2148.25 715.696L2152.1 718.674L2156.01 721.678L2159.96 724.713L2163.96 727.784L2168 730.897L2172.07 734.056L2176.18 737.268L2180.32 740.536L2184.47 743.865L2188.65 747.259L2192.83 750.723L2197.02 754.261L2201.22 757.875L2205.41 761.57L2209.59 765.348L2213.76 769.212L2217.91 773.164L2222.04 777.206L2226.14 781.341L2230.21 785.569L2234.24 789.891L2238.24 794.311L2242.19 798.827L2246.08 803.442L2249.93 808.156L2253.71 812.969L2257.43 817.881L2261.08 822.893L2264.65 828.005L2268.15 833.217L2271.55 838.526L2274.87 843.934L2278.1 849.438L2281.22 855.038L2284.24 860.731L2287.16 866.517L2289.95 872.393L2292.64 878.357L2295.19 884.406L2297.63 890.539L2299.93 896.752L2302.09 903.042L2304.12 909.406L2306.01 915.84L2307.75 922.341L2309.35 928.905L2310.79 935.529L2312.08 942.208L2313.22 948.937L2314.2 955.713L2315.01 962.531L2315.67 969.387L2316.16 976.275L2316.49 983.191L2316.65 990.131L2316.65 997.089L2316.48 1004.06L2316.15 1011.04L2315.64 1018.02L2314.98 1025.01L2314.14 1031.98L2313.15 1038.95L2311.98 1045.89L2310.66 1052.82L2309.18 1059.72L2307.53 1066.59L2305.74 1073.43L2303.78 1080.22L2301.68 1086.97L2299.42 1093.68L2297.02 1100.33L2294.47 1106.92L2291.79 1113.46L2288.96 1119.93L2286 1126.33L2282.92 1132.66L2279.7 1138.91L2276.37 1145.09L2272.91 1151.19L2269.35 1157.2L2265.67 1163.13L2261.88 1168.97L2258 1174.72L2254.01 1180.38L2249.94 1185.95L2245.78 1191.42L2241.54 1196.8L2237.23 1202.08L2232.85 1207.27L2228.4 1212.36L2223.9 1217.36L2219.35 1222.27L2214.75 1227.08L2210.11 1231.81L2205.44 1236.45L2200.74 1241L2196.02 1245.47L2191.28 1249.85L2186.54 1254.16L2181.78 1258.4L2177.02 1262.56L2172.27 1266.66L2167.53 1270.69L2162.79 1274.66L2158.07 1278.58L2153.38 1282.45L2148.7 1286.27L2144.05 1290.05L2139.43 1293.79L2134.84 1297.49L2130.29 1301.17L2125.77 1304.82L2121.29 1308.45L2116.85 1312.07L2112.46 1315.68L2108.1 1319.28L2103.79 1322.88L2099.52 1326.48L2095.29 1330.09L2091.11 1333.7L2086.96 1337.34L2082.86 1340.99L2078.8 1344.66L2074.78 1348.35L2070.8 1352.07L2066.85 1355.82L2062.93 1359.6L2059.04 1363.4L2055.19 1367.25L2051.35 1371.12L2047.54 1375.03L2043.75 1378.98L2039.98 1382.96L2036.22 1386.97L2032.47 1391.02L2028.73 1395.1L2024.99 1399.22L2021.26 1403.36L2017.52 1407.54L2013.78 1411.74L2010.02 1415.97L2006.26 1420.22L2002.48 1424.48L1998.69 1428.77L1994.87 1433.07L1991.03 1437.37L1987.17 1441.69L1983.27 1446L1979.35 1450.32L1975.39 1454.63L1971.4 1458.93L1967.37 1463.22L1963.3 1467.49L1959.2 1471.73L1955.05 1475.95L1950.86 1480.14L1946.62 1484.3L1942.34 1488.41L1938.02 1492.48L1933.65 1496.51L1929.23 1500.48L1924.76 1504.39L1920.25 1508.24L1915.69 1512.03L1911.09 1515.74L1906.44 1519.39L1901.74 1522.95L1897 1526.44L1892.22 1529.84L1887.39 1533.15L1882.52 1536.37L1877.61 1539.5L1872.66 1542.52L1867.67 1545.45L1862.65 1548.28L1857.59 1550.99L1852.5 1553.6L1847.37 1556.1L1842.22 1558.48L1837.04 1560.75L1831.83 1562.9L1826.6 1564.94L1821.34 1566.84L1816.07 1568.63L1810.78 1570.28L1805.47 1571.81L1800.15 1573.2L1794.82 1574.46L1789.49 1575.59L1784.14 1576.57L1778.79 1577.42L1773.44 1578.12L1768.1 1578.68L1762.75 1579.09L1757.42 1579.35L1752.09 1579.47L1746.78 1579.43L1741.49 1579.24L1736.21 1578.89L1730.96 1578.39L1725.73 1577.73L1720.52 1576.91L1715.35 1575.94L1710.22 1574.8L1705.12 1573.51L1700.06 1572.06L1695.04 1570.44L1690.07 1568.67L1685.15 1566.74L1680.29 1564.66L1675.47 1562.42L1670.72 1560.02L1666.03 1557.47L1661.39 1554.77L1656.83 1551.92L1652.33 1548.93L1647.9 1545.79L1643.55 1542.52L1639.27 1539.11L1635.06 1535.57L1630.93 1531.91L1626.88 1528.12L1622.91 1524.22L1619.02 1520.2L1615.2 1516.08L1611.47 1511.86L1607.82 1507.55L1604.25 1503.14L1600.76 1498.66L1597.35 1494.1L1594.02 1489.48L1590.77 1484.79L1587.59 1480.06L1584.48 1475.27L1581.44 1470.45L1578.47 1465.59L1575.57 1460.71L1572.73 1455.81L1569.96 1450.9L1567.23 1445.99L1564.56 1441.08L1561.94 1436.18L1559.37 1431.3L1556.83 1426.44L1554.33 1421.61L1551.86 1416.81L1549.42 1412.06L1547 1407.36L1544.59 1402.7L1542.2 1398.1L1539.81 1393.57L1537.43 1389.09L1535.04 1384.69L1532.64 1380.36L1530.23 1376.1L1527.8 1371.92L1525.35 1367.82L1522.87 1363.79L1520.35 1359.85L1517.8 1355.99L1515.21 1352.21L1512.57 1348.51L1509.88 1344.89L1507.14 1341.35L1504.34 1337.88L1501.49 1334.49L1498.57 1331.17L1495.59 1327.91L1492.55 1324.72L1489.44 1321.59L1486.26 1318.52L1483.02 1315.5L1479.71 1312.52L1476.33 1309.58L1472.89 1306.67L1469.38 1303.8L1465.81 1300.94L1462.18 1298.1L1458.5 1295.27L1454.76 1292.43L1450.98 1289.58L1447.16 1286.72L1443.31 1283.84L1439.43 1280.92L1435.53 1277.95L1431.62 1274.94L1427.71 1271.87L1423.81 1268.74L1419.92 1265.54L1416.05 1262.26L1412.23 1258.89L1408.44 1255.43L1404.72 1251.88L1401.06 1248.22L1397.47 1244.46L1393.97 1240.6L1390.57 1236.61L1387.28 1232.52L1384.1 1228.3L1381.05 1223.97L1378.13 1219.52L1375.36 1214.95L1372.74 1210.26L1370.28 1205.46L1367.98 1200.54L1365.86 1195.51L1363.92 1190.38L1362.17 1185.13L1360.6 1179.79L1359.23 1174.36L1358.06 1168.83L1357.08 1163.23L1356.3 1157.54L1355.73 1151.78L1355.36 1145.96L1355.2 1140.07L1355.24 1134.14L1355.48 1128.16L1355.93 1122.14L1356.58 1116.1L1357.43 1110.02L1358.48 1103.94L1359.72 1097.84L1361.15 1091.74L1362.76 1085.64L1364.56 1079.56L1366.53 1073.5L1368.67 1067.46L1370.98 1061.45L1373.44 1055.48L1376.06 1049.55L1378.82 1043.68L1381.72 1037.86L1384.74 1032.09L1387.89 1026.39L1391.15 1020.77L1394.51 1015.21L1397.97 1009.73L1401.52 1004.33L1405.14 999.011L1408.84 993.777L1412.59 988.631L1416.4 983.572L1420.25 978.603L1424.14 973.725L1428.05 968.936L1431.98 964.239L1435.92 959.631L1439.87 955.111L1443.8 950.68L1447.72 946.335L1451.62 942.074L1455.49 937.895L1459.32 933.795L1463.12 929.771L1466.86 925.82L1470.55 921.939L1474.18 918.123L1477.75 914.37L1481.25 910.675L1484.68 907.033L1488.03 903.44L1491.3 899.892Z" fill="url(#paint3_linear_2_66)"/>
<path fill-rule="evenodd" clip-rule="evenodd" d="M1601.13 1403.03L1604.21 1399.63L1607.21 1396.26L1610.12 1392.92L1612.95 1389.6L1615.7 1386.3L1618.36 1383.03L1620.93 1379.76L1623.41 1376.5L1625.81 1373.25L1628.13 1369.99L1630.36 1366.73L1632.51 1363.46L1634.58 1360.18L1636.57 1356.88L1638.47 1353.56L1640.3 1350.22L1642.06 1346.84L1643.74 1343.44L1645.35 1340L1646.9 1336.52L1648.37 1332.99L1649.79 1329.43L1651.14 1325.81L1652.43 1322.15L1653.67 1318.43L1654.86 1314.65L1656 1310.82L1657.09 1306.93L1658.14 1302.97L1659.16 1298.96L1660.14 1294.87L1661.09 1290.72L1662.01 1286.51L1662.9 1282.22L1663.78 1277.86L1664.64 1273.43L1665.48 1268.93L1666.32 1264.36L1667.14 1259.71L1667.96 1254.99L1668.78 1250.19L1669.6 1245.32L1670.42 1240.37L1671.25 1235.34L1672.08 1230.22L1672.93 1225.03L1673.8 1219.77L1674.68 1214.42L1675.58 1208.99L1676.5 1203.48L1677.46 1197.9L1678.44 1192.24L1679.46 1186.5L1680.52 1180.69L1681.61 1174.8L1682.75 1168.85L1683.94 1162.83L1685.18 1156.74L1686.48 1150.59L1687.83 1144.38L1689.24 1138.11L1690.71 1131.79L1692.26 1125.42L1693.87 1119L1695.55 1112.54L1697.31 1106.04L1699.15 1099.51L1701.07 1092.95L1703.07 1086.37L1705.15 1079.76L1707.33 1073.14L1709.59 1066.51L1711.94 1059.88L1714.39 1053.25L1716.93 1046.62L1719.56 1040.01L1722.3 1033.41L1725.13 1026.84L1728.06 1020.3L1731.08 1013.79L1734.21 1007.33L1737.44 1000.91L1740.77 994.541L1744.2 988.234L1747.72 981.991L1751.35 975.819L1755.07 969.723L1758.9 963.708L1762.82 957.781L1766.83 951.946L1770.94 946.21L1775.14 940.577L1779.44 935.053L1783.82 929.643L1788.29 924.351L1792.84 919.182L1797.48 914.14L1802.2 909.23L1806.99 904.457L1811.87 899.823L1816.81 895.333L1821.82 890.989L1826.9 886.796L1832.05 882.757L1837.25 878.873L1842.51 875.148L1847.83 871.585L1853.19 868.187L1858.61 864.957L1864.07 861.898L1869.57 859.013L1875.11 856.307L1880.68 853.782L1886.28 851.442L1891.91 849.291L1897.56 847.33L1903.22 845.565L1908.91 843.997L1914.6 842.63L1920.3 841.466L1926.01 840.509L1931.71 839.759L1937.4 839.221L1943.08 838.894L1948.75 838.781L1954.4 838.884L1960.02 839.204L1965.61 839.74L1971.18 840.495L1976.7 841.468L1982.18 842.659L1987.61 844.067L1993 845.694L1998.32 847.536L2003.59 849.595L2008.8 851.868L2013.93 854.354L2018.99 857.052L2023.98 859.96L2028.88 863.075L2033.7 866.395L2038.44 869.917L2043.08 873.636L2047.62 877.55L2052.07 881.652L2056.41 885.938L2060.66 890.402L2064.79 895.039L2068.82 899.841L2072.74 904.801L2076.55 909.913L2080.25 915.168L2083.83 920.559L2087.3 926.077L2090.66 931.713L2093.9 937.459L2097.04 943.305L2100.06 949.242L2102.97 955.261L2105.78 961.351L2108.48 967.504L2111.08 973.708L2113.58 979.955L2115.98 986.235L2118.29 992.538L2120.5 998.853L2122.64 1005.17L2124.69 1011.49L2126.67 1017.78L2128.58 1024.06L2130.42 1030.3L2132.2 1036.5L2133.93 1042.65L2135.61 1048.74L2137.24 1054.77L2138.84 1060.72L2140.41 1066.6L2141.96 1072.39L2143.49 1078.09L2145.01 1083.7L2146.52 1089.2L2148.03 1094.6L2149.56 1099.9L2151.1 1105.08L2152.65 1110.15L2154.24 1115.1L2155.85 1119.94L2157.51 1124.65L2159.2 1129.25L2160.94 1133.73L2162.74 1138.1L2164.59 1142.35L2166.5 1146.48L2168.48 1150.51L2170.52 1154.42L2172.64 1158.23L2174.83 1161.94L2177.09 1165.56L2179.43 1169.08L2181.85 1172.52L2184.35 1175.87L2186.92 1179.15L2189.58 1182.36L2192.31 1185.51L2195.12 1188.6L2198.01 1191.64L2200.98 1194.63L2204.02 1197.59L2207.14 1200.51L2210.34 1203.4L2213.6 1206.27L2216.94 1209.13L2220.34 1211.97L2223.82 1214.81L2227.35 1217.66L2230.95 1220.51L2234.6 1223.37L2238.31 1226.25L2242.07 1229.16L2245.87 1232.09L2249.72 1235.06L2253.61 1238.07L2257.53 1241.13L2261.49 1244.24L2265.47 1247.4L2269.47 1250.62L2273.48 1253.9L2277.51 1257.26L2281.54 1260.68L2285.58 1264.18L2289.61 1267.75L2293.64 1271.41L2297.65 1275.15L2301.64 1278.97L2305.61 1282.88L2309.56 1286.89L2313.48 1290.98L2317.36 1295.16L2321.2 1299.44L2325 1303.81L2328.75 1308.28L2332.44 1312.84L2336.08 1317.5L2339.66 1322.26L2343.17 1327.11L2346.6 1332.06L2349.96 1337.11L2353.24 1342.25L2356.43 1347.49L2359.53 1352.82L2362.53 1358.25L2365.43 1363.76L2368.23 1369.37L2370.92 1375.06L2373.49 1380.84L2375.95 1386.7L2378.28 1392.64L2380.49 1398.66L2382.57 1404.75L2384.51 1410.92L2386.32 1417.15L2387.99 1423.46L2389.52 1429.82L2390.9 1436.24L2392.13 1442.71L2393.21 1449.23L2394.14 1455.8L2394.92 1462.41L2395.54 1469.05L2396 1475.73L2396.31 1482.44L2396.46 1489.16L2396.44 1495.91L2396.27 1502.67L2395.93 1509.44L2395.44 1516.21L2394.78 1522.98L2393.97 1529.74L2392.99 1536.5L2391.86 1543.24L2390.58 1549.95L2389.14 1556.65L2387.54 1563.31L2385.8 1569.94L2383.9 1576.53L2381.86 1583.08L2379.68 1589.58L2377.35 1596.04L2374.89 1602.43L2372.29 1608.77L2369.55 1615.05L2366.69 1621.26L2363.71 1627.4L2360.6 1633.47L2357.37 1639.47L2354.04 1645.39L2350.59 1651.22L2347.03 1656.98L2343.37 1662.65L2339.62 1668.23L2335.77 1673.72L2331.84 1679.13L2327.82 1684.44L2323.72 1689.66L2319.56 1694.79L2315.33 1699.83L2311.03 1704.77L2306.69 1709.63L2302.29 1714.39L2297.85 1719.07L2293.37 1723.65L2288.86 1728.16L2284.33 1732.58L2279.77 1736.92L2275.2 1741.18L2270.61 1745.36L2266.03 1749.48L2261.43 1753.52L2256.85 1757.5L2252.27 1761.42L2247.7 1765.28L2243.14 1769.09L2238.61 1772.84L2234.1 1776.56L2229.61 1780.22L2225.15 1783.86L2220.72 1787.46L2216.33 1791.03L2211.97 1794.58L2207.65 1798.11L2203.36 1801.62L2199.12 1805.13L2194.91 1808.62L2190.75 1812.12L2186.63 1815.62L2182.55 1819.12L2178.51 1822.64L2174.51 1826.17L2170.55 1829.71L2166.63 1833.28L2162.75 1836.87L2158.9 1840.48L2155.09 1844.12L2151.31 1847.79L2147.56 1851.49L2143.83 1855.22L2140.13 1858.98L2136.45 1862.78L2132.8 1866.61L2129.15 1870.48L2125.52 1874.38L2121.9 1878.31L2118.29 1882.27L2114.68 1886.27L2111.07 1890.29L2107.46 1894.35L2103.85 1898.43L2100.23 1902.53L2096.59 1906.65L2092.94 1910.8L2089.28 1914.96L2085.59 1919.13L2081.89 1923.31L2078.15 1927.5L2074.39 1931.69L2070.6 1935.88L2066.78 1940.07L2062.93 1944.25L2059.04 1948.41L2055.11 1952.56L2051.15 1956.68L2047.14 1960.78L2043.1 1964.85L2039.01 1968.88L2034.88 1972.88L2030.7 1976.83L2026.48 1980.74L2022.22 1984.6L2017.91 1988.4L2013.55 1992.14L2009.15 1995.82L2004.71 1999.43L2000.22 2002.97L1995.69 2006.43L1991.11 2009.82L1986.5 2013.12L1981.84 2016.34L1977.14 2019.47L1972.4 2022.51L1967.63 2025.46L1962.82 2028.3L1957.97 2031.05L1953.09 2033.69L1948.18 2036.23L1943.23 2038.66L1938.26 2040.98L1933.26 2043.19L1928.24 2045.28L1923.2 2047.26L1918.13 2049.12L1913.04 2050.86L1907.94 2052.47L1902.83 2053.96L1897.7 2055.32L1892.56 2056.55L1887.41 2057.65L1882.26 2058.61L1877.1 2059.44L1871.94 2060.13L1866.79 2060.68L1861.64 2061.09L1856.5 2061.35L1851.37 2061.47L1846.25 2061.44L1841.14 2061.27L1836.06 2060.94L1830.99 2060.46L1825.96 2059.83L1820.94 2059.05L1815.96 2058.11L1811.01 2057.02L1806.1 2055.77L1801.23 2054.37L1796.4 2052.82L1791.61 2051.11L1786.87 2049.25L1782.18 2047.23L1777.55 2045.07L1772.97 2042.75L1768.45 2040.29L1763.99 2037.68L1759.59 2034.92L1755.26 2032.03L1751 2029L1746.81 2025.83L1742.69 2022.53L1738.64 2019.11L1734.67 2015.56L1730.77 2011.89L1726.95 2008.12L1723.2 2004.23L1719.54 2000.24L1715.95 1996.16L1712.44 1991.98L1709 1987.72L1705.65 1983.38L1702.37 1978.96L1699.16 1974.49L1696.03 1969.95L1692.98 1965.36L1689.99 1960.73L1687.07 1956.05L1684.22 1951.35L1681.43 1946.62L1678.7 1941.88L1676.03 1937.12L1673.42 1932.36L1670.85 1927.61L1668.33 1922.86L1665.86 1918.13L1663.42 1913.43L1661.02 1908.75L1658.65 1904.11L1656.3 1899.5L1653.98 1894.94L1651.67 1890.43L1649.37 1885.98L1647.08 1881.59L1644.79 1877.25L1642.49 1872.99L1640.19 1868.79L1637.87 1864.67L1635.53 1860.62L1633.18 1856.64L1630.79 1852.75L1628.37 1848.93L1625.92 1845.19L1623.43 1841.53L1620.89 1837.95L1618.31 1834.44L1615.67 1831.01L1612.98 1827.65L1610.23 1824.37L1607.43 1821.16L1604.56 1818.01L1601.64 1814.92L1598.65 1811.89L1595.59 1808.91L1592.47 1805.99L1589.28 1803.1L1586.03 1800.26L1582.72 1797.45L1579.34 1794.67L1575.91 1791.9L1572.41 1789.16L1568.87 1786.41L1565.27 1783.67L1561.63 1780.92L1557.96 1778.15L1554.25 1775.36L1550.51 1772.53L1546.76 1769.67L1543 1766.75L1539.23 1763.79L1535.47 1760.76L1531.73 1757.66L1528.01 1754.48L1524.33 1751.22L1520.69 1747.88L1517.1 1744.44L1513.58 1740.9L1510.13 1737.26L1506.77 1733.52L1503.49 1729.66L1500.33 1725.69L1497.27 1721.61L1494.33 1717.42L1491.53 1713.11L1488.87 1708.68L1486.35 1704.14L1483.99 1699.49L1481.78 1694.73L1479.75 1689.85L1477.89 1684.88L1476.21 1679.8L1474.71 1674.62L1473.39 1669.35L1472.27 1664L1471.34 1658.56L1470.6 1653.05L1470.05 1647.47L1469.71 1641.82L1469.56 1636.12L1469.61 1630.37L1469.85 1624.57L1470.3 1618.74L1470.93 1612.87L1471.76 1606.98L1472.78 1601.08L1473.98 1595.17L1475.37 1589.25L1476.94 1583.34L1478.68 1577.44L1480.59 1571.55L1482.67 1565.7L1484.9 1559.87L1487.29 1554.08L1489.82 1548.33L1492.49 1542.62L1495.29 1536.97L1498.21 1531.38L1501.25 1525.85L1504.4 1520.39L1507.66 1515L1511 1509.68L1514.43 1504.44L1517.93 1499.27L1521.5 1494.19L1525.13 1489.2L1528.81 1484.29L1532.53 1479.46L1536.28 1474.73L1540.06 1470.08L1543.86 1465.52L1547.66 1461.04L1551.47 1456.66L1555.27 1452.35L1559.05 1448.13L1562.82 1444L1566.55 1439.94L1570.26 1435.96L1573.92 1432.05L1577.53 1428.21L1581.1 1424.44L1584.6 1420.74L1588.05 1417.09L1591.43 1413.5L1594.74 1409.97L1597.97 1406.48L1601.13 1403.03Z" fill="url(#paint4_linear_2_66)"/>
</g>
<defs>
<linearGradient id="paint0_linear_2_66" x1="-207.512" y1="374.613" x2="-407.462" y2="875.414" gradientUnits="userSpaceOnUse">
<stop stop-color="#B3DBFD"/>
<stop offset="1" stop-color="#0080F0"/>
</linearGradient>
<linearGradient id="paint1_linear_2_66" x1="251.062" y1="468.704" x2="344.766" y2="364.773" gradientUnits="userSpaceOnUse">
<stop stop-color="#0080F0" stop-opacity="0.72"/>
<stop offset="0.78125" stop-color="#8CC7FA" stop-opacity="0.649688"/>
<stop offset="0.78135" stop-color="#8FC9FA" stop-opacity="0.648281"/>
<stop offset="0.885416" stop-color="#A0D1FC" stop-opacity="0.63958"/>
<stop offset="1" stop-color="#B3DBFD" stop-opacity="0.63"/>
</linearGradient>
<linearGradient id="paint2_linear_2_66" x1="2.43484" y1="426.358" x2="-263.379" y2="961.309" gradientUnits="userSpaceOnUse">
<stop offset="0.171875" stop-color="#B3DBFD"/>
<stop offset="0.802083" stop-color="#0080F0"/>
</linearGradient>
<linearGradient id="paint3_linear_2_66" x1="1946.5" y1="149" x2="2293.11" y2="477.215" gradientUnits="userSpaceOnUse">
<stop offset="0.16621" stop-color="#B3DBFD"/>
<stop offset="1" stop-color="#0080F0"/>
</linearGradient>
<linearGradient id="paint4_linear_2_66" x1="1915.99" y1="1696.37" x2="1437.27" y2="1239.8" gradientUnits="userSpaceOnUse">
<stop offset="0.739362" stop-color="#0080F0"/>
<stop offset="1" stop-color="#86D3FF"/>
</linearGradient>
<clipPath id="clip0_2_66">
<rect width="1920" height="1080" fill="white"/>
</clipPath>
</defs>
</svg>
