<svg width="374" height="1080" viewBox="0 0 374 1080" fill="none" xmlns="http://www.w3.org/2000/svg">
<g clip-path="url(#clip0_2_66)">
<rect width="374" height="1080" fill="#0F172A"/>
<path fill-rule="evenodd" clip-rule="evenodd" d="M274.425 389.697L275.212 388.847L276.017 388.01L276.841 387.185L277.684 386.374L278.544 385.576L279.422 384.792L280.317 384.022L281.228 383.267L282.154 382.526L283.097 381.8L284.053 381.088L285.025 380.391L286.01 379.708L287.008 379.04L288.019 378.387L289.042 377.749L290.077 377.124L291.124 376.514L292.182 375.918L293.25 375.336L294.328 374.768L295.417 374.213L296.515 373.671L297.622 373.143L298.738 372.628L299.863 372.125L300.997 371.635L302.139 371.158L303.289 370.693L304.447 370.24L305.613 369.799L306.787 369.37L307.969 368.953L309.158 368.549L310.354 368.156L311.558 367.776L312.768 367.408L313.987 367.053L315.212 366.71L316.444 366.38L317.682 366.064L318.928 365.761L320.179 365.473L321.437 365.199L322.702 364.94L323.971 364.697L325.247 364.469L326.528 364.258L327.813 364.064L329.104 363.888L330.398 363.73L331.696 363.59L332.998 363.469L334.302 363.369L335.609 363.288L336.918 363.228L338.228 363.19L339.539 363.174L340.85 363.18L342.16 363.209L343.47 363.262L344.777 363.339L346.082 363.44L347.383 363.566L348.68 363.718L349.973 363.895L351.259 364.098L352.539 364.328L353.812 364.585L355.076 364.868L356.332 365.179L357.577 365.518L358.811 365.885L360.034 366.279L361.243 366.702L362.439 367.153L363.621 367.632L364.786 368.14L365.935 368.676L367.067 369.241L368.18 369.834L369.274 370.455L370.347 371.104L371.399 371.781L372.43 372.485L373.438 373.216L374.421 373.974L375.381 374.759L376.316 375.569L377.224 376.405L378.106 377.265L378.961 378.15L379.788 379.058L380.586 379.989L381.356 380.943L382.097 381.918L382.807 382.914L383.487 383.93L384.137 384.965L384.756 386.018L385.344 387.089L385.901 388.176L386.426 389.279L386.919 390.397L387.381 391.529L387.811 392.674L388.21 393.83L388.577 394.998L388.912 396.177L389.216 397.364L389.489 398.56L389.731 399.763L389.942 400.973L390.123 402.189L390.274 403.409L390.395 404.633L390.487 405.86L390.55 407.089L390.584 408.32L390.591 409.551L390.571 410.782L390.524 412.011L390.451 413.239L390.352 414.464L390.229 415.686L390.082 416.904L389.912 418.117L389.719 419.325L389.505 420.527L389.269 421.723L389.013 422.912L388.738 424.094L388.444 425.268L388.132 426.433L387.803 427.59L387.458 428.738L387.097 429.877L386.722 431.006L386.332 432.125L385.929 433.235L385.513 434.334L385.085 435.423L384.645 436.501L384.194 437.57L383.732 438.627L383.26 439.674L382.778 440.71L382.287 441.736L381.787 442.751L381.278 443.755L380.76 444.749L380.234 445.732L379.699 446.705L379.157 447.667L378.607 448.618L378.049 449.559L377.484 450.489L376.911 451.408L376.33 452.318L375.742 453.216L375.147 454.104L374.545 454.981L373.935 455.848L373.317 456.704L372.693 457.549L372.061 458.383L371.421 459.207L370.775 460.02L370.121 460.821L369.46 461.612L368.791 462.391L368.116 463.159L367.433 463.915L366.743 464.66L366.046 465.393L365.342 466.114L364.632 466.824L363.914 467.521L363.191 468.207L362.46 468.88L361.724 469.54L360.982 470.189L360.235 470.825L359.482 471.448L358.724 472.059L357.961 472.657L357.193 473.243L356.421 473.816L355.645 474.377L354.865 474.925L354.082 475.46L353.295 475.982L352.506 476.492L351.713 476.989L350.918 477.474L350.121 477.946L349.321 478.405L348.52 478.852L347.718 479.287L346.914 479.709L346.109 480.118L345.303 480.516L344.496 480.901L343.69 481.274L342.883 481.635L342.076 481.984L341.27 482.321L340.464 482.646L339.659 482.96L338.855 483.263L338.052 483.554L337.25 483.834L336.45 484.103L335.652 484.361L334.856 484.608L334.061 484.845L333.269 485.072L332.48 485.288L331.692 485.494L330.908 485.69L330.126 485.877L329.347 486.054L328.571 486.222L327.798 486.381L327.029 486.531L326.262 486.673L325.499 486.806L324.74 486.931L323.983 487.047L323.231 487.156L322.482 487.258L321.736 487.352L320.994 487.439L320.255 487.52L319.52 487.593L318.789 487.66L318.061 487.721L317.336 487.775L316.615 487.824L315.898 487.867L315.183 487.904L314.472 487.935L313.764 487.961L313.059 487.982L312.357 487.997L311.658 488.007L310.962 488.012L310.268 488.012L309.578 488.006L308.89 487.995L308.204 487.978L307.521 487.956L306.841 487.927L306.163 487.893L305.488 487.853L304.815 487.807L304.144 487.754L303.477 487.694L302.812 487.628L302.149 487.555L301.489 487.474L300.832 487.386L300.178 487.29L299.527 487.186L298.88 487.075L298.235 486.955L297.594 486.828L296.956 486.692L296.323 486.548L295.692 486.395L295.066 486.234L294.444 486.064L293.827 485.885L293.213 485.698L292.604 485.502L292 485.297L291.401 485.084L290.807 484.863L290.217 484.632L289.633 484.394L289.054 484.147L288.48 483.891L287.912 483.628L287.35 483.356L286.793 483.076L286.241 482.789L285.696 482.493L285.156 482.19L284.623 481.879L284.095 481.561L283.574 481.235L283.058 480.902L282.549 480.562L282.045 480.215L281.548 479.862L281.057 479.502L280.572 479.135L280.092 478.762L279.619 478.383L279.151 477.998L278.69 477.608L278.234 477.211L277.783 476.81L277.338 476.403L276.898 475.991L276.464 475.575L276.034 475.153L275.61 474.727L275.19 474.296L274.775 473.861L274.364 473.421L273.957 472.978L273.555 472.53L273.157 472.078L272.762 471.622L272.371 471.162L271.985 470.698L271.601 470.229L271.221 469.757L270.845 469.281L270.472 468.8L270.103 468.315L269.737 467.825L269.375 467.332L269.017 466.833L268.662 466.33L268.311 465.822L267.964 465.309L267.621 464.79L267.283 464.267L266.949 463.738L266.619 463.204L266.294 462.664L265.974 462.119L265.659 461.568L265.349 461.011L265.045 460.449L264.746 459.88L264.453 459.305L264.166 458.724L263.885 458.138L263.611 457.544L263.343 456.945L263.081 456.339L262.826 455.728L262.579 455.109L262.338 454.485L262.105 453.854L261.88 453.217L261.662 452.573L261.452 451.924L261.249 451.268L261.055 450.605L260.869 449.937L260.69 449.262L260.52 448.581L260.358 447.894L260.205 447.2L260.059 446.501L259.922 445.795L259.793 445.084L259.672 444.366L259.559 443.642L259.455 442.912L259.358 442.176L259.27 441.434L259.19 440.685L259.118 439.931L259.054 439.17L258.998 438.403L258.95 437.629L258.911 436.849L258.879 436.062L258.855 435.269L258.84 434.47L258.833 433.663L258.834 432.85L258.843 432.03L258.862 431.203L258.889 430.369L258.925 429.528L258.97 428.68L259.025 427.824L259.089 426.962L259.164 426.092L259.249 425.215L259.344 424.332L259.451 423.441L259.569 422.543L259.699 421.638L259.842 420.727L259.998 419.809L260.167 418.885L260.35 417.955L260.547 417.019L260.76 416.077L260.988 415.131L261.232 414.18L261.493 413.225L261.771 412.266L262.067 411.304L262.38 410.339L262.713 409.372L263.064 408.403L263.434 407.433L263.825 406.463L264.235 405.493L264.666 404.524L265.117 403.556L265.589 402.591L266.082 401.628L266.596 400.669L267.132 399.715L267.689 398.765L268.268 397.821L268.868 396.884L269.489 395.953L270.131 395.031L270.795 394.117L271.48 393.212L272.186 392.317L272.912 391.432L273.659 390.559L274.425 389.697Z" fill="url(#paint0_linear_2_66)"/>
<path fill-rule="evenodd" clip-rule="evenodd" d="M378.909 202.545L377.832 202.119L376.76 201.67L375.694 201.199L374.633 200.707L373.578 200.192L372.53 199.657L371.489 199.101L370.456 198.524L369.43 197.927L368.413 197.311L367.403 196.676L366.403 196.022L365.41 195.35L364.427 194.66L363.453 193.953L362.488 193.23L361.532 192.49L360.585 191.734L359.647 190.963L358.719 190.177L357.799 189.377L356.889 188.562L355.987 187.734L355.095 186.892L354.211 186.038L353.336 185.17L352.47 184.29L351.612 183.397L350.763 182.493L349.922 181.576L349.09 180.648L348.266 179.708L347.451 178.757L346.644 177.795L345.846 176.821L345.057 175.836L344.276 174.839L343.505 173.832L342.743 172.813L341.991 171.783L341.248 170.743L340.517 169.691L339.796 168.627L339.086 167.553L338.388 166.468L337.702 165.372L337.03 164.264L336.37 163.146L335.725 162.018L335.095 160.878L334.479 159.728L333.88 158.568L333.298 157.398L332.733 156.218L332.185 155.028L331.657 153.829L331.148 152.621L330.66 151.405L330.192 150.18L329.746 148.947L329.322 147.708L328.922 146.461L328.545 145.208L328.193 143.948L327.866 142.684L327.564 141.415L327.289 140.142L327.041 138.865L326.821 137.586L326.629 136.304L326.465 135.021L326.331 133.738L326.227 132.454L326.154 131.172L326.111 129.891L326.1 128.613L326.12 127.339L326.173 126.068L326.258 124.803L326.376 123.544L326.527 122.292L326.711 121.048L326.928 119.812L327.179 118.586L327.464 117.371L327.782 116.167L328.134 114.976L328.518 113.798L328.937 112.634L329.388 111.485L329.872 110.352L330.388 109.235L330.936 108.136L331.516 107.055L332.127 105.993L332.769 104.95L333.441 103.928L334.143 102.927L334.873 101.947L335.632 100.989L336.418 100.055L337.231 99.1428L338.07 98.2548L338.934 97.3909L339.823 96.5514L340.735 95.7368L341.67 94.9474L342.626 94.1834L343.604 93.4451L344.601 92.7327L345.618 92.0463L346.653 91.3861L347.705 90.7522L348.773 90.1446L349.856 89.5633L350.954 89.0083L352.065 88.4796L353.189 87.977L354.324 87.5003L355.469 87.0493L356.624 86.6238L357.788 86.2236L358.959 85.8483L360.137 85.4976L361.321 85.171L362.51 84.8683L363.703 84.5889L364.899 84.3324L366.097 84.0982L367.297 83.886L368.499 83.6951L369.7 83.525L370.9 83.3752L372.1 83.245L373.297 83.1338L374.493 83.0412L375.685 82.9664L376.873 82.9089L378.058 82.868L379.238 82.8433L380.413 82.8342L381.584 82.8402L382.748 82.8609L383.907 82.8957L385.06 82.9443L386.207 83.0063L387.347 83.0813L388.481 83.1689L389.608 83.2689L390.729 83.3811L391.842 83.505L392.949 83.6406L394.049 83.7877L395.142 83.946L396.228 84.1154L397.306 84.2958L398.378 84.4872L399.442 84.6894L400.5 84.9023L401.55 85.126L402.593 85.3604L403.628 85.6055L404.657 85.8613L405.678 86.1278L406.692 86.4051L407.698 86.693L408.697 86.9917L409.688 87.3012L410.672 87.6215L411.648 87.9526L412.616 88.2945L413.576 88.6473L414.528 89.0108L415.472 89.3852L416.407 89.7703L417.334 90.1661L418.252 90.5725L419.161 90.9895L420.062 91.4169L420.953 91.8545L421.835 92.3024L422.708 92.7601L423.571 93.2276L424.424 93.7047L425.268 94.191L426.101 94.6864L426.924 95.1906L427.738 95.7034L428.541 96.2246L429.333 96.7539L430.115 97.2911L430.886 97.836L431.647 98.3882L432.397 98.9477L433.136 99.514L433.864 100.087L434.581 100.667L435.287 101.252L435.982 101.844L436.666 102.441L437.339 103.044L438 103.652L438.651 104.265L439.29 104.882L439.918 105.504L440.535 106.131L441.14 106.761L441.735 107.395L442.318 108.032L442.891 108.673L443.452 109.316L444.003 109.963L444.542 110.611L445.071 111.263L445.59 111.916L446.097 112.571L446.595 113.228L447.082 113.886L447.558 114.546L448.025 115.206L448.481 115.868L448.928 116.53L449.364 117.193L449.792 117.857L450.21 118.52L450.618 119.184L451.018 119.847L451.409 120.51L451.791 121.173L452.164 121.836L452.53 122.498L452.887 123.159L453.236 123.82L453.577 124.479L453.911 125.138L454.238 125.796L454.558 126.453L454.87 127.109L455.176 127.764L455.475 128.418L455.767 129.07L456.054 129.722L456.334 130.373L456.608 131.023L456.875 131.672L457.137 132.32L457.393 132.968L457.643 133.614L457.887 134.261L458.125 134.906L458.357 135.552L458.583 136.196L458.802 136.841L459.015 137.485L459.222 138.13L459.422 138.774L459.615 139.418L459.8 140.062L459.978 140.707L460.149 141.351L460.312 141.995L460.467 142.64L460.614 143.284L460.753 143.929L460.883 144.573L461.004 145.217L461.116 145.861L461.22 146.505L461.314 147.148L461.4 147.791L461.475 148.433L461.541 149.074L461.598 149.715L461.645 150.354L461.682 150.993L461.71 151.63L461.727 152.266L461.735 152.9L461.733 153.533L461.722 154.164L461.701 154.793L461.67 155.42L461.629 156.045L461.579 156.668L461.519 157.288L461.45 157.906L461.371 158.521L461.284 159.134L461.186 159.744L461.08 160.351L460.965 160.955L460.841 161.556L460.708 162.154L460.566 162.748L460.416 163.34L460.257 163.928L460.091 164.513L459.916 165.094L459.733 165.673L459.543 166.248L459.346 166.819L459.141 167.388L458.929 167.953L458.711 168.515L458.486 169.073L458.254 169.629L458.016 170.182L457.772 170.732L457.522 171.279L457.266 171.823L457.005 172.365L456.738 172.904L456.465 173.441L456.188 173.976L455.905 174.509L455.617 175.039L455.324 175.567L455.026 176.094L454.722 176.619L454.414 177.142L454.1 177.663L453.781 178.182L453.457 178.7L453.127 179.216L452.792 179.731L452.451 180.243L452.104 180.754L451.751 181.263L451.391 181.77L451.025 182.274L450.653 182.777L450.274 183.277L449.888 183.775L449.495 184.27L449.095 184.763L448.688 185.253L448.273 185.74L447.85 186.224L447.42 186.705L446.982 187.182L446.537 187.656L446.083 188.126L445.621 188.593L445.15 189.055L444.672 189.514L444.185 189.968L443.689 190.418L443.185 190.863L442.672 191.303L442.151 191.739L441.621 192.17L441.082 192.595L440.535 193.016L439.979 193.431L439.414 193.841L438.84 194.246L438.258 194.645L437.667 195.038L437.067 195.427L436.459 195.81L435.842 196.187L435.216 196.559L434.582 196.925L433.939 197.286L433.287 197.642L432.627 197.992L431.958 198.337L431.28 198.677L430.594 199.011L429.898 199.341L429.194 199.665L428.481 199.984L427.759 200.297L427.028 200.606L426.288 200.909L425.539 201.207L424.78 201.499L424.012 201.787L423.234 202.068L422.447 202.344L421.649 202.614L420.842 202.878L420.025 203.136L419.197 203.388L418.359 203.632L417.511 203.87L416.652 204.1L415.783 204.322L414.903 204.536L414.012 204.741L413.111 204.937L412.199 205.124L411.276 205.3L410.343 205.465L409.398 205.619L408.444 205.761L407.479 205.89L406.504 206.006L405.519 206.107L404.525 206.194L403.521 206.266L402.507 206.322L401.486 206.362L400.455 206.384L399.417 206.389L398.371 206.375L397.319 206.343L396.259 206.291L395.194 206.22L394.123 206.128L393.048 206.016L391.968 205.883L390.884 205.728L389.797 205.552L388.708 205.353L387.617 205.132L386.526 204.889L385.433 204.623L384.341 204.334L383.25 204.022L382.161 203.687L381.074 203.329L379.989 202.948L378.909 202.545Z" fill="url(#paint1_linear_2_66)"/>
<path fill-rule="evenodd" clip-rule="evenodd" d="M64.0827 12.3704L64.6695 12.5606L65.2531 12.7643L65.8332 12.9812L66.4096 13.2114L66.9819 13.4545L67.55 13.7105L68.1137 13.979L68.6727 14.26L69.2268 14.5532L69.776 14.8582L70.3201 15.1749L70.859 15.5031L71.3925 15.8423L71.9207 16.1924L72.4434 16.5531L72.9607 16.9242L73.4725 17.3052L73.9788 17.6961L74.4796 18.0965L74.975 18.5061L75.4649 18.9248L75.9494 19.3523L76.4286 19.7884L76.9025 20.2328L77.3712 20.6854L77.8346 21.1461L78.293 21.6145L78.7462 22.0907L79.1943 22.5744L79.6375 23.0656L80.0756 23.5642L80.5087 24.07L80.9369 24.583L81.36 25.1031L81.778 25.6304L82.1909 26.1648L82.5985 26.7062L83.0008 27.2547L83.3976 27.8102L83.7888 28.3729L84.1741 28.9426L84.5533 29.5194L84.9263 30.1034L85.2927 30.6945L85.6522 31.2927L86.0046 31.8982L86.3495 32.5107L86.6867 33.1304L87.0159 33.7571L87.3365 34.3909L87.6484 35.0317L87.9512 35.6795L88.2444 36.334L88.5277 36.9953L88.8008 37.6633L89.0632 38.3377L89.3145 39.0185L89.5544 39.7054L89.7825 40.3984L89.9983 41.0971L90.2015 41.8014L90.3917 42.5111L90.5685 43.2258L90.7317 43.9454L90.8807 44.6695L91.0153 45.3977L91.1351 46.1299L91.2398 46.8655L91.3292 47.6044L91.4027 48.346L91.4603 49.0901L91.5015 49.8362L91.5261 50.5838L91.5338 51.3326L91.5244 52.0821L91.4977 52.8318L91.4534 53.5812L91.3913 54.3299L91.3113 55.0774L91.2133 55.8232L91.0972 56.5667L90.9627 57.3074L90.81 58.0448L90.639 58.7784L90.4495 59.5077L90.2418 60.2321L90.0158 60.9511L89.7716 61.6642L89.5093 62.3708L89.2291 63.0705L88.9312 63.7628L88.6156 64.4471L88.2827 65.1229L87.9327 65.7899L87.5658 66.4475L87.1825 67.0953L86.7829 67.7328L86.3674 68.3597L85.9365 68.9756L85.4904 69.58L85.0297 70.1727L84.5547 70.7532L84.0658 71.3213L83.5636 71.8766L83.0484 72.4189L82.5208 72.948L81.9813 73.4635L81.4303 73.9653L80.8684 74.4533L80.2961 74.9271L79.7138 75.3867L79.1222 75.8319L78.5216 76.2627L77.9128 76.6789L77.2961 77.0805L76.6721 77.4674L76.0414 77.8398L75.4045 78.1974L74.7618 78.5405L74.1141 78.8691L73.4617 79.1832L72.8051 79.483L72.145 79.7686L71.4818 80.0401L70.8159 80.2978L70.148 80.5418L69.4783 80.7722L68.8075 80.9895L68.1359 81.1937L67.4639 81.3852L66.792 81.5642L66.1205 81.7309L65.4499 81.8858L64.7805 82.0291L64.1125 82.161L63.4465 82.282L62.7825 82.3923L62.121 82.4923L61.4621 82.5823L60.8061 82.6625L60.1532 82.7334L59.5036 82.795L58.8574 82.8478L58.2147 82.8919L57.5757 82.9276L56.9405 82.9551L56.3092 82.9746L55.6818 82.9863L55.0584 82.9904L54.4391 82.987L53.8238 82.9763L53.2127 82.9583L52.6058 82.9333L52.003 82.9012L51.4044 82.8623L50.8101 82.8164L50.22 82.7638L49.6341 82.7044L49.0524 82.6383L48.475 82.5655L47.9019 82.4859L47.3331 82.3997L46.7686 82.3069L46.2084 82.2073L45.6526 82.101L45.1012 81.988L44.5543 81.8683L44.0118 81.7419L43.4739 81.6086L42.9405 81.4686L42.4118 81.3218L41.8878 81.1682L41.3685 81.0078L40.8541 80.8406L40.3447 80.6667L39.8402 80.4859L39.3408 80.2985L38.8466 80.1044L38.3576 79.9036L37.874 79.6963L37.3958 79.4825L36.923 79.2624L36.4558 79.036L35.9943 78.8035L35.5385 78.565L35.0884 78.3206L34.6442 78.0705L34.2058 77.8147L33.7734 77.5535L33.347 77.2869L32.9267 77.0151L32.5124 76.7382L32.1043 76.4563L31.7023 76.1697L31.3066 75.8783L30.9171 75.5825L30.5338 75.2822L30.1569 74.9777L29.7862 74.6691L29.4219 74.3566L29.0639 74.0402L28.7123 73.7201L28.367 73.3966L28.028 73.0696L27.6953 72.7394L27.369 72.4061L27.0489 72.0699L26.7352 71.7308L26.4276 71.3892L26.1263 71.045L25.8311 70.6985L25.5421 70.3497L25.2591 69.9988L24.9822 69.646L24.7113 69.2914L24.4463 68.9351L24.1871 68.5771L23.9338 68.2178L23.6862 67.8571L23.4442 67.4952L23.2079 67.1322L22.977 66.7683L22.7515 66.4034L22.5314 66.0378L22.3165 65.6716L22.1067 65.3048L21.9019 64.9375L21.7021 64.5699L21.507 64.202L21.3167 63.8339L21.131 63.4656L20.9498 63.0973L20.7729 62.7289L20.6003 62.3607L20.4319 61.9925L20.2675 61.6245L20.107 61.2566L19.9504 60.889L19.7976 60.5216L19.6484 60.1544L19.5028 59.7874L19.3607 59.4207L19.222 59.0542L19.0867 58.6879L18.9548 58.3218L18.8261 57.9558L18.7008 57.59L18.5787 57.2242L18.4599 56.8584L18.3444 56.4926L18.2323 56.1268L18.1235 55.7608L18.0183 55.3946L17.9166 55.0281L17.8185 54.6614L17.7243 54.2943L17.6339 53.9269L17.5474 53.559L17.4651 53.1907L17.387 52.8219L17.3131 52.4527L17.2437 52.083L17.1788 51.7129L17.1185 51.3423L17.0629 50.9713L17.0122 50.5998L16.9663 50.2281L16.9255 49.856L16.8897 49.4836L16.859 49.111L16.8336 48.7383L16.8134 48.3654L16.7985 47.9926L16.789 47.6197L16.7848 47.2469L16.786 46.8744L16.7927 46.5021L16.8047 46.1301L16.822 45.7585L16.8448 45.3874L16.8728 45.0169L16.9062 44.647L16.9449 44.2778L16.9888 43.9094L17.038 43.5419L17.0924 43.1753L17.1519 42.8096L17.2166 42.4451L17.2863 42.0816L17.361 41.7194L17.4406 41.3584L17.5252 40.9986L17.6145 40.6402L17.7085 40.2832L17.8072 39.9277L17.9104 39.5735L18.0181 39.2209L18.1301 38.8697L18.2463 38.5201L18.3667 38.172L18.4912 37.8254L18.6196 37.4803L18.7518 37.1367L18.8877 36.7947L19.0272 36.454L19.1702 36.1149L19.3167 35.7771L19.4664 35.4407L19.6194 35.1055L19.7755 34.7717L19.9347 34.439L20.0969 34.1075L20.262 33.7771L20.43 33.4478L20.6008 33.1194L20.7744 32.792L20.9508 32.4654L21.13 32.1397L21.312 31.8147L21.4968 31.4905L21.6844 31.1671L21.875 30.8443L22.0684 30.5222L22.2649 30.2009L22.4644 29.8802L22.6671 29.5603L22.873 29.2411L23.0823 28.9227L23.295 28.6052L23.5112 28.2885L23.731 27.9727L23.9544 27.6579L24.1816 27.3442L24.4125 27.0315L24.6474 26.7199L24.8863 26.4096L25.1293 26.1005L25.3763 25.7929L25.6276 25.4866L25.8831 25.182L26.143 24.8789L26.4072 24.5775L26.6758 24.2779L26.9489 23.9801L27.2266 23.6844L27.5088 23.3906L27.7956 23.099L28.087 22.8095L28.3831 22.5224L28.6839 22.2376L28.9893 21.9552L29.2995 21.6753L29.6143 21.398L29.9339 21.1232L30.2582 20.8511L30.5871 20.5816L30.9208 20.3148L31.2592 20.0508L31.6022 19.7894L31.95 19.5308L32.3024 19.2749L32.6594 19.0217L33.0212 18.7712L33.3876 18.5234L33.7586 18.2783L34.1344 18.0359L34.5148 17.7961L34.8999 17.5589L35.2898 17.3243L35.6843 17.0922L36.0837 16.8628L36.4879 16.6359L36.8969 16.4115L37.3108 16.1897L37.7297 15.9704L38.1536 15.7538L38.5825 15.5397L39.0165 15.3284L39.4557 15.1197L39.9002 14.9138L40.3499 14.7108L40.805 14.5108L41.2656 14.3138L41.7316 14.1202L42.2032 13.9299L42.6804 13.7432L43.1632 13.5603L43.6517 13.3814L44.1459 13.2068L44.6458 13.0366L45.1514 12.8713L45.6627 12.711L46.1797 12.5562L46.7024 12.4071L47.2306 12.2642L47.7643 12.1278L48.3035 11.9983L48.8479 11.8761L49.3975 11.7615L49.9521 11.655L50.5115 11.5569L51.0755 11.4676L51.644 11.3875L52.2167 11.317L52.7933 11.2564L53.3736 11.2061L53.9574 11.1664L54.5443 11.1376L55.1341 11.1202L55.7263 11.1143L56.3207 11.1203L56.917 11.1383L57.5148 11.1688L58.1137 11.2119L58.7133 11.2678L59.3134 11.3366L59.9135 11.4187L60.5132 11.514L61.1121 11.6228L61.7099 11.7451L62.3063 11.881L62.9007 12.0306L63.493 12.1937L64.0827 12.3704Z" fill="url(#paint2_linear_2_66)"/>
<path fill-rule="evenodd" clip-rule="evenodd" d="M-109.337 378.221L-108.135 376.744L-106.873 375.315L-105.557 373.933L-104.193 372.598L-102.787 371.306L-101.346 370.056L-99.8738 368.845L-98.3775 367.67L-96.8621 366.528L-95.3327 365.415L-93.794 364.329L-92.2505 363.264L-90.706 362.219L-89.164 361.19L-87.6274 360.172L-86.0987 359.163L-84.5798 358.16L-83.0721 357.161L-81.5766 356.163L-80.0937 355.165L-78.6233 354.164L-77.1652 353.161L-75.7188 352.154L-74.284 351.142L-72.8612 350.122L-71.451 349.093L-70.0542 348.051L-68.6713 346.992L-67.303 345.913L-65.9498 344.811L-64.6118 343.682L-63.289 342.524L-61.9811 341.332L-60.6877 340.103L-59.4078 338.836L-58.1403 337.528L-56.8839 336.177L-55.637 334.782L-54.3976 333.341L-53.1637 331.854L-51.9331 330.321L-50.7034 328.742L-49.472 327.118L-48.2364 325.451L-46.9941 323.742L-45.7422 321.994L-44.4781 320.209L-43.1994 318.39L-41.9034 316.542L-40.5877 314.668L-39.2501 312.772L-37.8884 310.858L-36.5006 308.933L-35.085 307L-33.64 305.064L-32.1642 303.132L-30.6565 301.209L-29.1161 299.3L-27.5424 297.411L-25.9349 295.548L-24.2935 293.716L-22.6184 291.921L-20.9099 290.168L-19.1687 288.463L-17.3955 286.81L-15.5916 285.216L-13.758 283.684L-11.8965 282.22L-10.0086 280.827L-8.09629 279.511L-6.1615 278.274L-4.20645 277.12L-2.23346 276.053L-0.245002 275.075L1.75647 274.19L3.76829 273.399L5.78778 272.704L7.81217 272.108L9.8387 271.611L11.8646 271.215L13.8869 270.921L15.903 270.729L17.9099 270.639L19.905 270.652L21.8854 270.767L23.8485 270.983L25.7917 271.301L27.7122 271.719L29.6077 272.235L31.4756 272.85L33.3137 273.561L35.1194 274.368L36.8908 275.267L38.6256 276.258L40.3217 277.339L41.9772 278.507L43.5902 279.762L45.159 281.1L46.6817 282.519L48.1568 284.017L49.5828 285.592L50.9583 287.241L52.282 288.962L53.5528 290.752L54.7696 292.607L55.9317 294.525L57.0384 296.502L58.0894 298.535L59.0844 300.619L60.0237 302.75L60.9077 304.922L61.7375 307.131L62.5144 309.37L63.2406 311.633L63.9185 313.91L64.5509 316.196L65.1409 318.483L65.6916 320.764L66.2062 323.033L66.6881 325.284L67.1407 327.512L67.5673 329.711L67.9714 331.876L68.3565 334.004L68.7258 336.091L69.0826 338.133L69.4302 340.128L69.7716 342.074L70.1098 343.967L70.4476 345.808L70.7876 347.595L71.1323 349.327L71.484 351.004L71.8447 352.627L72.2163 354.194L72.6005 355.709L72.9987 357.17L73.4121 358.581L73.8418 359.942L74.2884 361.255L74.7525 362.522L75.2345 363.746L75.7344 364.929L76.2523 366.074L76.7878 367.182L77.3406 368.258L77.9101 369.302L78.4955 370.319L79.0961 371.311L79.7109 372.28L80.3389 373.229L80.979 374.161L81.6303 375.077L82.2916 375.981L82.9618 376.874L83.64 377.758L84.3253 378.635L85.0168 379.507L85.7138 380.374L86.4157 381.238L87.1223 382.101L87.8333 382.962L88.5487 383.822L89.2689 384.681L89.9942 385.541L90.7256 386.4L91.4641 387.258L92.2108 388.116L92.9676 388.972L93.7361 389.826L94.5184 390.678L95.317 391.526L96.1344 392.37L96.9735 393.209L97.8372 394.043L98.7287 394.87L99.6512 395.69L100.608 396.503L101.603 397.308L102.639 398.105L103.72 398.894L104.849 399.676L106.028 400.45L107.262 401.218L108.552 401.98L109.9 402.738L111.309 403.493L112.78 404.248L114.314 405.004L115.911 405.764L117.57 406.531L119.292 407.307L121.073 408.096L122.912 408.9L124.805 409.725L126.749 410.572L128.737 411.447L130.766 412.353L132.828 413.293L134.917 414.271L137.024 415.291L139.142 416.356L141.261 417.469L143.373 418.633L145.471 419.849L147.546 421.12L149.592 422.446L151.602 423.829L153.57 425.268L155.49 426.763L157.358 428.315L159.167 429.922L160.913 431.584L162.593 433.299L164.202 435.066L165.737 436.884L167.194 438.751L168.571 440.665L169.866 442.623L171.075 444.624L172.198 446.665L173.233 448.743L174.179 450.857L175.034 453.003L175.798 455.179L176.472 457.382L177.055 459.61L177.547 461.86L177.949 464.128L178.261 466.414L178.486 468.713L178.624 471.024L178.676 473.343L178.645 475.67L178.532 478L178.339 480.333L178.069 482.665L177.724 484.996L177.305 487.322L176.816 489.643L176.259 491.957L175.635 494.261L174.949 496.555L174.202 498.838L173.395 501.107L172.533 503.362L171.616 505.601L170.646 507.824L169.626 510.029L168.557 512.215L167.44 514.381L166.277 516.526L165.069 518.649L163.817 520.749L162.52 522.824L161.181 524.873L159.799 526.895L158.374 528.887L156.906 530.849L155.394 532.778L153.839 534.673L152.239 536.53L150.595 538.348L148.904 540.125L147.168 541.857L145.383 543.541L143.551 545.176L141.67 546.757L139.739 548.281L137.758 549.745L135.727 551.146L133.645 552.48L131.513 553.743L129.331 554.934L127.099 556.048L124.819 557.082L122.492 558.033L120.12 558.9L117.705 559.679L115.249 560.369L112.756 560.968L110.229 561.476L107.672 561.892L105.089 562.217L102.485 562.45L99.8646 562.594L97.2333 562.651L94.5967 562.624L91.9607 562.516L89.3314 562.333L86.7148 562.079L84.117 561.76L81.544 561.383L79.0009 560.954L76.4922 560.479L74.0214 559.962L71.5914 559.408L69.2045 558.822L66.8627 558.208L64.5672 557.569L62.3193 556.908L60.1196 556.23L57.9689 555.537L55.8673 554.832L53.8151 554.119L51.8124 553.399L49.859 552.675L47.9549 551.951L46.0996 551.23L44.2928 550.514L42.5342 549.806L40.8232 549.109L39.1591 548.427L37.5414 547.762L35.9693 547.117L34.4419 546.497L32.9583 545.903L31.5175 545.341L30.1182 544.812L28.7594 544.32L27.4396 543.869L26.1574 543.462L24.9111 543.103L23.699 542.794L22.5193 542.539L21.3701 542.341L20.2492 542.203L19.1544 542.127L18.0834 542.116L17.0337 542.173L16.003 542.298L14.9885 542.496L13.9876 542.766L12.9975 543.11L12.0154 543.529L11.0385 544.023L10.0639 544.594L9.08882 545.24L8.11032 545.961L7.12562 546.756L6.13195 547.625L5.12662 548.564L4.10699 549.573L3.07056 550.65L2.01493 551.79L0.937827 552.992L-0.162865 554.251L-1.28909 555.565L-2.44265 556.929L-3.62512 558.339L-4.83792 559.791L-6.08225 561.28L-7.35913 562.801L-8.66935 564.351L-10.0135 565.922L-11.392 567.512L-12.8051 569.115L-14.2527 570.726L-15.7347 572.34L-17.2509 573.953L-18.8006 575.56L-20.3834 577.157L-21.9985 578.741L-23.645 580.307L-25.3222 581.853L-27.0291 583.374L-28.7646 584.868L-30.5278 586.334L-32.3177 587.768L-34.1333 589.169L-35.9737 590.536L-37.8379 591.867L-39.725 593.162L-41.6342 594.42L-43.5647 595.639L-45.5156 596.821L-47.486 597.963L-49.4749 599.065L-51.4814 600.126L-53.504 601.145L-55.5412 602.119L-57.5912 603.045L-59.6513 603.92L-61.7187 604.74L-63.7902 605.498L-65.8623 606.192L-67.9317 606.817L-69.9953 607.37L-72.0501 607.848L-74.0933 608.249L-76.1225 608.574L-78.1354 608.82L-80.1302 608.989L-82.1051 609.081L-84.0592 609.099L-85.9913 609.043L-87.9011 608.916L-89.7883 608.722L-91.653 608.463L-93.4956 608.144L-95.317 607.767L-97.118 607.336L-98.8998 606.856L-100.664 606.33L-102.412 605.762L-104.145 605.156L-105.866 604.515L-107.575 603.843L-109.276 603.143L-110.968 602.417L-112.655 601.668L-114.338 600.899L-116.018 600.11L-117.695 599.304L-119.372 598.48L-121.049 597.641L-122.725 596.785L-124.401 595.913L-126.077 595.024L-127.752 594.118L-129.425 593.192L-131.095 592.245L-132.759 591.276L-134.416 590.283L-136.063 589.262L-137.698 588.213L-139.316 587.131L-140.915 586.016L-142.491 584.863L-144.04 583.672L-145.558 582.438L-147.04 581.159L-148.481 579.834L-149.878 578.46L-151.225 577.035L-152.517 575.557L-153.75 574.025L-154.92 572.437L-156.02 570.794L-157.048 569.093L-157.998 567.336L-158.866 565.521L-159.649 563.65L-160.344 561.723L-160.945 559.741L-161.452 557.706L-161.861 555.619L-162.169 553.483L-162.375 551.3L-162.478 549.072L-162.477 546.803L-162.37 544.495L-162.157 542.152L-161.839 539.777L-161.416 537.374L-160.889 534.947L-160.26 532.499L-159.529 530.035L-158.699 527.559L-157.773 525.074L-156.752 522.585L-155.641 520.095L-154.441 517.609L-153.158 515.13L-151.793 512.662L-150.353 510.21L-148.841 507.776L-147.262 505.364L-145.62 502.978L-143.922 500.62L-142.174 498.295L-140.38 496.004L-138.549 493.751L-136.686 491.539L-134.801 489.369L-132.901 487.245L-130.996 485.168L-129.093 483.139L-127.203 481.16L-125.335 479.232L-123.499 477.356L-121.703 475.53L-119.957 473.755L-118.269 472.03L-116.649 470.353L-115.104 468.722L-113.642 467.135L-112.269 465.59L-110.992 464.083L-109.816 462.61L-108.746 461.168L-107.785 459.754L-106.938 458.361L-106.205 456.987L-105.589 455.626L-105.089 454.274L-104.705 452.925L-104.436 451.576L-104.279 450.222L-104.231 448.858L-104.288 447.48L-104.444 446.083L-104.695 444.664L-105.034 443.22L-105.455 441.747L-105.948 440.243L-106.508 438.705L-107.124 437.131L-107.788 435.52L-108.49 433.871L-109.222 432.183L-109.973 430.457L-110.735 428.694L-111.497 426.893L-112.249 425.058L-112.983 423.189L-113.688 421.289L-114.358 419.362L-114.982 417.411L-115.553 415.438L-116.063 413.449L-116.506 411.447L-116.876 409.437L-117.166 407.423L-117.372 405.411L-117.489 403.403L-117.515 401.407L-117.447 399.425L-117.283 397.464L-117.021 395.526L-116.662 393.616L-116.205 391.739L-115.653 389.897L-115.007 388.094L-114.269 386.333L-113.443 384.616L-112.533 382.945L-111.542 381.322L-110.475 379.747L-109.337 378.221Z" fill="url(#paint3_linear_2_66)"/>
<path fill-rule="evenodd" clip-rule="evenodd" d="M388.656 502.694L389.937 501.163L391.293 499.691L392.716 498.277L394.199 496.917L395.736 495.61L397.318 494.352L398.939 493.14L400.592 491.97L402.27 490.839L403.968 489.741L405.678 488.673L407.396 487.63L409.118 486.609L410.837 485.604L412.551 484.612L414.257 483.629L415.952 482.652L417.634 481.678L419.301 480.705L420.954 479.729L422.592 478.751L424.216 477.768L425.825 476.78L427.42 475.785L429.001 474.782L430.565 473.765L432.113 472.734L433.644 471.683L435.155 470.608L436.646 469.507L438.117 468.374L439.568 467.207L440.998 466.002L442.409 464.755L443.799 463.465L445.172 462.127L446.528 460.741L447.868 459.305L449.196 457.818L450.513 456.279L451.823 454.689L453.127 453.048L454.429 451.357L455.733 449.619L457.04 447.835L458.356 446.008L459.682 444.142L461.023 442.24L462.381 440.307L463.76 438.346L465.163 436.363L466.593 434.363L468.052 432.352L469.543 430.335L471.069 428.318L472.631 426.308L474.231 424.31L475.871 422.331L477.552 420.376L479.274 418.454L481.04 416.569L482.848 414.727L484.699 412.936L486.592 411.2L488.528 409.526L490.505 407.919L492.523 406.384L494.579 404.926L496.673 403.549L498.802 402.259L500.964 401.06L503.158 399.954L505.38 398.946L507.628 398.039L509.9 397.234L512.192 396.536L514.502 395.945L516.826 395.463L519.162 395.092L521.506 394.832L523.854 394.685L526.205 394.65L528.553 394.728L530.897 394.919L533.232 395.221L535.557 395.635L537.866 396.158L540.158 396.791L542.43 397.532L544.677 398.378L546.898 399.329L549.09 400.382L551.249 401.535L553.374 402.787L555.461 404.135L557.508 405.576L559.513 407.109L561.473 408.73L563.387 410.437L565.251 412.228L567.065 414.1L568.826 416.049L570.533 418.073L572.183 420.168L573.776 422.332L575.31 424.56L576.784 426.849L578.198 429.194L579.551 431.592L580.842 434.036L582.072 436.522L583.242 439.044L584.352 441.594L585.405 444.165L586.402 446.749L587.347 449.338L588.242 451.924L589.09 454.501L589.895 457.061L590.66 459.598L591.388 462.106L592.084 464.581L592.75 467.016L593.39 469.408L594.008 471.754L594.608 474.048L595.193 476.29L595.766 478.476L596.33 480.605L596.89 482.675L597.447 484.685L598.005 486.635L598.566 488.524L599.133 490.354L599.708 492.124L600.293 493.836L600.89 495.491L601.5 497.091L602.125 498.637L602.765 500.131L603.422 501.577L604.097 502.976L604.788 504.331L605.498 505.645L606.224 506.921L606.969 508.162L607.73 509.37L608.507 510.549L609.3 511.701L610.107 512.829L610.929 513.936L611.763 515.025L612.609 516.099L613.465 517.159L614.331 518.207L615.205 519.247L616.088 520.28L616.977 521.306L617.872 522.329L618.772 523.349L619.678 524.367L620.589 525.384L621.505 526.401L622.427 527.417L623.355 528.433L624.289 529.45L625.232 530.467L626.185 531.483L627.149 532.499L628.127 533.513L629.121 534.526L630.134 535.537L631.168 536.544L632.228 537.549L633.316 538.549L634.435 539.544L635.591 540.535L636.787 541.52L638.026 542.5L639.313 543.475L640.652 544.445L642.046 545.411L643.5 546.373L645.016 547.333L646.598 548.292L648.249 549.251L649.97 550.213L651.764 551.179L653.632 552.153L655.574 553.136L657.59 554.133L659.68 555.145L661.841 556.176L664.072 557.231L666.368 558.312L668.725 559.423L671.137 560.568L673.599 561.751L676.104 562.975L678.643 564.244L681.207 565.561L683.788 566.928L686.375 568.349L688.958 569.826L691.528 571.359L694.077 572.951L696.597 574.602L699.079 576.311L701.517 578.08L703.904 579.907L706.234 581.792L708.501 583.733L710.698 585.729L712.822 587.778L714.868 589.879L716.831 592.029L718.707 594.227L720.493 596.469L722.186 598.754L723.784 601.078L725.283 603.439L726.681 605.834L727.979 608.26L729.173 610.714L730.263 613.193L731.249 615.694L732.13 618.214L732.906 620.75L733.579 623.3L734.148 625.86L734.615 628.428L734.981 631.001L735.248 633.576L735.417 636.151L735.491 638.724L735.471 641.292L735.36 643.853L735.16 646.405L734.875 648.946L734.505 651.475L734.056 653.989L733.528 656.488L732.925 658.97L732.249 661.433L731.503 663.876L730.689 666.299L729.811 668.699L728.869 671.076L727.866 673.43L726.804 675.758L725.684 678.059L724.509 680.334L723.278 682.58L721.993 684.796L720.654 686.98L719.263 689.133L717.819 691.251L716.322 693.333L714.771 695.377L713.167 697.381L711.508 699.343L709.795 701.26L708.024 703.129L706.197 704.948L704.311 706.714L702.365 708.423L700.358 710.072L698.288 711.658L696.156 713.176L693.96 714.623L691.699 715.996L689.372 717.29L686.981 718.502L684.524 719.628L682.002 720.665L679.416 721.609L676.768 722.458L674.059 723.209L671.292 723.859L668.47 724.406L665.596 724.85L662.674 725.189L659.708 725.424L656.704 725.555L653.666 725.583L650.602 725.511L647.518 725.341L644.419 725.078L641.315 724.726L638.211 724.29L635.116 723.777L632.038 723.195L628.984 722.549L625.96 721.849L622.972 721.1L620.025 720.308L617.123 719.48L614.268 718.62L611.464 717.732L608.712 716.821L606.015 715.89L603.372 714.944L600.785 713.986L598.255 713.019L595.782 712.046L593.367 711.071L591.01 710.097L588.71 709.127L586.467 708.163L584.283 707.21L582.155 706.27L580.084 705.346L578.07 704.443L576.112 703.563L574.209 702.71L572.361 701.887L570.566 701.098L568.825 700.347L567.135 699.637L565.496 698.972L563.906 698.356L562.365 697.792L560.87 697.283L559.419 696.834L558.011 696.447L556.644 696.126L555.316 695.873L554.024 695.692L552.765 695.586L551.538 695.555L550.339 695.604L549.165 695.733L548.014 695.943L546.882 696.237L545.765 696.615L544.662 697.076L543.568 697.622L542.48 698.252L541.395 698.964L540.309 699.759L539.219 700.633L538.122 701.586L537.014 702.614L535.892 703.715L534.754 704.885L533.595 706.121L532.414 707.42L531.208 708.776L529.974 710.186L528.71 711.644L527.415 713.145L526.085 714.685L524.721 716.258L523.319 717.859L521.88 719.482L520.402 721.122L518.884 722.773L517.327 724.43L515.73 726.088L514.092 727.741L512.415 729.385L510.697 731.015L508.941 732.628L507.146 734.218L505.314 735.782L503.444 737.316L501.538 738.819L499.598 740.287L497.623 741.718L495.615 743.11L493.575 744.462L491.504 745.773L489.402 747.041L487.272 748.266L485.113 749.447L482.927 750.583L480.714 751.675L478.476 752.72L476.214 753.719L473.929 754.669L471.623 755.568L469.298 756.413L466.957 757.2L464.602 757.926L462.236 758.583L459.865 759.169L457.49 759.678L455.116 760.108L452.745 760.456L450.382 760.721L448.028 760.9L445.686 760.996L443.359 761.006L441.048 760.934L438.755 760.78L436.482 760.548L434.228 760.239L431.995 759.856L429.783 759.405L427.591 758.888L425.419 758.309L423.266 757.672L421.131 756.983L419.014 756.244L416.911 755.46L414.822 754.635L412.745 753.773L410.678 752.877L408.62 751.95L406.568 750.996L404.521 750.017L402.477 749.016L400.435 747.993L398.394 746.951L396.352 745.891L394.31 744.812L392.266 743.716L390.22 742.601L388.174 741.468L386.127 740.315L384.08 739.141L382.036 737.944L379.997 736.723L377.963 735.476L375.939 734.199L373.927 732.891L371.931 731.55L369.955 730.173L368.002 728.756L366.078 727.298L364.187 725.797L362.334 724.249L360.524 722.653L358.763 721.007L357.055 719.308L355.407 717.556L353.824 715.749L352.31 713.887L350.873 711.968L349.516 709.993L348.245 707.961L347.064 705.873L345.979 703.731L344.994 701.534L344.112 699.284L343.337 696.984L342.673 694.636L342.122 692.241L341.686 689.804L341.368 687.326L341.17 684.811L341.091 682.263L341.134 679.685L341.297 677.081L341.581 674.456L341.985 671.813L342.508 669.156L343.148 666.49L343.903 663.82L344.771 661.148L345.75 658.479L346.835 655.819L348.023 653.17L349.311 650.536L350.694 647.922L352.169 645.332L353.729 642.768L355.37 640.235L357.086 637.736L358.872 635.274L360.719 632.852L362.623 630.472L364.574 628.137L366.565 625.85L368.587 623.613L370.629 621.427L372.683 619.293L374.738 617.213L376.782 615.188L378.805 613.216L380.795 611.299L382.742 609.435L384.636 607.622L386.464 605.86L388.219 604.145L389.889 602.474L391.465 600.845L392.941 599.254L394.307 597.697L395.558 596.169L396.687 594.666L397.689 593.183L398.561 591.715L399.3 590.256L399.903 588.803L400.37 587.348L400.701 585.888L400.898 584.417L400.963 582.93L400.899 581.423L400.71 579.89L400.403 578.329L399.983 576.735L399.457 575.104L398.833 573.435L398.12 571.724L397.328 569.97L396.465 568.171L395.543 566.327L394.572 564.438L393.564 562.503L392.529 560.524L391.479 558.502L390.425 556.44L389.379 554.339L388.353 552.203L387.356 550.036L386.4 547.841L385.494 545.623L384.65 543.387L383.874 541.138L383.177 538.88L382.566 536.62L382.047 534.362L381.627 532.114L381.311 529.879L381.104 527.664L381.009 525.474L381.029 523.315L381.165 521.191L381.417 519.106L381.787 517.066L382.273 515.074L382.872 513.134L383.583 511.247L384.401 509.418L385.322 507.646L386.342 505.935L387.455 504.284L388.656 502.694Z" fill="url(#paint4_linear_2_66)"/>
<path fill-rule="evenodd" clip-rule="evenodd" d="M363.102 911.595L364.489 909.956L365.961 908.383L367.51 906.875L369.128 905.429L370.807 904.042L372.539 902.71L374.315 901.43L376.129 900.197L377.972 899.007L379.837 897.854L381.718 896.735L383.608 895.643L385.502 894.574L387.395 893.524L389.282 892.488L391.16 891.462L393.026 890.441L394.877 889.424L396.713 888.406L398.532 887.386L400.334 886.363L402.12 885.334L403.89 884.299L405.644 883.256L407.381 882.202L409.101 881.135L410.801 880.051L412.48 878.944L414.138 877.812L415.773 876.649L417.384 875.451L418.972 874.215L420.535 872.937L422.075 871.612L423.591 870.239L425.086 868.814L426.561 867.335L428.017 865.801L429.458 864.21L430.885 862.563L432.302 860.859L433.711 859.1L435.117 857.286L436.523 855.419L437.932 853.503L439.348 851.54L440.776 849.534L442.218 847.49L443.68 845.411L445.163 843.303L446.673 841.172L448.212 839.023L449.784 836.862L451.391 834.695L453.037 832.53L454.724 830.373L456.454 828.231L458.229 826.111L460.05 824.019L461.919 821.963L463.837 819.95L465.804 817.986L467.82 816.077L469.886 814.231L472.001 812.454L474.163 810.751L476.374 809.128L478.629 807.592L480.929 806.145L483.271 804.795L485.653 803.544L488.073 802.398L490.528 801.359L493.015 800.431L495.531 799.617L498.073 798.919L500.638 798.34L503.222 797.881L505.822 797.544L508.435 797.329L511.057 797.237L513.683 797.269L516.311 797.424L518.937 797.702L521.557 798.103L524.168 798.625L526.766 799.267L529.348 800.029L531.909 800.907L534.447 801.902L536.958 803.009L539.44 804.229L541.889 805.557L544.301 806.991L546.675 808.53L549.006 810.171L551.293 811.91L553.533 813.745L555.723 815.672L557.861 817.69L559.944 819.795L561.971 821.983L563.938 824.252L565.846 826.597L567.691 829.016L569.472 831.503L571.188 834.055L572.839 836.668L574.422 839.335L575.938 842.052L577.387 844.813L578.77 847.611L580.087 850.439L581.34 853.288L582.532 856.149L583.665 859.014L584.742 861.876L585.767 864.724L586.743 867.554L587.673 870.357L588.562 873.128L589.413 875.86L590.23 878.549L591.017 881.189L591.777 883.778L592.516 886.31L593.236 888.784L593.941 891.197L594.636 893.546L595.323 895.831L596.005 898.051L596.687 900.204L597.37 902.292L598.059 904.314L598.754 906.271L599.459 908.164L600.175 909.996L600.905 911.767L601.649 913.48L602.41 915.137L603.187 916.741L603.982 918.294L604.796 919.8L605.628 921.261L606.478 922.68L607.347 924.062L608.234 925.409L609.138 926.723L610.059 928.009L610.995 929.27L611.946 930.508L612.911 931.726L613.888 932.927L614.877 934.114L615.877 935.289L616.885 936.455L617.902 937.612L618.926 938.764L619.958 939.912L620.995 941.056L622.038 942.199L623.086 943.34L624.141 944.481L625.201 945.622L626.269 946.764L627.344 947.906L628.428 949.048L629.524 950.19L630.632 951.331L631.755 952.472L632.897 953.612L634.059 954.749L635.245 955.884L636.46 957.016L637.705 958.145L638.987 959.269L640.309 960.389L641.675 961.504L643.089 962.615L644.557 963.721L646.083 964.824L647.67 965.924L649.324 967.022L651.048 968.119L652.845 969.216L654.719 970.317L656.672 971.422L658.706 972.534L660.823 973.656L663.024 974.791L665.308 975.943L667.674 977.114L670.121 978.309L672.646 979.531L675.245 980.783L677.913 982.071L680.645 983.398L683.433 984.767L686.269 986.183L689.146 987.649L692.052 989.168L694.978 990.743L697.912 992.377L700.843 994.072L703.763 995.828L706.66 997.648L709.526 999.532L712.352 1001.48L715.13 1003.49L717.853 1005.56L720.514 1007.7L723.106 1009.89L725.622 1012.14L728.058 1014.45L730.407 1016.82L732.665 1019.23L734.828 1021.7L736.892 1024.21L738.853 1026.76L740.707 1029.35L742.453 1031.99L744.088 1034.65L745.61 1037.35L747.018 1040.07L748.31 1042.82L749.487 1045.59L750.547 1048.38L751.49 1051.18L752.318 1054L753.03 1056.82L753.629 1059.65L754.114 1062.48L754.489 1065.31L754.754 1068.14L754.913 1070.96L754.967 1073.77L754.918 1076.57L754.771 1079.37L754.527 1082.14L754.189 1084.9L753.761 1087.64L753.245 1090.37L752.644 1093.07L751.962 1095.75L751.2 1098.4L750.362 1101.03L749.451 1103.64L748.469 1106.22L747.417 1108.77L746.299 1111.29L745.115 1113.77L743.868 1116.23L742.559 1118.66L741.188 1121.05L739.756 1123.4L738.264 1125.72L736.712 1128L735.1 1130.24L733.427 1132.43L731.693 1134.58L729.897 1136.68L728.038 1138.73L726.114 1140.73L724.125 1142.66L722.068 1144.54L719.943 1146.36L717.748 1148.11L715.482 1149.78L713.143 1151.38L710.73 1152.9L708.243 1154.34L705.68 1155.69L703.042 1156.95L700.328 1158.11L697.54 1159.17L694.677 1160.13L691.741 1160.98L688.735 1161.72L685.661 1162.35L682.522 1162.87L679.321 1163.27L676.064 1163.56L672.755 1163.73L669.4 1163.78L666.005 1163.72L662.577 1163.55L659.124 1163.27L655.652 1162.89L652.17 1162.42L648.688 1161.85L645.212 1161.19L641.753 1160.46L638.319 1159.66L634.917 1158.81L631.554 1157.9L628.236 1156.94L624.967 1155.95L621.75 1154.92L618.589 1153.86L615.485 1152.78L612.441 1151.68L609.458 1150.57L606.538 1149.44L603.68 1148.31L600.887 1147.17L598.158 1146.03L595.493 1144.89L592.893 1143.76L590.357 1142.64L587.886 1141.53L585.48 1140.43L583.137 1139.36L580.859 1138.31L578.643 1137.29L576.49 1136.3L574.399 1135.34L572.369 1134.42L570.4 1133.55L568.49 1132.72L566.638 1131.94L564.842 1131.22L563.102 1130.56L561.415 1129.95L559.78 1129.42L558.195 1128.95L556.657 1128.56L555.164 1128.24L553.714 1128.01L552.304 1127.85L550.931 1127.78L549.591 1127.8L548.283 1127.91L547.002 1128.11L545.745 1128.39L544.508 1128.77L543.288 1129.25L542.081 1129.81L540.884 1130.47L539.692 1131.22L538.501 1132.06L537.309 1132.98L536.11 1134L534.902 1135.09L533.68 1136.26L532.442 1137.51L531.183 1138.83L529.901 1140.22L528.593 1141.67L527.255 1143.18L525.886 1144.74L524.482 1146.35L523.041 1147.99L521.562 1149.68L520.042 1151.39L518.481 1153.13L516.877 1154.88L515.23 1156.64L513.538 1158.41L511.801 1160.18L510.019 1161.95L508.192 1163.7L506.321 1165.43L504.405 1167.15L502.445 1168.84L500.443 1170.5L498.398 1172.12L496.312 1173.71L494.186 1175.27L492.02 1176.78L489.816 1178.24L487.576 1179.66L485.299 1181.04L482.987 1182.36L480.641 1183.64L478.263 1184.87L475.852 1186.05L473.411 1187.19L470.94 1188.26L468.44 1189.29L465.914 1190.27L463.362 1191.18L460.788 1192.04L458.193 1192.83L455.582 1193.56L452.957 1194.21L450.322 1194.78L447.683 1195.27L445.041 1195.67L442.401 1195.98L439.766 1196.2L437.14 1196.33L434.525 1196.36L431.923 1196.3L429.337 1196.16L426.769 1195.92L424.22 1195.6L421.691 1195.19L419.183 1194.71L416.696 1194.15L414.23 1193.51L411.785 1192.82L409.359 1192.05L406.952 1191.24L404.562 1190.36L402.188 1189.44L399.828 1188.48L397.481 1187.47L395.143 1186.43L392.815 1185.35L390.492 1184.24L388.174 1183.11L385.86 1181.95L383.546 1180.77L381.233 1179.57L378.919 1178.35L376.603 1177.1L374.286 1175.84L371.966 1174.56L369.644 1173.26L367.321 1171.93L364.998 1170.58L362.678 1169.21L360.361 1167.81L358.05 1166.39L355.749 1164.93L353.461 1163.43L351.19 1161.9L348.939 1160.34L346.714 1158.73L344.52 1157.07L342.361 1155.37L340.243 1153.62L338.172 1151.82L336.154 1149.96L334.195 1148.05L332.3 1146.08L330.476 1144.05L328.729 1141.97L327.065 1139.82L325.489 1137.62L324.008 1135.35L322.626 1133.03L321.35 1130.65L320.183 1128.21L319.13 1125.72L318.195 1123.18L317.383 1120.58L316.696 1117.94L316.137 1115.26L315.708 1112.53L315.411 1109.77L315.248 1106.98L315.219 1104.15L315.324 1101.3L315.564 1098.43L315.937 1095.55L316.443 1092.65L317.08 1089.75L317.845 1086.85L318.736 1083.94L319.751 1081.05L320.885 1078.17L322.135 1075.3L323.497 1072.45L324.966 1069.63L326.538 1066.83L328.206 1064.07L329.966 1061.34L331.811 1058.65L333.734 1056.01L335.728 1053.41L337.785 1050.86L339.897 1048.36L342.055 1045.91L344.249 1043.52L346.469 1041.18L348.702 1038.9L350.937 1036.69L353.162 1034.53L355.365 1032.43L357.534 1030.38L359.656 1028.4L361.719 1026.47L363.711 1024.59L365.621 1022.76L367.439 1020.98L369.154 1019.24L370.756 1017.54L372.238 1015.88L373.59 1014.24L374.808 1012.63L375.885 1011.03L376.816 1009.45L377.599 1007.87L378.23 1006.3L378.709 1004.72L379.037 1003.13L379.213 1001.52L379.241 999.892L379.125 998.238L378.869 996.553L378.479 994.833L377.961 993.073L377.325 991.271L376.578 989.423L375.731 987.527L374.792 985.581L373.775 983.584L372.689 981.536L371.548 979.437L370.363 977.286L369.147 975.087L367.913 972.84L366.674 970.548L365.442 968.215L364.231 965.844L363.052 963.439L361.918 961.006L360.84 958.548L359.829 956.073L358.896 953.584L358.049 951.09L357.299 948.594L356.652 946.105L356.116 943.628L355.696 941.17L355.399 938.737L355.228 936.334L355.186 933.968L355.275 931.644L355.496 929.367L355.849 927.143L356.332 924.974L356.945 922.865L357.683 920.819L358.544 918.838L359.521 916.924L360.611 915.079L361.807 913.303L363.102 911.595Z" fill="url(#paint5_linear_2_66)"/>
<path fill-rule="evenodd" clip-rule="evenodd" d="M-1.34807 941.661L-0.0201916 940.924L1.34089 940.244L2.7309 939.62L4.14571 939.047L5.58112 938.522L7.03322 938.042L8.49823 937.602L9.97249 937.199L11.4528 936.828L12.9359 936.484L14.4193 936.164L15.9004 935.863L17.3772 935.577L18.8479 935.301L20.3112 935.034L21.766 934.771L23.2115 934.509L24.6474 934.246L26.0736 933.979L27.4902 933.708L28.8975 933.432L30.2961 933.149L31.6867 932.859L33.0696 932.561L34.4452 932.254L35.8138 931.934L37.1755 931.6L38.5308 931.248L39.88 930.876L41.2239 930.481L42.5631 930.06L43.8987 929.61L45.2316 929.13L46.563 928.616L47.8943 928.068L49.2271 927.484L50.5628 926.862L51.9031 926.203L53.2498 925.507L54.6046 924.772L55.9692 924.001L57.3454 923.194L58.7349 922.352L60.1393 921.479L61.5602 920.575L62.999 919.644L64.457 918.689L65.9354 917.712L67.4353 916.719L68.9573 915.712L70.5022 914.695L72.0703 913.673L73.662 912.651L75.2772 911.632L76.9158 910.622L78.5774 909.624L80.2612 908.644L81.9666 907.687L83.6925 906.756L85.4376 905.856L87.2006 904.993L88.9798 904.169L90.7735 903.39L92.5798 902.658L94.3966 901.979L96.2218 901.355L98.0529 900.789L99.8877 900.286L101.724 899.846L103.558 899.475L105.389 899.172L107.213 898.941L109.027 898.784L110.83 898.701L112.618 898.693L114.388 898.763L116.139 898.91L117.867 899.135L119.57 899.438L121.245 899.819L122.891 900.278L124.504 900.814L126.082 901.426L127.624 902.113L129.127 902.875L130.59 903.71L132.01 904.616L133.385 905.592L134.715 906.637L135.997 907.749L137.229 908.925L138.412 910.163L139.542 911.463L140.62 912.821L141.644 914.235L142.613 915.704L143.525 917.225L144.382 918.796L145.18 920.414L145.921 922.077L146.603 923.783L147.225 925.53L147.789 927.314L148.293 929.134L148.738 930.987L149.123 932.869L149.45 934.779L149.718 936.713L149.93 938.667L150.086 940.639L150.187 942.625L150.237 944.621L150.238 946.621L150.194 948.623L150.107 950.62L149.984 952.608L149.827 954.583L149.641 956.539L149.431 958.474L149.2 960.384L148.953 962.266L148.694 964.116L148.426 965.934L148.153 967.715L147.879 969.459L147.607 971.165L147.341 972.831L147.083 974.456L146.837 976.04L146.605 977.583L146.389 979.084L146.191 980.545L146.013 981.965L145.857 983.346L145.724 984.689L145.616 985.994L145.532 987.263L145.474 988.497L145.441 989.699L145.435 990.869L145.454 992.01L145.499 993.124L145.569 994.211L145.663 995.275L145.78 996.317L145.92 997.339L146.08 998.343L146.261 999.33L146.46 1000.3L146.676 1001.26L146.908 1002.21L147.154 1003.15L147.412 1004.09L147.682 1005.01L147.962 1005.93L148.25 1006.85L148.545 1007.76L148.847 1008.67L149.154 1009.58L149.466 1010.49L149.782 1011.4L150.101 1012.31L150.425 1013.22L150.752 1014.13L151.083 1015.04L151.419 1015.96L151.761 1016.88L152.109 1017.79L152.465 1018.72L152.831 1019.64L153.209 1020.57L153.6 1021.49L154.006 1022.43L154.431 1023.36L154.876 1024.3L155.345 1025.25L155.839 1026.2L156.362 1027.15L156.917 1028.12L157.506 1029.09L158.131 1030.06L158.795 1031.05L159.501 1032.06L160.251 1033.07L161.045 1034.1L161.886 1035.15L162.775 1036.21L163.712 1037.3L164.697 1038.4L165.73 1039.53L166.81 1040.69L167.935 1041.88L169.103 1043.1L170.311 1044.35L171.556 1045.63L172.834 1046.95L174.14 1048.3L175.469 1049.69L176.814 1051.12L178.169 1052.59L179.527 1054.1L180.882 1055.64L182.224 1057.23L183.548 1058.85L184.846 1060.5L186.113 1062.19L187.341 1063.92L188.527 1065.67L189.666 1067.46L190.752 1069.27L191.782 1071.11L192.752 1072.97L193.659 1074.85L194.5 1076.75L195.272 1078.67L195.973 1080.6L196.6 1082.54L197.154 1084.5L197.631 1086.45L198.031 1088.42L198.353 1090.38L198.597 1092.35L198.762 1094.31L198.848 1096.26L198.857 1098.21L198.787 1100.15L198.641 1102.07L198.418 1103.99L198.12 1105.88L197.749 1107.76L197.306 1109.62L196.793 1111.46L196.211 1113.28L195.563 1115.07L194.85 1116.84L194.075 1118.58L193.24 1120.3L192.347 1121.99L191.398 1123.66L190.396 1125.29L189.344 1126.9L188.243 1128.47L187.095 1130.02L185.904 1131.53L184.671 1133.02L183.397 1134.48L182.086 1135.9L180.739 1137.3L179.357 1138.66L177.942 1139.99L176.496 1141.3L175.019 1142.56L173.514 1143.8L171.98 1145L170.42 1146.17L168.832 1147.31L167.219 1148.41L165.581 1149.47L163.917 1150.49L162.229 1151.48L160.516 1152.42L158.778 1153.31L157.016 1154.17L155.231 1154.97L153.42 1155.72L151.586 1156.43L149.729 1157.07L147.847 1157.66L145.943 1158.18L144.016 1158.65L142.066 1159.04L140.096 1159.37L138.105 1159.63L136.096 1159.81L134.068 1159.92L132.025 1159.94L129.967 1159.89L127.897 1159.76L125.817 1159.54L123.73 1159.24L121.638 1158.86L119.545 1158.4L117.452 1157.85L115.365 1157.23L113.285 1156.52L111.217 1155.74L109.163 1154.89L107.128 1153.98L105.115 1153L103.128 1151.96L101.169 1150.88L99.2427 1149.75L97.3509 1148.58L95.4963 1147.39L93.6807 1146.16L91.9057 1144.92L90.1721 1143.67L88.4805 1142.4L86.8315 1141.13L85.225 1139.86L83.6609 1138.58L82.1392 1137.31L80.6592 1136.04L79.2206 1134.78L77.8226 1133.53L76.4646 1132.29L75.1457 1131.07L73.865 1129.86L72.6215 1128.67L71.4143 1127.5L70.2421 1126.35L69.1037 1125.23L67.9979 1124.14L66.9234 1123.07L65.8786 1122.04L64.862 1121.04L63.8721 1120.07L62.9071 1119.15L61.9653 1118.26L61.0447 1117.42L60.1435 1116.62L59.2594 1115.87L58.3905 1115.17L57.5346 1114.51L56.6893 1113.92L55.8523 1113.37L55.0212 1112.88L54.1935 1112.45L53.3669 1112.08L52.5387 1111.77L51.7065 1111.52L50.8678 1111.32L50.0201 1111.19L49.1608 1111.12L48.2877 1111.12L47.3983 1111.17L46.4904 1111.28L45.5618 1111.45L44.6103 1111.68L43.6342 1111.96L42.6315 1112.3L41.6006 1112.68L40.5401 1113.12L39.4485 1113.6L38.3249 1114.13L37.1681 1114.69L35.9776 1115.3L34.7527 1115.93L33.4932 1116.6L32.1988 1117.29L30.8698 1118.01L29.5065 1118.74L28.1092 1119.49L26.6786 1120.24L25.2157 1121.01L23.7213 1121.77L22.1968 1122.53L20.6432 1123.29L19.0621 1124.04L17.455 1124.78L15.8233 1125.5L14.1686 1126.2L12.4927 1126.88L10.797 1127.53L9.08329 1128.16L7.35301 1128.76L5.60768 1129.33L3.84872 1129.87L2.07746 1130.38L0.295128 1130.85L-1.49715 1131.28L-3.29834 1131.68L-5.10751 1132.05L-6.9238 1132.37L-8.74639 1132.66L-10.5745 1132.92L-12.4072 1133.13L-14.2435 1133.31L-16.0824 1133.45L-17.9224 1133.56L-19.7617 1133.62L-21.598 1133.64L-23.4285 1133.62L-25.2498 1133.56L-27.0579 1133.44L-28.8491 1133.28L-30.6197 1133.06L-32.3663 1132.79L-34.0862 1132.46L-35.7766 1132.08L-37.4353 1131.64L-39.0606 1131.15L-40.6509 1130.6L-42.2055 1130L-43.7236 1129.35L-45.2052 1128.65L-46.6506 1127.9L-48.0602 1127.11L-49.4351 1126.28L-50.7766 1125.4L-52.0861 1124.49L-53.3656 1123.55L-54.6168 1122.57L-55.8421 1121.56L-57.0435 1120.53L-58.2235 1119.47L-59.3842 1118.39L-60.528 1117.29L-61.6571 1116.16L-62.7736 1115.03L-63.8794 1113.87L-64.9762 1112.7L-66.0655 1111.52L-67.1487 1110.33L-68.2265 1109.12L-69.2997 1107.9L-70.3686 1106.66L-71.433 1105.42L-72.4927 1104.16L-73.5468 1102.89L-74.5942 1101.6L-75.6333 1100.3L-76.6624 1098.98L-77.6791 1097.65L-78.6811 1096.3L-79.6653 1094.93L-80.6288 1093.54L-81.5681 1092.13L-82.4796 1090.7L-83.3595 1089.25L-84.2039 1087.78L-85.0086 1086.28L-85.7696 1084.77L-86.4826 1083.23L-87.1435 1081.66L-87.748 1080.08L-88.292 1078.47L-88.7717 1076.84L-89.1831 1075.19L-89.5226 1073.52L-89.7869 1071.84L-89.9727 1070.14L-90.0772 1068.42L-90.0977 1066.69L-90.0321 1064.95L-89.8783 1063.19L-89.6349 1061.44L-89.3006 1059.68L-88.8746 1057.91L-88.3565 1056.15L-87.7461 1054.39L-87.0439 1052.63L-86.2505 1050.89L-85.3669 1049.15L-84.3945 1047.43L-83.3351 1045.73L-82.1906 1044.05L-80.9634 1042.38L-79.6562 1040.74L-78.2718 1039.13L-76.8134 1037.55L-75.2842 1035.99L-73.6881 1034.47L-72.0286 1032.98L-70.3099 1031.53L-68.5361 1030.12L-66.7117 1028.75L-64.8412 1027.41L-62.9296 1026.12L-60.9818 1024.87L-59.0031 1023.66L-56.9993 1022.49L-54.9761 1021.36L-52.9401 1020.28L-50.8977 1019.24L-48.8561 1018.23L-46.8226 1017.27L-44.8047 1016.34L-42.8099 1015.45L-40.8457 1014.59L-38.9195 1013.75L-37.0385 1012.95L-35.2098 1012.16L-33.4398 1011.4L-31.7348 1010.65L-30.1004 1009.91L-28.5419 1009.17L-27.0638 1008.44L-25.67 1007.71L-24.364 1006.96L-23.1483 1006.21L-22.0248 1005.44L-20.9947 1004.64L-20.0585 1003.83L-19.2159 1002.98L-18.466 1002.1L-17.8069 1001.19L-17.2364 1000.23L-16.7512 999.234L-16.3479 998.192L-16.0219 997.104L-15.7686 995.967L-15.5824 994.781L-15.4575 993.546L-15.3877 992.26L-15.3665 990.926L-15.3868 989.543L-15.4416 988.112L-15.5235 986.637L-15.6253 985.119L-15.7393 983.562L-15.8582 981.967L-15.9746 980.341L-16.0815 978.685L-16.1716 977.006L-16.2384 975.307L-16.2755 973.594L-16.2767 971.872L-16.2363 970.146L-16.1493 968.422L-16.0109 966.705L-15.8169 965.002L-15.5636 963.317L-15.2479 961.656L-14.8673 960.025L-14.4199 958.428L-13.9043 956.87L-13.3196 955.356L-12.6658 953.89L-11.9431 952.476L-11.1525 951.117L-10.2953 949.815L-9.37331 948.574L-8.389 947.395L-7.34501 946.279L-6.24447 945.228L-5.09072 944.241L-3.88746 943.318L-2.63855 942.459L-1.34807 941.661Z" fill="url(#paint6_linear_2_66)"/>
</g>
<defs>
<linearGradient id="paint0_linear_2_66" x1="251.062" y1="468.704" x2="344.766" y2="364.773" gradientUnits="userSpaceOnUse">
<stop stop-color="#0080F0"/>
<stop offset="1" stop-color="#B3DBFD"/>
</linearGradient>
<linearGradient id="paint1_linear_2_66" x1="461.021" y1="195.798" x2="330.263" y2="145.953" gradientUnits="userSpaceOnUse">
<stop stop-color="#0080F0"/>
<stop offset="1" stop-color="#B3DBFD"/>
</linearGradient>
<linearGradient id="paint2_linear_2_66" x1="18.3099" y1="20.906" x2="130.85" y2="59.7425" gradientUnits="userSpaceOnUse">
<stop offset="0.498583" stop-color="#0080F0"/>
<stop offset="1" stop-color="#B3DBFD"/>
</linearGradient>
<linearGradient id="paint3_linear_2_66" x1="10.5645" y1="234.741" x2="-84.261" y2="443.372" gradientUnits="userSpaceOnUse">
<stop offset="0.171875" stop-color="#B3DBFD"/>
<stop offset="0.802083" stop-color="#0080F0"/>
</linearGradient>
<linearGradient id="paint4_linear_2_66" x1="516.754" y1="354.297" x2="411.138" y2="570.906" gradientUnits="userSpaceOnUse">
<stop offset="0.171875" stop-color="#B3DBFD"/>
<stop offset="0.802083" stop-color="#0080F0"/>
</linearGradient>
<linearGradient id="paint5_linear_2_66" x1="443" y1="1142.5" x2="634.543" y2="1002.58" gradientUnits="userSpaceOnUse">
<stop offset="0.136291" stop-color="#B3DBFD"/>
<stop offset="0.7065" stop-color="#0080F0"/>
</linearGradient>
<linearGradient id="paint6_linear_2_66" x1="130.026" y1="871.083" x2="-3.20863" y2="996.688" gradientUnits="userSpaceOnUse">
<stop offset="0.171875" stop-color="#B3DBFD"/>
<stop offset="0.802083" stop-color="#0080F0"/>
</linearGradient>
<clipPath id="clip0_2_66">
<rect width="374" height="1080" fill="white"/>
</clipPath>
</defs>
</svg>
