<svg width="56" height="100" viewBox="0 0 56 138" fill="none" xmlns="http://www.w3.org/2000/svg">
<circle cx="50" cy="132" r="6" transform="rotate(-180 50 132)" fill="#1186F2" fill-opacity="0.27"/>
<circle cx="50" cy="111" r="6" transform="rotate(-180 50 111)" fill="#1186F2" fill-opacity="0.27"/>
<circle cx="50" cy="90" r="6" transform="rotate(-180 50 90)" fill="#1186F2" fill-opacity="0.27"/>
<circle cx="50" cy="69" r="6" transform="rotate(-180 50 69)" fill="#1186F2" fill-opacity="0.27"/>
<circle cx="50" cy="48" r="6" transform="rotate(-180 50 48)" fill="#1186F2" fill-opacity="0.27"/>
<circle cx="50" cy="27" r="6" transform="rotate(-180 50 27)" fill="#1186F2" fill-opacity="0.27"/>
<circle cx="28" cy="111" r="6" transform="rotate(-180 28 111)" fill="#1186F2" fill-opacity="0.27"/>
<circle cx="28" cy="90" r="6" transform="rotate(-180 28 90)" fill="#1186F2" fill-opacity="0.27"/>
<circle cx="28" cy="69" r="6" transform="rotate(-180 28 69)" fill="#1186F2" fill-opacity="0.27"/>
<circle cx="28" cy="48" r="6" transform="rotate(-180 28 48)" fill="#1186F2" fill-opacity="0.27"/>
<circle cx="6" cy="90" r="6" transform="rotate(-180 6 90)" fill="#1186F2" fill-opacity="0.27"/>
<circle cx="6" cy="69" r="6" transform="rotate(-180 6 69)" fill="#1186F2" fill-opacity="0.27"/>
<circle cx="6" cy="48" r="6" transform="rotate(-180 6 48)" fill="#1186F2" fill-opacity="0.27"/>
<circle cx="28" cy="27" r="6" transform="rotate(-180 28 27)" fill="#1186F2" fill-opacity="0.27"/>
<circle cx="50" cy="6" r="6" transform="rotate(-180 50 6)" fill="#1186F2" fill-opacity="0.27"/>
</svg>
