<svg width="56" height="100" viewBox="0 0 56 138" fill="none" xmlns="http://www.w3.org/2000/svg">
<circle r="6" transform="matrix(1 0 0 -1 6 132)" fill="#1186F2" fill-opacity="0.27"/>
<circle r="6" transform="matrix(1 0 0 -1 6 111)" fill="#1186F2" fill-opacity="0.27"/>
<circle r="6" transform="matrix(1 0 0 -1 6 90)" fill="#1186F2" fill-opacity="0.27"/>
<circle r="6" transform="matrix(1 0 0 -1 6 69)" fill="#1186F2" fill-opacity="0.27"/>
<circle r="6" transform="matrix(1 0 0 -1 6 48)" fill="#1186F2" fill-opacity="0.27"/>
<circle r="6" transform="matrix(1 0 0 -1 6 27)" fill="#1186F2" fill-opacity="0.27"/>
<circle r="6" transform="matrix(1 0 0 -1 28 111)" fill="#1186F2" fill-opacity="0.27"/>
<circle r="6" transform="matrix(1 0 0 -1 28 90)" fill="#1186F2" fill-opacity="0.27"/>
<circle r="6" transform="matrix(1 0 0 -1 28 69)" fill="#1186F2" fill-opacity="0.27"/>
<circle r="6" transform="matrix(1 0 0 -1 28 48)" fill="#1186F2" fill-opacity="0.27"/>
<circle r="6" transform="matrix(1 0 0 -1 50 90)" fill="#1186F2" fill-opacity="0.27"/>
<circle r="6" transform="matrix(1 0 0 -1 50 69)" fill="#1186F2" fill-opacity="0.27"/>
<circle r="6" transform="matrix(1 0 0 -1 50 48)" fill="#1186F2" fill-opacity="0.27"/>
<circle r="6" transform="matrix(1 0 0 -1 28 27)" fill="#1186F2" fill-opacity="0.27"/>
<circle r="6" transform="matrix(1 0 0 -1 6 6)" fill="#1186F2" fill-opacity="0.27"/>
</svg>
