<svg width="374" height="1080" viewBox="0 0 374 1080" fill="none" xmlns="http://www.w3.org/2000/svg">
<g clip-path="url(#clip0_1_2)">
<rect width="374" height="1080" fill="white"/>
<path fill-rule="evenodd" clip-rule="evenodd" d="M-1.34807 941.661L-0.0201916 940.924L1.34089 940.244L2.7309 939.62L4.14571 939.047L5.58112 938.522L7.03322 938.042L8.49823 937.602L9.97249 937.199L11.4528 936.828L12.9359 936.484L14.4193 936.164L15.9004 935.863L17.3772 935.577L18.8479 935.301L20.3112 935.034L21.766 934.771L23.2115 934.509L24.6474 934.246L26.0736 933.979L27.4902 933.708L28.8975 933.432L30.2961 933.149L31.6867 932.859L33.0696 932.561L34.4452 932.254L35.8138 931.934L37.1755 931.6L38.5308 931.248L39.88 930.876L41.2239 930.481L42.5631 930.06L43.8987 929.61L45.2316 929.13L46.563 928.616L47.8943 928.068L49.2271 927.484L50.5628 926.862L51.9031 926.203L53.2498 925.507L54.6046 924.772L55.9692 924.001L57.3454 923.194L58.7349 922.352L60.1393 921.479L61.5602 920.575L62.999 919.644L64.457 918.689L65.9354 917.712L67.4353 916.719L68.9573 915.712L70.5022 914.695L72.0703 913.673L73.662 912.651L75.2772 911.632L76.9158 910.622L78.5774 909.624L80.2612 908.644L81.9666 907.687L83.6925 906.756L85.4376 905.856L87.2006 904.993L88.9798 904.169L90.7735 903.39L92.5798 902.658L94.3966 901.979L96.2218 901.355L98.0529 900.789L99.8877 900.286L101.724 899.846L103.558 899.475L105.389 899.172L107.213 898.941L109.027 898.784L110.83 898.701L112.618 898.693L114.388 898.763L116.139 898.91L117.867 899.135L119.57 899.438L121.245 899.819L122.891 900.278L124.504 900.814L126.082 901.426L127.624 902.113L129.127 902.875L130.59 903.71L132.01 904.616L133.385 905.592L134.715 906.637L135.997 907.749L137.229 908.925L138.412 910.163L139.542 911.463L140.62 912.821L141.644 914.235L142.613 915.704L143.525 917.225L144.382 918.796L145.18 920.414L145.921 922.077L146.603 923.783L147.225 925.53L147.789 927.314L148.293 929.134L148.738 930.987L149.123 932.869L149.45 934.779L149.718 936.713L149.93 938.667L150.086 940.639L150.187 942.625L150.237 944.621L150.238 946.621L150.194 948.623L150.107 950.62L149.984 952.608L149.827 954.583L149.641 956.539L149.431 958.474L149.2 960.384L148.953 962.266L148.694 964.116L148.426 965.934L148.153 967.715L147.879 969.459L147.607 971.165L147.341 972.831L147.083 974.456L146.837 976.04L146.605 977.583L146.389 979.084L146.191 980.545L146.013 981.965L145.857 983.346L145.724 984.689L145.616 985.994L145.532 987.263L145.474 988.497L145.441 989.699L145.435 990.869L145.454 992.01L145.499 993.124L145.569 994.211L145.663 995.275L145.78 996.317L145.92 997.339L146.08 998.343L146.261 999.33L146.46 1000.3L146.676 1001.26L146.908 1002.21L147.154 1003.15L147.412 1004.09L147.682 1005.01L147.962 1005.93L148.25 1006.85L148.545 1007.76L148.847 1008.67L149.154 1009.58L149.466 1010.49L149.782 1011.4L150.101 1012.31L150.425 1013.22L150.752 1014.13L151.083 1015.04L151.419 1015.96L151.761 1016.88L152.109 1017.79L152.465 1018.72L152.831 1019.64L153.209 1020.57L153.6 1021.49L154.006 1022.43L154.431 1023.36L154.876 1024.3L155.345 1025.25L155.839 1026.2L156.362 1027.15L156.917 1028.12L157.506 1029.09L158.131 1030.06L158.795 1031.05L159.501 1032.06L160.251 1033.07L161.045 1034.1L161.886 1035.15L162.775 1036.21L163.712 1037.3L164.697 1038.4L165.73 1039.53L166.81 1040.69L167.935 1041.88L169.103 1043.1L170.311 1044.35L171.556 1045.63L172.834 1046.95L174.14 1048.3L175.469 1049.69L176.814 1051.12L178.169 1052.59L179.527 1054.1L180.882 1055.64L182.224 1057.23L183.548 1058.85L184.846 1060.5L186.113 1062.19L187.341 1063.92L188.527 1065.67L189.666 1067.46L190.752 1069.27L191.782 1071.11L192.752 1072.97L193.659 1074.85L194.5 1076.75L195.272 1078.67L195.973 1080.6L196.6 1082.54L197.154 1084.5L197.631 1086.45L198.031 1088.42L198.353 1090.38L198.597 1092.35L198.762 1094.31L198.848 1096.26L198.857 1098.21L198.787 1100.15L198.641 1102.07L198.418 1103.99L198.12 1105.88L197.749 1107.76L197.306 1109.62L196.793 1111.46L196.211 1113.28L195.563 1115.07L194.85 1116.84L194.075 1118.58L193.24 1120.3L192.347 1121.99L191.398 1123.66L190.396 1125.29L189.344 1126.9L188.243 1128.47L187.095 1130.02L185.904 1131.53L184.671 1133.02L183.397 1134.48L182.086 1135.9L180.739 1137.3L179.357 1138.66L177.942 1139.99L176.496 1141.3L175.019 1142.56L173.514 1143.8L171.98 1145L170.42 1146.17L168.832 1147.31L167.219 1148.41L165.581 1149.47L163.917 1150.49L162.229 1151.48L160.516 1152.42L158.778 1153.31L157.016 1154.17L155.231 1154.97L153.42 1155.72L151.586 1156.43L149.729 1157.07L147.847 1157.66L145.943 1158.18L144.016 1158.65L142.066 1159.04L140.096 1159.37L138.105 1159.63L136.096 1159.81L134.068 1159.92L132.025 1159.94L129.967 1159.89L127.897 1159.76L125.817 1159.54L123.73 1159.24L121.638 1158.86L119.545 1158.4L117.452 1157.85L115.365 1157.23L113.285 1156.52L111.217 1155.74L109.163 1154.89L107.128 1153.98L105.115 1153L103.128 1151.96L101.169 1150.88L99.2427 1149.75L97.3509 1148.58L95.4963 1147.39L93.6807 1146.16L91.9057 1144.92L90.1721 1143.67L88.4805 1142.4L86.8315 1141.13L85.225 1139.86L83.6609 1138.58L82.1392 1137.31L80.6592 1136.04L79.2206 1134.78L77.8226 1133.53L76.4646 1132.29L75.1457 1131.07L73.865 1129.86L72.6215 1128.67L71.4143 1127.5L70.2421 1126.35L69.1037 1125.23L67.9979 1124.14L66.9234 1123.07L65.8786 1122.04L64.862 1121.04L63.8721 1120.07L62.9071 1119.15L61.9653 1118.26L61.0447 1117.42L60.1435 1116.62L59.2594 1115.87L58.3905 1115.17L57.5346 1114.51L56.6893 1113.92L55.8523 1113.37L55.0212 1112.88L54.1935 1112.45L53.3669 1112.08L52.5387 1111.77L51.7065 1111.52L50.8678 1111.32L50.0201 1111.19L49.1608 1111.12L48.2877 1111.12L47.3983 1111.17L46.4904 1111.28L45.5618 1111.45L44.6103 1111.68L43.6342 1111.96L42.6315 1112.3L41.6006 1112.68L40.5401 1113.12L39.4485 1113.6L38.3249 1114.13L37.1681 1114.69L35.9776 1115.3L34.7527 1115.93L33.4932 1116.6L32.1988 1117.29L30.8698 1118.01L29.5065 1118.74L28.1092 1119.49L26.6786 1120.24L25.2157 1121.01L23.7213 1121.77L22.1968 1122.53L20.6432 1123.29L19.0621 1124.04L17.455 1124.78L15.8233 1125.5L14.1686 1126.2L12.4927 1126.88L10.797 1127.53L9.08329 1128.16L7.35301 1128.76L5.60768 1129.33L3.84872 1129.87L2.07746 1130.38L0.295128 1130.85L-1.49715 1131.28L-3.29834 1131.68L-5.10751 1132.05L-6.9238 1132.37L-8.74639 1132.66L-10.5745 1132.92L-12.4072 1133.13L-14.2435 1133.31L-16.0824 1133.45L-17.9224 1133.56L-19.7617 1133.62L-21.598 1133.64L-23.4285 1133.62L-25.2498 1133.56L-27.0579 1133.44L-28.8491 1133.28L-30.6197 1133.06L-32.3663 1132.79L-34.0862 1132.46L-35.7766 1132.08L-37.4353 1131.64L-39.0606 1131.15L-40.6509 1130.6L-42.2055 1130L-43.7236 1129.35L-45.2052 1128.65L-46.6506 1127.9L-48.0602 1127.11L-49.4351 1126.28L-50.7766 1125.4L-52.0861 1124.49L-53.3656 1123.55L-54.6168 1122.57L-55.8421 1121.56L-57.0435 1120.53L-58.2235 1119.47L-59.3842 1118.39L-60.528 1117.29L-61.6571 1116.16L-62.7736 1115.03L-63.8794 1113.87L-64.9762 1112.7L-66.0655 1111.52L-67.1487 1110.33L-68.2265 1109.12L-69.2997 1107.9L-70.3686 1106.66L-71.433 1105.42L-72.4927 1104.16L-73.5468 1102.89L-74.5942 1101.6L-75.6333 1100.3L-76.6624 1098.98L-77.6791 1097.65L-78.6811 1096.3L-79.6653 1094.93L-80.6288 1093.54L-81.5681 1092.13L-82.4796 1090.7L-83.3595 1089.25L-84.2039 1087.78L-85.0086 1086.28L-85.7696 1084.77L-86.4826 1083.23L-87.1435 1081.66L-87.748 1080.08L-88.292 1078.47L-88.7717 1076.84L-89.1831 1075.19L-89.5226 1073.52L-89.7869 1071.84L-89.9727 1070.14L-90.0772 1068.42L-90.0977 1066.69L-90.0321 1064.95L-89.8783 1063.19L-89.6349 1061.44L-89.3006 1059.68L-88.8746 1057.91L-88.3565 1056.15L-87.7461 1054.39L-87.0439 1052.63L-86.2505 1050.89L-85.3669 1049.15L-84.3945 1047.43L-83.3351 1045.73L-82.1906 1044.05L-80.9634 1042.38L-79.6562 1040.74L-78.2718 1039.13L-76.8134 1037.55L-75.2842 1035.99L-73.6881 1034.47L-72.0286 1032.98L-70.3099 1031.53L-68.5361 1030.12L-66.7117 1028.75L-64.8412 1027.41L-62.9296 1026.12L-60.9818 1024.87L-59.0031 1023.66L-56.9993 1022.49L-54.9761 1021.36L-52.9401 1020.28L-50.8977 1019.24L-48.8561 1018.23L-46.8226 1017.27L-44.8047 1016.34L-42.8099 1015.45L-40.8457 1014.59L-38.9195 1013.75L-37.0385 1012.95L-35.2098 1012.16L-33.4398 1011.4L-31.7348 1010.65L-30.1004 1009.91L-28.5419 1009.17L-27.0638 1008.44L-25.67 1007.71L-24.364 1006.96L-23.1483 1006.21L-22.0248 1005.44L-20.9947 1004.64L-20.0585 1003.83L-19.2159 1002.98L-18.466 1002.1L-17.8069 1001.19L-17.2364 1000.23L-16.7512 999.234L-16.3479 998.192L-16.0219 997.104L-15.7686 995.967L-15.5824 994.781L-15.4575 993.546L-15.3877 992.26L-15.3665 990.926L-15.3868 989.543L-15.4416 988.112L-15.5235 986.637L-15.6253 985.119L-15.7393 983.562L-15.8582 981.967L-15.9746 980.341L-16.0815 978.685L-16.1716 977.006L-16.2384 975.307L-16.2755 973.594L-16.2767 971.872L-16.2363 970.146L-16.1493 968.422L-16.0109 966.705L-15.8169 965.002L-15.5636 963.317L-15.2479 961.656L-14.8673 960.025L-14.4199 958.428L-13.9043 956.87L-13.3196 955.356L-12.6658 953.89L-11.9431 952.476L-11.1525 951.117L-10.2953 949.815L-9.37331 948.574L-8.389 947.395L-7.34501 946.279L-6.24447 945.228L-5.09072 944.241L-3.88746 943.318L-2.63855 942.459L-1.34807 941.661Z" fill="url(#paint0_linear_1_2)"/>
<path fill-rule="evenodd" clip-rule="evenodd" d="M363.104 911.592L364.491 909.952L365.963 908.38L367.512 906.872L369.13 905.426L370.809 904.039L372.541 902.707L374.317 901.427L376.131 900.194L377.973 899.004L379.839 897.851L381.719 896.731L383.61 895.64L385.504 894.571L387.396 893.521L389.284 892.485L391.161 891.458L393.027 890.438L394.879 889.421L396.715 888.403L398.534 887.383L400.336 886.359L402.122 885.33L403.892 884.295L405.646 883.253L407.383 882.199L409.103 881.132L410.803 880.047L412.482 878.941L414.14 877.808L415.775 876.646L417.386 875.448L418.974 874.212L420.537 872.934L422.076 871.609L423.593 870.236L425.088 868.811L426.563 867.332L428.019 865.798L429.46 864.207L430.887 862.56L432.303 860.856L433.713 859.097L435.119 857.282L436.525 855.416L437.934 853.5L439.35 851.537L440.778 849.531L442.22 847.487L443.681 845.408L445.165 843.3L446.675 841.169L448.214 839.019L449.786 836.858L451.393 834.692L453.039 832.527L454.726 830.37L456.456 828.228L458.23 826.108L460.052 824.016L461.921 821.96L463.838 819.947L465.805 817.982L467.822 816.074L469.888 814.228L472.002 812.451L474.165 810.748L476.375 809.125L478.631 807.588L480.931 806.142L483.273 804.792L485.655 803.541L488.075 802.395L490.53 801.356L493.016 800.428L495.532 799.614L498.075 798.916L500.64 798.337L503.224 797.878L505.824 797.54L508.437 797.325L511.058 797.234L513.685 797.265L516.313 797.421L518.939 797.699L521.559 798.099L524.17 798.622L526.768 799.264L529.349 800.026L531.911 800.904L534.449 801.899L536.96 803.006L539.442 804.225L541.89 805.553L544.303 806.988L546.676 808.527L549.008 810.167L551.295 811.906L553.535 813.741L555.725 815.669L557.863 817.687L559.946 819.792L561.972 821.98L563.94 824.249L565.848 826.594L567.693 829.013L569.474 831.5L571.19 834.052L572.84 836.665L574.424 839.332L575.94 842.049L577.389 844.81L578.772 847.608L580.089 850.436L581.342 853.284L582.534 856.146L583.667 859.011L584.744 861.872L585.769 864.721L586.745 867.551L587.675 870.354L588.564 873.124L589.415 875.857L590.232 878.545L591.019 881.186L591.779 883.774L592.518 886.307L593.238 888.781L593.943 891.194L594.638 893.543L595.324 895.828L596.007 898.048L596.689 900.201L597.372 902.289L598.06 904.311L598.756 906.268L599.461 908.161L600.177 909.993L600.907 911.764L601.651 913.477L602.412 915.134L603.189 916.737L603.984 918.291L604.798 919.796L605.63 921.258L606.48 922.677L607.349 924.059L608.236 925.405L609.14 926.72L610.06 928.006L610.997 929.267L611.948 930.505L612.913 931.723L613.89 932.924L614.879 934.111L615.878 935.286L616.887 936.452L617.904 937.609L618.928 938.761L619.959 939.908L620.997 941.053L622.04 942.195L623.088 943.337L624.143 944.478L625.203 945.619L626.271 946.761L627.346 947.902L628.43 949.044L629.526 950.187L630.634 951.328L631.757 952.469L632.898 953.609L634.061 954.746L635.247 955.881L636.461 957.013L637.707 958.141L638.989 959.266L640.311 960.385L641.677 961.501L643.091 962.612L644.559 963.718L646.085 964.821L647.672 965.921L649.326 967.019L651.05 968.115L652.847 969.213L654.721 970.313L656.674 971.418L658.708 972.531L660.825 973.653L663.026 974.788L665.31 975.94L667.676 977.111L670.123 978.306L672.648 979.528L675.247 980.78L677.915 982.068L680.647 983.395L683.435 984.764L686.271 986.18L689.147 987.646L692.054 989.165L694.979 990.74L697.913 992.374L700.845 994.068L703.765 995.825L706.662 997.645L709.528 999.529L712.354 1001.48L715.132 1003.49L717.855 1005.56L720.516 1007.69L723.108 1009.89L725.624 1012.14L728.06 1014.45L730.409 1016.81L732.667 1019.23L734.83 1021.69L736.894 1024.2L738.854 1026.76L740.709 1029.35L742.455 1031.98L744.09 1034.65L745.612 1037.35L747.02 1040.07L748.312 1042.82L749.489 1045.59L750.548 1048.38L751.492 1051.18L752.32 1053.99L753.032 1056.82L753.63 1059.65L754.116 1062.48L754.491 1065.31L754.756 1068.13L754.915 1070.95L754.968 1073.77L754.92 1076.57L754.773 1079.36L754.529 1082.14L754.191 1084.9L753.763 1087.64L753.247 1090.36L752.646 1093.07L751.963 1095.74L751.202 1098.4L750.364 1101.03L749.453 1103.64L748.47 1106.21L747.419 1108.76L746.301 1111.28L745.117 1113.77L743.87 1116.23L742.56 1118.65L741.19 1121.04L739.758 1123.4L738.266 1125.72L736.714 1127.99L735.102 1130.23L733.429 1132.43L731.695 1134.58L729.899 1136.68L728.04 1138.73L726.116 1140.72L724.126 1142.66L722.07 1144.54L719.945 1146.36L717.75 1148.1L715.484 1149.78L713.145 1151.38L710.732 1152.9L708.245 1154.34L705.682 1155.69L703.044 1156.95L700.33 1158.11L697.542 1159.17L694.679 1160.13L691.743 1160.98L688.737 1161.72L685.663 1162.35L682.524 1162.87L679.323 1163.27L676.066 1163.55L672.757 1163.72L669.402 1163.78L666.007 1163.72L662.579 1163.55L659.125 1163.27L655.654 1162.89L652.172 1162.41L648.689 1161.84L645.214 1161.19L641.755 1160.46L638.321 1159.66L634.919 1158.8L631.556 1157.89L628.238 1156.94L624.969 1155.95L621.752 1154.92L618.59 1153.86L615.487 1152.78L612.443 1151.68L609.46 1150.57L606.54 1149.44L603.682 1148.31L600.889 1147.17L598.16 1146.03L595.495 1144.89L592.895 1143.76L590.359 1142.63L587.888 1141.52L585.482 1140.43L583.139 1139.36L580.86 1138.31L578.645 1137.29L576.492 1136.29L574.401 1135.34L572.371 1134.42L570.402 1133.54L568.492 1132.72L566.639 1131.94L564.844 1131.22L563.104 1130.55L561.417 1129.95L559.782 1129.42L558.197 1128.95L556.659 1128.56L555.166 1128.24L553.716 1128L552.306 1127.85L550.933 1127.78L549.593 1127.8L548.285 1127.91L547.004 1128.1L545.747 1128.39L544.51 1128.77L543.29 1129.24L542.083 1129.81L540.886 1130.47L539.694 1131.22L538.503 1132.05L537.31 1132.98L536.112 1133.99L534.904 1135.09L533.682 1136.26L532.444 1137.51L531.185 1138.83L529.903 1140.22L528.595 1141.67L527.257 1143.17L525.887 1144.74L524.483 1146.34L523.043 1147.99L521.564 1149.67L520.044 1151.39L518.483 1153.12L516.879 1154.88L515.232 1156.64L513.54 1158.41L511.803 1160.18L510.021 1161.94L508.194 1163.7L506.323 1165.43L504.407 1167.15L502.447 1168.83L500.445 1170.49L498.4 1172.12L496.314 1173.71L494.187 1175.26L492.022 1176.77L489.818 1178.24L487.577 1179.66L485.301 1181.03L482.989 1182.36L480.643 1183.64L478.265 1184.87L475.854 1186.05L473.413 1187.18L470.941 1188.26L468.442 1189.29L465.916 1190.26L463.364 1191.18L460.79 1192.04L458.195 1192.83L455.583 1193.55L452.959 1194.21L450.324 1194.78L447.684 1195.26L445.043 1195.67L442.403 1195.98L439.768 1196.2L437.142 1196.32L434.526 1196.36L431.925 1196.3L429.339 1196.15L426.771 1195.92L424.222 1195.59L421.693 1195.19L419.185 1194.7L416.698 1194.14L414.232 1193.51L411.787 1192.81L409.361 1192.05L406.954 1191.23L404.564 1190.36L402.19 1189.44L399.83 1188.47L397.483 1187.47L395.145 1186.42L392.816 1185.35L390.494 1184.24L388.176 1183.11L385.862 1181.95L383.548 1180.77L381.235 1179.56L378.921 1178.34L376.605 1177.1L374.287 1175.84L371.967 1174.55L369.646 1173.25L367.323 1171.93L365 1170.58L362.679 1169.21L360.363 1167.81L358.052 1166.38L355.751 1164.92L353.463 1163.43L351.192 1161.9L348.941 1160.33L346.716 1158.72L344.522 1157.07L342.363 1155.37L340.245 1153.62L338.174 1151.81L336.156 1149.96L334.197 1148.04L332.302 1146.08L330.478 1144.05L328.731 1141.96L327.067 1139.82L325.491 1137.61L324.01 1135.35L322.628 1133.02L321.351 1130.64L320.184 1128.21L319.132 1125.72L318.197 1123.17L317.385 1120.58L316.698 1117.94L316.139 1115.25L315.71 1112.53L315.413 1109.77L315.25 1106.97L315.221 1104.15L315.326 1101.3L315.566 1098.43L315.939 1095.55L316.445 1092.65L317.082 1089.75L317.847 1086.84L318.738 1083.94L319.752 1081.05L320.887 1078.16L322.137 1075.29L323.499 1072.45L324.968 1069.62L326.54 1066.83L328.208 1064.07L329.968 1061.34L331.812 1058.65L333.735 1056L335.729 1053.4L337.787 1050.85L339.899 1048.35L342.057 1045.91L344.251 1043.51L346.47 1041.18L348.703 1038.9L350.939 1036.68L353.164 1034.52L355.367 1032.42L357.536 1030.38L359.658 1028.4L361.721 1026.47L363.713 1024.59L365.623 1022.76L367.441 1020.98L369.156 1019.24L370.758 1017.54L372.239 1015.87L373.592 1014.24L374.81 1012.62L375.887 1011.03L376.818 1009.44L377.6 1007.87L378.232 1006.29L378.711 1004.71L379.038 1003.12L379.215 1001.52L379.243 999.889L379.127 998.235L378.871 996.55L378.48 994.83L377.963 993.07L377.327 991.268L376.58 989.42L375.732 987.524L374.794 985.578L373.777 983.581L372.691 981.533L371.55 979.433L370.365 977.283L369.149 975.083L367.915 972.837L366.676 970.545L365.444 968.212L364.233 965.841L363.054 963.436L361.92 961.003L360.842 958.545L359.831 956.069L358.898 953.581L358.051 951.086L357.3 948.591L356.654 946.102L356.117 943.625L355.698 941.167L355.401 938.733L355.23 936.331L355.188 933.965L355.277 931.641L355.498 929.364L355.85 927.139L356.334 924.971L356.947 922.862L357.685 920.815L358.545 918.835L359.523 916.921L360.613 915.076L361.809 913.299L363.104 911.592Z" fill="url(#paint1_linear_1_2)"/>
<path fill-rule="evenodd" clip-rule="evenodd" d="M388.658 502.69L389.939 501.16L391.295 499.688L392.718 498.273L394.201 496.914L395.737 495.607L397.32 494.349L398.941 493.137L400.594 491.967L402.272 490.836L403.969 489.738L405.68 488.67L407.398 487.627L409.119 486.606L410.839 485.601L412.553 484.609L414.259 483.626L415.954 482.649L417.636 481.675L419.303 480.702L420.956 479.726L422.594 478.748L424.218 477.765L425.827 476.777L427.422 475.782L429.003 474.778L430.567 473.762L432.115 472.731L433.645 471.679L435.157 470.605L436.648 469.504L438.119 468.371L439.57 467.204L441 465.999L442.41 464.752L443.801 463.461L445.174 462.124L446.529 460.738L447.87 459.302L449.198 457.814L450.515 456.276L451.825 454.685L453.129 453.044L454.431 451.354L455.735 449.616L457.042 447.832L458.358 446.005L459.684 444.139L461.025 442.237L462.383 440.303L463.762 438.343L465.165 436.36L466.595 434.36L468.054 432.349L469.545 430.332L471.071 428.315L472.632 426.304L474.233 424.307L475.873 422.327L477.553 420.373L479.276 418.451L481.041 416.566L482.849 414.724L484.7 412.933L486.594 411.197L488.53 409.523L490.507 407.916L492.525 406.38L494.581 404.922L496.675 403.546L498.804 402.256L500.966 401.057L503.159 399.951L505.382 398.943L507.63 398.035L509.902 397.231L512.194 396.532L514.504 395.941L516.828 395.46L519.164 395.088L521.508 394.829L523.856 394.682L526.206 394.647L528.555 394.725L530.899 394.915L533.234 395.218L535.558 395.631L537.868 396.155L540.16 396.788L542.431 397.528L544.679 398.375L546.9 399.326L549.092 400.379L551.251 401.532L553.376 402.784L555.463 404.131L557.51 405.573L559.515 407.105L561.475 408.727L563.389 410.434L565.253 412.225L567.067 414.096L568.828 416.046L570.534 418.07L572.185 420.165L573.778 422.329L575.312 424.557L576.786 426.846L578.2 429.191L579.552 431.589L580.844 434.033L582.074 436.519L583.244 439.04L584.354 441.59L585.407 444.162L586.404 446.746L587.349 449.335L588.244 451.921L589.092 454.498L589.897 457.058L590.662 459.595L591.39 462.103L592.086 464.578L592.752 467.013L593.392 469.405L594.01 471.75L594.61 474.045L595.194 476.287L595.767 478.473L596.332 480.602L596.891 482.671L597.449 484.682L598.007 486.632L598.568 488.521L599.135 490.351L599.71 492.121L600.295 493.833L600.892 495.488L601.502 497.087L602.127 498.633L602.767 500.128L603.424 501.574L604.098 502.973L604.79 504.328L605.499 505.642L606.226 506.918L606.97 508.159L607.731 509.367L608.509 510.545L609.302 511.697L610.109 512.826L610.931 513.933L611.765 515.022L612.61 516.095L613.467 517.155L614.333 518.204L615.207 519.244L616.089 520.276L616.978 521.303L617.873 522.326L618.774 523.346L619.68 524.364L620.591 525.381L621.507 526.397L622.429 527.414L623.356 528.43L624.291 529.447L625.234 530.463L626.187 531.48L627.151 532.496L628.129 533.51L629.123 534.523L630.136 535.534L631.17 536.541L632.23 537.545L633.317 538.545L634.437 539.541L635.593 540.532L636.789 541.517L638.028 542.497L639.315 543.472L640.654 544.442L642.048 545.408L643.502 546.37L645.018 547.33L646.6 548.289L648.25 549.248L649.972 550.21L651.766 551.176L653.633 552.15L655.576 553.133L657.592 554.129L659.682 555.142L661.843 556.173L664.074 557.228L666.369 558.309L668.726 559.42L671.139 560.565L673.601 561.748L676.106 562.972L678.645 564.241L681.209 565.558L683.79 566.925L686.376 568.346L688.959 569.823L691.53 571.356L694.079 572.948L696.598 574.599L699.081 576.308L701.519 578.077L703.906 579.904L706.236 581.788L708.502 583.729L710.7 585.725L712.824 587.775L714.87 589.876L716.833 592.026L718.709 594.224L720.495 596.466L722.188 598.751L723.785 601.075L725.284 603.436L726.683 605.831L727.98 608.257L729.174 610.71L730.265 613.189L731.25 615.691L732.131 618.211L732.908 620.747L733.581 623.297L734.15 625.857L734.617 628.425L734.983 630.998L735.25 633.573L735.419 636.148L735.493 638.721L735.473 641.289L735.362 643.85L735.162 646.402L734.876 648.943L734.507 651.472L734.057 653.986L733.53 656.485L732.926 658.966L732.251 661.429L731.505 663.873L730.691 666.295L729.812 668.696L728.871 671.073L727.868 673.426L726.806 675.754L725.686 678.056L724.51 680.331L723.28 682.576L721.995 684.792L720.656 686.977L719.265 689.129L717.821 691.247L716.323 693.33L714.773 695.374L713.169 697.378L711.51 699.34L709.796 701.257L708.026 703.126L706.199 704.945L704.312 706.711L702.366 708.42L700.359 710.069L698.29 711.655L696.158 713.173L693.962 714.62L691.701 715.993L689.374 717.287L686.982 718.499L684.525 719.625L682.004 720.662L679.418 721.606L676.77 722.455L674.061 723.205L671.294 723.855L668.472 724.403L665.598 724.847L662.675 725.186L659.71 725.421L656.705 725.552L653.668 725.58L650.604 725.508L647.519 725.338L644.421 725.075L641.317 724.723L638.213 724.287L635.118 723.774L632.04 723.191L628.985 722.546L625.961 721.846L622.974 721.097L620.027 720.305L617.125 719.477L614.27 718.616L611.466 717.729L608.714 716.817L606.016 715.887L603.374 714.941L600.787 713.983L598.257 713.016L595.784 712.043L593.369 711.068L591.011 710.094L588.712 709.123L586.469 708.16L584.285 707.207L582.157 706.267L580.086 705.343L578.072 704.44L576.114 703.56L574.211 702.706L572.362 701.884L570.568 701.095L568.826 700.344L567.137 699.634L565.498 698.969L563.908 698.353L562.367 697.788L560.871 697.28L559.421 696.831L558.013 696.444L556.646 696.122L555.318 695.87L554.026 695.689L552.767 695.582L551.54 695.552L550.341 695.601L549.167 695.729L548.015 695.94L546.883 696.234L545.767 696.611L544.664 697.073L543.57 697.619L542.482 698.249L541.397 698.961L540.311 699.756L539.221 700.63L538.124 701.582L537.016 702.61L535.894 703.711L534.755 704.882L533.597 706.118L532.416 707.417L531.21 708.773L529.976 710.182L528.712 711.64L527.417 713.142L526.087 714.682L524.722 716.255L523.321 717.856L521.882 719.479L520.404 721.119L518.886 722.77L517.329 724.427L515.732 726.085L514.094 727.738L512.416 729.382L510.699 731.012L508.943 732.624L507.148 734.214L505.315 735.778L503.446 737.313L501.54 738.816L499.599 740.284L497.625 741.715L495.617 743.107L493.577 744.459L491.505 745.77L489.404 747.038L487.274 748.262L485.115 749.443L482.928 750.58L480.716 751.671L478.478 752.717L476.216 753.716L473.931 754.665L471.625 755.564L469.3 756.41L466.958 757.197L464.603 757.922L462.238 758.58L459.867 759.166L457.492 759.675L455.118 760.105L452.747 760.453L450.384 760.717L448.03 760.897L445.688 760.992L443.361 761.003L441.05 760.931L438.757 760.777L436.484 760.544L434.23 760.235L431.997 759.853L429.785 759.402L427.593 758.884L425.421 758.306L423.268 757.669L421.133 756.979L419.015 756.24L416.913 755.457L414.824 754.632L412.747 753.769L410.68 752.873L408.622 751.947L406.57 750.993L404.523 750.014L402.479 749.013L400.437 747.99L398.396 746.948L396.354 745.887L394.312 744.809L392.268 743.712L390.222 742.598L388.176 741.465L386.129 740.312L384.082 739.138L382.038 737.941L379.998 736.72L377.965 735.472L375.941 734.196L373.929 732.888L371.933 731.547L369.957 730.169L368.004 728.753L366.08 727.295L364.189 725.794L362.336 724.246L360.526 722.65L358.765 721.003L357.057 719.305L355.409 717.553L353.825 715.746L352.312 713.884L350.874 711.965L349.518 709.99L348.247 707.958L347.066 705.87L345.981 703.727L344.996 701.531L344.114 699.281L343.339 696.981L342.675 694.633L342.124 692.238L341.688 689.8L341.37 687.322L341.172 684.808L341.093 682.26L341.136 679.682L341.299 677.078L341.583 674.453L341.987 671.81L342.51 669.153L343.15 666.487L343.905 663.816L344.773 661.145L345.751 658.476L346.836 655.816L348.025 653.166L349.313 650.533L350.696 647.919L352.171 645.329L353.731 642.765L355.372 640.232L357.088 637.733L358.873 635.271L360.721 632.848L362.625 630.469L364.576 628.134L366.567 625.847L368.588 623.61L370.631 621.423L372.685 619.29L374.739 617.21L376.784 615.184L378.806 613.213L380.797 611.296L382.744 609.432L384.637 607.619L386.466 605.857L388.22 604.141L389.89 602.471L391.467 600.842L392.943 599.251L394.309 597.693L395.559 596.166L396.688 594.662L397.691 593.179L398.563 591.711L399.301 590.253L399.905 588.799L400.372 587.345L400.703 585.885L400.9 584.414L400.965 582.927L400.901 581.42L400.712 579.887L400.405 578.326L399.985 576.731L399.459 575.101L398.835 573.432L398.122 571.721L397.33 569.967L396.467 568.168L395.545 566.324L394.574 564.435L393.566 562.5L392.531 560.521L391.481 558.499L390.427 556.436L389.381 554.336L388.355 552.2L387.358 550.033L386.402 547.838L385.496 545.62L384.651 543.384L383.876 541.134L383.179 538.877L382.567 536.617L382.049 534.359L381.629 532.111L381.313 529.876L381.106 527.661L381.011 525.471L381.03 523.312L381.166 521.188L381.419 519.103L381.789 517.063L382.275 515.071L382.874 513.13L383.584 511.244L384.402 509.414L385.324 507.643L386.344 505.932L387.457 504.281L388.658 502.69Z" fill="url(#paint2_linear_1_2)"/>
<path fill-rule="evenodd" clip-rule="evenodd" d="M378.906 202.546L377.83 202.119L376.758 201.671L375.691 201.2L374.631 200.707L373.576 200.193L372.528 199.658L371.487 199.101L370.454 198.525L369.428 197.928L368.41 197.312L367.401 196.677L366.4 196.023L365.408 195.351L364.425 194.661L363.451 193.954L362.485 193.231L361.529 192.491L360.583 191.735L359.645 190.964L358.716 190.178L357.797 189.378L356.886 188.563L355.985 187.735L355.092 186.893L354.208 186.038L353.334 185.171L352.467 184.29L351.61 183.398L350.76 182.493L349.92 181.577L349.088 180.649L348.264 179.709L347.449 178.758L346.642 177.795L345.844 176.821L345.055 175.836L344.274 174.84L343.503 173.833L342.741 172.814L341.988 171.784L341.246 170.743L340.514 169.691L339.793 168.628L339.083 167.554L338.385 166.469L337.7 165.372L337.027 164.265L336.368 163.147L335.723 162.018L335.092 160.879L334.477 159.729L333.878 158.569L333.295 157.399L332.73 156.218L332.183 155.029L331.655 153.83L331.146 152.622L330.657 151.405L330.19 150.181L329.744 148.948L329.32 147.708L328.92 146.461L328.543 145.208L328.19 143.949L327.863 142.685L327.562 141.416L327.287 140.142L327.039 138.866L326.818 137.586L326.626 136.305L326.463 135.022L326.329 133.738L326.225 132.455L326.151 131.173L326.109 129.892L326.097 128.614L326.118 127.339L326.17 126.069L326.256 124.804L326.373 123.545L326.524 122.293L326.709 121.048L326.926 119.813L327.177 118.587L327.462 117.372L327.78 116.168L328.131 114.977L328.516 113.799L328.934 112.635L329.385 111.486L329.869 110.352L330.385 109.236L330.934 108.137L331.514 107.056L332.125 105.993L332.767 104.951L333.439 103.929L334.14 102.927L334.871 101.948L335.629 100.99L336.416 100.055L337.229 99.1436L338.068 98.2555L338.932 97.3916L339.82 96.5522L340.733 95.7376L341.667 94.9481L342.624 94.1841L343.602 93.4458L344.599 92.7334L345.616 92.047L346.65 91.3868L347.702 90.7529L348.77 90.1453L349.854 89.564L350.952 89.0091L352.063 88.4803L353.186 87.9777L354.321 87.501L355.467 87.05L356.622 86.6246L357.786 86.2243L358.957 85.849L360.135 85.4983L361.319 85.1718L362.507 84.869L363.7 84.5896L364.896 84.3331L366.095 84.099L367.295 83.8867L368.496 83.6958L369.697 83.5258L370.898 83.3759L372.098 83.2457L373.295 83.1346L374.49 83.0419L375.682 82.9671L376.871 82.9096L378.056 82.8687L379.236 82.844L380.411 82.835L381.581 82.841L382.746 82.8616L383.905 82.8965L385.058 82.9451L386.204 83.007L387.345 83.082L388.479 83.1697L389.606 83.2697L390.726 83.3818L391.84 83.5058L392.947 83.6414L394.047 83.7884L395.139 83.9467L396.225 84.1161L397.304 84.2966L398.375 84.4879L399.44 84.6901L400.497 84.9031L401.547 85.1268L402.59 85.3612L403.626 85.6063L404.655 85.8621L405.676 86.1286L406.689 86.4058L407.696 86.6938L408.695 86.9925L409.686 87.302L410.67 87.6222L411.645 87.9533L412.613 88.2953L413.574 88.648L414.525 89.0116L415.469 89.3859L416.405 89.771L417.331 90.1668L418.25 90.5732L419.159 90.9902L420.059 91.4176L420.951 91.8553L421.833 92.3031L422.705 92.7609L423.568 93.2284L424.422 93.7054L425.265 94.1917L426.099 94.6871L426.922 95.1913L427.735 95.7041L428.538 96.2253L429.331 96.7546L430.113 97.2918L430.884 97.8367L431.645 98.389L432.395 98.9484L433.134 99.5148L433.862 100.088L434.579 100.667L435.285 101.253L435.98 101.845L436.664 102.442L437.336 103.045L437.998 103.653L438.648 104.265L439.287 104.883L439.915 105.505L440.532 106.131L441.138 106.762L441.732 107.395L442.316 108.033L442.888 108.673L443.45 109.317L444 109.963L444.54 110.612L445.069 111.263L445.587 111.917L446.095 112.572L446.592 113.229L447.079 113.887L447.556 114.546L448.022 115.207L448.479 115.869L448.925 116.531L449.362 117.194L449.789 117.857L450.207 118.521L450.616 119.184L451.016 119.848L451.406 120.511L451.788 121.174L452.162 121.837L452.527 122.499L452.884 123.16L453.234 123.82L453.575 124.48L453.909 125.139L454.236 125.797L454.555 126.454L454.868 127.11L455.173 127.764L455.473 128.418L455.765 129.071L456.051 129.723L456.331 130.374L456.605 131.024L456.873 131.673L457.135 132.321L457.391 132.968L457.641 133.615L457.885 134.261L458.123 134.907L458.355 135.552L458.58 136.197L458.8 136.842L459.013 137.486L459.22 138.13L459.419 138.775L459.612 139.419L459.798 140.063L459.976 140.707L460.147 141.352L460.31 141.996L460.465 142.64L460.612 143.285L460.75 143.929L460.88 144.574L461.002 145.218L461.114 145.862L461.218 146.505L461.312 147.149L461.397 147.791L461.473 148.433L461.539 149.075L461.596 149.715L461.643 150.355L461.68 150.993L461.707 151.631L461.725 152.266L461.733 152.901L461.731 153.534L461.719 154.165L461.698 154.794L461.667 155.421L461.627 156.046L461.577 156.668L461.517 157.289L461.448 157.907L461.369 158.522L461.281 159.135L461.184 159.745L461.078 160.352L460.962 160.956L460.838 161.557L460.705 162.154L460.564 162.749L460.413 163.34L460.255 163.929L460.088 164.514L459.914 165.095L459.731 165.673L459.541 166.248L459.344 166.82L459.139 167.388L458.927 167.953L458.709 168.515L458.483 169.074L458.252 169.63L458.014 170.183L457.769 170.733L457.519 171.28L457.264 171.824L457.002 172.366L456.735 172.905L456.463 173.442L456.185 173.977L455.903 174.509L455.615 175.04L455.321 175.568L455.023 176.095L454.72 176.619L454.412 177.142L454.098 177.664L453.779 178.183L453.455 178.701L453.125 179.217L452.79 179.731L452.448 180.244L452.101 180.755L451.748 181.264L451.389 181.77L451.023 182.275L450.651 182.778L450.272 183.278L449.886 183.776L449.493 184.271L449.093 184.764L448.685 185.254L448.27 185.741L447.848 186.225L447.418 186.705L446.98 187.183L446.534 187.657L446.08 188.127L445.618 188.594L445.148 189.056L444.669 189.515L444.182 189.969L443.687 190.418L443.183 190.864L442.67 191.304L442.149 191.74L441.619 192.17L441.08 192.596L440.533 193.017L439.976 193.432L439.412 193.842L438.838 194.246L438.256 194.645L437.665 195.039L437.065 195.427L436.457 195.81L435.84 196.188L435.214 196.559L434.58 196.926L433.937 197.287L433.285 197.643L432.625 197.993L431.956 198.338L431.278 198.678L430.591 199.012L429.896 199.341L429.192 199.665L428.479 199.984L427.757 200.298L427.026 200.606L426.286 200.91L425.536 201.208L424.778 201.5L424.009 201.787L423.232 202.069L422.444 202.345L421.647 202.615L420.84 202.879L420.022 203.137L419.195 203.388L418.357 203.633L417.509 203.87L416.65 204.101L415.781 204.323L414.901 204.537L414.01 204.742L413.109 204.938L412.197 205.125L411.274 205.301L410.34 205.466L409.396 205.62L408.442 205.762L407.477 205.891L406.502 206.006L405.517 206.108L404.522 206.195L403.518 206.267L402.505 206.323L401.483 206.362L400.453 206.385L399.415 206.389L398.369 206.376L397.316 206.344L396.257 206.292L395.192 206.221L394.121 206.129L393.045 206.017L391.965 205.883L390.882 205.729L389.795 205.552L388.706 205.354L387.615 205.133L386.523 204.889L385.431 204.623L384.339 204.334L383.248 204.023L382.158 203.688L381.071 203.33L379.987 202.949L378.906 202.546Z" fill="url(#paint3_linear_1_2)"/>
<path fill-rule="evenodd" clip-rule="evenodd" d="M-109.335 378.22L-108.133 376.743L-106.871 375.314L-105.555 373.932L-104.191 372.597L-102.785 371.305L-101.344 370.055L-99.8718 368.844L-98.3755 367.669L-96.8601 366.527L-95.3307 365.414L-93.7921 364.327L-92.2485 363.263L-90.7041 362.218L-89.162 361.188L-87.6254 360.171L-86.0967 359.162L-84.5778 358.159L-83.0702 357.16L-81.5747 356.162L-80.0917 355.163L-78.6214 354.163L-77.1633 353.16L-75.7168 352.153L-74.2821 351.141L-72.8593 350.121L-71.4491 349.092L-70.0522 348.049L-68.6693 346.991L-67.301 345.912L-65.9478 344.81L-64.6098 343.681L-63.287 342.523L-61.9792 341.331L-60.6857 340.102L-59.4058 338.835L-58.1384 337.527L-56.882 336.176L-55.635 334.781L-54.3956 333.34L-53.1617 331.853L-51.9311 330.319L-50.7014 328.741L-49.47 327.117L-48.2345 325.45L-46.9921 323.741L-45.7402 321.992L-44.4762 320.208L-43.1974 318.389L-41.9015 316.541L-40.5858 314.667L-39.2481 312.771L-37.8864 310.857L-36.4986 308.932L-35.083 306.998L-33.638 305.063L-32.1622 303.131L-30.6546 301.208L-29.1142 299.299L-27.5404 297.41L-25.9329 295.547L-24.2916 293.715L-22.6165 291.92L-20.908 290.167L-19.1667 288.461L-17.3936 286.809L-15.5896 285.215L-13.7561 283.683L-11.8946 282.219L-10.0067 280.826L-8.09434 279.51L-6.15955 278.273L-4.2045 277.119L-2.23152 276.052L-0.243056 275.074L1.75842 274.189L3.77023 273.398L5.78972 272.703L7.81412 272.107L9.84065 271.61L11.8665 271.214L13.8889 270.92L15.9049 270.728L17.9119 270.638L19.907 270.651L21.8874 270.765L23.8505 270.982L25.7936 271.3L27.7142 271.717L29.6097 272.234L31.4776 272.849L33.3156 273.56L35.1214 274.366L36.8928 275.266L38.6275 276.257L40.3237 277.338L41.9792 278.506L43.5922 279.76L45.1609 281.098L46.6836 282.518L48.1588 284.016L49.5848 285.591L50.9602 287.24L52.284 288.961L53.5547 290.75L54.7716 292.606L55.9337 294.524L57.0404 296.501L58.0913 298.533L59.0864 300.617L60.0256 302.748L60.9096 304.921L61.7394 307.13L62.5164 309.369L63.2426 311.631L63.9204 313.909L64.5529 316.195L65.1429 318.482L65.6935 320.763L66.2081 323.032L66.6901 325.283L67.1426 327.511L67.5692 329.709L67.9734 331.875L68.3584 334.003L68.7277 336.09L69.0846 338.132L69.4322 340.127L69.7736 342.072L70.1118 343.966L70.4495 345.807L70.7895 347.594L71.1342 349.326L71.4859 351.003L71.8466 352.625L72.2182 354.193L72.6025 355.707L73.0007 357.169L73.4141 358.58L73.8437 359.94L74.2903 361.254L74.7544 362.521L75.2364 363.745L75.7364 364.928L76.2542 366.073L76.7898 367.181L77.3426 368.257L77.912 369.301L78.4975 370.318L79.098 371.31L79.7128 372.279L80.3408 373.228L80.981 374.16L81.6322 375.076L82.2935 375.98L82.9638 376.873L83.642 377.757L84.3272 378.634L85.0187 379.506L85.7157 380.373L86.4177 381.237L87.1242 382.099L87.8352 382.96L88.5506 383.821L89.2708 384.68L89.9962 385.54L90.7276 386.399L91.466 387.257L92.2128 388.115L92.9695 388.971L93.738 389.825L94.5203 390.677L95.3189 391.525L96.1364 392.369L96.9754 393.208L97.8391 394.042L98.7306 394.869L99.6531 395.689L100.61 396.502L101.605 397.307L102.641 398.104L103.722 398.893L104.851 399.675L106.03 400.449L107.264 401.217L108.553 401.979L109.902 402.737L111.311 403.492L112.782 404.247L114.316 405.003L115.913 405.763L117.572 406.53L119.294 407.306L121.075 408.094L122.914 408.899L124.807 409.724L126.75 410.571L128.739 411.446L130.768 412.352L132.83 413.292L134.919 414.27L137.026 415.29L139.144 416.355L141.263 417.468L143.375 418.632L145.473 419.848L147.548 421.119L149.594 422.445L151.604 423.828L153.572 425.267L155.492 426.762L157.359 428.314L159.169 429.921L160.915 431.582L162.595 433.298L164.204 435.065L165.739 436.883L167.196 438.75L168.573 440.664L169.868 442.622L171.077 444.623L172.2 446.664L173.235 448.742L174.18 450.856L175.036 453.002L175.8 455.178L176.474 457.381L177.057 459.609L177.549 461.858L177.95 464.127L178.263 466.413L178.488 468.712L178.626 471.022L178.678 473.342L178.647 475.668L178.534 477.999L178.341 480.331L178.071 482.664L177.726 484.995L177.307 487.321L176.818 489.642L176.26 491.956L175.637 494.26L174.951 496.554L174.203 498.837L173.397 501.106L172.535 503.361L171.618 505.6L170.648 507.823L169.628 510.028L168.559 512.214L167.442 514.38L166.279 516.525L165.071 518.648L163.819 520.748L162.522 522.823L161.183 524.872L159.801 526.894L158.376 528.886L156.907 530.848L155.396 532.777L153.841 534.671L152.241 536.529L150.597 538.347L148.906 540.124L147.169 541.856L145.385 543.54L143.553 545.175L141.672 546.755L139.741 548.28L137.76 549.744L135.729 551.144L133.647 552.478L131.515 553.742L129.333 554.933L127.101 556.046L124.821 557.081L122.494 558.032L120.122 558.899L117.707 559.678L115.251 560.368L112.758 560.967L110.231 561.475L107.674 561.891L105.091 562.215L102.487 562.449L99.8665 562.593L97.2352 562.65L94.5987 562.623L91.9627 562.515L89.3333 562.332L86.7167 562.078L84.1189 561.759L81.5459 561.382L79.0029 560.953L76.4942 560.477L74.0233 559.96L71.5933 559.407L69.2065 558.821L66.8646 558.206L64.5692 557.568L62.3212 556.907L60.1216 556.229L57.9708 555.536L55.8692 554.831L53.8171 554.117L51.8144 553.397L49.861 552.674L47.9568 551.95L46.1015 551.229L44.2948 550.513L42.5362 549.805L40.8251 549.108L39.1611 548.426L37.5434 547.761L35.9712 547.116L34.4438 546.496L32.9602 545.902L31.5194 545.339L30.1202 544.811L28.7614 544.319L27.4416 543.868L26.1593 543.461L24.913 543.102L23.701 542.793L22.5213 542.538L21.372 542.34L20.2511 542.202L19.1563 542.126L18.0853 542.115L17.0357 542.171L16.0049 542.297L14.9905 542.495L13.9895 542.765L12.9994 543.109L12.0173 543.528L11.0404 544.022L10.0659 544.593L9.09076 545.239L8.11226 545.96L7.12757 546.755L6.1339 547.624L5.12857 548.563L4.10894 549.572L3.07251 550.648L2.01688 551.789L0.939773 552.99L-0.160919 554.25L-1.28714 555.564L-2.44071 556.928L-3.62317 558.338L-4.83597 559.79L-6.08031 561.279L-7.35718 562.8L-8.66741 564.349L-10.0116 565.921L-11.3901 567.511L-12.8031 569.114L-14.2508 570.724L-15.7328 572.339L-17.2489 573.952L-18.7987 575.559L-20.3814 577.156L-21.9965 578.74L-23.6431 580.306L-25.3203 581.851L-27.0271 583.373L-28.7626 584.867L-30.5259 586.333L-32.3158 587.767L-34.1314 589.168L-35.9717 590.535L-37.836 591.866L-39.7231 593.161L-41.6323 594.419L-43.5628 595.638L-45.5136 596.82L-47.484 597.962L-49.473 599.064L-51.4794 600.125L-53.5021 601.144L-55.5393 602.118L-57.5892 603.044L-59.6493 603.919L-61.7168 604.738L-63.7882 605.497L-65.8604 606.191L-67.9298 606.816L-69.9934 607.369L-72.0482 607.847L-74.0914 608.248L-76.1206 608.572L-78.1335 608.819L-80.1282 608.988L-82.1032 609.08L-84.0572 609.097L-85.9894 609.042L-87.8992 608.915L-89.7863 608.721L-91.651 608.462L-93.4937 608.143L-95.315 607.766L-97.116 607.335L-98.8978 606.855L-100.662 606.329L-102.41 605.761L-104.143 605.155L-105.864 604.514L-107.573 603.842L-109.274 603.142L-110.966 602.416L-112.653 601.667L-114.336 600.898L-116.016 600.109L-117.693 599.303L-119.37 598.479L-121.047 597.64L-122.723 596.784L-124.399 595.912L-126.075 595.023L-127.75 594.116L-129.423 593.191L-131.093 592.244L-132.757 591.275L-134.414 590.281L-136.061 589.261L-137.696 588.211L-139.314 587.13L-140.913 586.015L-142.489 584.862L-144.038 583.67L-145.556 582.436L-147.038 581.158L-148.479 579.833L-149.876 578.459L-151.223 577.033L-152.515 575.556L-153.748 574.024L-154.918 572.436L-156.018 570.793L-157.046 569.092L-157.996 567.335L-158.864 565.52L-159.647 563.649L-160.342 561.722L-160.943 559.74L-161.45 557.705L-161.859 555.618L-162.167 553.482L-162.374 551.299L-162.476 549.071L-162.475 546.801L-162.368 544.494L-162.155 542.15L-161.837 539.776L-161.414 537.373L-160.887 534.946L-160.258 532.498L-159.527 530.034L-158.697 527.558L-157.771 525.073L-156.75 522.583L-155.639 520.094L-154.439 517.607L-153.156 515.129L-151.792 512.661L-150.351 510.209L-148.839 507.775L-147.26 505.363L-145.618 502.977L-143.92 500.619L-142.172 498.294L-140.378 496.003L-138.547 493.75L-136.684 491.538L-134.799 489.368L-132.899 487.244L-130.994 485.166L-129.091 483.138L-127.201 481.159L-125.334 479.231L-123.497 477.355L-121.701 475.529L-119.955 473.754L-118.268 472.029L-116.647 470.352L-115.102 468.721L-113.64 467.134L-112.267 465.589L-110.99 464.082L-109.814 462.609L-108.744 461.167L-107.783 459.752L-106.936 458.36L-106.203 456.986L-105.587 455.625L-105.087 454.272L-104.703 452.924L-104.434 451.575L-104.277 450.221L-104.229 448.857L-104.286 447.478L-104.442 446.082L-104.693 444.663L-105.033 443.219L-105.453 441.746L-105.946 440.242L-106.506 438.704L-107.122 437.13L-107.786 435.519L-108.488 433.87L-109.22 432.182L-109.972 430.456L-110.733 428.692L-111.495 426.892L-112.247 425.056L-112.981 423.188L-113.686 421.288L-114.356 419.361L-114.98 417.41L-115.551 415.437L-116.061 413.448L-116.504 411.446L-116.874 409.436L-117.164 407.422L-117.37 405.409L-117.487 403.402L-117.513 401.406L-117.445 399.424L-117.281 397.462L-117.019 395.525L-116.66 393.615L-116.203 391.738L-115.651 389.896L-115.005 388.093L-114.267 386.332L-113.441 384.615L-112.531 382.944L-111.54 381.321L-110.473 379.746L-109.335 378.22Z" fill="url(#paint4_linear_1_2)"/>
<path fill-rule="evenodd" clip-rule="evenodd" d="M274.427 389.692L275.214 388.842L276.019 388.005L276.843 387.18L277.686 386.369L278.546 385.571L279.424 384.787L280.318 384.018L281.229 383.262L282.156 382.521L283.098 381.795L284.055 381.083L285.027 380.386L286.011 379.704L287.01 379.036L288.021 378.383L289.044 377.744L290.079 377.119L291.126 376.509L292.183 375.913L293.252 375.331L294.33 374.763L295.419 374.208L296.517 373.667L297.624 373.138L298.74 372.623L299.865 372.12L300.999 371.63L302.141 371.153L303.291 370.688L304.449 370.235L305.615 369.794L306.789 369.365L307.97 368.949L309.159 368.544L310.356 368.152L311.559 367.771L312.77 367.403L313.988 367.048L315.213 366.705L316.445 366.376L317.684 366.059L318.93 365.757L320.181 365.468L321.439 365.194L322.703 364.936L323.973 364.692L325.249 364.465L326.53 364.254L327.815 364.06L329.105 363.883L330.4 363.725L331.698 363.585L333 363.465L334.304 363.364L335.611 363.283L336.92 363.224L338.23 363.185L339.541 363.169L340.852 363.175L342.162 363.205L343.472 363.257L344.779 363.334L346.084 363.435L347.385 363.562L348.682 363.713L349.975 363.89L351.261 364.094L352.541 364.323L353.814 364.58L355.078 364.864L356.334 365.175L357.579 365.513L358.813 365.88L360.036 366.274L361.245 366.697L362.441 367.148L363.622 367.628L364.788 368.135L365.937 368.672L367.069 369.236L368.182 369.829L369.275 370.45L370.349 371.099L371.401 371.776L372.432 372.48L373.439 373.212L374.423 373.97L375.383 374.754L376.317 375.564L377.226 376.4L378.108 377.261L378.963 378.145L379.79 379.054L380.588 379.985L381.358 380.938L382.098 381.913L382.809 382.909L383.489 383.925L384.139 384.96L384.758 386.013L385.346 387.084L385.902 388.171L386.427 389.274L386.921 390.392L387.383 391.524L387.813 392.669L388.212 393.826L388.579 394.994L388.914 396.172L389.218 397.359L389.491 398.555L389.733 399.758L389.944 400.968L390.125 402.184L390.276 403.404L390.397 404.628L390.489 405.855L390.551 407.085L390.586 408.315L390.593 409.546L390.573 410.777L390.525 412.007L390.452 413.234L390.354 414.46L390.231 415.681L390.084 416.899L389.914 418.113L389.721 419.321L389.506 420.523L389.271 421.719L389.015 422.908L388.74 424.089L388.446 425.263L388.134 426.428L387.805 427.585L387.46 428.733L387.099 429.872L386.724 431.001L386.334 432.12L385.931 433.23L385.515 434.329L385.087 435.418L384.647 436.497L384.196 437.565L383.734 438.622L383.262 439.669L382.78 440.706L382.289 441.731L381.789 442.746L381.28 443.751L380.762 444.745L380.236 445.728L379.701 446.7L379.159 447.662L378.609 448.613L378.051 449.554L377.486 450.484L376.913 451.404L376.332 452.313L375.744 453.211L375.149 454.099L374.546 454.976L373.936 455.843L373.319 456.699L372.695 457.544L372.063 458.379L371.423 459.202L370.777 460.015L370.123 460.817L369.462 461.607L368.793 462.386L368.117 463.154L367.435 463.91L366.745 464.655L366.048 465.388L365.344 466.11L364.633 466.819L363.916 467.517L363.192 468.202L362.462 468.875L361.726 469.536L360.984 470.184L360.237 470.82L359.484 471.443L358.725 472.054L357.962 472.653L357.195 473.239L356.423 473.812L355.647 474.372L354.867 474.92L354.084 475.455L353.297 475.978L352.508 476.488L351.715 476.985L350.92 477.469L350.123 477.941L349.323 478.401L348.522 478.848L347.72 479.282L346.916 479.704L346.111 480.114L345.305 480.511L344.498 480.896L343.692 481.269L342.885 481.63L342.078 481.979L341.272 482.316L340.466 482.642L339.661 482.956L338.857 483.258L338.054 483.549L337.252 483.829L336.452 484.098L335.654 484.356L334.858 484.604L334.063 484.84L333.271 485.067L332.481 485.283L331.694 485.489L330.91 485.686L330.128 485.872L329.349 486.05L328.573 486.218L327.8 486.377L327.031 486.527L326.264 486.668L325.501 486.801L324.741 486.926L323.985 487.043L323.233 487.152L322.483 487.253L321.738 487.348L320.996 487.435L320.257 487.515L319.522 487.588L318.791 487.655L318.063 487.716L317.338 487.771L316.617 487.819L315.899 487.862L315.185 487.899L314.474 487.931L313.766 487.957L313.061 487.977L312.359 487.993L311.66 488.003L310.964 488.007L310.27 488.007L309.58 488.001L308.892 487.99L308.206 487.973L307.523 487.951L306.843 487.923L306.165 487.889L305.49 487.849L304.817 487.802L304.146 487.749L303.479 487.69L302.813 487.623L302.151 487.55L301.491 487.469L300.834 487.381L300.18 487.285L299.529 487.182L298.882 487.07L298.237 486.951L297.596 486.823L296.958 486.687L296.324 486.543L295.694 486.39L295.068 486.229L294.446 486.059L293.829 485.88L293.215 485.693L292.606 485.497L292.002 485.293L291.403 485.08L290.808 484.858L290.219 484.628L289.635 484.389L289.056 484.142L288.482 483.887L287.914 483.623L287.351 483.351L286.795 483.072L286.243 482.784L285.698 482.489L285.158 482.185L284.625 481.874L284.097 481.556L283.576 481.23L283.06 480.898L282.551 480.558L282.047 480.211L281.55 479.857L281.059 479.497L280.573 479.13L280.094 478.757L279.621 478.378L279.153 477.994L278.692 477.603L278.236 477.207L277.785 476.805L277.34 476.398L276.9 475.987L276.466 475.57L276.036 475.148L275.612 474.722L275.192 474.291L274.776 473.856L274.366 473.417L273.959 472.973L273.557 472.525L273.158 472.073L272.764 471.617L272.373 471.157L271.986 470.693L271.603 470.225L271.223 469.752L270.847 469.276L270.474 468.795L270.105 468.31L269.739 467.821L269.377 467.327L269.019 466.828L268.664 466.325L268.313 465.817L267.966 465.304L267.623 464.786L267.285 464.262L266.951 463.734L266.621 463.199L266.296 462.66L265.976 462.114L265.661 461.563L265.351 461.007L265.047 460.444L264.748 459.875L264.455 459.301L264.168 458.72L263.887 458.133L263.613 457.54L263.344 456.94L263.083 456.335L262.828 455.723L262.581 455.105L262.34 454.48L262.107 453.849L261.882 453.212L261.664 452.569L261.454 451.919L261.251 451.263L261.057 450.601L260.87 449.932L260.692 449.257L260.522 448.576L260.36 447.889L260.206 447.196L260.061 446.496L259.924 445.791L259.795 445.079L259.674 444.361L259.561 443.637L259.457 442.907L259.36 442.171L259.272 441.429L259.192 440.681L259.12 439.926L259.056 439.165L259 438.398L258.952 437.624L258.912 436.844L258.881 436.058L258.857 435.265L258.842 434.465L258.834 433.658L258.836 432.845L258.845 432.025L258.864 431.198L258.891 430.364L258.927 429.523L258.972 428.675L259.027 427.82L259.091 426.957L259.166 426.087L259.251 425.211L259.346 424.327L259.453 423.436L259.571 422.538L259.701 421.633L259.844 420.722L260 419.804L260.169 418.88L260.352 417.95L260.549 417.014L260.762 416.073L260.99 415.126L261.234 414.175L261.495 413.22L261.773 412.261L262.069 411.299L262.382 410.334L262.715 409.367L263.066 408.398L263.436 407.428L263.827 406.458L264.237 405.488L264.668 404.519L265.119 403.551L265.591 402.586L266.084 401.623L266.598 400.664L267.134 399.71L267.691 398.76L268.27 397.816L268.869 396.879L269.491 395.949L270.133 395.026L270.797 394.112L271.482 393.207L272.188 392.312L272.914 391.428L273.661 390.554L274.427 389.692Z" fill="url(#paint5_linear_1_2)"/>
<path fill-rule="evenodd" clip-rule="evenodd" d="M64.085 12.3719L64.6719 12.5621L65.2555 12.7658L65.8356 12.9827L66.412 13.2128L66.9843 13.456L67.5524 13.7119L68.1161 13.9805L68.675 14.2615L69.2292 14.5546L69.7784 14.8597L70.3225 15.1764L70.8613 15.5045L71.3949 15.8438L71.9231 16.1939L72.4458 16.5546L72.9631 16.9256L73.4749 17.3067L73.9812 17.6976L74.482 18.098L74.9774 18.5076L75.4673 18.9263L75.9518 19.3538L76.431 19.7898L76.9049 20.2343L77.3736 20.6869L77.837 21.1475L78.2953 21.616L78.7486 22.0922L79.1967 22.5759L79.6399 23.0671L80.078 23.5656L80.5111 24.0714L80.9393 24.5845L81.3623 25.1046L81.7804 25.6319L82.1932 26.1662L82.6009 26.7077L83.0032 27.2562L83.4 27.8117L83.7912 28.3743L84.1765 28.9441L84.5557 29.5209L84.9287 30.1049L85.2951 30.696L85.6546 31.2942L86.007 31.8996L86.3519 32.5122L86.6891 33.1319L87.0182 33.7586L87.3389 34.3924L87.6508 35.0332L87.9536 35.6809L88.2468 36.3355L88.5301 36.9968L88.8032 37.6647L89.0656 38.3392L89.3169 39.0199L89.5568 39.7069L89.7849 40.3999L90.0007 41.0986L90.2039 41.8029L90.3941 42.5126L90.5709 43.2273L90.734 43.9469L90.8831 44.6709L91.0177 45.3992L91.1375 46.1313L91.2422 46.867L91.3315 47.6059L91.4051 48.3475L91.4627 49.0916L91.5039 49.8376L91.5285 50.5853L91.5362 51.3341L91.5268 52.0835L91.5001 52.8332L91.4557 53.5827L91.3937 54.3314L91.3137 55.0789L91.2157 55.8246L91.0996 56.5681L90.9651 57.3089L90.8124 58.0463L90.6413 58.7799L90.4519 59.5092L90.2442 60.2336L90.0182 60.9526L89.774 61.6657L89.5117 62.3723L89.2315 63.072L88.9335 63.7642L88.618 64.4485L88.2851 65.1244L87.9351 65.7914L87.5682 66.449L87.1848 67.0968L86.7853 67.7343L86.3698 68.3612L85.9389 68.9771L85.4928 69.5815L85.0321 70.1742L84.5571 70.7547L84.0682 71.3228L83.566 71.8781L83.0508 72.4204L82.5232 72.9495L81.9837 73.465L81.4327 73.9668L80.8708 74.4547L80.2984 74.9286L79.7162 75.3881L79.1245 75.8334L78.524 76.2641L77.9151 76.6803L77.2985 77.0819L76.6745 77.4689L76.0438 77.8412L75.4069 78.1989L74.7642 78.542L74.1165 78.8706L73.4641 79.1847L72.8075 79.4845L72.1474 79.7701L71.4842 80.0416L70.8183 80.2993L70.1504 80.5432L69.4807 80.7737L68.8099 80.991L68.1382 81.1952L67.4663 81.3867L66.7944 81.5656L66.1229 81.7324L65.4523 81.8873L64.7828 82.0305L64.1149 82.1625L63.4489 82.2835L62.7849 82.3938L62.1234 82.4938L61.4645 82.5838L60.8085 82.664L60.1556 82.7348L59.506 82.7965L58.8598 82.8493L58.2171 82.8934L57.5781 82.9291L56.9429 82.9566L56.3116 82.9761L55.6842 82.9878L55.0608 82.9919L54.4414 82.9885L53.8262 82.9778L53.2151 82.9598L52.6082 82.9348L52.0054 82.9027L51.4068 82.8637L50.8125 82.8179L50.2224 82.7653L49.6365 82.7059L49.0548 82.6398L48.4774 82.5669L47.9043 82.4874L47.3355 82.4012L46.771 82.3084L46.2108 82.2088L45.655 82.1025L45.1036 81.9895L44.5567 81.8698L44.0142 81.7433L43.4762 81.6101L42.9429 81.4701L42.4142 81.3233L41.8901 81.1697L41.3709 81.0093L40.8565 80.8421L40.3471 80.6681L39.8426 80.4874L39.3432 80.3L38.849 80.1058L38.36 79.9051L37.8764 79.6978L37.3981 79.484L36.9254 79.2639L36.4582 79.0375L35.9967 78.805L35.5409 78.5665L35.0908 78.3221L34.6466 78.072L34.2082 77.8162L33.7758 77.555L33.3494 77.2884L32.9291 77.0165L32.5148 76.7396L32.1067 76.4578L31.7047 76.1711L31.309 75.8798L30.9195 75.584L30.5362 75.2837L30.1593 74.9792L29.7886 74.6706L29.4243 74.3581L29.0663 74.0417L28.7147 73.7216L28.3694 73.398L28.0304 73.0711L27.6977 72.7409L27.3714 72.4076L27.0513 72.0713L26.7376 71.7323L26.43 71.3907L26.1287 71.0465L25.8335 70.6999L25.5445 70.3512L25.2615 70.0003L24.9846 69.6475L24.7137 69.2929L24.4487 68.9365L24.1895 68.5786L23.9362 68.2193L23.6886 67.8586L23.4466 67.4967L23.2103 67.1337L22.9794 66.7697L22.7539 66.4049L22.5338 66.0393L22.3189 65.6731L22.1091 65.3063L21.9043 64.939L21.7045 64.5714L21.5094 64.2035L21.3191 63.8353L21.1334 63.4671L20.9521 63.0987L20.7753 62.7304L20.6027 62.3622L20.4342 61.994L20.2698 61.626L20.1094 61.2581L19.9528 60.8905L19.7999 60.523L19.6508 60.1558L19.5051 59.7889L19.363 59.4222L19.2244 59.0557L19.0891 58.6894L18.9572 58.3233L18.8285 57.9573L18.7032 57.5914L18.5811 57.2257L18.4623 56.8599L18.3468 56.4941L18.2347 56.1282L18.1259 55.7622L18.0206 55.396L17.919 55.0296L17.8209 54.6629L17.7267 54.2958L17.6363 53.9283L17.5498 53.5605L17.4675 53.1921L17.3894 52.8234L17.3155 52.4542L17.2461 52.0845L17.1812 51.7143L17.1209 51.3437L17.0653 50.9727L17.0145 50.6013L16.9687 50.2296L16.9278 49.8575L16.8921 49.4851L16.8614 49.1125L16.836 48.7398L16.8158 48.3669L16.8009 47.994L16.7914 47.6212L16.7872 47.2484L16.7884 46.8759L16.795 46.5035L16.807 46.1316L16.8244 45.76L16.8471 45.3889L16.8752 45.0184L16.9086 44.6485L16.9473 44.2793L16.9912 43.9109L17.0404 43.5434L17.0948 43.1768L17.1543 42.8111L17.2189 42.4466L17.2887 42.0831L17.3634 41.7209L17.443 41.3598L17.5275 41.0001L17.6169 40.6417L17.7109 40.2847L17.8096 39.9291L17.9128 39.575L18.0205 39.2224L18.1325 38.8712L18.2487 38.5216L18.3691 38.1734L18.4936 37.8269L18.6219 37.4818L18.7541 37.1382L18.8901 36.7961L19.0296 36.4555L19.1726 36.1163L19.3191 35.7786L19.4688 35.4421L19.6218 35.107L19.7779 34.7732L19.9371 34.4405L20.0993 34.109L20.2644 33.7786L20.4323 33.4493L20.6032 33.1209L20.7768 32.7935L20.9532 32.4669L21.1324 32.1412L21.3144 31.8162L21.4992 31.492L21.6868 31.1686L21.8774 30.8458L22.0708 30.5237L22.2673 30.2024L22.4668 29.8817L22.6695 29.5618L22.8754 29.2426L23.0847 28.9242L23.2974 28.6067L23.5136 28.29L23.7333 27.9742L23.9568 27.6594L24.1839 27.3456L24.4149 27.0329L24.6498 26.7214L24.8887 26.4111L25.1317 26.102L25.3787 25.7944L25.63 25.4881L25.8855 25.1834L26.1453 24.8804L26.4096 24.579L26.6782 24.2794L26.9513 23.9816L27.229 23.6858L27.5112 23.3921L27.798 23.1005L28.0894 22.811L28.3855 22.5239L28.6863 22.2391L28.9917 21.9567L29.3019 21.6768L29.6167 21.3995L29.9363 21.1247L30.2605 20.8526L30.5895 20.5831L30.9232 20.3163L31.2616 20.0522L31.6046 19.7909L31.9523 19.5323L32.3048 19.2764L32.6618 19.0232L33.0236 18.7727L33.39 18.5249L33.761 18.2798L34.1368 18.0374L34.5172 17.7975L34.9023 17.5603L35.2921 17.3257L35.6867 17.0937L36.0861 16.8643L36.4903 16.6373L36.8993 16.413L37.3132 16.1912L37.7321 15.9719L38.156 15.7553L38.5849 15.5412L39.0189 15.3298L39.4581 15.1212L39.9026 14.9153L40.3523 14.7123L40.8074 14.5122L41.268 14.3153L41.734 14.1216L42.2056 13.9314L42.6828 13.7447L43.1656 13.5618L43.6541 13.3829L44.1482 13.2082L44.6481 13.0381L45.1538 12.8727L45.6651 12.7125L46.1821 12.5577L46.7048 12.4086L47.233 12.2657L47.7667 12.1293L48.3059 11.9998L48.8503 11.8775L49.3999 11.763L49.9545 11.6564L50.5139 11.5583L51.0779 11.4691L51.6464 11.389L52.2191 11.3185L52.7957 11.2579L53.376 11.2076L53.9598 11.1679L54.5467 11.1391L55.1364 11.1217L55.7287 11.1158L56.3231 11.1217L56.9194 11.1398L57.5172 11.1703L58.1161 11.2134L58.7157 11.2692L59.3158 11.3381L59.9158 11.4202L60.5155 11.5155L61.1145 11.6243L61.7123 11.7466L62.3087 11.8825L62.9031 12.032L63.4954 12.1952L64.085 12.3719Z" fill="url(#paint6_linear_1_2)"/>
</g>
<defs>
<linearGradient id="paint0_linear_1_2" x1="130.026" y1="871.083" x2="-3.20863" y2="996.688" gradientUnits="userSpaceOnUse">
<stop offset="0.171875" stop-color="#B3DBFD"/>
<stop offset="0.802083" stop-color="#0080F0"/>
</linearGradient>
<linearGradient id="paint1_linear_1_2" x1="443.002" y1="1142.5" x2="634.545" y2="1002.57" gradientUnits="userSpaceOnUse">
<stop offset="0.136291" stop-color="#B3DBFD"/>
<stop offset="0.7065" stop-color="#0080F0"/>
</linearGradient>
<linearGradient id="paint2_linear_1_2" x1="516.755" y1="354.294" x2="411.14" y2="570.902" gradientUnits="userSpaceOnUse">
<stop offset="0.171875" stop-color="#B3DBFD"/>
<stop offset="0.802083" stop-color="#0080F0"/>
</linearGradient>
<linearGradient id="paint3_linear_1_2" x1="461.019" y1="195.799" x2="330.261" y2="145.953" gradientUnits="userSpaceOnUse">
<stop stop-color="#0080F0"/>
<stop offset="1" stop-color="#B3DBFD"/>
</linearGradient>
<linearGradient id="paint4_linear_1_2" x1="10.5665" y1="234.74" x2="-84.259" y2="443.371" gradientUnits="userSpaceOnUse">
<stop offset="0.171875" stop-color="#B3DBFD"/>
<stop offset="0.802083" stop-color="#0080F0"/>
</linearGradient>
<linearGradient id="paint5_linear_1_2" x1="251.064" y1="468.699" x2="344.768" y2="364.768" gradientUnits="userSpaceOnUse">
<stop stop-color="#0080F0"/>
<stop offset="1" stop-color="#B3DBFD"/>
</linearGradient>
<linearGradient id="paint6_linear_1_2" x1="18.3122" y1="20.9075" x2="130.852" y2="59.744" gradientUnits="userSpaceOnUse">
<stop offset="0.498583" stop-color="#0080F0"/>
<stop offset="1" stop-color="#B3DBFD"/>
</linearGradient>
<clipPath id="clip0_1_2">
<rect width="374" height="1080" fill="white"/>
</clipPath>
</defs>
</svg>
