<svg xmlns="http://www.w3.org/2000/svg" xmlns:xlink="http://www.w3.org/1999/xlink" width="24" height="24" viewBox="0 0 24 24">
    <defs>
        <path id="prefix__a" d="M3 13c-.552 0-1-.448-1-1s.448-1 1-1h18c.552 0 1 .448 1 1s-.448 1-1 1H3zm0-6c-.552 0-1-.448-1-1s.448-1 1-1h18c.552 0 1 .448 1 1s-.448 1-1 1H3zm0 12c-.552 0-1-.448-1-1s.448-1 1-1h18c.552 0 1 .448 1 1s-.448 1-1 1H3z"/>
    </defs>
    <g fill="none" fill-rule="evenodd">
        <mask id="prefix__b" fill="#fff">
            <use xlink:href="#prefix__a"/>
        </mask>
        <use fill="#000" fill-rule="nonzero" xlink:href="#prefix__a"/>
        <g fill="#000" mask="url(#prefix__b)">
            <path d="M0 0H24V24H0z"/>
        </g>
    </g>
</svg>
