<svg xmlns="http://www.w3.org/2000/svg" width="1142.489" height="693.751" viewBox="0 0 1142.489 693.751">
  <g id="Group_82" data-name="Group 82" transform="translate(-65.674 -19.656)">
    <g id="Group_9" data-name="Group 9">
      <path id="Path_1" data-name="Path 1" d="M174.445,713.407h973.93S1230,636.775,1202.5,514.348s-60.424-97.233-54.127-247.939S971-29.391,754.326,35.588c-173.478,52.026-240.451,85.7-301.936,63.491-99.61-35.989-213.721-13.269-252.577,93.4-50.383,138.316-3.734,226.757-60.232,345.6C96.422,628.86,174.445,713.407,174.445,713.407Z" fill="#e0f4ff"/>
      <g id="Group_1" data-name="Group 1">
        <path id="Path_2" data-name="Path 2" d="M1151.639,174.129c-6.408-1.432-13.049-12.52-13.049-12.52s9.009-7.591,15.418-6.16,9.962,6.526,9.308,11.684S1158.048,175.56,1151.639,174.129Z" fill="#66c1ff"/>
        <path id="Path_3" data-name="Path 3" d="M1120.337,133.5c-2.078,9.36-12.509,17.726-12.509,17.726s-5.356-14.49-3.278-23.85,6.936-13.953,11.3-12.262S1122.415,124.137,1120.337,133.5Z" fill="#66c1ff"/>
        <path id="Path_4" data-name="Path 4" d="M1077.713,141.963c1.207,14.021-9.128,32.853-9.128,32.853s-13.284-15.408-14.491-29.429,3.311-23.723,9.833-24.668S1076.506,127.941,1077.713,141.963Z" fill="#66c1ff"/>
        <path id="Path_5" data-name="Path 5" d="M1032.952,162.051c7.328,14.569,4.026,42.994,4.026,42.994s-21.2-7.154-28.526-21.723-6.514-28.614.252-34.488S1025.624,147.482,1032.952,162.051Z" fill="#66c1ff"/>
        <path id="Path_6" data-name="Path 6" d="M991.885,210.845c10.863,6,19.107,29.153,19.107,29.153s-18.285,8.49-29.149,2.487-15.538-16.911-12.765-25.648S981.021,204.842,991.885,210.845Z" fill="#66c1ff"/>
        <path id="Path_7" data-name="Path 7" d="M970.15,269.367c8.768-.593,19.936,9.83,19.936,9.83s-10.244,11.871-19.012,12.463-14.562-4.019-14.817-10.175S961.382,269.96,970.15,269.367Z" fill="#66c1ff"/>
        <path id="Path_8" data-name="Path 8" d="M1124.955,200.77c-7.43-3.238-13.8-18.014-13.8-18.014s11.775-6.869,19.2-3.631,10.954,10.147,9.461,16.124S1132.385,204.008,1124.955,200.77Z" fill="#66c1ff"/>
        <path id="Path_9" data-name="Path 9" d="M1092.509,231.814c-8.416-8.02-11.962-30.056-11.962-30.056s17-2.451,25.419,5.57,10.766,18.612,7.05,25.374S1100.925,239.835,1092.509,231.814Z" fill="#66c1ff"/>
        <path id="Path_10" data-name="Path 10" d="M1049.636,274.281c-6.658-12.373-4.385-37.146-4.385-37.146s18.531,5.443,25.188,17.815,6.243,24.585.5,29.923S1056.293,286.654,1049.636,274.281Z" fill="#66c1ff"/>
        <path id="Path_11" data-name="Path 11" d="M1015.9,301.647c-1.725-9.056,3.792-22.6,3.792-22.6s9.73,8.572,11.456,17.627-.589,15.938-4.8,17.31S1017.629,310.7,1015.9,301.647Z" fill="#66c1ff"/>
        <path id="Path_12" data-name="Path 12" d="M938.763,527.165l-2.4-.743a950.392,950.392,0,0,1,15.2-100.983c10.745-52.321,30.711-125.522,64.8-177.134,34.107-51.632,63.119-73.474,81.45-82.7,20.022-10.083,31.943-4.56,31.943-4.56-.114-.023-11.8-2.187-31.29,7.687-18.024,9.135-46.579,30.724-80.251,81.7-33.789,51.151-53.612,123.868-64.29,175.863A942.446,942.446,0,0,0,938.763,527.165Z" fill="#66c1ff"/>
      </g>
      <g id="Group_2" data-name="Group 2">
        <path id="Path_13" data-name="Path 13" d="M74.666,491.909c4.267-1.634,7.717-9.938,7.717-9.938s-6.969-4.314-11.236-2.681-6.2,5.5-5.226,8.983S70.4,493.542,74.666,491.909Z" fill="#66c1ff"/>
        <path id="Path_14" data-name="Path 14" d="M92.106,460.775c2.377,6.232,10.4,10.937,10.4,10.937s2.222-10.516-.154-16.749-6.185-8.9-9.015-7.3S89.729,454.542,92.106,460.775Z" fill="#66c1ff"/>
        <path id="Path_15" data-name="Path 15" d="M122.3,462.293c.586,9.774,9.605,21.693,9.605,21.693s7.586-11.95,7-21.724-4.677-15.995-9.262-15.986S121.716,452.519,122.3,462.293Z" fill="#66c1ff"/>
        <path id="Path_16" data-name="Path 16" d="M155.146,471.6c-3.572,10.77,1.574,30,1.574,30s13.869-7.067,17.441-17.837,1.591-20.356-3.66-23.715S158.717,460.826,155.146,471.6Z" fill="#66c1ff"/>
        <path id="Path_17" data-name="Path 17" d="M188.348,501.033c-6.872,5.231-10.206,22-10.206,22s13.445,3.995,20.317-1.235,8.986-13.212,6.194-18.946S195.219,495.8,188.348,501.033Z" fill="#66c1ff"/>
        <path id="Path_18" data-name="Path 18" d="M209.225,539.12c-6.1.479-12.729,8.782-12.729,8.782s8.252,7.136,14.347,6.658,9.618-4.239,9.171-8.5S215.321,538.642,209.225,539.12Z" fill="#66c1ff"/>
        <path id="Path_19" data-name="Path 19" d="M95.728,507.55c4.787-2.98,7.677-13.795,7.677-13.795s-8.8-3.538-13.586-.558-6.515,8.092-4.883,12.055S90.941,510.53,95.728,507.55Z" fill="#66c1ff"/>
        <path id="Path_20" data-name="Path 20" d="M121.2,525.64c4.982-6.372,5.2-21.9,5.2-21.9s-11.953.033-16.935,6.4-5.529,13.9-2.287,18.18S116.219,532.012,121.2,525.64Z" fill="#66c1ff"/>
        <path id="Path_21" data-name="Path 21" d="M155.007,550.538c3.332-9.19-.737-26.013-.737-26.013s-12.206,5.62-15.538,14.81-1.812,17.554,2.682,20.648S151.675,559.729,155.007,550.538Z" fill="#66c1ff"/>
        <path id="Path_22" data-name="Path 22" d="M180.993,565.966c.273-6.408-4.894-15.172-4.894-15.172s-5.831,6.884-6.1,13.292,2.016,10.912,5.054,11.431S180.721,572.374,180.993,565.966Z" fill="#66c1ff"/>
        <path id="Path_23" data-name="Path 23" d="M256.893,713.407l1.579-.754A661.176,661.176,0,0,0,237.8,644.676c-12.686-34.929-33.83-83.3-62.516-115.382s-50.876-44.2-64.429-48.7c-14.8-4.916-22.449.091-22.449.091.076-.027,7.9-2.7,22.316,2.128,13.331,4.466,35.17,16.441,63.5,48.125,28.431,31.795,49.427,79.848,62.034,114.56A655.744,655.744,0,0,1,256.893,713.407Z" fill="#66c1ff"/>
      </g>
      <g id="Group_4" data-name="Group 4">
        <path id="Path_24" data-name="Path 24" d="M373.7,713.407s22.4-83.641,76.824-146.908c69.077-80.3,48.89-149.377-12.284-145.423-68.027,4.4-77.252,21.426-90.516-25.267S337.775,144.555,196.839,144.25s-36.478,271.368,23.213,364.755,19.9,101.17-11.607,93.388-61.349,24.595-48.084,59.7,40.623,51.315,40.623,51.315Z" fill="#66c1ff"/>
        <g id="Group_3" data-name="Group 3">
          <path id="Path_25" data-name="Path 25" d="M303.807,487.377c6.99-25.108,30.447-51.149,51.845-70.713q.72,1.24,1.473,2.316c-22.1,20.293-46.16,47.391-51.407,72.94,14.347,34.433,24.01,66.616,24.01,95.178a568.846,568.846,0,0,1-14.364,126.309H312.37A566.819,566.819,0,0,0,326.781,587.1c0-17.977-3.892-37.451-10.4-58.057-4.669-3.332-60.814-42.816-118.879-59.864-.529-1.033-1.057-2.056-1.588-3.105,53.247,15.035,105.3,49.27,119.11,58.771C302.585,487.151,281.8,445.8,260.26,402.957l-2.621-5.218a430.473,430.473,0,0,1-98.245-15.98c-.36-.981-.715-1.967-1.072-2.951a428.484,428.484,0,0,0,98.021,16.352q-5.637-11.225-11.237-22.52c-7.519-.881-58.319-7.141-95.572-19.492-.33-1.028-.651-2.057-.976-3.085,34.816,11.858,83.646,18.425,95.216,19.868-20.259-41.125-39.136-82.625-49.641-122.072-6.871-.27-42.964-2.758-67.451-25.158.055-1.2.138-2.377.216-3.558,22.953,22.678,58.256,25.757,66.589,26.17-.52-2.018-1.06-4.041-1.534-6.047-10.181-43.093-12.9-72.931-12.241-93.5.978-.185,1.979-.344,2.988-.495-.728,20.283,1.883,50.068,12.143,93.494a402.475,402.475,0,0,0,16.379,51.625c10.024-2.949,72.945-22.813,99.391-63.08q.674,1.54,1.325,3.1c-27.643,39.784-89.677,59.395-99.781,62.369,14.064,36.046,32.629,73.022,50.812,109.188C277.749,431.362,292.168,460.052,303.807,487.377Z" fill="#ade4ff"/>
          <path id="Path_26" data-name="Path 26" d="M287.827,713.407c-4.344-20.275-18.313-76.741-45.446-112.995a18.311,18.311,0,0,0,2.185-1.719c27.809,36.956,41.97,94.617,46.256,114.714Z" fill="#ade4ff"/>
          <path id="Path_27" data-name="Path 27" d="M171,612.607q1.043-.984,2.145-1.9a219.3,219.3,0,0,1,33.712,23.24,199.3,199.3,0,0,1,30.02,30.873c1.7-8.425,5.225-34.009-7.2-60.349,1.009-.092,2-.226,2.964-.393,14.147,30.545,7.523,59.948,6.553,63.8a185.918,185.918,0,0,1,25.057,45.527h-3.068A187.6,187.6,0,0,0,211.9,641.954a137.6,137.6,0,0,1-29.033,3.248,83.622,83.622,0,0,1-25.589-3.612c.066-.908.156-1.808.276-2.7,19.6,6.646,44.321,2.529,52.02.958-1.554-1.372-3.131-2.74-4.764-4.1A212.215,212.215,0,0,0,171,612.607Z" fill="#ade4ff"/>
          <path id="Path_28" data-name="Path 28" d="M476.352,431.407c-22.008,8.739-46.034,23.1-65.366,46.751-9.278,11.348-17.514,25.554-24.865,41.377,12.453-2.968,63.271-14.424,101.395-13.449-.3.83-.573,1.652-.891,2.49-40.527-.867-95.4,12.311-101.869,13.9-13.01,28.79-23.145,62.615-31.181,94.522,7.871-2.661,32.545-9.649,65.2-6.261-.483.8-.95,1.595-1.424,2.392-34.993-3.407-60.316,5.279-64.527,6.855q-2.012,8.085-3.843,15.942a139.387,139.387,0,0,1,59.227-6.6c-.428.8-.839,1.595-1.259,2.393a136.084,136.084,0,0,0-58.656,7.15c-3.7,15.982-6.888,31-9.653,44.062-2.619,12.36-4.8,22.668-6.721,30.475H328.9c1.94-7.823,4.161-18.287,6.838-30.922C348.216,623.582,369.1,525,408.568,476.719c19.322-23.635,43.265-38.143,65.356-47.082C474.753,430.207,475.571,430.786,476.352,431.407Z" fill="#ade4ff"/>
        </g>
      </g>
      <g id="Group_6" data-name="Group 6">
        <path id="Path_29" data-name="Path 29" d="M404.936,713.407s-23.83-103.14,67.56-177.871S615.688,373.708,556.11,354.251,442.856,382.408,421.7,356.326C388.209,315.053,558.5,130.883,431.5,47.643S221.12,255.663,266.378,357.483c60.636,136.416,71.689,221.059,47.413,221.059s-40.793-26.093-54.65,3.182,109.7,131.683,109.7,131.683Z" fill="#96d5ff"/>
        <g id="Group_5" data-name="Group 5">
          <path id="Path_30" data-name="Path 30" d="M378.544,713.407c-11.714-32.528-29.559-95.907-20.284-161.12,3.36-23.625,3.17-48.854,1.158-74.729-2.512-3.116-26.186-31.676-65.709-53.406-.4-1.063-.793-2.127-1.2-3.2a245.453,245.453,0,0,1,66.571,52.307c-2.4-28.156-6.856-57.019-11.248-85.4-3.078-19.9-6.074-39.347-8.354-58.17-2.545.174-7.731.457-14.708.457a233.959,233.959,0,0,1-41.033-3.484c-8.029-1.463-17.606-3.519-27.3-5.736q-.171-1.158-.328-2.331c9.891,2.27,19.694,4.38,27.875,5.87a236.968,236.968,0,0,0,55.214,2.94q-1.084-9.174-1.907-18.139c-7.4-.4-39.2-2.776-65.089-14.582-6.245-2.847-12.408-5.966-18.272-9.108q-.006-1.278,0-2.564c6.228,3.371,12.834,6.737,19.527,9.789,25.363,11.564,56.671,13.838,63.64,14.211-1.662-19.286-2.221-37.79-.88-55.282,1.818-23.726,11.138-50.968,23.772-78.106-6.024-3.192-36.571-20.211-53.63-45.508-4.044-6-7.847-12.169-11.329-18.169q.728-1.42,1.468-2.822c3.8,6.643,8.005,13.557,12.517,20.248,16.268,24.121,45.136,40.558,51.931,44.205,22.408-47.5,54.67-94.4,74.4-121.272.808.571,1.632,1.137,2.414,1.716C412.4,86.6,366.7,153.774,347.64,212.757c3.65,1.775,18.565,7.9,49.2,7.2,20.335-.47,48.907-9.493,70.025-17.3-.336,1.034-.667,2.069-1.011,3.1-20.953,7.63-48.272,15.995-68.435,16.462q-2.571.06-5,.057c-26.74,0-40.7-5.146-45.459-7.356-4.071,13.005-6.823,25.588-7.721,37.3-3.112,40.631,4.034,86.832,11.6,135.746q1.455,9.4,2.894,18.86c12.478-23.37,41.374-42.848,65.068-55.737a19.191,19.191,0,0,0,1.069,2.4c-24.673,13.514-54.636,34.1-65.341,58.647,7.221,48.377,12.93,97.2,6.738,140.741-9.251,65.055,8.636,128.278,20.277,160.527Z" fill="#70c6ff"/>
          <path id="Path_31" data-name="Path 31" d="M300.17,604.914a178.771,178.771,0,0,0-35.1-32.354,18.561,18.561,0,0,1,1.738-1.625c12.145,8.482,32.006,24.7,47.211,48.629,4.706,7.406,10.166,15.9,15.874,24.738.647-10.1.986-38.238-11.819-66.847a9.346,9.346,0,0,0,2.211-1.791c16.062,34.775,12.72,69.229,12.315,72.823,16.583,25.623,34.579,53.064,42.368,64.92H371.82c-11.336-17.256-41.8-63.731-60.5-93.154a153.716,153.716,0,0,0-8.968-12.633c-3.815-.827-23.339-4.783-38.076-2.6q-.63-1.109-1.2-2.188C276.453,600.78,293.149,603.524,300.17,604.914Z" fill="#70c6ff"/>
          <path id="Path_32" data-name="Path 32" d="M388.7,713.407c-9.3-18.734-22.633-54.184-20.983-101.346,2.77-79.231,33.544-146.945,91.471-201.261,36.505-34.229,78.318-47.094,107.243-51.847.992.614,1.926,1.261,2.816,1.934-28.481,4.439-70.727,16.935-107.58,51.491-1.226,1.149-2.368,2.34-3.57,3.5,13.545.159,62.76,2.323,103.479,24.574-.4.626-.816,1.258-1.227,1.888-43.763-24.056-97.89-24.289-104.547-24.21a302.511,302.511,0,0,0-29.649,33.818c10.54,3.669,61.285,21.971,90.182,43.764q-.837.852-1.687,1.7c-28.761-21.731-81.087-40.534-89.912-43.616A271.692,271.692,0,0,0,377,560.542c10.386-2.573,47.507-11.1,78.886-9.883q-1.091,1.105-2.155,2.217c-32.558-.662-71.211,8.768-77.264,10.3-.557,2.795-1.112,5.591-1.59,8.42,10.135-2.436,47.087-10.762,69.775-8.526-.575.694-1.153,1.388-1.714,2.084-23.589-1.69-62.363,7.531-68.455,9.03a310.789,310.789,0,0,0-3.75,38.294c-1.652,47.241,11.824,82.578,21,100.926Z" fill="#70c6ff"/>
        </g>
      </g>
      <g id="Group_8" data-name="Group 8">
        <path id="Path_33" data-name="Path 33" d="M984.365,713.407s133.03-117.682,66.859-202.535-150.951,40.133-173.7-27.159S1098.481,110.593,837.935,53.4s-124.2,216.83-163.744,260.08c-44.458,48.618-185.07-80.711-128.2,125.374,44.619,161.7-25.5,83.45-51.7,134.585-32.735,63.909,30.328,139.971,30.328,139.971Z" fill="#4db8ff"/>
        <g id="Group_7" data-name="Group 7">
          <path id="Path_34" data-name="Path 34" d="M484.923,611.818c.024-1.28.08-2.559.155-3.842,26.507,7.959,52.927,1.817,60.88-.416-11.219-17.787-24.144-34.57-38.9-48.75a34.963,34.963,0,0,1,3.3-1.88c25.094,24.415,44.9,56.164,60.07,87.47-.866-17.349-5.555-59.661-30.023-94.663,1.275-.315,2.511-.678,3.709-1.1,31.388,45.867,30.193,103.191,30.172,103.893h-.01a563.185,563.185,0,0,1,23.7,60.875h-3.849c-9.694-29.587-24.715-67.753-46.118-102.555a127.413,127.413,0,0,1-34.546,4.807A103.284,103.284,0,0,1,484.923,611.818Z" fill="#66c2ff"/>
          <path id="Path_35" data-name="Path 35" d="M647.461,563.29c-8.23-.4-44.65-3.537-89.6-28.02a33.493,33.493,0,0,0,1.117-3.629c43.37,23.785,78.672,27.344,87.867,27.874-2.939-17.693-6.481-35.442-10.749-52.742-8.2-.934-47.258-6.28-79.948-25.862q-.49-2.495-1.042-5.112c30.96,19.51,69.5,25.692,80,27.07-12.262-48.259-30.272-92.687-56.708-122.114-13.923-15.5-26.188-33.281-36.995-52.29a27.037,27.037,0,0,1,2.62-2.827c10.815,19.14,23.111,37.036,37.089,52.6,17.824,19.841,31.852,46.381,42.909,76.267,1.978-23.511,6.065-94.668-12.511-132.211q2.215.371,4.428.722c21.317,46.636,11.516,135.183,11,139.654,28.794,83.35,35.783,189.6,37.256,250.74h-3.669C659.623,675.353,656.583,619.812,647.461,563.29Z" fill="#66c2ff"/>
          <path id="Path_36" data-name="Path 36" d="M877.788,665.927c-.025-7.364.2-104.942,28.291-161.63q2.2-.227,4.5-.673c-25.06,48.33-28.556,131.84-29.033,155.919,22.422-37.192,51.738-70.369,81.55-98.459-.929-5.4-6.419-40.783,1.774-76.131q2-.592,4.013-1.134c-7.87,31.829-4.034,64.343-2.547,74.229a724.294,724.294,0,0,1,73.576-59.527c.912.839,1.822,1.706,2.729,2.614-26.938,19.048-59.875,44.918-91.109,76.344,9.25,6.293,51.649,32.351,110.974,25.942q-.677,1.944-1.408,3.874c-5.9.577-11.653.876-17.207.876-51.658,0-87.523-22.813-95.021-28.011q-8.846,9.02-17.423,18.633c5.8,7.851,38.969,48.744,104.129,55.871q-1.211,1.754-2.431,3.472c-63.658-7.728-97.058-47.1-104.2-56.53-28.821,32.816-54.253,70.48-69.427,111.8h-3.925A301.348,301.348,0,0,1,877.788,665.927Z" fill="#66c2ff"/>
          <path id="Path_37" data-name="Path 37" d="M754.484,713.407c-.013-22.988.453-48.767,1.753-76.552l-.085.012c-.324-2.346-30.173-211.742-114.12-311.445q2.34-.025,4.614-.184c69.539,84.818,101.6,243.2,110.481,294.563,3.123-54.138,9.467-114.77,21.363-176.166-.477-.665-1.1-1.6-1.987-2.93-24.164-36.272-63.055-91.644-99.721-130.891a27.138,27.138,0,0,0,1.72-3.543c37.167,39.549,76.565,95.6,100.995,132.263q4.239-21.333,9.4-42.691c13.782-56.684,19.732-113.187,21.113-165.409-12.3-.054-79.131-1.56-134.705-26.509-.134-1.414-.26-2.835-.388-4.255,55.34,25.523,123.21,26.958,135.191,27.02.6-26.718,0-52.267-1.336-76.111-11.127-3.789-83.742-29.192-123.309-59.1.56-1.138,1.129-2.268,1.735-3.374,37.325,28.335,106.768,53.371,121.345,58.448-2.332-38.757-6.61-72.8-10.9-99.713,1.253.124,2.5.246,3.779.391a1031.225,1031.225,0,0,1,12.348,137.124c49.913-6.526,100.691-37.112,132.387-59.684.558,1.121,1.146,2.229,1.665,3.367-32.15,22.834-83.461,53.6-133.979,60.085,1.014,55.466-2.572,117.7-15.266,181,15.2-4.912,85.653-28.708,134.984-62.554q-1.095,3.084-2.216,6.151c-52.089,34.484-123.454,57.428-133.63,60.6q-2.419,11.7-5.248,23.428c-13.057,53.7-21.39,107.963-26.571,158.925,9.749-13.792,38.37-45.583,110.427-77.72a30.427,30.427,0,0,0,.689,3.789c-86.608,38.916-109.525,77.716-111.93,82.18-5.346,55.847-6.951,107.4-6.926,149.491Z" fill="#66c2ff"/>
        </g>
      </g>
    </g>
    <g id="Group_51" data-name="Group 51">
      <rect id="Rectangle_2" data-name="Rectangle 2" width="498.279" height="10.521" transform="translate(273.412 702.886)" fill="#435378"/>
      <rect id="Rectangle_3" data-name="Rectangle 3" width="479.036" height="146.597" transform="translate(283.033 556.289)" fill="#305da6"/>
      <rect id="Rectangle_4" data-name="Rectangle 4" width="116.847" height="135.963" transform="translate(317.087 566.923)" fill="#3e78d6"/>
      <rect id="Rectangle_5" data-name="Rectangle 5" width="116.847" height="135.963" transform="translate(610.661 566.923)" fill="#3e78d6"/>
      <g id="Group_10" data-name="Group 10">
        <path id="Path_38" data-name="Path 38" d="M283.033,606.586v27.276l99.021-77.573H347.237Z" fill="#fff" opacity="0.1" style="mix-blend-mode: overlay;isolation: isolate"/>
        <path id="Path_39" data-name="Path 39" d="M366.334,702.886h34.817l71.989-56.4-13.241-16.9Z" fill="#fff" opacity="0.1" style="mix-blend-mode: overlay;isolation: isolate"/>
        <path id="Path_40" data-name="Path 40" d="M283.033,658.761V695.4l5.862,7.483h10.438L469.146,569.853,458.52,556.289H413.837Z" fill="#fff" opacity="0.1" style="mix-blend-mode: overlay;isolation: isolate"/>
        <path id="Path_41" data-name="Path 41" d="M665.648,556.289l-92.976,72.838,13.242,16.9,114.551-89.74Z" fill="#fff" opacity="0.1" style="mix-blend-mode: overlay;isolation: isolate"/>
        <path id="Path_42" data-name="Path 42" d="M719.562,702.886l42.507-33.3V642.31l-77.324,60.576Z" fill="#fff" opacity="0.1" style="mix-blend-mode: overlay;isolation: isolate"/>
        <path id="Path_43" data-name="Path 43" d="M762.069,589.821V556.289H732.248L577.981,677.143l20.167,25.743h19.6Z" fill="#fff" opacity="0.1" style="mix-blend-mode: overlay;isolation: isolate"/>
      </g>
      <rect id="Rectangle_6" data-name="Rectangle 6" width="479.542" height="15.951" transform="translate(282.527 556.289)" opacity="0.2" style="mix-blend-mode: overlay;isolation: isolate"/>
      <rect id="Rectangle_7" data-name="Rectangle 7" width="176.22" height="146.597" transform="translate(434.441 556.289)" fill="#dde0e6"/>
      <rect id="Rectangle_8" data-name="Rectangle 8" width="11.014" height="146.597" transform="translate(283.033 556.289)" fill="#c1cfe6"/>
      <rect id="Rectangle_9" data-name="Rectangle 9" width="11.014" height="146.597" transform="translate(751.056 556.289)" fill="#c1cfe6"/>
      <rect id="Rectangle_10" data-name="Rectangle 10" width="503.342" height="12.913" transform="translate(270.88 543.376)" fill="#c1cfe6"/>
      <rect id="Rectangle_11" data-name="Rectangle 11" width="205.591" height="12.913" transform="translate(419.756 543.376)" fill="#dde0e6"/>
      <rect id="Rectangle_12" data-name="Rectangle 12" width="176.727" height="15.951" transform="translate(433.935 556.289)" opacity="0.2" style="mix-blend-mode: overlay;isolation: isolate"/>
      <rect id="Rectangle_13" data-name="Rectangle 13" width="479.036" height="363.862" transform="translate(283.033 179.514)" fill="#fbcb80"/>
      <g id="Group_11" data-name="Group 11">
        <rect id="Rectangle_14" data-name="Rectangle 14" width="16.542" height="4.389" transform="translate(286.875 448.499)" fill="#fbc46e"/>
        <rect id="Rectangle_15" data-name="Rectangle 15" width="16.542" height="4.389" transform="translate(304.936 448.499)" fill="#fbc46e"/>
        <rect id="Rectangle_16" data-name="Rectangle 16" width="11.353" height="4.389" transform="translate(283.033 454.259)" fill="#fbc46e"/>
        <rect id="Rectangle_17" data-name="Rectangle 17" width="16.542" height="4.389" transform="translate(295.905 454.259)" fill="#fbc46e"/>
        <rect id="Rectangle_18" data-name="Rectangle 18" width="16.542" height="4.389" transform="translate(286.875 436.979)" fill="#fbc46e"/>
        <rect id="Rectangle_19" data-name="Rectangle 19" width="16.542" height="4.389" transform="translate(304.936 436.979)" fill="#fbc46e"/>
        <rect id="Rectangle_20" data-name="Rectangle 20" width="11.353" height="4.389" transform="translate(283.033 442.739)" fill="#fbc46e"/>
        <rect id="Rectangle_21" data-name="Rectangle 21" width="16.542" height="4.389" transform="translate(295.905 442.739)" fill="#fbc46e"/>
        <rect id="Rectangle_22" data-name="Rectangle 22" width="16.542" height="4.389" transform="translate(286.875 425.458)" fill="#fbc46e"/>
        <rect id="Rectangle_23" data-name="Rectangle 23" width="16.542" height="4.389" transform="translate(304.936 425.458)" fill="#fbc46e"/>
        <rect id="Rectangle_24" data-name="Rectangle 24" width="11.353" height="4.389" transform="translate(283.033 431.219)" fill="#fbc46e"/>
        <rect id="Rectangle_25" data-name="Rectangle 25" width="16.542" height="4.389" transform="translate(295.905 431.219)" fill="#fbc46e"/>
      </g>
      <g id="Group_18" data-name="Group 18">
        <g id="Group_14" data-name="Group 14">
          <rect id="Rectangle_26" data-name="Rectangle 26" width="49.878" height="68.699" transform="translate(457.735 433.233)" fill="#f2ba63"/>
          <rect id="Rectangle_27" data-name="Rectangle 27" width="45.827" height="66.336" transform="translate(461.786 435.597)" fill="#dde0e6"/>
          <rect id="Rectangle_28" data-name="Rectangle 28" width="60.034" height="39.526" transform="translate(464.936 498.782) rotate(-90)" fill="#305da6"/>
          <rect id="Rectangle_29" data-name="Rectangle 29" width="56.729" height="32.043" transform="translate(472.42 498.782) rotate(-90)" fill="#3e78d6"/>
          <path id="Path_44" data-name="Path 44" d="M464.936,468.677l38.2-29.93H480.15l-15.213,11.918Z" fill="#fff" opacity="0.1" style="mix-blend-mode: overlay;isolation: isolate"/>
          <path id="Path_45" data-name="Path 45" d="M504.462,449.321l-39.526,30.965v18.5h13.289l26.237-20.554Z" fill="#fff" opacity="0.1" style="mix-blend-mode: overlay;isolation: isolate"/>
          <g id="Group_13" data-name="Group 13">
            <rect id="Rectangle_30" data-name="Rectangle 30" width="171.41" height="6.583" transform="translate(270.88 529.277)" fill="#dde0e6"/>
            <g id="Group_12" data-name="Group 12">
              <rect id="Rectangle_31" data-name="Rectangle 31" width="36.966" height="93.68" transform="translate(336.203 435.597)" fill="#dde0e6"/>
              <rect id="Rectangle_32" data-name="Rectangle 32" width="87.379" height="30.664" transform="translate(370.018 438.747) rotate(90)" fill="#305da6"/>
              <rect id="Rectangle_33" data-name="Rectangle 33" width="84.073" height="19.636" transform="translate(370.018 442.053) rotate(90)" fill="#3e78d6"/>
              <rect id="Rectangle_34" data-name="Rectangle 34" width="87.379" height="1.407" transform="translate(340.761 438.747) rotate(90)" opacity="0.2" style="mix-blend-mode: overlay;isolation: isolate"/>
              <rect id="Rectangle_35" data-name="Rectangle 35" width="69.121" height="66.336" transform="translate(373.169 435.597)" fill="#dde0e6"/>
              <rect id="Rectangle_36" data-name="Rectangle 36" width="60.034" height="62.819" transform="translate(376.32 498.782) rotate(-90)" fill="#305da6"/>
              <rect id="Rectangle_37" data-name="Rectangle 37" width="56.729" height="56.729" transform="translate(382.411 498.782) rotate(-90)" fill="#3e78d6"/>
              <rect id="Rectangle_38" data-name="Rectangle 38" width="6.92" height="96.044" transform="translate(329.283 433.233)" fill="#f2ba63"/>
              <rect id="Rectangle_39" data-name="Rectangle 39" width="113.007" height="2.363" transform="translate(329.283 433.233)" fill="#f2ba63"/>
              <rect id="Rectangle_40" data-name="Rectangle 40" width="59.978" height="1.407" transform="translate(377.726 438.747) rotate(90)" opacity="0.2" style="mix-blend-mode: overlay;isolation: isolate"/>
              <path id="Path_46" data-name="Path 46" d="M339.354,481.142l30.664-24.022V439.108L339.354,463.13Z" fill="#fff" opacity="0.1" style="mix-blend-mode: overlay;isolation: isolate"/>
              <path id="Path_47" data-name="Path 47" d="M419.381,498.782,439.139,483.3V465.292l-42.749,33.49Z" fill="#fff" opacity="0.1" style="mix-blend-mode: overlay;isolation: isolate"/>
              <path id="Path_48" data-name="Path 48" d="M376.32,464.078v29.567l62.819-49.213v-5.685H408.654Z" fill="#fff" opacity="0.1" style="mix-blend-mode: overlay;isolation: isolate"/>
              <path id="Path_49" data-name="Path 49" d="M339.354,522.6l30.664-24.022V469.015l-30.664,24.022Z" fill="#fff" opacity="0.1" style="mix-blend-mode: overlay;isolation: isolate"/>
            </g>
            <rect id="Rectangle_41" data-name="Rectangle 41" width="171.41" height="47.24" transform="translate(270.88 482.037)" fill="#fff" opacity="0.8"/>
            <rect id="Rectangle_42" data-name="Rectangle 42" width="159.257" height="6.583" transform="translate(283.033 535.86)" opacity="0.2" style="mix-blend-mode: overlay;isolation: isolate"/>
            <rect id="Rectangle_43" data-name="Rectangle 43" width="2.194" height="47.24" transform="translate(270.88 482.037)" fill="#eef1f7"/>
            <rect id="Rectangle_44" data-name="Rectangle 44" width="2.194" height="47.24" transform="translate(440.096 482.037)" fill="#eef1f7"/>
            <path id="Path_50" data-name="Path 50" d="M331.023,482.037,270.88,529.153v.124h22.833l60.3-47.24Z" fill="#fff" opacity="0.8"/>
            <path id="Path_51" data-name="Path 51" d="M327.7,529.277h49.119l60.3-47.24H388Z" fill="#fff" opacity="0.8"/>
          </g>
          <rect id="Rectangle_45" data-name="Rectangle 45" width="39.526" height="2.363" transform="translate(464.936 455.435)" fill="#dde0e6"/>
        </g>
        <g id="Group_17" data-name="Group 17">
          <rect id="Rectangle_46" data-name="Rectangle 46" width="49.879" height="68.699" transform="translate(587.357 501.932) rotate(180)" fill="#f2ba63"/>
          <rect id="Rectangle_47" data-name="Rectangle 47" width="45.827" height="66.336" transform="translate(583.306 501.933) rotate(180)" fill="#dde0e6"/>
          <rect id="Rectangle_48" data-name="Rectangle 48" width="60.034" height="39.526" transform="translate(540.63 498.782) rotate(-90)" fill="#305da6"/>
          <rect id="Rectangle_49" data-name="Rectangle 49" width="56.729" height="32.043" transform="translate(540.63 498.782) rotate(-90)" fill="#3e78d6"/>
          <path id="Path_52" data-name="Path 52" d="M540.63,468.677l38.2-29.93H555.843L540.63,450.665Z" fill="#fff" opacity="0.1" style="mix-blend-mode: overlay;isolation: isolate"/>
          <path id="Path_53" data-name="Path 53" d="M580.156,449.321,540.63,480.285v18.5h13.289l26.237-20.554Z" fill="#fff" opacity="0.1" style="mix-blend-mode: overlay;isolation: isolate"/>
          <g id="Group_16" data-name="Group 16">
            <rect id="Rectangle_50" data-name="Rectangle 50" width="171.41" height="6.583" transform="translate(774.212 535.86) rotate(180)" fill="#dde0e6"/>
            <g id="Group_15" data-name="Group 15">
              <rect id="Rectangle_51" data-name="Rectangle 51" width="36.966" height="93.68" transform="translate(708.889 529.277) rotate(180)" fill="#dde0e6"/>
              <rect id="Rectangle_52" data-name="Rectangle 52" width="87.379" height="30.664" transform="translate(705.738 438.747) rotate(90)" fill="#305da6"/>
              <rect id="Rectangle_53" data-name="Rectangle 53" width="84.073" height="19.636" transform="translate(694.71 442.053) rotate(90)" fill="#3e78d6"/>
              <rect id="Rectangle_54" data-name="Rectangle 54" width="87.379" height="1.407" transform="translate(705.738 438.747) rotate(90)" opacity="0.2" style="mix-blend-mode: overlay;isolation: isolate"/>
              <rect id="Rectangle_55" data-name="Rectangle 55" width="69.121" height="66.336" transform="translate(671.923 501.933) rotate(180)" fill="#dde0e6"/>
              <rect id="Rectangle_56" data-name="Rectangle 56" width="60.034" height="62.819" transform="translate(605.953 498.782) rotate(-90)" fill="#305da6"/>
              <rect id="Rectangle_57" data-name="Rectangle 57" width="56.729" height="56.729" transform="translate(605.953 498.782) rotate(-90)" fill="#3e78d6"/>
              <rect id="Rectangle_58" data-name="Rectangle 58" width="6.921" height="96.044" transform="translate(715.809 529.277) rotate(180)" fill="#f2ba63"/>
              <rect id="Rectangle_59" data-name="Rectangle 59" width="113.007" height="2.363" transform="translate(715.809 435.597) rotate(180)" fill="#f2ba63"/>
              <rect id="Rectangle_60" data-name="Rectangle 60" width="59.978" height="1.407" transform="translate(668.772 438.747) rotate(90)" opacity="0.2" style="mix-blend-mode: overlay;isolation: isolate"/>
              <path id="Path_54" data-name="Path 54" d="M675.074,481.142l30.664-24.022V439.108L675.074,463.13Z" fill="#fff" opacity="0.1" style="mix-blend-mode: overlay;isolation: isolate"/>
              <path id="Path_55" data-name="Path 55" d="M649.014,498.782,668.772,483.3V465.292l-42.749,33.49Z" fill="#fff" opacity="0.1" style="mix-blend-mode: overlay;isolation: isolate"/>
              <path id="Path_56" data-name="Path 56" d="M605.953,464.078v29.567l62.819-49.213v-5.685H638.287Z" fill="#fff" opacity="0.1" style="mix-blend-mode: overlay;isolation: isolate"/>
              <path id="Path_57" data-name="Path 57" d="M675.074,522.6l30.664-24.022V469.015l-30.664,24.022Z" fill="#fff" opacity="0.1" style="mix-blend-mode: overlay;isolation: isolate"/>
            </g>
            <rect id="Rectangle_61" data-name="Rectangle 61" width="171.41" height="47.24" transform="translate(774.212 529.277) rotate(180)" fill="#fff" opacity="0.8"/>
            <rect id="Rectangle_62" data-name="Rectangle 62" width="159.257" height="6.583" transform="translate(762.059 542.443) rotate(180)" opacity="0.2" style="mix-blend-mode: overlay;isolation: isolate"/>
            <rect id="Rectangle_63" data-name="Rectangle 63" width="2.194" height="47.24" transform="translate(774.212 529.277) rotate(180)" fill="#eef1f7"/>
            <rect id="Rectangle_64" data-name="Rectangle 64" width="2.194" height="47.24" transform="translate(604.996 529.277) rotate(180)" fill="#eef1f7"/>
            <path id="Path_58" data-name="Path 58" d="M714.069,482.037l60.143,47.116v.124H751.379l-60.3-47.24Z" fill="#fff" opacity="0.8"/>
            <path id="Path_59" data-name="Path 59" d="M717.392,529.277H668.273l-60.3-47.24h49.119Z" fill="#fff" opacity="0.8"/>
          </g>
          <rect id="Rectangle_65" data-name="Rectangle 65" width="39.526" height="2.363" transform="translate(580.156 457.798) rotate(180)" fill="#dde0e6"/>
        </g>
      </g>
      <g id="Group_25" data-name="Group 25">
        <g id="Group_21" data-name="Group 21">
          <rect id="Rectangle_66" data-name="Rectangle 66" width="49.878" height="68.699" transform="translate(457.735 317.578)" fill="#f2ba63"/>
          <rect id="Rectangle_67" data-name="Rectangle 67" width="45.827" height="66.336" transform="translate(461.786 319.941)" fill="#dde0e6"/>
          <rect id="Rectangle_68" data-name="Rectangle 68" width="60.034" height="39.526" transform="translate(464.936 383.126) rotate(-90)" fill="#305da6"/>
          <rect id="Rectangle_69" data-name="Rectangle 69" width="56.729" height="32.043" transform="translate(472.42 383.126) rotate(-90)" fill="#3e78d6"/>
          <path id="Path_60" data-name="Path 60" d="M464.936,353.021l38.2-29.93H480.15L464.936,335.01Z" fill="#fff" opacity="0.1" style="mix-blend-mode: overlay;isolation: isolate"/>
          <path id="Path_61" data-name="Path 61" d="M504.462,333.665,464.936,364.63v18.5h13.289l26.237-20.554Z" fill="#fff" opacity="0.1" style="mix-blend-mode: overlay;isolation: isolate"/>
          <g id="Group_20" data-name="Group 20">
            <rect id="Rectangle_70" data-name="Rectangle 70" width="171.41" height="6.583" transform="translate(270.88 413.621)" fill="#dde0e6"/>
            <g id="Group_19" data-name="Group 19">
              <rect id="Rectangle_71" data-name="Rectangle 71" width="36.966" height="93.68" transform="translate(336.203 319.941)" fill="#dde0e6"/>
              <rect id="Rectangle_72" data-name="Rectangle 72" width="87.379" height="30.664" transform="translate(370.018 323.092) rotate(90)" fill="#305da6"/>
              <rect id="Rectangle_73" data-name="Rectangle 73" width="84.073" height="19.636" transform="translate(370.018 326.397) rotate(90)" fill="#3e78d6"/>
              <rect id="Rectangle_74" data-name="Rectangle 74" width="87.379" height="1.407" transform="translate(340.761 323.092) rotate(90)" opacity="0.2" style="mix-blend-mode: overlay;isolation: isolate"/>
              <rect id="Rectangle_75" data-name="Rectangle 75" width="69.121" height="66.336" transform="translate(373.169 319.941)" fill="#dde0e6"/>
              <rect id="Rectangle_76" data-name="Rectangle 76" width="60.034" height="62.819" transform="translate(376.32 383.126) rotate(-90)" fill="#305da6"/>
              <rect id="Rectangle_77" data-name="Rectangle 77" width="56.729" height="56.729" transform="translate(382.41 383.126) rotate(-90)" fill="#3e78d6"/>
              <rect id="Rectangle_78" data-name="Rectangle 78" width="6.92" height="96.044" transform="translate(329.283 317.578)" fill="#f2ba63"/>
              <rect id="Rectangle_79" data-name="Rectangle 79" width="113.007" height="2.363" transform="translate(329.283 317.578)" fill="#f2ba63"/>
              <rect id="Rectangle_80" data-name="Rectangle 80" width="59.978" height="1.407" transform="translate(377.726 323.092) rotate(90)" opacity="0.2" style="mix-blend-mode: overlay;isolation: isolate"/>
              <path id="Path_62" data-name="Path 62" d="M339.354,365.486l30.664-24.022V323.452l-30.664,24.022Z" fill="#fff" opacity="0.1" style="mix-blend-mode: overlay;isolation: isolate"/>
              <path id="Path_63" data-name="Path 63" d="M419.381,383.126l19.758-15.479V349.636l-42.749,33.49Z" fill="#fff" opacity="0.1" style="mix-blend-mode: overlay;isolation: isolate"/>
              <path id="Path_64" data-name="Path 64" d="M376.32,348.423V377.99l62.819-49.213v-5.685H408.654Z" fill="#fff" opacity="0.1" style="mix-blend-mode: overlay;isolation: isolate"/>
              <path id="Path_65" data-name="Path 65" d="M339.354,406.949l30.664-24.022V353.36l-30.664,24.023Z" fill="#fff" opacity="0.1" style="mix-blend-mode: overlay;isolation: isolate"/>
            </g>
            <rect id="Rectangle_81" data-name="Rectangle 81" width="171.41" height="47.24" transform="translate(270.88 366.381)" fill="#fff" opacity="0.8"/>
            <rect id="Rectangle_82" data-name="Rectangle 82" width="159.257" height="6.583" transform="translate(283.033 420.204)" opacity="0.2" style="mix-blend-mode: overlay;isolation: isolate"/>
            <rect id="Rectangle_83" data-name="Rectangle 83" width="2.194" height="47.24" transform="translate(270.88 366.381)" fill="#eef1f7"/>
            <rect id="Rectangle_84" data-name="Rectangle 84" width="2.194" height="47.24" transform="translate(440.096 366.381)" fill="#eef1f7"/>
            <path id="Path_66" data-name="Path 66" d="M331.023,366.381,270.88,413.5v.124h22.833l60.3-47.24Z" fill="#fff" opacity="0.8"/>
            <path id="Path_67" data-name="Path 67" d="M327.7,413.621h49.119l60.3-47.24H388Z" fill="#fff" opacity="0.8"/>
          </g>
          <rect id="Rectangle_85" data-name="Rectangle 85" width="39.526" height="2.363" transform="translate(464.936 339.779)" fill="#dde0e6"/>
        </g>
        <g id="Group_24" data-name="Group 24">
          <rect id="Rectangle_86" data-name="Rectangle 86" width="49.879" height="68.699" transform="translate(587.357 386.277) rotate(180)" fill="#f2ba63"/>
          <rect id="Rectangle_87" data-name="Rectangle 87" width="45.827" height="66.336" transform="translate(583.306 386.277) rotate(180)" fill="#dde0e6"/>
          <rect id="Rectangle_88" data-name="Rectangle 88" width="60.034" height="39.526" transform="translate(540.63 383.126) rotate(-90)" fill="#305da6"/>
          <rect id="Rectangle_89" data-name="Rectangle 89" width="56.729" height="32.043" transform="translate(540.63 383.126) rotate(-90)" fill="#3e78d6"/>
          <path id="Path_68" data-name="Path 68" d="M540.63,353.021l38.2-29.93H555.843L540.63,335.01Z" fill="#fff" opacity="0.1" style="mix-blend-mode: overlay;isolation: isolate"/>
          <path id="Path_69" data-name="Path 69" d="M580.156,333.665,540.63,364.63v18.5h13.289l26.237-20.554Z" fill="#fff" opacity="0.1" style="mix-blend-mode: overlay;isolation: isolate"/>
          <g id="Group_23" data-name="Group 23">
            <rect id="Rectangle_90" data-name="Rectangle 90" width="171.41" height="6.583" transform="translate(774.212 420.204) rotate(180)" fill="#dde0e6"/>
            <g id="Group_22" data-name="Group 22">
              <rect id="Rectangle_91" data-name="Rectangle 91" width="36.966" height="93.68" transform="translate(708.889 413.621) rotate(180)" fill="#dde0e6"/>
              <rect id="Rectangle_92" data-name="Rectangle 92" width="87.379" height="30.664" transform="translate(705.738 323.092) rotate(90)" fill="#305da6"/>
              <rect id="Rectangle_93" data-name="Rectangle 93" width="84.073" height="19.636" transform="translate(694.71 326.397) rotate(90)" fill="#3e78d6"/>
              <rect id="Rectangle_94" data-name="Rectangle 94" width="87.379" height="1.407" transform="translate(705.738 323.092) rotate(90)" opacity="0.2" style="mix-blend-mode: overlay;isolation: isolate"/>
              <rect id="Rectangle_95" data-name="Rectangle 95" width="69.121" height="66.336" transform="translate(671.923 386.277) rotate(180)" fill="#dde0e6"/>
              <rect id="Rectangle_96" data-name="Rectangle 96" width="60.034" height="62.819" transform="translate(605.953 383.126) rotate(-90)" fill="#305da6"/>
              <rect id="Rectangle_97" data-name="Rectangle 97" width="56.729" height="56.729" transform="translate(605.953 383.126) rotate(-90)" fill="#3e78d6"/>
              <rect id="Rectangle_98" data-name="Rectangle 98" width="6.921" height="96.044" transform="translate(715.809 413.621) rotate(180)" fill="#f2ba63"/>
              <rect id="Rectangle_99" data-name="Rectangle 99" width="113.007" height="2.363" transform="translate(715.809 319.941) rotate(180)" fill="#f2ba63"/>
              <rect id="Rectangle_100" data-name="Rectangle 100" width="59.978" height="1.407" transform="translate(668.772 323.092) rotate(90)" opacity="0.2" style="mix-blend-mode: overlay;isolation: isolate"/>
              <path id="Path_70" data-name="Path 70" d="M675.074,365.486l30.664-24.022V323.452l-30.664,24.022Z" fill="#fff" opacity="0.1" style="mix-blend-mode: overlay;isolation: isolate"/>
              <path id="Path_71" data-name="Path 71" d="M649.014,383.126l19.758-15.479V349.636l-42.749,33.49Z" fill="#fff" opacity="0.1" style="mix-blend-mode: overlay;isolation: isolate"/>
              <path id="Path_72" data-name="Path 72" d="M605.953,348.423V377.99l62.819-49.213v-5.685H638.287Z" fill="#fff" opacity="0.1" style="mix-blend-mode: overlay;isolation: isolate"/>
              <path id="Path_73" data-name="Path 73" d="M675.074,406.949l30.664-24.022V353.36l-30.664,24.023Z" fill="#fff" opacity="0.1" style="mix-blend-mode: overlay;isolation: isolate"/>
            </g>
            <rect id="Rectangle_101" data-name="Rectangle 101" width="171.41" height="47.24" transform="translate(774.212 413.621) rotate(180)" fill="#fff" opacity="0.8"/>
            <rect id="Rectangle_102" data-name="Rectangle 102" width="159.257" height="6.583" transform="translate(762.059 426.787) rotate(180)" opacity="0.2" style="mix-blend-mode: overlay;isolation: isolate"/>
            <rect id="Rectangle_103" data-name="Rectangle 103" width="2.194" height="47.24" transform="translate(774.212 413.621) rotate(180)" fill="#eef1f7"/>
            <rect id="Rectangle_104" data-name="Rectangle 104" width="2.194" height="47.24" transform="translate(604.996 413.621) rotate(180)" fill="#eef1f7"/>
            <path id="Path_74" data-name="Path 74" d="M714.069,366.381,774.212,413.5v.124H751.379l-60.3-47.24Z" fill="#fff" opacity="0.8"/>
            <path id="Path_75" data-name="Path 75" d="M717.392,413.621H668.273l-60.3-47.24h49.119Z" fill="#fff" opacity="0.8"/>
          </g>
          <rect id="Rectangle_105" data-name="Rectangle 105" width="39.526" height="2.363" transform="translate(580.156 342.142) rotate(180)" fill="#dde0e6"/>
        </g>
      </g>
      <g id="Group_32" data-name="Group 32">
        <g id="Group_28" data-name="Group 28">
          <rect id="Rectangle_106" data-name="Rectangle 106" width="49.878" height="68.699" transform="translate(457.735 201.922)" fill="#f2ba63"/>
          <rect id="Rectangle_107" data-name="Rectangle 107" width="45.827" height="66.336" transform="translate(461.786 204.286)" fill="#dde0e6"/>
          <rect id="Rectangle_108" data-name="Rectangle 108" width="60.034" height="39.526" transform="translate(464.936 267.471) rotate(-90)" fill="#305da6"/>
          <rect id="Rectangle_109" data-name="Rectangle 109" width="56.729" height="32.043" transform="translate(472.42 267.471) rotate(-90)" fill="#3e78d6"/>
          <path id="Path_76" data-name="Path 76" d="M464.936,237.366l38.2-29.93H480.15l-15.213,11.918Z" fill="#fff" opacity="0.1" style="mix-blend-mode: overlay;isolation: isolate"/>
          <path id="Path_77" data-name="Path 77" d="M504.462,218.01l-39.526,30.965v18.5h13.289l26.237-20.554Z" fill="#fff" opacity="0.1" style="mix-blend-mode: overlay;isolation: isolate"/>
          <g id="Group_27" data-name="Group 27">
            <rect id="Rectangle_110" data-name="Rectangle 110" width="171.41" height="6.583" transform="translate(270.88 297.966)" fill="#dde0e6"/>
            <g id="Group_26" data-name="Group 26">
              <rect id="Rectangle_111" data-name="Rectangle 111" width="36.966" height="93.68" transform="translate(336.203 204.286)" fill="#dde0e6"/>
              <rect id="Rectangle_112" data-name="Rectangle 112" width="87.379" height="30.664" transform="translate(370.018 207.436) rotate(90)" fill="#305da6"/>
              <rect id="Rectangle_113" data-name="Rectangle 113" width="84.073" height="19.636" transform="translate(370.018 210.742) rotate(90)" fill="#3e78d6"/>
              <rect id="Rectangle_114" data-name="Rectangle 114" width="87.379" height="1.407" transform="translate(340.761 207.436) rotate(90)" opacity="0.2" style="mix-blend-mode: overlay;isolation: isolate"/>
              <rect id="Rectangle_115" data-name="Rectangle 115" width="69.121" height="66.336" transform="translate(373.169 204.286)" fill="#dde0e6"/>
              <rect id="Rectangle_116" data-name="Rectangle 116" width="60.034" height="62.819" transform="translate(376.32 267.471) rotate(-90)" fill="#305da6"/>
              <rect id="Rectangle_117" data-name="Rectangle 117" width="56.729" height="56.729" transform="translate(382.41 267.471) rotate(-90)" fill="#3e78d6"/>
              <rect id="Rectangle_118" data-name="Rectangle 118" width="6.92" height="96.044" transform="translate(329.283 201.922)" fill="#f2ba63"/>
              <rect id="Rectangle_119" data-name="Rectangle 119" width="113.007" height="2.363" transform="translate(329.283 201.922)" fill="#f2ba63"/>
              <rect id="Rectangle_120" data-name="Rectangle 120" width="59.978" height="1.407" transform="translate(377.726 207.436) rotate(90)" opacity="0.2" style="mix-blend-mode: overlay;isolation: isolate"/>
              <path id="Path_78" data-name="Path 78" d="M339.354,249.831l30.664-24.023V207.8l-30.664,24.023Z" fill="#fff" opacity="0.1" style="mix-blend-mode: overlay;isolation: isolate"/>
              <path id="Path_79" data-name="Path 79" d="M419.381,267.471l19.758-15.479V233.98l-42.749,33.49Z" fill="#fff" opacity="0.1" style="mix-blend-mode: overlay;isolation: isolate"/>
              <path id="Path_80" data-name="Path 80" d="M376.32,232.767v29.567l62.819-49.213v-5.685H408.654Z" fill="#fff" opacity="0.1" style="mix-blend-mode: overlay;isolation: isolate"/>
              <path id="Path_81" data-name="Path 81" d="M339.354,291.294l30.664-24.022V237.7l-30.664,24.023Z" fill="#fff" opacity="0.1" style="mix-blend-mode: overlay;isolation: isolate"/>
            </g>
            <rect id="Rectangle_121" data-name="Rectangle 121" width="171.41" height="47.241" transform="translate(270.88 250.725)" fill="#fff" opacity="0.8"/>
            <rect id="Rectangle_122" data-name="Rectangle 122" width="159.257" height="6.583" transform="translate(283.033 304.549)" opacity="0.2" style="mix-blend-mode: overlay;isolation: isolate"/>
            <rect id="Rectangle_123" data-name="Rectangle 123" width="2.194" height="47.241" transform="translate(270.88 250.725)" fill="#eef1f7"/>
            <rect id="Rectangle_124" data-name="Rectangle 124" width="2.194" height="47.241" transform="translate(440.096 250.725)" fill="#eef1f7"/>
            <path id="Path_82" data-name="Path 82" d="M331.023,250.725,270.88,297.842v.124h22.833l60.3-47.241Z" fill="#fff" opacity="0.8"/>
            <path id="Path_83" data-name="Path 83" d="M327.7,297.966h49.119l60.3-47.241H388Z" fill="#fff" opacity="0.8"/>
          </g>
          <rect id="Rectangle_125" data-name="Rectangle 125" width="39.526" height="2.363" transform="translate(464.936 224.123)" fill="#dde0e6"/>
        </g>
        <g id="Group_31" data-name="Group 31">
          <rect id="Rectangle_126" data-name="Rectangle 126" width="49.879" height="68.699" transform="translate(587.357 270.621) rotate(180)" fill="#f2ba63"/>
          <rect id="Rectangle_127" data-name="Rectangle 127" width="45.827" height="66.336" transform="translate(583.306 270.621) rotate(180)" fill="#dde0e6"/>
          <rect id="Rectangle_128" data-name="Rectangle 128" width="60.034" height="39.526" transform="translate(540.63 267.471) rotate(-90)" fill="#305da6"/>
          <rect id="Rectangle_129" data-name="Rectangle 129" width="56.729" height="32.043" transform="translate(540.63 267.471) rotate(-90)" fill="#3e78d6"/>
          <path id="Path_84" data-name="Path 84" d="M540.63,237.366l38.2-29.93H555.843L540.63,219.354Z" fill="#fff" opacity="0.1" style="mix-blend-mode: overlay;isolation: isolate"/>
          <path id="Path_85" data-name="Path 85" d="M580.156,218.01,540.63,248.974v18.5h13.289l26.237-20.554Z" fill="#fff" opacity="0.1" style="mix-blend-mode: overlay;isolation: isolate"/>
          <g id="Group_30" data-name="Group 30">
            <rect id="Rectangle_130" data-name="Rectangle 130" width="171.41" height="6.583" transform="translate(774.212 304.549) rotate(180)" fill="#dde0e6"/>
            <g id="Group_29" data-name="Group 29">
              <rect id="Rectangle_131" data-name="Rectangle 131" width="36.966" height="93.68" transform="translate(708.889 297.966) rotate(180)" fill="#dde0e6"/>
              <rect id="Rectangle_132" data-name="Rectangle 132" width="87.379" height="30.664" transform="translate(705.738 207.436) rotate(90)" fill="#305da6"/>
              <rect id="Rectangle_133" data-name="Rectangle 133" width="84.073" height="19.636" transform="translate(694.71 210.742) rotate(90)" fill="#3e78d6"/>
              <rect id="Rectangle_134" data-name="Rectangle 134" width="87.379" height="1.407" transform="translate(705.738 207.436) rotate(90)" opacity="0.2" style="mix-blend-mode: overlay;isolation: isolate"/>
              <rect id="Rectangle_135" data-name="Rectangle 135" width="69.121" height="66.336" transform="translate(671.923 270.621) rotate(180)" fill="#dde0e6"/>
              <rect id="Rectangle_136" data-name="Rectangle 136" width="60.034" height="62.819" transform="translate(605.953 267.471) rotate(-90)" fill="#305da6"/>
              <rect id="Rectangle_137" data-name="Rectangle 137" width="56.729" height="56.729" transform="translate(605.953 267.471) rotate(-90)" fill="#3e78d6"/>
              <rect id="Rectangle_138" data-name="Rectangle 138" width="6.921" height="96.044" transform="translate(715.809 297.966) rotate(180)" fill="#f2ba63"/>
              <rect id="Rectangle_139" data-name="Rectangle 139" width="113.007" height="2.363" transform="translate(715.809 204.286) rotate(180)" fill="#f2ba63"/>
              <rect id="Rectangle_140" data-name="Rectangle 140" width="59.978" height="1.407" transform="translate(668.772 207.436) rotate(90)" opacity="0.2" style="mix-blend-mode: overlay;isolation: isolate"/>
              <path id="Path_86" data-name="Path 86" d="M675.074,249.831l30.664-24.023V207.8l-30.664,24.023Z" fill="#fff" opacity="0.1" style="mix-blend-mode: overlay;isolation: isolate"/>
              <path id="Path_87" data-name="Path 87" d="M649.014,267.471l19.758-15.479V233.98l-42.749,33.49Z" fill="#fff" opacity="0.1" style="mix-blend-mode: overlay;isolation: isolate"/>
              <path id="Path_88" data-name="Path 88" d="M605.953,232.767v29.567l62.819-49.213v-5.685H638.287Z" fill="#fff" opacity="0.1" style="mix-blend-mode: overlay;isolation: isolate"/>
              <path id="Path_89" data-name="Path 89" d="M675.074,291.294l30.664-24.022V237.7l-30.664,24.023Z" fill="#fff" opacity="0.1" style="mix-blend-mode: overlay;isolation: isolate"/>
            </g>
            <rect id="Rectangle_141" data-name="Rectangle 141" width="171.41" height="47.241" transform="translate(774.212 297.966) rotate(180)" fill="#fff" opacity="0.8"/>
            <rect id="Rectangle_142" data-name="Rectangle 142" width="159.257" height="6.583" transform="translate(762.059 311.132) rotate(180)" opacity="0.2" style="mix-blend-mode: overlay;isolation: isolate"/>
            <rect id="Rectangle_143" data-name="Rectangle 143" width="2.194" height="47.241" transform="translate(774.212 297.966) rotate(180)" fill="#eef1f7"/>
            <rect id="Rectangle_144" data-name="Rectangle 144" width="2.194" height="47.241" transform="translate(604.996 297.966) rotate(180)" fill="#eef1f7"/>
            <path id="Path_90" data-name="Path 90" d="M714.069,250.725l60.143,47.116v.124H751.379l-60.3-47.241Z" fill="#fff" opacity="0.8"/>
            <path id="Path_91" data-name="Path 91" d="M717.392,297.966H668.273l-60.3-47.241h49.119Z" fill="#fff" opacity="0.8"/>
          </g>
          <rect id="Rectangle_145" data-name="Rectangle 145" width="39.526" height="2.363" transform="translate(580.156 226.487) rotate(180)" fill="#dde0e6"/>
        </g>
      </g>
      <rect id="Rectangle_146" data-name="Rectangle 146" width="479.036" height="12.733" transform="translate(283.033 166.781)" fill="#f4f8ff"/>
      <rect id="Rectangle_147" data-name="Rectangle 147" width="135.204" height="125.709" transform="translate(454.949 577.177)" fill="#305da6"/>
      <rect id="Rectangle_148" data-name="Rectangle 148" width="107.099" height="118.493" transform="translate(469.002 584.393)" fill="#3e78d6"/>
      <g id="Group_33" data-name="Group 33">
        <path id="Path_92" data-name="Path 92" d="M467.094,555.892v-42.6h8.481v15.225h4.017V513.291h8.48v42.6h-8.48V536.55h-4.017v19.342Z" fill="#cf383d"/>
        <path id="Path_93" data-name="Path 93" d="M496.652,553.139q-2.679-3.148-2.678-8.852V524q0-5.5,2.678-8.307t7.836-2.8q5.157,0,7.835,2.8T515,524v20.284q0,5.753-2.678,8.877t-7.835,3.125Q499.328,556.289,496.652,553.139Zm9.373-5.678a7.735,7.735,0,0,0,.4-2.777v-20.83a5.787,5.787,0,0,0-.372-2.256,1.478,1.478,0,0,0-1.513-.868q-2.133,0-2.133,3.223v20.78a6.721,6.721,0,0,0,.447,2.778,1.647,1.647,0,0,0,1.637.942A1.508,1.508,0,0,0,506.025,547.461Z" fill="#cf383d"/>
        <path id="Path_94" data-name="Path 94" d="M524.573,555.892V521.474h-5.059v-8.183h18.647v8.183H533.1v34.418Z" fill="#cf383d"/>
        <path id="Path_95" data-name="Path 95" d="M543.021,555.892v-42.6h17.061v8.232H551.7V529.8h8.034v8.035H551.7v9.769h8.927v8.283Z" fill="#cf383d"/>
        <path id="Path_96" data-name="Path 96" d="M565.933,555.892v-42.6h8.53v35.36h8.778v7.241Z" fill="#cf383d"/>
      </g>
      <path id="Path_97" data-name="Path 97" d="M454.949,643.271l84.368-66.094H504.5L454.949,616Z" fill="#fff" opacity="0.1" style="mix-blend-mode: overlay;isolation: isolate"/>
      <path id="Path_98" data-name="Path 98" d="M573.43,702.886l16.723-13.1V662.509l-51.54,40.377Z" fill="#fff" opacity="0.1" style="mix-blend-mode: overlay;isolation: isolate"/>
      <path id="Path_99" data-name="Path 99" d="M590.153,622.564V577.177H576.984l-122.034,95.6v30.107h32.675Z" fill="#fff" opacity="0.1" style="mix-blend-mode: overlay;isolation: isolate"/>
      <g id="Group_39" data-name="Group 39">
        <g id="Group_34" data-name="Group 34">
          <path id="Path_100" data-name="Path 100" d="M586.271,702.886H458.832V579.5H586.271Zm-126.089-1.35H584.921V580.848H460.182Z" fill="#20488a"/>
        </g>
        <g id="Group_35" data-name="Group 35">
          <rect id="Rectangle_149" data-name="Rectangle 149" width="1.35" height="122.038" transform="translate(521.876 580.173)" fill="#20488a"/>
        </g>
        <g id="Group_38" data-name="Group 38">
          <g id="Group_36" data-name="Group 36">
            <path id="Path_101" data-name="Path 101" d="M515.61,648.534h-2.933a4.161,4.161,0,0,1-4.157-4.156V632.393a4.161,4.161,0,0,1,4.157-4.156h2.933v1.35h-2.933a2.81,2.81,0,0,0-2.806,2.806v11.985a2.81,2.81,0,0,0,2.806,2.806h2.933Z" fill="#20488a"/>
          </g>
          <g id="Group_37" data-name="Group 37">
            <path id="Path_102" data-name="Path 102" d="M532.426,648.534h-2.933v-1.35h2.933a2.809,2.809,0,0,0,2.806-2.806V632.393a2.809,2.809,0,0,0-2.806-2.806h-2.933v-1.35h2.933a4.16,4.16,0,0,1,4.156,4.156v11.985A4.16,4.16,0,0,1,532.426,648.534Z" fill="#20488a"/>
          </g>
        </g>
      </g>
      <g id="Group_40" data-name="Group 40">
        <rect id="Rectangle_150" data-name="Rectangle 150" width="16.542" height="4.389" transform="translate(727.446 465.842)" fill="#fbd394"/>
        <rect id="Rectangle_151" data-name="Rectangle 151" width="16.542" height="4.389" transform="translate(745.506 465.842)" fill="#fbd394"/>
        <rect id="Rectangle_152" data-name="Rectangle 152" width="7.511" height="4.389" transform="translate(754.537 471.602)" fill="#fbd394"/>
        <rect id="Rectangle_153" data-name="Rectangle 153" width="16.542" height="4.389" transform="translate(727.446 454.322)" fill="#fbd394"/>
        <rect id="Rectangle_154" data-name="Rectangle 154" width="16.542" height="4.389" transform="translate(745.506 454.322)" fill="#fbd394"/>
        <rect id="Rectangle_155" data-name="Rectangle 155" width="16.542" height="4.389" transform="translate(736.476 460.082)" fill="#fbd394"/>
        <rect id="Rectangle_156" data-name="Rectangle 156" width="7.511" height="4.389" transform="translate(754.537 460.082)" fill="#fbd394"/>
        <rect id="Rectangle_157" data-name="Rectangle 157" width="16.542" height="4.389" transform="translate(745.506 442.802)" fill="#fbd394"/>
        <rect id="Rectangle_158" data-name="Rectangle 158" width="16.542" height="4.389" transform="translate(736.476 448.562)" fill="#fbd394"/>
        <rect id="Rectangle_159" data-name="Rectangle 159" width="7.511" height="4.389" transform="translate(754.537 448.562)" fill="#fbd394"/>
      </g>
      <g id="Group_41" data-name="Group 41">
        <rect id="Rectangle_160" data-name="Rectangle 160" width="7.511" height="4.389" transform="translate(290.545 189.717) rotate(180)" fill="#fbd394"/>
        <rect id="Rectangle_161" data-name="Rectangle 161" width="16.542" height="4.389" transform="translate(317.636 206.997) rotate(180)" fill="#fbd394"/>
        <rect id="Rectangle_162" data-name="Rectangle 162" width="16.542" height="4.389" transform="translate(299.575 206.997) rotate(180)" fill="#fbd394"/>
        <rect id="Rectangle_163" data-name="Rectangle 163" width="16.542" height="4.389" transform="translate(308.605 201.237) rotate(180)" fill="#fbd394"/>
        <rect id="Rectangle_164" data-name="Rectangle 164" width="7.511" height="4.389" transform="translate(290.545 201.237) rotate(180)" fill="#fbd394"/>
        <rect id="Rectangle_165" data-name="Rectangle 165" width="16.542" height="4.389" transform="translate(299.575 218.517) rotate(180)" fill="#fbd394"/>
        <rect id="Rectangle_166" data-name="Rectangle 166" width="16.542" height="4.389" transform="translate(308.605 212.757) rotate(180)" fill="#fbd394"/>
      </g>
      <rect id="Rectangle_167" data-name="Rectangle 167" width="16.542" height="4.389" transform="translate(478.159 299.989)" fill="#fbc46e"/>
      <rect id="Rectangle_168" data-name="Rectangle 168" width="16.542" height="4.389" transform="translate(496.22 299.989)" fill="#fbc46e"/>
      <rect id="Rectangle_169" data-name="Rectangle 169" width="16.542" height="4.389" transform="translate(514.28 299.989)" fill="#fbc46e"/>
      <rect id="Rectangle_170" data-name="Rectangle 170" width="16.542" height="4.389" transform="translate(505.25 305.749)" fill="#fbc46e"/>
      <rect id="Rectangle_171" data-name="Rectangle 171" width="16.542" height="4.389" transform="translate(496.22 288.468)" fill="#fbc46e"/>
      <rect id="Rectangle_172" data-name="Rectangle 172" width="16.542" height="4.389" transform="translate(514.28 288.468)" fill="#fbc46e"/>
      <rect id="Rectangle_173" data-name="Rectangle 173" width="16.542" height="4.389" transform="translate(487.189 294.228)" fill="#fbc46e"/>
      <rect id="Rectangle_174" data-name="Rectangle 174" width="16.542" height="4.389" transform="translate(505.25 294.228)" fill="#fbc46e"/>
      <g id="Group_50" data-name="Group 50" opacity="0.3">
        <g id="Group_42" data-name="Group 42">
          <path id="Path_103" data-name="Path 103" d="M549.052,293.026h-7.275v-.338h6.937v-4.051h-16.2v4.051h3.19v.338h-3.528V288.3h16.88Z" fill="#fff"/>
        </g>
        <g id="Group_43" data-name="Group 43">
          <path id="Path_104" data-name="Path 104" d="M566.944,293.026h-16.71V288.3h16.71v.338H550.571v4.051h16.372Z" fill="#fff"/>
        </g>
        <g id="Group_44" data-name="Group 44">
          <path id="Path_105" data-name="Path 105" d="M540.021,298.617h-.338V294.4h-16.2v4.22h-.338V294.06h16.879Z" fill="#fff"/>
        </g>
        <g id="Group_45" data-name="Group 45">
          <path id="Path_106" data-name="Path 106" d="M530.991,281.506H514.28v-.338h16.373v-4.051H514.28v-.338h16.711Z" fill="#fff"/>
        </g>
        <g id="Group_46" data-name="Group 46">
          <path id="Path_107" data-name="Path 107" d="M549.052,281.506h-16.88v-4.558h.338v4.22h16.2v-4.22h.338Z" fill="#fff"/>
        </g>
        <g id="Group_47" data-name="Group 47">
          <path id="Path_108" data-name="Path 108" d="M567.113,281.506H550.233v-4.727h3.444v.338h-3.106v4.051h16.2v-4.051h-7.443v-.338h7.781Z" fill="#fff"/>
        </g>
        <g id="Group_48" data-name="Group 48">
          <path id="Path_109" data-name="Path 109" d="M540.021,287.266H523.142v-4.558h.338v4.22h16.2v-4.22h.338Z" fill="#fff"/>
        </g>
        <g id="Group_49" data-name="Group 49">
          <path id="Path_110" data-name="Path 110" d="M558.083,287.1h-.338v-4.22h-16.2v4.22H541.2V282.54h16.88Z" fill="#fff"/>
        </g>
      </g>
    </g>
    <g id="Group_55" data-name="Group 55">
      <path id="Path_111" data-name="Path 111" d="M616.78,92.105c-3.582,1.124-7.512-1.813-11.125-.182-3.753,1.694.4,5.073-3.42,6.8-3.752,1.693-7.9-1.686-11.721.037-3.75,1.693.4,5.072-3.415,6.8-3.752,1.693-7.9-1.686-11.721.037-3.751,1.693.4,5.072-3.418,6.8-3.751,1.693-7.9-1.686-11.719.037-3.752,1.694.4,5.073-3.419,6.8-3.751,1.693-7.9-1.686-11.72.037-3.75,1.693.4,5.072-3.416,6.794-3.751,1.693-7.9-1.686-11.719.037-3.751,1.693.4,5.072-3.417,6.795-3.751,1.693-7.9-1.686-11.719.037-3.75,1.692.4,5.071-3.414,6.793-3.751,1.693-7.9-1.686-11.719.037-3.749,1.692.4,5.071-3.413,6.793-3.75,1.692-7.9-1.687-11.717.036-.092.041-.159.088-.241.131,84.432,65.923,34.806,192.352,114.839,260.261.087-.047.158-.1.255-.14,3.752-1.693,7.9,1.686,11.72-.037,3.753-1.694-.4-5.073,3.421-6.8,3.751-1.694,7.9,1.686,11.72-.038,3.75-1.692-.4-5.071,3.416-6.794,3.751-1.693,7.9,1.686,11.72-.037,3.752-1.693-.4-5.073,3.418-6.8,3.751-1.694,7.9,1.686,11.72-.038,3.751-1.692-.4-5.072,3.418-6.795,3.752-1.693,7.9,1.686,11.72-.037,3.751-1.693-.4-5.072,3.416-6.794,3.751-1.694,7.9,1.686,11.719-.037,3.751-1.693-.4-5.073,3.418-6.795,3.75-1.693,7.9,1.686,11.718-.037,3.75-1.692-.4-5.071,3.414-6.793,3.751-1.693,7.9,1.686,11.719-.037,3.749-1.692-.4-5.071,3.414-6.793,3.554-1.6,7.449,1.336,11.1.19C647.209,286.431,696.834,160,616.78,92.105Z" fill="#fff"/>
      <path id="Path_112" data-name="Path 112" d="M624.235,136.078,537.76,175.107a128.637,128.637,0,0,0-13.4-19.436l86.476-39.03A128.659,128.659,0,0,1,624.235,136.078Z" fill="#a9cfeb"/>
      <g id="Group_52" data-name="Group 52">
        <path id="Path_113" data-name="Path 113" d="M631.483,170.231l-74.139,33.462q-.756-2.367-1.567-4.709,37.07-16.732,74.139-33.462Q630.726,167.863,631.483,170.231Z" fill="#a9cfeb"/>
        <path id="Path_114" data-name="Path 114" d="M634.96,182.2l-74.139,33.462q-.637-2.419-1.32-4.821,37.07-16.731,74.139-33.462Q634.322,179.784,634.96,182.2Z" fill="#a9cfeb"/>
        <path id="Path_115" data-name="Path 115" d="M637.911,194.413l-74.139,33.462q-.546-2.462-1.125-4.909l74.138-33.461Q637.366,191.951,637.911,194.413Z" fill="#a9cfeb"/>
        <path id="Path_116" data-name="Path 116" d="M640.464,206.8l-74.139,33.462q-.479-2.493-.982-4.974l74.139-33.462Q639.985,204.31,640.464,206.8Z" fill="#a9cfeb"/>
        <path id="Path_117" data-name="Path 117" d="M642.444,217.574,568.3,251.036q-.442-2.508-.9-5.011l74.139-33.461Q642,215.065,642.444,217.574Z" fill="#a9cfeb"/>
        <path id="Path_118" data-name="Path 118" d="M644.6,230.142,570.463,263.6q-.425-2.517-.853-5.032l74.139-33.462Q644.178,227.626,644.6,230.142Z" fill="#a9cfeb"/>
        <path id="Path_119" data-name="Path 119" d="M646.732,242.722l-74.138,33.462q-.432-2.514-.857-5.03l74.138-33.462Q646.3,240.208,646.732,242.722Z" fill="#a9cfeb"/>
        <path id="Path_120" data-name="Path 120" d="M648.965,255.256l-74.139,33.462q-.465-2.5-.913-5l74.138-33.462Q648.5,252.757,648.965,255.256Z" fill="#a9cfeb"/>
      </g>
      <g id="Group_53" data-name="Group 53">
        <path id="Path_121" data-name="Path 121" d="M586.615,360.246a130.017,130.017,0,0,0,16.46,24.518l-5.3,2.391a130.1,130.1,0,0,1-16.46-24.519Z" fill="#a9cfeb"/>
        <path id="Path_122" data-name="Path 122" d="M613.372,348.169a130.1,130.1,0,0,0,16.46,24.519l-5.295,2.39a130.02,130.02,0,0,1-16.46-24.519Z" fill="#a9cfeb"/>
        <path id="Path_123" data-name="Path 123" d="M621.227,344.624a130.062,130.062,0,0,0,16.46,24.518l-5.3,2.391a130.1,130.1,0,0,1-16.46-24.519Z" fill="#a9cfeb"/>
        <path id="Path_124" data-name="Path 124" d="M591.341,358.113a130.055,130.055,0,0,0,16.46,24.519l-2.167.977a130.067,130.067,0,0,1-16.46-24.518Z" fill="#a9cfeb"/>
        <path id="Path_125" data-name="Path 125" d="M596.066,355.98a130.1,130.1,0,0,0,16.46,24.519l-2.166.977a130.014,130.014,0,0,1-16.46-24.518Z" fill="#a9cfeb"/>
        <path id="Path_126" data-name="Path 126" d="M651.113,331.135a130.064,130.064,0,0,0,16.461,24.519l-2.167.977a130.1,130.1,0,0,1-16.46-24.518Z" fill="#a9cfeb"/>
        <path id="Path_127" data-name="Path 127" d="M655.839,329a130.1,130.1,0,0,0,16.46,24.519l-2.166.977a130.016,130.016,0,0,1-16.46-24.518Z" fill="#a9cfeb"/>
        <path id="Path_128" data-name="Path 128" d="M660.565,326.869a130.022,130.022,0,0,0,16.46,24.519l-2.167.977a130.065,130.065,0,0,1-16.46-24.518Z" fill="#a9cfeb"/>
        <path id="Path_129" data-name="Path 129" d="M665.29,324.736a130.073,130.073,0,0,0,16.46,24.519l-2.166.978a130.051,130.051,0,0,1-16.46-24.519Z" fill="#a9cfeb"/>
        <path id="Path_130" data-name="Path 130" d="M670.016,322.6a130.05,130.05,0,0,0,16.46,24.518l-2.166.978a130.061,130.061,0,0,1-16.461-24.519Z" fill="#a9cfeb"/>
        <path id="Path_131" data-name="Path 131" d="M674.741,320.471A130.052,130.052,0,0,0,691.2,344.989l-2.167.978a130.074,130.074,0,0,1-16.46-24.519Z" fill="#a9cfeb"/>
        <path id="Path_132" data-name="Path 132" d="M679.467,318.338a130.1,130.1,0,0,0,16.46,24.518l-2.166.978a130.046,130.046,0,0,1-16.46-24.518Z" fill="#a9cfeb"/>
        <path id="Path_133" data-name="Path 133" d="M684.193,316.2a130.015,130.015,0,0,0,16.46,24.518l-2.167.978a130.1,130.1,0,0,1-16.46-24.518Z" fill="#a9cfeb"/>
        <path id="Path_134" data-name="Path 134" d="M638.533,336.813a130.1,130.1,0,0,0,16.46,24.519l-5.295,2.39A130.061,130.061,0,0,1,633.237,339.2Z" fill="#a9cfeb"/>
        <path id="Path_135" data-name="Path 135" d="M630.678,340.358a130.106,130.106,0,0,0,16.46,24.519l-2.166.978a130.053,130.053,0,0,1-16.46-24.519Z" fill="#a9cfeb"/>
      </g>
      <g id="Group_54" data-name="Group 54">
        <path id="Path_136" data-name="Path 136" d="M622.705,304.194l-54.566,24.628c1.753,6.1,3.734,12.1,6.019,17.965l54.566-24.628C626.439,316.3,624.458,310.3,622.705,304.194Z" fill="#a9cfeb"/>
        <path id="Path_137" data-name="Path 137" d="M671.012,282.39l-36.783,16.6c1.753,6.1,3.734,12.1,6.019,17.966l36.783-16.6C674.746,294.493,672.765,288.493,671.012,282.39Z" fill="#a9cfeb"/>
      </g>
      <path id="Path_138" data-name="Path 138" d="M679.674,260.631,551.315,318.564q-.3-1.314-.586-2.632L679.087,258Q679.377,259.317,679.674,260.631Z" fill="#a9cfeb"/>
    </g>
    <g id="Group_57" data-name="Group 57">
      <rect id="Rectangle_175" data-name="Rectangle 175" width="271.42" height="494.89" rx="19.518" transform="translate(652.849 218.517)" fill="#1a64cc"/>
      <rect id="Rectangle_176" data-name="Rectangle 176" width="271.42" height="494.89" rx="19.518" transform="translate(672.597 218.517)" fill="#21b2ff"/>
      <rect id="Rectangle_177" data-name="Rectangle 177" width="481.387" height="257.917" rx="12.766" transform="translate(937.266 225.269) rotate(90)" fill="#fff"/>
      <path id="Path_139" data-name="Path 139" d="M762.069,271.773a45.781,45.781,0,0,0-45.781,45.781c0,35.943,45.781,78,45.781,78s45.781-42.06,45.781-78A45.781,45.781,0,0,0,762.069,271.773Zm0,68.689a22.908,22.908,0,1,1,22.907-22.908A22.907,22.907,0,0,1,762.069,340.462Z" fill="#cf383d"/>
      <path id="Path_140" data-name="Path 140" d="M839.7,249.831H776.912a7.344,7.344,0,0,1-7.343-7.343h0a7.343,7.343,0,0,1,7.343-7.342H839.7a7.343,7.343,0,0,1,7.343,7.342h0A7.344,7.344,0,0,1,839.7,249.831Z" fill="#21b2ff"/>
      <path id="Path_141" data-name="Path 141" d="M937.266,521.5l-189.2,52.838a57.7,57.7,0,0,0-1.865-10.045l-12.149-43.5L937.266,464.04V451.683l-14.683,4.1-19.52-69.895,34.2-9.552V363.98L856.623,386.5l-20.8-74.489a18.092,18.092,0,0,1,12.545-22.266l88.9-24.827v-9.087l-91.255,25.485a26.853,26.853,0,0,0-18.619,33.049l20.8,74.488L708.131,427.971,679.349,324.913v32.535L699.7,430.325l-20.353,5.684v12.357l23.554-6.578,19.52,69.9-43.074,12.029v12.357l46.275-12.923,12.149,43.5a49.357,49.357,0,0,1-18.9,53.378l-39.521,28.079v10.736l44.59-31.681a58.14,58.14,0,0,0,24.276-43.777l189.051-52.8ZM711.332,439.434l183.3-51.191,19.52,69.895-183.3,51.191Z" fill="#fbe2ba"/>
      <rect id="Rectangle_178" data-name="Rectangle 178" width="193.147" height="77.612" rx="11.219" transform="translate(711.734 588.625)" fill="#fbb03b"/>
      <g id="Group_56" data-name="Group 56">
        <path id="Path_142" data-name="Path 142" d="M743.721,628.09a4.63,4.63,0,0,1,.9,2.895,4.276,4.276,0,0,1-1.89,3.741,9.659,9.659,0,0,1-5.512,1.309h-9.57V617.528h9.041a8.847,8.847,0,0,1,5.195,1.3,4.1,4.1,0,0,1,1.811,3.516,4.449,4.449,0,0,1-2.459,4.072A4.878,4.878,0,0,1,743.721,628.09ZM731.9,620.754v4.362h4.256a4.3,4.3,0,0,0,2.406-.555,1.853,1.853,0,0,0,.82-1.639,1.82,1.82,0,0,0-.82-1.626,4.382,4.382,0,0,0-2.406-.542Zm7.548,11.5a1.9,1.9,0,0,0,.859-1.718q0-2.3-3.411-2.3h-5v4.573h5A4.751,4.751,0,0,0,739.452,632.254Z" fill="#fff"/>
        <path id="Path_143" data-name="Path 143" d="M751.639,635.109a9.21,9.21,0,0,1-3.621-3.424,9.84,9.84,0,0,1,0-9.808,9.214,9.214,0,0,1,3.621-3.423,11.451,11.451,0,0,1,10.377,0,9.439,9.439,0,0,1,0,16.655,11.451,11.451,0,0,1-10.377,0Zm8.156-3.159a5.412,5.412,0,0,0,2.076-2.1,6.62,6.62,0,0,0,0-6.133,5.412,5.412,0,0,0-2.076-2.1,6.189,6.189,0,0,0-5.921,0,5.4,5.4,0,0,0-2.076,2.1,6.613,6.613,0,0,0,0,6.133,5.4,5.4,0,0,0,2.076,2.1,6.189,6.189,0,0,0,5.921,0Z" fill="#fff"/>
        <path id="Path_144" data-name="Path 144" d="M773.952,635.109a9.209,9.209,0,0,1-3.621-3.424,9.84,9.84,0,0,1,0-9.808,9.214,9.214,0,0,1,3.621-3.423,11.45,11.45,0,0,1,10.377,0,9.439,9.439,0,0,1,0,16.655,11.45,11.45,0,0,1-10.377,0Zm8.156-3.159a5.413,5.413,0,0,0,2.076-2.1,6.621,6.621,0,0,0,0-6.133,5.412,5.412,0,0,0-2.076-2.1,6.189,6.189,0,0,0-5.921,0,5.4,5.4,0,0,0-2.076,2.1,6.612,6.612,0,0,0,0,6.133,5.4,5.4,0,0,0,2.076,2.1,6.189,6.189,0,0,0,5.921,0Z" fill="#fff"/>
        <path id="Path_145" data-name="Path 145" d="M799.24,628.764l-2.486,2.591v4.68H792.5V617.528h4.256v8.645l8.2-8.645h4.759l-7.667,8.249,8.116,10.258h-5Z" fill="#fff"/>
        <path id="Path_146" data-name="Path 146" d="M836.516,617.528v18.507H833L823.773,624.8v11.236h-4.23V617.528h3.542l9.2,11.236V617.528Z" fill="#fff"/>
        <path id="Path_147" data-name="Path 147" d="M844.671,635.109a9.21,9.21,0,0,1-3.621-3.424,9.841,9.841,0,0,1,0-9.808,9.214,9.214,0,0,1,3.621-3.423,11.45,11.45,0,0,1,10.377,0,9.439,9.439,0,0,1,0,16.655,11.45,11.45,0,0,1-10.377,0Zm8.157-3.159a5.41,5.41,0,0,0,2.075-2.1,6.621,6.621,0,0,0,0-6.133,5.41,5.41,0,0,0-2.075-2.1,6.191,6.191,0,0,0-5.922,0,5.406,5.406,0,0,0-2.076,2.1,6.621,6.621,0,0,0,0,6.133,5.406,5.406,0,0,0,2.076,2.1,6.191,6.191,0,0,0,5.922,0Z" fill="#fff"/>
        <path id="Path_148" data-name="Path 148" d="M890.58,617.528l-6.054,18.507h-4.6L875.855,623.5l-4.2,12.532h-4.574L861,617.528h4.441l4.177,13.008,4.363-13.008h3.965l4.23,13.114,4.309-13.114Z" fill="#fff"/>
      </g>
    </g>
    <g id="Group_70" data-name="Group 70">
      <g id="Group_58" data-name="Group 58">
        <path id="Path_149" data-name="Path 149" d="M900.379,440.289c2.132.424,2.638,2.567,6.4,2.906,4.9.441,9.63-5.547,5.558-8.05-.681-.419-8.8-5.269-12.3-5.213-1.381.021-8.412,4.647-7.741,8.328.166.9,1.641,5.118,8.336,6.617C902.828,445.369,898.682,439.951,900.379,440.289Z" fill="#ffb76e"/>
        <path id="Path_150" data-name="Path 150" d="M968.575,441.655c1.1-7.067,2.087-37.653,6.674-54.269,8.508-30.818,35.242-19.507,33.191,1.088-3.2,32.086-16.324,58.569-22.289,64.245C978.586,459.917,967.308,449.814,968.575,441.655Z" fill="#28b5db"/>
        <path id="Path_151" data-name="Path 151" d="M914.168,435.666c8.26,1.3,44.407,1.31,60.792-1.623,9.2-1.646,18.007,17.828,7.74,20.8-18.241,5.28-68.522-11.511-70.3-12.567C909.13,440.333,910.451,435.081,914.168,435.666Z" fill="#28b5db"/>
      </g>
      <g id="Group_61" data-name="Group 61">
        <g id="Group_60" data-name="Group 60">
          <path id="Path_152" data-name="Path 152" d="M997.035,703.5c-1.583.508-1.882-4.155-4.682-3.678s-1.762,2.17-7.391,5.063c-1.28.657,4.089,1.534,6.929,1.534S998.405,703.063,997.035,703.5Z" fill="#360f2c"/>
          <path id="Path_153" data-name="Path 153" d="M977.283,713.407h24.453s1.443-6.928-1.861-10.24c-1.422-1.425-5.389-3.667-11.646-.019C982.779,706.324,976.367,707.989,977.283,713.407Z" fill="#360f2c"/>
          <g id="Group_59" data-name="Group 59">
            <path id="Path_154" data-name="Path 154" d="M996.323,694.038c-1.727-.1-3.253-.147-4.333.447.295,2.893.229,4.5.537,6.766.278,2.051,6.169,3.088,6.593,1.327.561-2.333.626-4.186,1.29-7.505A17.524,17.524,0,0,0,996.323,694.038Z" fill="#ffb76e"/>
          </g>
        </g>
        <path id="Path_155" data-name="Path 155" d="M1002.745,472.865c4.672,9,11.037,17.273,10.644,32.788-.449,17.752-7.3,82.44-7.28,93.637s-1.43,93.549-1.783,95.889c-.342,2.273-18.486,3.689-19.3,1.379-.885-2.509-8.408-48.993-15.185-96.537-6.574-46.127-10.245-93.522-8.7-101.224C964.271,483.158,996.843,461.495,1002.745,472.865Z" fill="#20307a"/>
      </g>
      <g id="Group_64" data-name="Group 64">
        <g id="Group_63" data-name="Group 63">
          <path id="Path_156" data-name="Path 156" d="M936.661,703.5c-1.583.508-1.882-4.155-4.682-3.678s-1.762,2.17-7.391,5.063c-1.28.657,4.089,1.534,6.93,1.534S938.031,703.063,936.661,703.5Z" fill="#360f2c"/>
          <path id="Path_157" data-name="Path 157" d="M916.909,713.407h24.453s1.444-6.928-1.861-10.24c-1.421-1.425-5.389-3.667-11.646-.019C922.405,706.324,915.993,707.989,916.909,713.407Z" fill="#360f2c"/>
          <g id="Group_62" data-name="Group 62">
            <path id="Path_158" data-name="Path 158" d="M935.95,694.038c-1.727-.1-3.254-.147-4.334.447.3,2.893.23,4.5.538,6.766.278,2.051,6.168,3.088,6.592,1.327.561-2.333.626-4.186,1.29-7.505A17.529,17.529,0,0,0,935.95,694.038Z" fill="#ffb76e"/>
          </g>
        </g>
        <path id="Path_159" data-name="Path 159" d="M992.125,484.515a67.862,67.862,0,0,1-2.388,35.826c-5.446,16.552-27.836,72.461-30.984,82.988s-12.866,91.38-13.865,93.476c-.971,2.037-21.023,2.029-21.152-.379-.138-2.56-2.931-65.518,1.514-106.224,5.042-46.176,12.074-89.964,16.586-108.54C945.071,468.342,989.672,472.108,992.125,484.515Z" fill="#1a4ea0"/>
      </g>
      <path id="Path_160" data-name="Path 160" d="M985.055,341.047s.715,16.06,1.707,24.087c.166,1.345-2.143.636-7.275-.037-5.371-.7-9.371-.6-11.1-2.1-.931-.8,1.678-9.174.738-23.6C968.926,336.324,985.055,341.047,985.055,341.047Z" fill="#ffb76e"/>
      <g id="Group_65" data-name="Group 65">
        <path id="Path_161" data-name="Path 161" d="M971.309,332.395s8.186,27.683-8.234,26.571c-9.29-.628-13.559-32.653-8.767-37.576C957.243,318.376,971.309,332.395,971.309,332.395Z" fill="#ffc891"/>
        <path id="Path_162" data-name="Path 162" d="M968.391,339.029l.9,3.129s-1.467,1.977-.383,3.833,3.194,2.068,3.363,2.87a4.882,4.882,0,0,0,4.136,3.966c3.249.549,3.924-.168,5.7.591s3.165,1.983,5.36.253,1.6-3.375,3.165-3.755,4.135-3.8,3.059-6.33,2.469-1.836,2.912-6.9-.633-5.7-1.14-7.658,1.266-5.95-.886-9.305-3.038-2.6-4.241-3.355-.316-2.342-3.038-5.507-6.077-2.089-7.216-2.658-3.525-3.482-7.459-3.735-4.568,1.329-5.834,1.393-2.152-1.393-5.063-.7-2.912,2.342-4.178,2.785-3.8,0-5.221,1.52-.6,4.051-1.678,4.937a5.409,5.409,0,0,0-1.393,6.963c1.836,3.607,6.14,2.721,6.583,3.544s.886,3.66,2.6,4.583,3.482.734,3.925,1.684,1.139,4.048,2.278,4.84S968.391,339.029,968.391,339.029Z" fill="#360f2c"/>
        <path id="Path_163" data-name="Path 163" d="M965.348,336.072c.528,3.506,1.747,6.417,3.945,6.086s3.483-2.87,3.313-6.993c-.146-3.543-1.447-6.306-4.817-4.96C965.725,331.029,964.82,332.565,965.348,336.072Z" fill="#ffc891"/>
      </g>
      <g id="Group_68" data-name="Group 68">
        <path id="Path_164" data-name="Path 164" d="M988.942,365.554s-.948-8.876-3.027-9.725-10.561-1.736-16.427.248a14.737,14.737,0,0,0-8.144,6.456Z" fill="#2bd1ff"/>
        <path id="Path_165" data-name="Path 165" d="M1006.918,376.248c6.972,15.546,8.135,34.056,5.287,57.55s5.462,85.751,1.2,88.161c-30.889,17.47-82.028,3.649-79.913-6.33,15.191-71.678-2.409-121.77,4.443-138.351C948.659,351.33,1000.209,361.286,1006.918,376.248Z" fill="#00c8ff"/>
        <path id="Path_166" data-name="Path 166" d="M972.315,368.377a30.55,30.55,0,0,0-15.993-5.127c-8.946-.042-13.377,8.4-16.668,18.1s-2.194,40.848.844,54.182,18.82,15.36,18.82,15.36l1.941,5.571s-16.879.813-22.871-19.047-2.785-46.192-.338-56.826,9.009-18.545,17.787-18.968c15.761-.76,19.306,6.751,19.306,6.751Z" fill="#ff9a33"/>
        <path id="Path_167" data-name="Path 167" d="M984.553,359c5.894.62,19.242,1.951,25.994,11.045s8,44.308,9.79,51.651c5.57,22.876,7.09,43.211-18.9,44.9-20.1,1.306-31.124,1.887-36.628-2.7-6.683-5.571-10.059-19.412-6.683-39.329s9.05-28.73,10.063-57.3C968.477,359,980.505,358.573,984.553,359Z" fill="#ffb76e"/>
        <g id="Group_67" data-name="Group 67">
          <path id="Path_168" data-name="Path 168" d="M972.221,363.769c4.283,1.585,6.47,5.719,7.042,10.064.844,6.415-.149,13.036.36,19.5.265,3.373.452,7.168,3.691,9.075,2.716,1.6,6.274,1.659,9.33,1.748a57.247,57.247,0,0,0,10.074-.585c3.153-.469,9.157-1.014,8.9-5.368-.052-.868,1.3-.865,1.35,0,.374,6.329-9.147,6.713-13.474,7.1a54.78,54.78,0,0,1-10.917-.06,13.361,13.361,0,0,1-6.976-2.372c-1.941-1.557-2.649-3.8-2.98-6.184A80.536,80.536,0,0,1,978,385.473c.013-6.621,1.835-17.45-6.142-20.4C971.054,364.772,971.4,363.466,972.221,363.769Z" fill="#ff9a33"/>
          <path id="Path_169" data-name="Path 169" d="M993.932,399.91c2.383-.032,5.316.378,7.589-.407.823-.285,1.176,1.019.359,1.3-2.4.83-5.442.422-7.948.456A.676.676,0,0,1,993.932,399.91Z" fill="#ff9a33"/>
          <g id="Group_66" data-name="Group 66">
            <path id="Path_170" data-name="Path 170" d="M973.023,447.7c.74,4.044,1.922,8.96,5.3,11.654,3.125,2.49,7.324,3,11.184,3.157a82.574,82.574,0,0,0,18.128-1.291c3.965-.717,8.328-1.607,11.289-4.569,3.132-3.133,3.868-8.069,3.965-12.3.127-5.467-1.117-10.86-2.525-16.112a3.226,3.226,0,0,0-1.323-1.807c-4.412-3.01-9.779-2.772-14.916-2.551a156.612,156.612,0,0,0-20.044,1.817c-4.04.7-7.53,1.544-9.119,5.687A30.17,30.17,0,0,0,973.023,447.7Zm.906-3.732a25.039,25.039,0,0,1,.938-7.67c.575-2.178,1.091-5.065,2.656-6.769,1.48-1.612,3.893-1.98,5.938-2.359,2.521-.467,5.067-.806,7.616-1.073,4.648-.487,9.319-.708,13.987-.9,4.508-.188,9.378-.473,13.159,2.306a1.964,1.964,0,0,1,.908,1.338c1.17,4.99,2.468,10,2.417,15.151-.049,5.048-1.107,10.738-5.873,13.417-3.786,2.127-8.578,2.662-12.809,3.186a81.177,81.177,0,0,1-13.746.556c-3.972-.186-8.54-.853-11.212-4.12C975.19,453.7,974.135,448.12,973.929,443.964Z" fill="#ff9a33"/>
            <path id="Path_171" data-name="Path 171" d="M982.645,440.529c.076,4.784,5.347,3.986,8.643,3.847q4.462-.187,8.926-.375c2.739-.12,19.767-.268,18.133-5a.676.676,0,0,1,1.285-.416c2.385,6.911-15.06,6.571-18.517,6.729-4.617.211-9.3.628-13.918.565-3.244-.045-5.846-1.838-5.9-5.289A.676.676,0,0,1,982.645,440.529Z" fill="#ff9a33"/>
            <path id="Path_172" data-name="Path 172" d="M999.058,441.074l3.456-.151a.676.676,0,0,1,.06,1.349l-3.457.151A.676.676,0,0,1,999.058,441.074Z" fill="#ff9a33"/>
          </g>
        </g>
        <path id="Path_173" data-name="Path 173" d="M945.365,487.519a35.057,35.057,0,0,0,2.874,11.132c.212.47,1.34,3.428,2.259,2.885.037-.023-.906-2.236-.945-2.335q-.99-2.544-1.836-5.139a99.909,99.909,0,0,1-4.379-21.1c-.086-.864,1.265-.859,1.35,0a98.622,98.622,0,0,0,2.785,15.505q.967,3.652,2.217,7.222.695,1.98,1.473,3.931a6.547,6.547,0,0,1,.827,2.415,1.367,1.367,0,0,1-1.531,1.372c-1.516-.041-2.324-1.884-2.876-3a36.733,36.733,0,0,1-3.568-12.889C943.934,486.654,945.285,486.66,945.365,487.519Z" fill="#00aede"/>
      </g>
      <g id="Group_69" data-name="Group 69">
        <path id="Path_174" data-name="Path 174" d="M848.554,350.616c-.132,1.3-2.447,3.8-5.945,3.693s-6.014-2.691-6.245-6.538,1.056-4.638-.167-8.482-2.908-6.822-1.877-8.137,5.158.967,7.16,2.753S849.065,345.593,848.554,350.616Z" fill="#ffb76e"/>
        <path id="Path_175" data-name="Path 175" d="M891.717,380.179c7.028-1.323,42.169-10.5,59.51-15.68,22.122-6.608,19.241,31.022-.9,35.8-30.13,7.151-53.411,2.036-61.156-.76C877.538,395.341,878.3,382.707,891.717,380.179Z" fill="#2bd1ff"/>
        <path id="Path_176" data-name="Path 176" d="M848.151,349.98c6.262,5.54,30.63,24.211,46.019,30.558,8.64,3.564,5.659,22.2-4.594,19.176-18.216-5.366-45.542-43.268-46.472-45.114C841.393,351.2,845.333,347.486,848.151,349.98Z" fill="#2bd1ff"/>
      </g>
    </g>
    <g id="Group_81" data-name="Group 81">
      <g id="Group_72" data-name="Group 72">
        <g id="Group_71" data-name="Group 71">
          <path id="Path_177" data-name="Path 177" d="M1117.479,713.407h19.246s1.136-4.986-1.465-7.37c-1.119-1.025-3.86-2.164-8.785.461C1122.186,708.784,1116.757,709.508,1117.479,713.407Z" fill="#360f2c"/>
          <path id="Path_178" data-name="Path 178" d="M1133.351,696.6c.07,3.513.78,7.861.79,9.7.008,1.463-4.681,1.168-5.171-.179-.917-2.519-1.636-5.7-2.574-8.8Z" fill="#ffb76e"/>
        </g>
        <path id="Path_179" data-name="Path 179" d="M1144.578,474.34c5.8,6.681,11.062,15.7,10.616,31-.595,20.359-9.11,67.907-12.36,91.626-1.5,10.943-2.979,100.57-3.021,102.9-.078,4.325-19.663,5.176-20.4,1.276-.825-4.373-7.67-72-10.864-109.168-2.659-30.936-5.311-91.071-4.266-110.262C1105.033,467.951,1136.323,464.826,1144.578,474.34Z" fill="#20307a"/>
      </g>
      <g id="Group_74" data-name="Group 74">
        <g id="Group_73" data-name="Group 73">
          <path id="Path_180" data-name="Path 180" d="M1081.64,713.407h19.246s1.137-4.986-1.464-7.37c-1.119-1.025-3.86-2.164-8.785.461C1086.347,708.784,1080.919,709.508,1081.64,713.407Z" fill="#360f2c"/>
          <path id="Path_181" data-name="Path 181" d="M1101.134,697.9c-1.075,3.345-1.659,6.625-2.247,8.371-.468,1.387-4.678,1.015-4.7-.418-.049-2.68.017-6.288.137-9.527Z" fill="#ffb76e"/>
        </g>
        <path id="Path_182" data-name="Path 182" d="M1130.41,469.671c8.162,7.759,11.752,18,11.446,33.308-.349,17.515-19.694,79.248-20.784,90.242-1.67,16.85-12.719,104.507-13.036,106.815-.453,3.288-18.465,3.3-19.558-.656-.683-2.47-3.461-70.784-4.788-107.827-1.112-31.012,4.83-87.925,3.822-107.119C1086.79,470.672,1121.3,461.013,1130.41,469.671Z" fill="#1a4ea0"/>
      </g>
      <g id="Group_75" data-name="Group 75">
        <path id="Path_183" data-name="Path 183" d="M1087.147,439.62c2.916-7.573,16.568-49.111,24.081-66.446,8.594-19.83,30.86-12.523,21.782,15.256-9,27.526-24.064,47.992-31.988,59.722C1093.865,458.746,1083.781,448.362,1087.147,439.62Z" fill="#c93232"/>
        <path id="Path_184" data-name="Path 184" d="M1065.992,383.011c4.172,7.959,22.642,40.39,33.956,53.99,6.352,7.635-3.3,21.266-11.583,13.124-14.717-14.463-27.556-63.284-27.834-65.151C1060.2,382.764,1064.944,381.012,1065.992,383.011Z" fill="#c93232"/>
        <path id="Path_185" data-name="Path 185" d="M1055.548,378.414c1.377,1.4.514,3.141,3.551,5.928,2.123,1.948,7.013.845,6.1-3.256a17.1,17.1,0,0,0-5.6-8.5c-2.522-1.708-11.584.257-10.714,2.051C1049.925,376.765,1052.274,375.074,1055.548,378.414Z" fill="#ffb76e"/>
      </g>
      <path id="Path_186" data-name="Path 186" d="M1109.2,343.374a124.5,124.5,0,0,1,4.629,22.565c.346,3.257,13.936,2.794,13.462-2.017-.788-7.981-6.637-27.591-6.637-27.591Z" fill="#ffb76e"/>
      <g id="Group_77" data-name="Group 77">
        <path id="Path_187" data-name="Path 187" d="M1133.377,367.862s-2.926-10.459-5.715-12.446c-2.688-1.914-12.853.65-16.641,5.225s-4.579,10.478-3.924,10.478C1108.84,371.117,1133.377,367.862,1133.377,367.862Z" fill="#c93232"/>
        <path id="Path_188" data-name="Path 188" d="M1105.629,369.873c-8.52,11.285-17.349,32.977-18.955,42.423-1.2,7.031,1.522,16.27,2.473,22.927.859,6.012-12.358,70.735-10.1,110.895.268,4.763,4.069,12.19,36.069,14.027,24.974,1.433,38.759-4.183,40.108-12.023,12.241-71.135-5.733-155-19.694-180.094C1130.814,359.56,1116.36,355.661,1105.629,369.873Z" fill="#ff4d4d"/>
        <path id="Path_189" data-name="Path 189" d="M1135.953,378.008s-3.872-13.385-15.387-13.924-17.221,6.647-19.667,16.259,1.468,52.64,10.262,63.06,23.875,8.8,23.875,8.8l.917,2.7a30.449,30.449,0,0,1-28.379-8.624c-12.485-12.937-11.286-55.639-8.878-66.536s9.336-18.049,21.361-17.617,16,9.685,16.406,9.6S1135.953,378.008,1135.953,378.008Z" fill="#32b5d9"/>
        <path id="Path_190" data-name="Path 190" d="M1130.4,372.011c-.264-2.556-.593-7.278,4.743-8.551,16.535-3.942,29.548,7.943,38.243,42.906,8.764,35.236,7.332,58.586-15.765,59.849-37.377,2.044-27.807-14.792-26.9-44.457C1131.237,404.9,1132.138,388.833,1130.4,372.011Z" fill="#3bd5ff"/>
        <g id="Group_76" data-name="Group 76">
          <path id="Path_191" data-name="Path 191" d="M1139.035,366.59c7.5.765,10.339,8.31,11.874,14.659.94,3.889,1.8,7.963,4.286,11.21a9.959,9.959,0,0,0,12.354,3.044c.772-.368,1.451.783.674,1.153-6.866,3.276-13.445-.653-16.263-7.179-3.053-7.068-2.812-20.52-12.925-21.551C1138.188,367.839,1138.179,366.5,1139.035,366.59Z" fill="#32b5d9"/>
          <path id="Path_192" data-name="Path 192" d="M1132.685,445.644c.309,2.942.231,7.523,2.461,9.759,2.323,2.329,6.745,2.119,9.754,2.084,3.056-.036,6.389-.229,8.692-2.505,2.424-2.395,2.411-5.572,2.434-8.761a119.026,119.026,0,0,0-2.147-25.471,4.679,4.679,0,0,0-.935-1.9c-1.9-2.359-5.72-1.722-8.541-1.676-3.506.058-7.56.578-9.744,3.7-2.042,2.919-1.974,7.727-2.213,11.144A78.2,78.2,0,0,0,1132.685,445.644ZM1134,429.469c.462-4.5.8-9,5.8-10.45a22.958,22.958,0,0,1,6.274-.514c2.1-.016,4.729-.369,6.1,1.494a2.949,2.949,0,0,1,.4,1.049,119.167,119.167,0,0,1,2.115,24.747c-.023,4.343-.318,8.626-5.221,9.943a21.943,21.943,0,0,1-5.821.418c-2.111-.02-4.568,0-6.489-.995-2.31-1.192-2.393-4.022-2.734-6.311q-.489-3.285-.688-6.606A78.427,78.427,0,0,1,1134,429.469Z" fill="#32b5d9"/>
          <path id="Path_193" data-name="Path 193" d="M1135.021,432.58c.065-.852,1.4-.859,1.336,0-.105,1.383-.22,1.854.955,2.711a3.429,3.429,0,0,0,2.574.717c1.364.022,2.729.034,4.092-.011a38.588,38.588,0,0,0,3.975-.323c1.186-.164,2.342-.484,2.825-1.784a7.725,7.725,0,0,0-.246-2.562c-.12-.841,1.167-1.205,1.288-.356.213,1.494.852,3.818-.385,5.018-1.427,1.384-4.822,1.218-6.64,1.31-1.5.075-3,.071-4.5.05a10.094,10.094,0,0,1-3.443-.236C1135,436.358,1134.891,434.3,1135.021,432.58Z" fill="#32b5d9"/>
          <path id="Path_194" data-name="Path 194" d="M1142,432.9h2a.668.668,0,0,1,0,1.336h-2A.668.668,0,0,1,1142,432.9Z" fill="#32b5d9"/>
        </g>
        <path id="Path_195" data-name="Path 195" d="M1103.327,483.429c-.3-4.19-17.587-6.962-19.684-6.1-4.349,1.788-7.427,34.675-6.1,40.361s20.2,7.222,24.463,3.215S1104.663,502.423,1103.327,483.429Z" fill="#ff5959"/>
        <path id="Path_196" data-name="Path 196" d="M1081.931,482.49c.266-.818,1.52-.357,1.254.462-1.094,3.366,5.04,4.558,7.233,5.089,2.762.67,6.617,1.559,8.636-1.083.52-.682,1.617.082,1.093.768-2.629,3.44-7.427,2.335-11.026,1.35C1086.092,488.247,1080.528,486.808,1081.931,482.49Z" fill="#c93232"/>
      </g>
      <g id="Group_79" data-name="Group 79">
        <path id="Path_197" data-name="Path 197" d="M1028.539,379.857c1.955,3.83,3.573,3.936,4.418,6.813,1.143,3.889-1.6,6.543-4.666,5.215-2.569-1.111-4.572-5.172-5.3-8.35-.651-2.85,2.372-11.615,3.127-11.495.927.147,1.737,1.7,1.7,4.505A6.489,6.489,0,0,0,1028.539,379.857Z" fill="#ffc891"/>
        <path id="Path_198" data-name="Path 198" d="M1071.142,435.336c4.211-6.936,22.086-46.054,33.7-60.955,11.179-14.341,34.357-7.035,20.5,18.7-13.728,25.5-32.183,42.972-42.06,53.113C1074.367,455.349,1066.281,443.344,1071.142,435.336Z" fill="#ff5959"/>
        <path id="Path_199" data-name="Path 199" d="M1033.639,389.17c6.083,6.614,32.291,33.186,46.729,43.408,8.107,5.739,2.3,21.4-7.806,15.668-17.95-10.179-42.943-54.039-43.693-55.771C1027.98,390.424,1032.111,387.508,1033.639,389.17Z" fill="#ff5959"/>
        <g id="Group_78" data-name="Group 78">
          <path id="Path_200" data-name="Path 200" d="M1031.844,389.513h6.146a1.269,1.269,0,0,0,1.268-1.643l-4.462-19.551a2.185,2.185,0,0,0-2.018-1.643h-6.145a1.269,1.269,0,0,0-1.268,1.643l4.462,19.551A2.183,2.183,0,0,0,1031.844,389.513Z" fill="#0d61e0"/>
          <path id="Path_201" data-name="Path 201" d="M1032.813,389.513h6.145a1.269,1.269,0,0,0,1.268-1.643l-4.462-19.551a2.185,2.185,0,0,0-2.018-1.643H1027.6a1.269,1.269,0,0,0-1.268,1.643l4.462,19.551A2.183,2.183,0,0,0,1032.813,389.513Z" fill="#2da7ff"/>
          <path id="Path_202" data-name="Path 202" d="M1027.883,365.867c0,3.656,6.619,12.239,6.619,12.239s6.619-8.583,6.619-12.239a6.619,6.619,0,1,0-13.238,0Zm2.9,0a3.719,3.719,0,1,1,3.719,3.719A3.719,3.719,0,0,1,1030.783,365.867Z" fill="#c94b4f"/>
        </g>
        <path id="Path_203" data-name="Path 203" d="M1027,381.337c.719.1,1.476-2.267,1.811-3.7.435-1.86,1.954-.958,1.4,2.189-.394,2.258.674,8.085-1.193,9.018S1025.2,381.082,1027,381.337Z" fill="#ffc891"/>
      </g>
      <g id="Group_80" data-name="Group 80">
        <path id="Path_204" data-name="Path 204" d="M1088.642,332.569s5.383,29.377,17.929,27.587c13.081-1.866,6.707-21.829,4.61-25.72C1105.7,324.278,1088.642,332.569,1088.642,332.569Z" fill="#ffc891"/>
        <path id="Path_205" data-name="Path 205" d="M1113.036,340.29c.283.773-.835,1.212,0,3.384s1.783,1.781.229,3.378a4.255,4.255,0,0,0,.772,6.472c2.048,1.336.418,4.9,4.259,5.1s3.423,1.616,5.469,1.818,2.925-.977,4.425-.454,3.243,4.253,9.818,3.219c7.954-1.251,6.187-10.336,1.108-12.42-3.97-1.628-3.37-3.477-4.685-6.735s-3.248-4.2-3.79-6.018c-.626-2.1.909-5.12-2.1-7.847s-1.173-4.343-2.757-8.528c-1.1-2.9-4.673-2.534-6.03-4.2s-.919-5.152-5.365-6.667-5.7,1.439-7.2,1.212-4.258-2.046-6.888-.53-3.445,4.47-4.947,4.849-4.53-.329-6.492,2.146-.751,5.3-2.463,6.112-2.922,3.839-2.8,6.415.5,5.253,2.8,5.4,4.258-.656,5.678,1.263,6.282,2.753,8.975,1.238,3.068-.531,5.009.3S1112.324,338.346,1113.036,340.29Z" fill="#360f2c"/>
        <path id="Path_206" data-name="Path 206" d="M1107.973,339.935c.321-.971,2.334-3.487,4.329-2.281,3.241,1.96,2.853,8.406.806,8.626A4.763,4.763,0,0,1,1107.973,339.935Z" fill="#ffc891"/>
      </g>
    </g>
  </g>
</svg>
