<svg width="48" height="48" viewBox="0 0 48 48" fill="none" xmlns="http://www.w3.org/2000/svg">
<g clip-path="url(#clip0_13_16)">
<path d="M43.6172 37.3762L26.2416 47.4759C25.6256 47.8341 24.8128 48.0075 24 48C23.2331 47.9888 22.4747 47.8125 21.885 47.4759L4.39781 37.38C3.78937 37.0294 3.48468 36.5709 3.48468 36.1087C3.48468 35.6466 3.78468 35.1994 4.38187 34.8534L21.75 24.7575C22.3697 24.3994 23.1825 24.2259 24 24.2334C24.7669 24.2447 25.5291 24.4209 26.115 24.7575L43.6022 34.8534C44.8125 35.5509 44.8125 36.6797 43.6172 37.3762Z" fill="#557BEB"/>
<path d="M24 20.0822V48C23.2331 47.9887 22.4747 47.8125 21.885 47.4759L21.615 47.3222L4.39781 37.3847C3.78937 37.0341 3.48468 36.5756 3.48468 36.1134V11.8809L24 20.0822Z" fill="#7397EF"/>
<path d="M44.5144 11.8809V36.1087C44.5144 36.5709 44.2097 37.0294 43.6012 37.38L26.3691 47.3297L26.115 47.4759C25.5253 47.8125 24.7669 47.9878 24 48V20.0822L44.5144 11.8809Z" fill="#E9EEFC"/>
<path d="M26.3691 21.6225V47.3297L26.115 47.4759C25.5253 47.8125 24.7669 47.9878 24 48C23.2331 47.9887 22.4747 47.8125 21.885 47.4759L21.615 47.3222V21.6225H26.3691Z" fill="#8BAEF7"/>
<path d="M43.6022 10.6191L26.1141 0.523125C24.9066 -0.174375 22.9556 -0.174375 21.7556 0.523125L4.38188 10.62C3.18188 11.3175 3.18844 12.4472 4.39594 13.1447L21.8841 23.2406C23.0916 23.9381 25.0425 23.9381 26.2425 23.2406L43.6163 13.1437C44.8163 12.4462 44.8097 11.3166 43.6022 10.6191" fill="#557BEB"/>
<path d="M3.48563 23.7637L20.5331 32.9512C21.5941 33.5228 22.7817 33.8187 23.9869 33.8116C25.192 33.8046 26.3761 33.4949 27.4303 32.9109L44.5125 23.7384V27.2541L27.7631 36.4969C26.6042 37.1167 25.3096 37.4392 23.9954 37.4354C22.6812 37.4317 21.3884 37.1018 20.2331 36.4753L3.48563 27.1069" fill="#557BEB"/>
</g>
<defs>
<clipPath id="clip0_13_16">
<rect width="48" height="48" fill="white"/>
</clipPath>
</defs>
</svg>
