<svg xmlns="http://www.w3.org/2000/svg" width="1838.8102" height="518.333" viewBox="0 0 1838.8102 518.333"><defs><style>.cls-1{fill:#2090df;}.cls-2{fill:#47b0f6;}</style></defs><g id="Layer_2" data-name="Layer 2"><g id="Layer_1-2" data-name="Layer 1"><path class="cls-1" d="M366.0347,463.9535q.2471-.78.4751-1.5631Q366.2808,463.1728,366.0347,463.9535Z"/><path class="cls-1" d="M366.51,462.39q-.2265.7824-.4751,1.5631Q366.2818,463.1737,366.51,462.39Z"/><path class="cls-1" d="M401.5633,348.5253a119.9469,119.9469,0,0,0-110.5786-73.318H56.2472A72.547,72.547,0,0,1,0,217.6948v57.5125H.1475q0,2.8259.1664,5.6157.198,3.3585.6277,6.6537c.1029.7893.2127,1.5734.34,2.3592V288.58a94.1982,94.1982,0,0,0,93.0416,79.5823H290.9847a25.8643,25.8643,0,0,1,25.8536,25.7828,26.1875,26.1875,0,0,1-26.1744,25.9406H94.3228A94.1431,94.1431,0,0,0,.1475,514.0967H290.9847a119.5475,119.5475,0,0,0,31.3814-4.1521q1.0831-.2908,2.1611-.6057a120.0028,120.0028,0,0,0,46.224-25.5906q2.619-2.3266,5.1077-4.8214a119.927,119.927,0,0,0,33.7123-66.2233c.0394.175.0755.3483.1131.5233a120.9083,120.9083,0,0,0,1.331-17.9469A119.42,119.42,0,0,0,401.5633,348.5253ZM366.0347,463.9535q.2471-.78.4751-1.5631Q366.2833,463.1728,366.0347,463.9535Z"/><path class="cls-1" d="M366.51,462.39q-.2265.7824-.4751,1.5631Q366.2818,463.1737,366.51,462.39Z"/><path class="cls-2" d="M44.5681,63.0132c.1526-.5215.31-1.043.475-1.5611C44.8784,61.97,44.719,62.4917,44.5681,63.0132Z"/><path class="cls-2" d="M410.8547,250.1642q0-2.8254-.1664-5.613-.198-3.358-.6276-6.6543c-.1029-.7874-.2126-1.5731-.3395-2.3571v1.2557a94.18,94.18,0,0,0-93.0223-79.57H120.0776a25.2338,25.2338,0,0,1-2.78-.1509,25.8849,25.8849,0,0,1-23.0686-25.6274,26.1593,26.1593,0,0,1,22.1392-25.6206,25.8516,25.8516,0,0,1,4.03-.3139H316.6989A93.6646,93.6646,0,0,0,362.55,93.6052a94.17,94.17,0,0,0,48.3048-82.2894H120.0776a119.5169,119.5169,0,0,0-31.375,4.1514q-1.0829.2908-2.1606.6056A119.9721,119.9721,0,0,0,40.3275,41.659Q37.709,43.9878,35.2209,46.48a119.9077,119.9077,0,0,0-33.7053,66.212c-.0394-.175-.0755-.3482-.1132-.5232A120.9059,120.9059,0,0,0,.0718,130.1121,119.9452,119.9452,0,0,0,120.0776,250.1642h231.42a27.8781,27.8781,0,0,1,7.2885.9656,72.5538,72.5538,0,0,1,52.2164,56.537V250.1642ZM45.0431,61.4521c-.1647.5181-.3224,1.04-.475,1.5611C44.719,62.4917,44.8784,61.97,45.0431,61.4521Z"/><path class="cls-2" d="M44.5681,63.0132c.1509-.5215.31-1.043.475-1.5611C44.8784,61.97,44.7207,62.4917,44.5681,63.0132Z"/><path class="cls-2" d="M44.5681,63.0132c.1509-.5215.31-1.043.475-1.5611C44.8784,61.97,44.7207,62.4917,44.5681,63.0132Z"/><path class="cls-2" d="M487.5475,181.6621c2.4483,19.1865,11.8213,36.09,37.58,36.09,24.8272,0,34.0327-12.7739,34.0327-29.9878,0-19.0087-11.3906-30.0585-47.0093-44.0219-48.23-18.8208-67.1147-35.4531-67.1147-69.8247,0-37.11,29.0293-62.4541,79.9736-62.4541,63.37,0,78.9917,35.207,79.8247,65.3266H555.4133c-1.6158-13.227-5.7789-32.685-31.2857-32.685-19.9624,0-28.8872,10.6377-28.8872,26.3379,0,16.6552,9.0244,24.45,42.0459,37.0454,50.5435,19.1894,73.2271,37.8178,73.2271,76.5405,0,36.3271-27.3956,66.3647-86.9014,66.3647-64.7681,0-84.5034-34.0581-86.2686-68.7319Z"/><path class="cls-2" d="M695.6393,15.1021V246.4546H645.1188V15.1021Z"/><path class="cls-2" d="M918.2126,160.418c0-39.4976.833-84.607,1.666-110.8687h-1.1494c-9.7256,43.9346-25.34,122.0073-43.773,196.9053H829.4176c-13.6538-69.771-29.8344-152.8218-38.8764-197.5479h-1.5654c1.665,27.0127,2.914,75.4976,2.914,115.4629v82.085H745.7673V15.1021h75.39c14.75,63.936,27.6675,128.5341,33.3286,162.2919h.4165c5.729-31.3935,23.3755-101.0913,38.0757-162.2919h73.6069V246.4546h-48.372Z"/><path class="cls-2" d="M1014.8053,15.1025h84.7383c46.5459,0,81.4033,22.9092,81.4033,68.8135,0,44.7-31.5761,68.4424-85.3,68.4424h-30.3212v94.0962h-50.5206Zm50.5206,104.0122h24.624c27.99,0,40.3769-11.3769,40.3769-35.8007,0-23.1407-14.5537-34.667-37.68-34.667h-27.3212Z"/><path class="cls-2" d="M1212.5573,15.1021h50.5205V211.104h96.3857l-4.8964,35.3506h-142.01Z"/><rect class="cls-2" x="1386.4733" y="69.4673" width="49.7383" height="176.9873"/><path class="cls-2" d="M1479.0016,15.1025h144.8741V51.356H1529.155v59.4853h89.1591v35.6514H1529.155v99.9619h-50.1534Z"/><path class="cls-2" d="M1714.8669,246.4546V164.5854a14.2385,14.2385,0,0,0-1.9825-7.496L1641.91,15.1025h56.3174c15.7852,36.2564,35.0645,80.9073,43.44,106.2535,10.3086-28.398,29.6885-71.7476,43.9073-106.2539H1838.81L1767.0026,157.65a17.3048,17.3048,0,0,0-1.6152,7.7974v81.0068Z"/><path class="cls-1" d="M496.7341,449.6016c2.4482,19.1865,11.8212,36.09,37.58,36.09,24.8272,0,34.0327-12.7744,34.0327-29.9883,0-19.0078-11.3906-30.0576-47.0092-44.0215-48.23-18.82-67.1148-35.4531-67.1148-69.8242,0-37.11,29.0293-62.4551,79.9737-62.4551,63.37,0,78.9917,35.2071,79.8247,65.3272H564.6c-1.6157-13.2275-5.7788-32.6856-31.2857-32.6856-19.9624,0-28.8872,10.6387-28.8872,26.3379,0,16.6563,9.0244,24.45,42.0459,37.0459,50.5435,19.19,73.2271,37.8174,73.2271,76.5411,0,36.3271-27.3955,66.3642-86.9014,66.3642-64.7681,0-84.5034-34.0586-86.2685-68.7314Z"/><path class="cls-1" d="M693.4723,319.2949H633.2892V283.041H804.1755v36.2539H743.9928V514.3936h-50.52Z"/><path class="cls-1" d="M850.8488,456.165l-13.9849,58.2286h-50.52L851.5719,283.041h65.462l65.9443,231.3526h-52.919L916.0241,456.165Zm56.1978-35.9521c-10.5044-44.28-18.9131-76.6387-23.3433-98.7295h-1.1992c-3.43,21.2969-12.355,56.06-22.7276,98.7295Z"/><path class="cls-1" d="M1028.8122,514.3936V432.5244a14.2387,14.2387,0,0,0-1.9824-7.4961L955.8551,283.041h56.3174c15.7852,36.2569,35.0645,80.9072,43.4405,106.2539,10.3086-28.3974,29.6884-71.748,43.9072-106.2539h53.2353L1080.9479,425.59a17.3,17.3,0,0,0-1.6152,7.7969v81.0069Z"/><circle class="cls-2" cx="1411.1217" cy="28" r="28"/></g></g></svg>