<svg xmlns="http://www.w3.org/2000/svg" width="75.9652" height="92.3779" viewBox="0 0 75.9652 92.3779"><defs><style>.cls-1{fill:#ff6a8f;}.cls-2{fill:#4a8ce0;}</style></defs><g id="Layer_2" data-name="Layer 2"><g id="Layer_1-2" data-name="Layer 1"><path class="cls-1" d="M67.76,83.2342c.03-.0948.0591-.19.0866-.285Q67.8047,83.0919,67.76,83.2342Z"/><path class="cls-1" d="M67.8464,82.9492c-.0275.0951-.0566.19-.0866.285Q67.8048,83.092,67.8464,82.9492Z"/><path class="cls-1" d="M74.2409,62.1857a21.8826,21.8826,0,0,0-20.1719-13.37H11.2479A13.2314,13.2314,0,0,1,.9872,38.3284V48.8159h.0269q0,.5154.03,1.0241.0361.6124.1145,1.2133c.0188.1439.0388.2869.062.43v-.229a17.1816,17.1816,0,0,0,16.9727,14.512H54.069a4.7178,4.7178,0,0,1,4.7163,4.7015,4.7774,4.7774,0,0,1-4.7748,4.73H18.1937a17.1716,17.1716,0,0,0-17.18,17.1795H54.069a21.8162,21.8162,0,0,0,5.7247-.7571q.1976-.0531.3942-.1105A21.8929,21.8929,0,0,0,68.62,86.8438q.4778-.4242.9317-.8791a21.866,21.866,0,0,0,6.15-12.076c.0072.0319.0138.0635.0207.0954a22.0475,22.0475,0,0,0,.2428-3.2726A21.7687,21.7687,0,0,0,74.2409,62.1857ZM67.76,83.2342q.045-.1422.0866-.285C67.8189,83.0443,67.79,83.1394,67.76,83.2342Z"/><path class="cls-1" d="M67.8464,82.9492c-.0275.0951-.0566.19-.0866.285Q67.8048,83.092,67.8464,82.9492Z"/><path class="cls-2" d="M8.1188,9.4288q.0417-.1428.0866-.2848C8.1754,9.2385,8.1463,9.3336,8.1188,9.4288Z"/><path class="cls-2" d="M74.951,43.562q0-.5152-.03-1.0237-.0361-.6124-.1145-1.2137c-.0188-.1436-.0388-.2869-.062-.43v.229A17.1817,17.1817,0,0,0,57.7715,26.6115H21.8961a4.5938,4.5938,0,0,1-.5071-.0276A4.7217,4.7217,0,0,1,17.18,21.91a4.7767,4.7767,0,0,1,4.7747-4.73H57.7715a17.0948,17.0948,0,0,0,8.3659-2.1717A17.1739,17.1739,0,0,0,74.951,0H21.8961a21.8119,21.8119,0,0,0-5.7246.7572q-.1976.0529-.3942.11A21.8909,21.8909,0,0,0,7.345,5.5341q-.4777.4248-.9317.8792a21.8646,21.8646,0,0,0-6.15,12.076c-.0072-.032-.0137-.0636-.0206-.0955A22.0354,22.0354,0,0,0,0,21.6665,21.8829,21.8829,0,0,0,21.8961,43.562H64.1207a5.0874,5.0874,0,0,1,1.33.1761A13.2346,13.2346,0,0,1,74.9779,54.05V43.562ZM8.2054,9.144q-.045.1418-.0866.2848C8.1463,9.3336,8.1754,9.2385,8.2054,9.144Z"/><path class="cls-2" d="M8.1188,9.4288c.0275-.0952.0566-.19.0866-.2848Q8.16,9.2858,8.1188,9.4288Z"/><path class="cls-2" d="M8.1188,9.4288c.0275-.0952.0566-.19.0866-.2848Q8.16,9.2858,8.1188,9.4288Z"/></g></g></svg>