<svg xmlns="http://www.w3.org/2000/svg" width="56.8012" height="69.4632" viewBox="0 0 56.8012 69.4632"><defs><style>.cls-1{fill:#2090df;}.cls-2{fill:#47b0f6;}</style></defs><g id="Layer_2" data-name="Layer 2"><g id="Layer_1-2" data-name="Layer 1"><path class="cls-1" d="M50.585,62.5355q.0342-.1078.0657-.216Q50.6191,62.4277,50.585,62.5355Z"/><path class="cls-1" d="M50.6507,62.32q-.0313.1082-.0657.216Q50.6192,62.4277,50.6507,62.32Z"/><path class="cls-1" d="M55.495,46.5882A16.5772,16.5772,0,0,0,40.2133,36.4587H7.7732A10.0243,10.0243,0,0,1,0,28.5129v7.9458H.02q0,.39.023.7758.0273.4641.0867.9193c.0142.1091.0294.2174.047.326v-.1736a13.0168,13.0168,0,0,0,12.8581,10.995H40.2133a3.5737,3.5737,0,0,1,3.5729,3.5621,3.6192,3.6192,0,0,1-3.6172,3.5839H13.0352A13.0092,13.0092,0,0,0,.02,69.4632H40.2133A16.5251,16.5251,0,0,0,44.55,68.89q.15-.04.2987-.0837a16.5848,16.5848,0,0,0,6.388-3.5355q.3619-.3215.7059-.6661a16.5662,16.5662,0,0,0,4.6589-9.1493l.0157.0723a16.7023,16.7023,0,0,0,.1839-2.48A16.4945,16.4945,0,0,0,55.495,46.5882Zm-4.91,15.9473q.0342-.1078.0657-.216Q50.6194,62.4277,50.585,62.5355Z"/><path class="cls-1" d="M50.6507,62.32q-.0313.1082-.0657.216Q50.6192,62.4277,50.6507,62.32Z"/><path class="cls-2" d="M6.1592,7.1424c.0211-.072.0429-.1441.0656-.2157C6.2021,6.9983,6.18,7.07,6.1592,7.1424Z"/><path class="cls-2" d="M56.779,32.9988q0-.39-.023-.7755-.0273-.464-.0867-.9193c-.0142-.1088-.0294-.2174-.0469-.3257v.1735A13.0143,13.0143,0,0,0,43.7669,20.1585H16.5944a3.4822,3.4822,0,0,1-.3841-.0208,3.5767,3.5767,0,0,1-3.1881-3.5407,3.6144,3.6144,0,0,1,3.06-3.54,3.5715,3.5715,0,0,1,.5569-.0434H43.7669a12.9464,12.9464,0,0,0,6.3365-1.6451A13.01,13.01,0,0,0,56.779,0H16.5944a16.5183,16.5183,0,0,0-4.3359.5736q-.15.04-.2986.0836a16.58,16.58,0,0,0-6.3868,3.535q-.3618.3217-.7057.6659A16.5642,16.5642,0,0,0,.21,14.0059l-.0157-.0723A16.696,16.696,0,0,0,.01,16.4127,16.5751,16.5751,0,0,0,16.5944,32.9988H48.576a3.8536,3.8536,0,0,1,1.0072.1334,10.025,10.025,0,0,1,7.2162,7.811V32.9988ZM6.2248,6.9267c-.0227.0716-.0445.1437-.0656.2157C6.18,7.07,6.2021,6.9983,6.2248,6.9267Z"/><path class="cls-2" d="M6.1592,7.1424c.0208-.072.0429-.1441.0656-.2157C6.2021,6.9983,6.18,7.07,6.1592,7.1424Z"/><path class="cls-2" d="M6.1592,7.1424c.0208-.072.0429-.1441.0656-.2157C6.2021,6.9983,6.18,7.07,6.1592,7.1424Z"/></g></g></svg>