<svg width="48" height="48" viewBox="0 0 48 48" fill="none" xmlns="http://www.w3.org/2000/svg">
<path d="M24 44C23.7373 44.0001 23.4772 43.9484 23.2346 43.8479C22.9919 43.7474 22.7714 43.6001 22.5856 43.4144C22.3999 43.2286 22.2526 43.0081 22.1521 42.7654C22.0516 42.5228 21.9999 42.2627 22 42V6C22 5.46957 22.2107 4.96086 22.5858 4.58579C22.9609 4.21071 23.4696 4 24 4C24.5304 4 25.0391 4.21071 25.4142 4.58579C25.7893 4.96086 26 5.46957 26 6V42C26.0001 42.2627 25.9484 42.5228 25.8479 42.7654C25.7474 43.0081 25.6001 43.2286 25.4144 43.4144C25.2286 43.6001 25.0081 43.7474 24.7654 43.8479C24.5228 43.9484 24.2627 44.0001 24 44V44Z" fill="#D8D8FF"/>
<path d="M42 24L32 14V34L42 24Z" fill="#6563FF"/>
<path d="M32 36C31.4696 36 30.9609 35.7893 30.5858 35.4142C30.2107 35.0391 30 34.5304 30 34V14C30 13.6045 30.1173 13.2178 30.337 12.8889C30.5568 12.5601 30.8691 12.3037 31.2346 12.1524C31.6 12.001 32.0021 11.9614 32.3901 12.0386C32.778 12.1158 33.1343 12.3063 33.414 12.586L43.414 22.586C43.5998 22.7717 43.7471 22.9921 43.8477 23.2347C43.9482 23.4774 43.9999 23.7374 43.9999 24.0001C43.9999 24.2627 43.9482 24.5228 43.8477 24.7654C43.7471 25.008 43.5998 25.2285 43.414 25.4141L33.414 35.4141C33.2284 35.5999 33.008 35.7473 32.7653 35.8478C32.5227 35.9484 32.2626 36.0001 32 36V36ZM34 18.8281V29.1719L39.1719 24L34 18.8281Z" fill="#6563FF"/>
<path d="M6 26C5.67074 26.0031 5.3459 25.9241 5.05484 25.7701C4.76379 25.6161 4.51569 25.3921 4.33297 25.1181C4.15026 24.8442 4.03868 24.5291 4.00834 24.2012C3.978 23.8733 4.02984 23.543 4.15918 23.2402C4.26065 22.9977 4.40299 22.7744 4.58 22.58C4.9667 22.223 5.47365 22.0248 5.99992 22.0248C6.52619 22.0248 7.03314 22.223 7.41984 22.58C7.60045 22.7714 7.74298 22.9955 7.83984 23.2402C7.95198 23.4774 8.00684 23.7377 8 24C8.00256 24.2634 7.95258 24.5246 7.85297 24.7684C7.75337 25.0122 7.60615 25.2337 7.41992 25.4199C7.23369 25.6061 7.01219 25.7534 6.76839 25.853C6.52458 25.9526 6.26336 26.0026 6 26V26ZM9.58 30.42C9.20516 30.0425 8.99479 29.5321 8.99479 29.0001C8.99479 28.4681 9.20516 27.9577 9.58 27.5802C9.95728 27.2049 10.4678 26.9942 10.9999 26.9942C11.5321 26.9942 12.0426 27.2049 12.4198 27.5802C12.7943 27.9579 13.0043 28.4682 13.0043 29.0001C13.0043 29.5319 12.7943 30.0423 12.4198 30.42V30.42C12.0391 30.7894 11.5303 30.9972 10.9998 31V31C10.4694 30.9975 9.96049 30.7896 9.58 30.42V30.42ZM16 36C15.7367 36.0024 15.4755 35.9524 15.2317 35.8528C14.9879 35.7532 14.7663 35.6061 14.58 35.42C14.4034 35.2253 14.2611 35.0021 14.1591 34.7598C14.0569 34.5194 14.0028 34.2612 14 34C14.0074 33.4705 14.2145 32.9633 14.58 32.58C14.8664 32.311 15.2232 32.1288 15.609 32.0545C15.9948 31.9801 16.3938 32.0167 16.7597 32.16C17.002 32.2614 17.2253 32.4034 17.4198 32.58C17.785 32.9635 17.9921 33.4705 18 34C17.9968 34.2613 17.9424 34.5194 17.8398 34.7598C17.7378 35.0018 17.5959 35.225 17.4198 35.4199C17.2335 35.606 17.012 35.7531 16.7683 35.8527C16.5245 35.9523 16.2633 36.0024 16 36V36ZM14 27.3398C13.9989 27.0769 14.05 26.8164 14.1501 26.5732C14.2502 26.3301 14.3975 26.1092 14.5834 25.9233C14.7694 25.7373 14.9903 25.5901 15.2334 25.4899C15.4765 25.3898 15.7371 25.3388 16 25.3398V25.3398C16.2629 25.3389 16.5234 25.3899 16.7665 25.4901C17.0096 25.5903 17.2305 25.7375 17.4164 25.9235C17.6023 26.1094 17.7496 26.3302 17.8497 26.5733C17.9499 26.8164 18.001 27.0769 18 27.3398V27.3398C17.9983 27.8698 17.7871 28.3775 17.4124 28.7522C17.0376 29.1269 16.5299 29.3382 16 29.3398V29.3398C15.47 29.3383 14.9622 29.1271 14.5875 28.7524C14.2127 28.3776 14.0015 27.8698 14 27.3398V27.3398ZM14 20.6602C14.0015 20.1302 14.2127 19.6224 14.5875 19.2476C14.9622 18.8729 15.47 18.6617 16 18.6602C16.5299 18.6618 17.0376 18.8731 17.4124 19.2478C17.7871 19.6225 17.9983 20.1302 18 20.6602V20.6602C18.0008 20.923 17.9496 21.1835 17.8494 21.4265C17.7492 21.6695 17.6019 21.8903 17.416 22.0762C17.2301 22.2621 17.0093 22.4093 16.7663 22.5096C16.5233 22.6098 16.2629 22.661 16 22.6602V22.6602C15.7371 22.6611 15.4766 22.6099 15.2336 22.5097C14.9905 22.4095 14.7697 22.2623 14.5838 22.0764C14.3979 21.8905 14.2506 21.6696 14.1504 21.4266C14.0502 21.1835 13.9991 20.9231 14 20.6602V20.6602ZM16 16C15.6707 16.0031 15.3459 15.9241 15.0548 15.7701C14.7638 15.6161 14.5157 15.3921 14.333 15.1181C14.1503 14.8442 14.0387 14.5291 14.0083 14.2012C13.978 13.8733 14.0298 13.543 14.1592 13.2402C14.256 12.9953 14.3988 12.7712 14.58 12.58C14.81 12.3411 15.0965 12.1641 15.4131 12.0653C15.7297 11.9666 16.0661 11.9493 16.3911 12.0152C16.7161 12.081 17.0193 12.2277 17.2725 12.4419C17.5258 12.656 17.7209 12.9306 17.8398 13.2402C17.9694 13.5429 18.0215 13.8731 17.9914 14.2011C17.9613 14.529 17.8498 14.8442 17.6672 15.1182C17.4845 15.3922 17.2364 15.6164 16.9453 15.7703C16.6542 15.9243 16.3293 16.0032 16 16V16ZM9.58 20.42C9.20511 20.0425 8.99471 19.532 8.99471 19C8.99471 18.468 9.20511 17.9575 9.58 17.58V17.58C9.95728 17.2047 10.4678 16.994 11 16.994C11.5322 16.994 12.0427 17.2047 12.42 17.58V17.58C12.7944 17.9577 13.0045 18.4681 13.0045 18.9999C13.0045 19.5318 12.7944 20.0421 12.42 20.4198V20.4198C12.0393 20.7892 11.5305 20.997 11 20.9998V20.9998C10.4695 20.9974 9.96056 20.7896 9.58 20.42V20.42Z" fill="#B2B1FF"/>
</svg>
